<svg xmlns="http://www.w3.org/2000/svg" viewBox="0 0 96 96" id="accept"><path fill="#d5d6db" d="M50.1 96C75.4 96 96 75.4 96 50.1 96 24.8 75.4 4.2 50.1 4.2 24.8 4.2 4.2 24.8 4.2 50.1 4.2 75.4 24.8 96 50.1 96z"></path><path fill="#fff" d="M45.9 91.8c25.3 0 45.9-20.6 45.9-45.9C91.8 20.6 71.2 0 45.9 0 20.6 0 0 20.6 0 45.9c0 25.3 20.6 45.9 45.9 45.9z"></path><path fill="#3ea69b" d="M45.9 4.2v83.5C69 87.7 87.7 69 87.7 45.9S69 4.2 45.9 4.2z"></path><path fill="#44c4a1" d="M4.2 45.9c0 23.1 18.7 41.7 41.7 41.7V4.2c-23 0-41.7 18.7-41.7 41.7z"></path><path fill="#31978c" d="M37 70.6 17.1 50.7l8.6-8.6L37 53.4l29.2-29.1 8.6 8.5z"></path><path fill="#fff" d="M37 67.6 17.1 47.7l8.6-8.6L37 50.4l29.2-29.2 8.6 8.6z"></path></svg>