<svg xmlns="http://www.w3.org/2000/svg" viewBox="0 0 96 96" id="cancel"><path fill="#d5d6db" d="M50.1 4.2C24.8 4.2 4.2 24.8 4.2 50.1S24.8 96 50.1 96C75.4 96 96 76.7 96 50.1 96 24.8 75.4 4.2 50.1 4.2z"></path><path fill="#fff" d="M45.9 0C20.6 0 0 20.6 0 45.9s20.6 45.9 45.9 45.9c25.3 0 45.9-20.6 45.9-45.9S71.2 0 45.9 0z"></path><path fill="#e56353" d="M4.2 45.9c0 23.1 18.7 41.7 41.7 41.7V4.2c-23 0-41.7 18.7-41.7 41.7z"></path><path fill="#d15241" d="M45.9 4.2v83.5C69 87.7 87.7 69 87.7 45.9c0-23-18.7-41.7-41.8-41.7z"></path><path fill="#ce412d" d="M58.1 24 45.9 36.2 33.7 24 22.5 35.3l12.2 12.1-12.2 12.2 11.2 11.2 12.2-12.1 12.2 12.1 11.2-11.2-12.2-12.2 12.2-12.1z"></path><path fill="#fff" d="M58.1 21 45.9 33.2 33.7 21 22.5 32.2l12.2 12.2-12.2 12.2 11.2 11.2 12.2-12.2 12.2 12.2 11.2-11.2-12.2-12.2 12.2-12.2z"></path></svg>