<svg xmlns="http://www.w3.org/2000/svg" enable-background="new 0 0 24 24" viewBox="0 0 24 24" id="download"><g fill="#f8f9fa" class="color000000 svgShape"><path fill="#bbbbbb" d="M20,16v2c0,1.7-1.3,3-3,3H9c-1.7,0-3-1.3-3-3v-2h0.2c0.4,1.2,1.5,2,2.8,2h8c1.3,0,2.4-0.8,2.8-2H20z" class="colord2cdd3 svgShape"></path><path fill="#7298cd" d="M16.7,10.3c-0.4-0.4-1-0.4-1.4,0L13,12.6V5c0-0.6-0.4-1-1-1s-1,0.4-1,1v7.6l-2.3-2.3c-0.4-0.4-1-0.4-1.4,0
		s-0.4,1,0,1.4l4,4c0.1,0.1,0.2,0.2,0.3,0.2C11.7,16,11.9,16,12,16s0.3,0,0.4-0.1c0.1-0.1,0.2-0.1,0.3-0.2l4-4
		C17.1,11.3,17.1,10.7,16.7,10.3z" class="color262656 svgShape"></path><path fill="#7298cd" d="M16,20H8c-2.2,0-4-1.8-4-4v-2c0-0.6,0.4-1,1-1s1,0.4,1,1v2c0,1.1,0.9,2,2,2h8c1.1,0,2-0.9,2-2v-2
			c0-0.6,0.4-1,1-1s1,0.4,1,1v2C20,18.2,18.2,20,16,20z" class="color262656 svgShape"></path></g></svg>