<svg xmlns="http://www.w3.org/2000/svg" enable-background="new 0 0 512 512" viewBox="0 0 512 512" id="presents"><path fill="#fab991" d="M248,388h-68.118c-12.73,0-24.939,5.057-33.941,14.059L128,420l40,40l19.314-19.314
				c3.001-3.001,7.07-4.686,11.314-4.686H248c13.255,0,24-10.745,24-24v0C272,398.745,261.255,388,248,388z"></path><path fill="#f0915a" d="M363.314,376.686c-6.248-6.249-16.379-6.249-22.627,0L281.373,436h-82.745
				c-4.243,0-8.313,1.686-11.314,4.686L168,460l24,24l16-16h76.687c6.411,0,12.438-2.497,16.97-7.03l61.657-61.657
				C369.562,393.065,369.562,382.935,363.314,376.686z"></path><path fill="#f0915a" d="M248,425.333h-5.333c-4.418,0-8-3.582-8-8v-10.667c0-4.418,3.582-8,8-8H248
				c7.364,0,13.333,5.97,13.333,13.333l0,0C261.333,419.364,255.364,425.333,248,425.333z"></path><path fill="#555a6e" d="M125.657,417.657L168,460l-40,40H32l82.343-82.343C117.467,414.533,122.533,414.533,125.657,417.657z"></path><path fill="#463c4b" d="M168,460l26.343,26.343c3.124,3.124,3.124,8.19,0,11.314L192,500h-64L168,460z"></path><g><path fill="#a5c3dc" d="M232,12h-48c-4.418,0-8,3.582-8,8s3.582,8,8,8c30.879,0,56,25.121,56,56c0,2.122,0.843,4.157,2.343,5.657
			C243.844,91.157,245.878,92,248,92l48,0c4.418,0,8-3.582,8-8C304,44.299,271.701,12,232,12z"></path><path fill="#a5c3dc" d="M360,12h-48c-39.701,0-72,32.299-72,72c0,2.122,0.843,4.157,2.343,5.657C243.844,91.157,245.878,92,248,92
			l48,0c4.418,0,8-3.582,8-8c0-30.878,25.121-56,56-56c4.418,0,8-3.582,8-8S364.418,12,360,12z"></path><path fill="#a5c3dc" d="M384 12h-48c-4.418 0-8 3.582-8 8s3.582 8 8 8c13.233 0 24 10.766 24 24 0 13.234-10.767 24-24 24-4.418 0-8 3.582-8 8s3.582 8 8 8h48c22.056 0 40-17.944 40-40C424 29.944 406.056 12 384 12zM208 76c-13.233 0-24-10.766-24-24 0-13.234 10.767-24 24-24 4.418 0 8-3.582 8-8s-3.582-8-8-8h-48c-22.056 0-40 17.944-40 40 0 22.056 17.944 40 40 40h48c4.418 0 8-3.582 8-8S212.418 76 208 76z"></path><path fill="#e64178" d="M464 92H80c-8.837 0-16 7.163-16 16v32c0 8.837 7.163 16 16 16h384c8.837 0 16-7.163 16-16v-32C480 99.163 472.836 92 464 92zM432 388H112c-8.837 0-16-7.163-16-16V156h352v216C448 380.837 440.836 388 432 388z"></path><path fill="#ff6e91" d="M256 388H112c-8.837 0-16-7.163-16-16V156h176v216C272 380.837 264.836 388 256 388zM272 92H80c-8.837 0-16 7.163-16 16v32c0 8.837 7.163 16 16 16h192c8.837 0 16-7.163 16-16v-32C288 99.163 280.836 92 272 92z"></path><rect width="176" height="32" x="96" y="156" fill="#e64178"></rect><path fill="#d7e6f0" d="M208,372c0,8.837,7.163,16,16,16h0h-48c-8.837,0-16-7.163-16-16V156h48V372z"></path><path fill="#a5c3dc" d="M384,372c0,8.837-7.163,16-16,16h-48h0c8.837,0,16-7.163,16-16V156h48V372z"></path><rect width="48" height="32" x="160" y="156" fill="#a5c3dc"></rect><path fill="#d7e6f0" d="M184,140c0,8.837,7.163,16,16,16h0h-48c-8.837,0-16-7.163-16-16v-32c0-8.837,7.163-16,16-16h48h0
				c-8.837,0-16,7.163-16,16V140z"></path><path fill="#a5c3dc" d="M360,140c0,8.837-7.163,16-16,16h0h48c8.837,0,16-7.163,16-16v-32c0-8.837-7.163-16-16-16h-48h0
				c8.837,0,16,7.163,16,16V140z"></path><path fill="#d7e6f0" d="M336,92h-96v-8c0-39.701,32.299-72,72-72h24c22.056,0,40,17.944,40,40S358.056,92,336,92z M256.569,76H336
				c13.233,0,24-10.766,24-24s-10.767-24-24-24h-24C283.837,28,260.464,48.898,256.569,76z"></path><path fill="#d7e6f0" d="M248,92h-88c-22.056,0-40-17.944-40-40s17.944-40,40-40h24c39.701,0,72,32.299,72,72v8L248,92z M160,28
				c-13.233,0-24,10.766-24,24s10.767,24,24,24h79.431C235.536,48.898,212.163,28,184,28H160z"></path></g></svg>