<svg xmlns="http://www.w3.org/2000/svg" viewBox="0 0 32 32" id="Upload"><g fill="#f8f9fa" class="color000000 svgShape"><path fill="#bbbbbb" d="M23.78,10.54,18.12,4.88a3.08,3.08,0,0,0-4.24,0L8.22,10.54a1,1,0,0,0,0,1.41,1,1,0,0,0,1.42,0L15,6.59V21a1,1,0,0,0,2,0V6.59L22.36,12a1,1,0,0,0,.71.29,1,1,0,0,0,.71-.29A1,1,0,0,0,23.78,10.54Z" class="colorff64c8 svgShape"></path><path fill="#7298cd" d="M25,28H7a3,3,0,0,1-3-3V21a1,1,0,0,1,2,0v4a1,1,0,0,0,1,1H25a1,1,0,0,0,1-1V21a1,1,0,0,1,2,0v4A3,3,0,0,1,25,28Z" class="color5233ff svgShape"></path></g></svg>