<svg viewBox="0 0 24 24" xmlns:rdf="http://www.w3.org/1999/02/22-rdf-syntax-ns#" xmlns="http://www.w3.org/2000/svg" version="1.1" xmlns:cc="http://creativecommons.org/ns#" xmlns:dc="http://purl.org/dc/elements/1.1/" fill="#000000"><g id="SVGRepo_bgCarrier" strokeWidth="0"></g><g id="SVGRepo_tracerCarrier" strokeLinecap="round" strokeLinejoin="round"></g><g id="SVGRepo_iconCarrier"> <g transform="translate(0 -1028.4)"> <path d="m22 12a10 10 0 1 1 -20 0 10 10 0 1 1 20 0z" transform="translate(0 1029.4)" fill="#b41418"></path> <path d="m22 12a10 10 0 1 1 -20 0 10 10 0 1 1 20 0z" transform="translate(0 1028.4)" fill="#d54a47"></path> <path d="m11 1035.4v2h2v-2h-2zm-1 4-1 1h2v6h-2v1h1 4 1v-1h-2v-7h-3z" fill="#b41418"></path> <path d="m11 6v2h2v-2h-2zm-1 4l-1 1h2v6h-2v1h1 4 1v-1h-2v-7h-3z" transform="translate(0 1028.4)" fill="#ecf0f1"></path> </g> </g></svg>