<svg xmlns="http://www.w3.org/2000/svg" viewBox="0 0 1364 960" id="advertising-planning"><path fill="#F0F5FF" d="M1251.483 742.015c-21.717-8.424-45.659-7.139-68.815-5.838-13.93.783-30.561.187-38.113-11.955-11.021-17.719 9.626-40.237 29.798-43.078 20.172-2.839 41.095 4.259 60.847-.849 21.77-5.63 38.014-25.515 45.743-47.323 7.73-21.809 8.294-45.544 8.39-68.773.174-41.963-1.21-85.389-18.594-123.299-17.383-37.909-54.898-68.997-95.261-65.129-16.799 1.609-32.625 8.962-49.314 11.507-16.69 2.546-90.092-1.095-89.523-18.672.493-15.217 104.081-8.764 85.571-57.174-15.487-40.504-149.225-38.228-250.698-38.228H309.7c-31.343 0-32.18 1.459-51.286 9.018-22.794 9.019-35.445 31.506-45.906 50.392-9.485 17.125-8.475 38.961-17.689 56.249-10.516 19.734-31.791 29.45-50.135 41.195-31.47 20.149-58.039 50.922-68.012 88.309s-.941 81.328 27.031 106.577c38.669 34.902 96.191 25.601 146.917 21.325 14.523-1.224 33.027.755 37.744 15.299 5.542 17.09-14.084 31.279-30.886 34.733-33.939 6.977-69.305-.739-103.438 5.081-34.133 5.82-70.141 33.904-66.193 70.147 2.519 23.126 9.671 57.339 30.366 65.408 20.695 8.068 36.374 8.673 54.56 8.673 59.059 0 180.718 1.576 266.566-4.235l485.792 7.557c-9.79-.498 169.736-3.922 261.462.742 21.801 1.108 44.272 2.12 64.811-5.527 20.539-7.646 38.885-26.223 39.814-48.798.987-23.983-18.019-44.91-39.735-53.334z"></path><path fill="#3A4F89" d="M1283.325 851.158H80.674v-4.607h1202.651zM1131.582 881.869H926.498v-4.607h205.084zM885.89 881.869h-65.945v-4.607h65.944z"></path><path fill="#FFF" d="M336.157 256.136h688.448v430.697H336.157z"></path><path fill="#6674A8" d="M623.101 709.903h117.804v103.633H623.101z"></path><path fill="#515F94" d="M740.905 709.903v103.633h-15.907c1.127-10.36 2.395-41.549-19.14-65.455-19.95-22.114-62.807-24.658-82.757-24.47v-13.708h117.804z"></path><path fill="#6674A8" d="M800.244 813.536H563.761c-19.506 0-35.317 15.813-35.317 35.319h307.118c0-19.506-15.813-35.319-35.318-35.319z"></path><path fill="#A1A9C7" d="M1023.23 247.09H340.77c-5.612 0-10.165 4.554-10.165 10.167v448.201c0 5.612 4.554 10.164 10.165 10.164h682.46c5.619 0 10.166-4.553 10.166-10.164V257.257c-.001-5.613-4.547-10.167-10.166-10.167zm-6.78 419.395c0 5.986-4.835 10.839-10.804 10.839H354.253c-5.969 0-10.814-4.853-10.814-10.839V272.027c0-5.987 4.845-10.84 10.814-10.84h651.392c5.969 0 10.804 4.853 10.804 10.84v394.458z"></path><path fill="#FFF" d="M989.722 696.94h-27.536a3.985 3.985 0 0 1 0-7.968h27.536a3.985 3.985 0 0 1 0 7.968z"></path><path fill="#DFE2ED" d="M991.609 689.513c.312.568.538 1.19.538 1.887a3.984 3.984 0 0 1-3.984 3.984H960.63c-.698 0-1.319-.227-1.888-.542.678 1.231 1.939 2.098 3.443 2.098h27.536a3.985 3.985 0 0 0 3.984-3.984c.001-1.503-.866-2.767-2.096-3.443z"></path><path fill="#FFF" d="M950.47 696.94h-15.84a3.985 3.985 0 0 1 0-7.968h15.84a3.986 3.986 0 0 1 3.984 3.984 3.986 3.986 0 0 1-3.984 3.984z"></path><path fill="#DFE2ED" d="M951.578 689.197c.551.683.929 1.516.929 2.462 0 2.2-1.784 3.983-3.985 3.983h-15.84c-.393 0-.749-.116-1.109-.224.731.907 1.802 1.523 3.058 1.523h15.84a3.982 3.982 0 0 0 3.981-3.984c-.001-1.808-1.225-3.272-2.874-3.76z"></path><path fill="#FFF" d="M921.817 697.149h-15.841a3.984 3.984 0 0 1 0-7.968h15.841a3.984 3.984 0 0 1 3.981 3.984 3.981 3.981 0 0 1-3.981 3.984z"></path><path fill="#DFE2ED" d="M921.817 689.181h-.597c.477.657.815 1.424.815 2.298 0 2.2-1.781 3.983-3.983 3.983h-15.244c.726.996 1.843 1.687 3.168 1.687h15.841a3.982 3.982 0 0 0 3.981-3.984 3.983 3.983 0 0 0-3.981-3.984z"></path><path fill="#FFF" d="M884.885 692.956a6.123 6.123 0 0 1 6.124-6.123 6.124 6.124 0 1 1-6.124 6.123z"></path><path fill="#DFE2ED" d="M894.313 687.811c.613.954.978 2.084.978 3.303a6.125 6.125 0 0 1-6.125 6.125 6.084 6.084 0 0 1-3.302-.981 6.105 6.105 0 0 0 5.144 2.822 6.126 6.126 0 0 0 6.126-6.125 6.108 6.108 0 0 0-2.821-5.144z"></path><path fill="#515F94" d="M800.244 813.536H563.761c-10.977 0-20.782 5.008-27.261 12.862a35.19 35.19 0 0 1 13.927-2.86h236.481c16.03 0 29.544 10.687 33.859 25.317h14.794c.001-19.506-15.812-35.319-35.317-35.319z"></path><path fill="#B2C3D8" d="m828.444 312.02.029-6.682 140.127.603-.029 6.682zM782.94 337.56l.029-6.682 185.607.798-.029 6.682zM386.644 613.709l582.123-2.503.029 6.682-582.123 2.503zM386.6 638.881l582.123-2.503.03 6.682-582.124 2.503zM808.726 362.705l.026-6.125 159.794.687-.026 6.125zM745.162 416.662l.03-6.682 223.383.96-.029 6.683zM745.164 451.981l.028-6.682 223.384.96-.028 6.683zM745.164 487.3l.028-6.682 223.384.96-.028 6.683zM745.164 522.62l.029-6.683 223.384.96-.029 6.683zM745.164 557.938l.029-6.682 223.384.96-.029 6.683zM691.386 578.446h-304.29l-.514-168.291H690.87l.516 168.291zm-300.416-5.383h296.509l-.482-157.526h-296.51l.483 157.526z"></path><path fill="#B2C3D8" d="m688.523 467.574-299.209 1.771-.013-4.053 299.209-1.77zM688.523 528.29l-299.209 1.771-.013-4.053 299.209-1.77z"></path><path fill="#B2C3D8" d="m588.405 572.569-.489-158.184 3.515-.02.489 158.183zM486.537 572.569l-.489-158.184 3.515-.02.488 158.183z"></path><path fill="#EA5959" d="M433.127 350.857h-19.402l-2.695 9.129h-17.449l20.786-55.304h18.64l20.782 55.304h-17.896l-2.766-9.129zm-3.546-11.959-6.103-19.881-6.04 19.881h12.143zM459.448 304.682h25.389c5.003 0 9.047.679 12.127 2.037 3.081 1.358 5.627 3.307 7.639 5.847s3.471 5.495 4.376 8.865 1.358 6.941 1.358 10.714c0 5.91-.672 10.493-2.018 13.75-1.345 3.258-3.212 5.986-5.602 8.186-2.389 2.201-4.955 3.666-7.695 4.395-3.748 1.006-7.143 1.509-10.185 1.509h-25.389v-55.303zm17.089 12.524v30.217h4.187c3.571 0 6.112-.396 7.62-1.189 1.509-.792 2.691-2.175 3.546-4.149s1.283-5.174 1.283-9.601c0-5.859-.956-9.871-2.868-12.034-1.911-2.163-5.079-3.244-9.506-3.244h-4.262zM516.336 341.69l16.259-1.019c.352 2.641 1.069 4.653 2.15 6.036 1.76 2.239 4.275 3.358 7.546 3.358 2.439 0 4.319-.572 5.639-1.717 1.321-1.144 1.981-2.471 1.981-3.98 0-1.433-.63-2.716-1.886-3.848-1.258-1.132-4.175-2.201-8.752-3.207-7.494-1.684-12.839-3.923-16.033-6.715-3.219-2.792-4.829-6.35-4.829-10.676 0-2.841.824-5.527 2.471-8.054 1.648-2.528 4.124-4.514 7.433-5.96 3.306-1.446 7.84-2.17 13.599-2.17 7.067 0 12.455 1.315 16.165 3.943 3.71 2.628 5.916 6.809 6.62 12.543l-16.108.943c-.428-2.49-1.327-4.301-2.698-5.432s-3.263-1.698-5.677-1.698c-1.987 0-3.484.421-4.489 1.264-1.006.843-1.509 1.867-1.509 3.074 0 .881.415 1.673 1.245 2.376.804.73 2.716 1.409 5.734 2.037 7.469 1.61 12.82 3.238 16.051 4.885 3.231 1.648 5.583 3.691 7.055 6.13 1.471 2.44 2.207 5.169 2.207 8.186 0 3.546-.981 6.816-2.942 9.808-1.962 2.993-4.704 5.263-8.224 6.81-3.522 1.547-7.96 2.32-13.318 2.32-9.406 0-15.919-1.811-19.541-5.432-3.622-3.62-5.672-8.222-6.149-13.805z"></path><path fill="#B2C3D8" d="M604.132 298.963h136.773v68.393H604.132z"></path><circle cx="1200.017" cy="538.759" r="13.71" fill="#9FB3F4"></circle><circle cx="1159.676" cy="514.8" r="10.237" fill="#EA5959"></circle><circle cx="1201.723" cy="494.034" r="6.995" fill="#F7BD5A"></circle><circle cx="88.568" cy="601.293" r="13.71" fill="#9FB3F4"></circle><circle cx="123.279" cy="640.862" r="10.237" fill="#EA5959"></circle><circle cx="131.299" cy="596.595" r="6.995" fill="#F7BD5A"></circle><circle cx="539.849" cy="168.236" r="13.71" fill="#9FB3F4"></circle><circle cx="584.284" cy="132.834" r="10.237" fill="#EA5959"></circle><circle cx="614.973" cy="166.608" r="6.995" fill="#F7BD5A"></circle><path fill="#30334D" d="M204.339 716.103h5.512l86.297 128.278h-5.512z"></path><path fill="#30334D" d="M296.148 716.103h-5.512l-88.73 130.711h5.512z"></path><path fill="#30334D" d="M183.508 716.103h5.512l86.297 128.278h-5.512z"></path><path fill="#30334D" d="M275.317 716.103h-5.512l-88.73 130.711h5.512z"></path><path fill="#30334D" d="M183.697 706.109h93.794v9.994h-93.794zM242.625 670.989h-58.928l-16.829-84.435h75.757z"></path><path fill="#FFD4D1" d="M270.047 560.772c-.89-6.026-1.761-10.268-1.761-10.268s3.721-15.304-4.981-18.302c-6.745-2.323 1.754 11.604-1.397 10.46-3.15-1.143-4.42-4.478-5.826-3.057-2.237 2.259 3.111 11.857 3.111 11.857s-.179 2.434-.476 5.995l11.33 3.315z"></path><path fill="#F57171" d="M215.469 583.941c1.555 2.359 3.711 4.899 6.577 7.537 2.893 2.658 6.407 5.595 10.927 8.214 8.091 4.689 29.607 17.43 37.051 6.629 5.361-7.779 3.305-38.869-.738-50.356l-10.434-.141c-1.578 10.939-4.051 30.609-4.883 30.44-1.124-.251-20.184-24.962-41.472-21.856-3.635.53-2.156 2.454-7.321 3.325.462 2.768 9.468 11.094 10.293 16.208z"></path><path fill="#F9CBCB" d="m331.259 818.624.802 13.502 16.29.464.906-14.655z"></path><path fill="#32558F" d="M331.909 831.18c-2.846 4.442-3.401 9.663-1.805 15.614l38.451.768c3.552-16.258-14.425-10.278-20.102-16.267l-16.544-.115z"></path><path fill="#224275" d="m352.541 822.941-25.189.997c-1.023-12.114-13.19-68.588-11.223-98.672-22.878-8.076-97.836 10.81-92.6-63.38l18.139-8.513s82.274 11.406 99.488 39.22c12.026 19.431 13.766 89.079 11.385 130.348z"></path><path fill="#F9CBCB" d="m264.75 816.925-1.912 12.411 15.5 3.801 4.402-11.693z"></path><path fill="#32558F" d="m286.271 824.917-24.599-5.508c2.124-11.97 4.792-68.688 10.46-96.159-19.173-14.681-92.553-8.018-68.428-78.372l34.918-1.636s61.129 35.05 69.719 52.201c10.234 20.432-9.165 90.203-22.07 129.474z"></path><path fill="#E05151" d="M204.016 564.561s-26.64 8.057-20.111 37.715c7.007 31.825 16.224 71.352 16.224 71.352 21.764.183 55.78-11.943 58.26-21.578-15.24-36.46-4.769-37.97-18.673-71.472-4.856-11.702-19.924-18.948-19.924-18.948l-15.776 2.931z"></path><path fill="#395585" d="M214.901 549.357c-5.441 2.497-7.362 5.63-15.045 3.303-11.691-3.54-23.511-21.424-9.986-31.984.617-3.157 1.483-4.469 5.236-5.814 3.752-1.344 7.932-.182 13.244-.971 5.312-.789 12.125-7.258 17.781-.123 5.656 7.133-5.064 14.662-10.332 19.23-5.27 4.568-2.536 10.899-.898 16.359z"></path><path fill="#F9CBCB" d="M203.936 564.538c11.466 5.045 18.443 5.446 16.091-2.005l-2.829-10.947-1.186-4.61-12.764 1.673.135 2.937.553 12.952z"></path><path fill="#F0B4B4" d="M203.473 553.68c3.652 3.382 12.487 3.342 14.63 1.406l-2.091-8.109-13.543-3.705 1.004 10.408z"></path><path fill="#F9CBCB" d="M221.908 521.454c3.535 6.938 8.173 22.693 2.782 29.484-3.413 4.299-17.789 4.693-22.05-5.342-3.746-2.03-7.049-7.74-4.255-10.894 1.992-2.247 5.539 2.538 9.346 1.17 1.445-.519-4.425-9.857-.009-12.187 4.416-2.329 9.817.758 14.186-2.231z"></path><path fill="#32558F" d="M263.095 827.593c-3.656 3.804-5.216 8.817-4.808 14.964l37.566 8.233c6.647-15.257-12.15-12.888-16.554-19.867l-16.204-3.33z"></path><path fill="#FFD4D1" d="M187.593 652.628c7.853 8.544 39.08 9.56 53.908 9.561 4.802-.02 7.88-.12 7.88-.12 13.997 6.531 25.327-.915 24.114-4.387-1.213-3.472-11.44-3.145-14.732-4.311-5.024-1.819 2.962-4.111 1.133-6.406-1.859-2.282-9.937 3.534-9.937 3.534l-5.374-1.086-41.802-8.435.34-40.651c-4.5-26.756-14.457-20.832-20.032-9.513-5.561 11.349-5.12 51.342 4.502 61.814z"></path><path fill="#F57171" d="M187.811 657.216c8.205 8.206 40.445 4.962 55.273 4.964.997-4.221.567-9.041 1.502-12.767l-38.732-10.664s.109-26.264-.343-35.781c-1.288-27.101-17.263-36.148-25.314-17.399-4.988 11.613-.594 63.438 7.614 71.647z"></path><path fill="#30334D" d="M183.697 664.72h5.417v51.383h-5.417z"></path><path fill="#395585" d="M249.202 664.72h5.85v51.383h-5.85z"></path><path fill="#30334D" d="M183.697 664.72h71.355v6.269h-71.355z"></path><circle cx="290.176" cy="506.361" r="8.775" fill="#FFC257"></circle><path fill="#32558F" d="M273.607 550.618c-6.766-6.993-12.213-14.039-14.34-21.217l-5.031 2.8 10.198 23.942c.507 1.189 1.818 1.756 2.801 1.209l6.162-3.429c1.098-.612 1.206-2.276.21-3.305z"></path><circle cx="247.645" cy="529.193" r="3.701" fill="#32558F"></circle><path fill="#FFC257" d="M252.156 517.097c4.446-2.474 8.416-5.413 11.584-9.178l14.996-22.117 22.423 40.296-26.822.864c-4.869.707-9.701 2.357-14.147 4.831l-8.034-14.696z"></path><path fill="#FAE8C8" d="m277.932 503.229-4.964-8.92 5.768-8.506 22.423 40.296-26.822.864c-4.869.707-9.701 2.357-14.147 4.831l-3.003-5.397c-.001-.001 25.531-14.567 20.745-23.168z"></path><path fill="#32558F" d="m264.555 531.325-1.161.646a.806.806 0 0 1-1.097-.312l-8.956-16.095a.805.805 0 0 1 .312-1.096l1.161-.646a.807.807 0 0 1 1.097.313l8.956 16.095a.805.805 0 0 1-.312 1.095zM301.869 526.435l-1.632.908a1.133 1.133 0 0 1-1.541-.439l-22.127-39.765a1.133 1.133 0 0 1 .439-1.541l1.632-.908a1.133 1.133 0 0 1 1.541.439l22.127 39.765a1.133 1.133 0 0 1-.439 1.541z"></path><path fill="#FFC257" d="M251.945 516.874c-4.963 2.762-7.098 8.394-4.769 12.58 2.329 4.186 8.241 5.341 13.204 2.579l1.624-.903-8.436-15.16-1.623.904z"></path><path fill="#FAE8C8" d="M251.945 516.874c-.154.086-.306.175-.455.266l4.465 8.025c1.662 2.987-1.031 7.08-4.936 7.365-.23.017-.439.017-.619-.002 2.824 1.447 6.619 1.375 9.98-.495l1.624-.903-8.436-15.16-1.623.904z"></path><path fill="#E3C0C1" d="M867.34 336.372c4.095-20.751 6.331-37.718 5.762-52.665-.404-10.963-1.488-21.026-2.369-31.144l63.578-36.395 20.201-11.568H915.8s-55.222 17.904-64.588 33.512c-6.299 10.504-4.995 34.174-2.038 55.64a2318.491 2318.491 0 0 1 5.412 41.944l12.754.676z"></path><path fill="#30334D" d="m867.498 335.912 3.259 10.658-2.04 16.566-3.28.159-2.992-14.502-5.296 9.629c-1.426 2.593-3.567 4.714-6.502 5.094-7.74 1.003-22.865 1.264-23.492-3.814-.644-5.219 14.017-5.443 18.299-11.181 4.147-5.557 9.132-12.827 9.132-12.827l12.912.218z"></path><path fill="#2B497A" d="M849.407 303.047c7.235 1.542 15.478 1.231 24.221 0l-.527-19.341 47.527-53.896 13.682-13.644 11.588-11.568h-30.1s-59.042 17.97-66.853 34.412c-4.839 10.187-3.401 34.929.462 64.037z"></path><path fill="#F1CCCD" d="M913.889 321.761c-6.426-10.732-19.888-48.817-20.56-57.773 22.205-8.137 52.707-2.719 69.185-20.442 11.229-12.078 5.545-25.412 4.007-38.658-9.258-.738-22.599-2.609-30.719-.895-30.593 6.46-69.241 31.898-72.601 52.014-3.255 19.49 28.4 65.868 42.106 72.128 4.707.901 6.896-3.282 8.582-6.374z"></path><path fill="#32558F" d="M880.907 303.047c6.232-.136 18.822-8.006 21.761-10.604-3.621-9.542-4.99-17.049-7.644-25.469 17.032-6.155 34.63-6.66 52.241-11.683 5.343-1.524 13.339-6.237 16.238-10.922 7.767-12.556 7.248-25.245 4.513-38.586-.254-1.239.727.123-.492-.692-.385-.258 3.631.461-1.176-.114-4.807-.576-24.004-3.771-31.995-2.022-30.172 6.604-74.369 36.887-72.831 53.052 1.085 11.413 8.213 31.52 19.385 47.04z"></path><path fill="#30334D" d="M913.889 321.761c3.652 2.062 8.224 3.002 12.19 4.355 4.213 3.155 8.199 6.765 11.993 10.411-.77.776-1.536 1.557-2.305 2.333-4.64-2.093-9.21-4.436-13.81-6.563 1.521 2.812 3.334 6.718 4.858 9.286 1.524 2.568 1.421 5.81.373 7.726-2.76 5.05-12.837 18.207-18.077 15.544-5.241-2.663 4.274-15.545 2.346-20.792-1.928-5.246-3.968-10.754-6.149-15.927 2.793-2.301 5.602-4.363 8.581-6.373zM932.116 103.579s-9.717-8.235-3.516-18.457c6.078-10.019 21.681-7.91 24.489-2.148 5.542-.927 9.763 1.752 12.281 6.25 1.625 2.902 4.936 9.776 4.717 20.824-.195 9.802 8.168 13.069 11.251 22.096 3.49 10.219-1.902 11.975 5.203 25.748 5.859 11.358-1.361 18.359-8.985 17.115-9.388-1.533-57.567-16.803-57.567-16.803-1.424-.003-7.997-15.185-.467-22.716 11.824-11.826 5.289-24.118 12.594-31.909z"></path><path fill="#E6E6E6" d="M948.47 256.161c7.015-3.507 12.983-7.804 16.583-13.056 9.659-14.066 3.397-34.651 2.259-38.03-.111-.312-.166-.477-.166-.477h-.073l-9.843 4.094c7.011 17.777 3.01 33.387-8.76 47.469z"></path><path fill="#FFBC47" d="M928.975 163.843c-6.613 7.99-18.433 17.253-25.204 25.112-3.337-2.893-7.224-4.326-10.019-8.013 11.374-17.247 24.027-34.661 38.56-49.453-2.709 11.255-.175 21.264-3.337 32.354z"></path><path fill="#FFBC47" d="M913.008 205.534c15.573-2.075 28.355 4.389 44.222 3.158a52.39 52.39 0 0 0 5.876-.789c3.692-.734 6.262-4.113 5.877-7.859l-5.234-51.049-4.61-15.701-1.065-3.599-8.254-4.426-9.077.313c-13.535 5.876-22.869 21.779-14.66 39.352 7.971 17.077-13.075 40.6-13.075 40.6z"></path><path fill="#F1CCCD" d="M940.347 125.72c0 5.137 4.771 5.137 9.555 0l-1.123-6.21-.694-3.862-7.195 3.597-.53 6.336-.013.139z"></path><path fill="#F0AC35" d="M952.546 161.903c3.618 9.843 7.291 33.329 4.683 46.789a52.39 52.39 0 0 0 5.876-.789c3.692-.734 6.262-4.113 5.877-7.859l-5.234-51.049-4.61-15.701c-4.058 3.195-6.388 7.158-6.388 7.158s-4.648 9.46-.204 21.451z"></path><path fill="#F1CCCD" d="M908.878 188.048c4.131 6.284 6.658 5.153 12.195 5.487 7.083.568 14.922 1.099 22.214.529 8.799-.687 21.764 1.751 28.923-4.093 7.159-5.845-1.913-34.688-4.028-41.176-2.808-8.615-5.954-12.37-10.093-19.188 1.856 6.604 3.712 12.911 5.57 19.398-1.166 10.045-2.145 20.146-3.183 30.189-7.113.96-12.442 1.07-19.951 2.345-6.628 1.126-15.691 3.195-22.592 5.08-6.087-3.309-13.187-4.855-9.055 1.429z"></path><path fill="#FFBC47" d="M940.268 181.177c.742 4.014 2.094 9.366 3.133 13.536 9.306.436 20.504 2.272 29.181-5.032 8.677-7.303 2.835-36.888-.669-44.98-3.763-8.687-6.901-11.456-13.847-15.128-13.29 13.362-.263 30.752 1.441 48.466-6.582.838-12.69 2.073-19.239 3.138z"></path><path fill="#E3AFB0" d="M940.529 123.565c.542.349 1.903.66 2.652.532 2.984-.513 4.31-1.885 5.598-4.586l-.694-3.862-7.195 3.597-.361 4.319z"></path><path fill="#F1CCCD" d="M931.948 89.652c9.2-1.776 7.799 10.127 17.09 11.393 0 0 3.37-4.242 5.884-1.681 3.034 3.091-2.522 7.751-2.522 7.751-.493 8.141-6.35 14.599-12.42 13.074-13.803-3.469-8.032-30.537-8.032-30.537z"></path><path fill="#C8CBE3" d="m930.436 211.687-10.745-32.255a6.24 6.24 0 0 0-5.454-3.209H866.23c-4.515 0-7.535 4.646-5.701 8.771l12.485 28.09a6.716 6.716 0 0 0 6.137 3.988h47.403c2.792.001 4.765-2.735 3.882-5.385z"></path><circle cx="893.45" cy="198.791" r="4.556" fill="#FFF"></circle><path fill="#62C0A6" d="M93.218 433.175h71.359c7.321 0 13.256 5.935 13.256 13.255v35.205c0 7.321-5.935 13.255-13.256 13.255v10.447l-12.88-10.447H93.218c-7.321 0-13.256-5.935-13.256-13.255V446.43c0-7.321 5.935-13.255 13.256-13.255z"></path><path fill="#FFF" d="M164.169 461.352a4.766 4.766 0 1 0-9.532 0 4.766 4.766 0 0 0 9.532 0zM148.916 461.352a4.766 4.766 0 1 0-9.532 0 4.766 4.766 0 0 0 9.532 0zM133.664 461.352a4.766 4.766 0 1 0-9.533 0 4.766 4.766 0 0 0 9.533 0z"></path><circle cx="113.644" cy="461.925" r="4.766" fill="#FFF"></circle><path fill="#FFF" d="M103.158 462.211a4.766 4.766 0 1 0-9.533 0 4.766 4.766 0 0 0 9.533 0z"></path><path fill="#3A4F89" d="M924.624 557.335v277.446c0 6.593 5.34 11.933 11.933 11.933h184.964c6.593 0 11.933-5.34 11.933-11.933V557.335c0-6.593-5.34-11.933-11.933-11.933H936.557c-6.593 0-11.933 5.34-11.933 11.933z"></path><path fill="#9FB3F4" d="M1110.334 633.409h-162.59v-71.6h162.59z"></path><path fill="#EA5959" d="M924.624 651.308V834.78c0 6.593 5.34 11.933 11.933 11.933h184.964c6.593 0 11.933-5.34 11.933-11.933V651.308h-208.83z"></path><path fill="#3A4F89" d="M981.03 800.473h-32.549c-.824 0-1.492.668-1.492 1.492v18.552c0 .824.668 1.491 1.492 1.491h32.549c.824 0 1.492-.667 1.492-1.491v-18.552a1.493 1.493 0 0 0-1.492-1.492z"></path><path fill="#FFF" d="M981.03 757.403h-32.549c-.824 0-1.492.668-1.492 1.492v32.55c0 .824.668 1.492 1.492 1.492h32.549c.824 0 1.492-.668 1.492-1.492v-32.55a1.493 1.493 0 0 0-1.492-1.492zM1025.177 757.403h-32.549c-.824 0-1.492.668-1.492 1.492v32.55c0 .824.668 1.492 1.492 1.492h32.549c.824 0 1.492-.668 1.492-1.492v-32.55c0-.824-.668-1.492-1.492-1.492zM1069.323 757.403h-32.549c-.824 0-1.492.668-1.492 1.492v32.55c0 .824.668 1.492 1.492 1.492h32.549c.824 0 1.492-.668 1.492-1.492v-32.55c0-.824-.668-1.492-1.492-1.492zM981.03 714.333h-32.549c-.824 0-1.492.668-1.492 1.492v32.549c0 .824.668 1.492 1.492 1.492h32.549c.824 0 1.492-.668 1.492-1.492v-32.549a1.493 1.493 0 0 0-1.492-1.492zM1025.177 714.333h-32.549c-.824 0-1.492.668-1.492 1.492v32.549c0 .824.668 1.492 1.492 1.492h32.549c.824 0 1.492-.668 1.492-1.492v-32.549c0-.824-.668-1.492-1.492-1.492zM1069.323 714.333h-32.549c-.824 0-1.492.668-1.492 1.492v32.549c0 .824.668 1.492 1.492 1.492h32.549c.824 0 1.492-.668 1.492-1.492v-32.549c0-.824-.668-1.492-1.492-1.492zM981.03 671.263h-32.549c-.824 0-1.492.668-1.492 1.492v32.549c0 .824.668 1.492 1.492 1.492h32.549c.824 0 1.492-.668 1.492-1.492v-32.549a1.493 1.493 0 0 0-1.492-1.492zM1025.177 671.263h-32.549c-.824 0-1.492.668-1.492 1.492v32.549c0 .824.668 1.492 1.492 1.492h32.549c.824 0 1.492-.668 1.492-1.492v-32.549c0-.824-.668-1.492-1.492-1.492zM1069.323 671.263h-32.549c-.824 0-1.492.668-1.492 1.492v32.549c0 .824.668 1.492 1.492 1.492h32.549c.824 0 1.492-.668 1.492-1.492v-32.549c0-.824-.668-1.492-1.492-1.492z"></path><path fill="#3A4F89" d="M1025.177 800.473h-32.549c-.824 0-1.492.668-1.492 1.492v18.552c0 .824.668 1.491 1.492 1.491h32.549c.824 0 1.492-.667 1.492-1.491v-18.552c0-.824-.668-1.492-1.492-1.492zM1069.323 800.473h-32.549c-.824 0-1.492.668-1.492 1.492v18.552c0 .824.668 1.491 1.492 1.491h32.549c.824 0 1.492-.667 1.492-1.491v-18.552c0-.824-.668-1.492-1.492-1.492zM1106.871 757.403h-26.089c-.824 0-1.492.786-1.492 1.755v61.095c0 .969.668 1.754 1.492 1.754h26.089c.824 0 1.492-.785 1.492-1.754v-61.095c0-.969-.668-1.755-1.492-1.755zM1106.871 706.796h-26.089c-.824 0-1.492.954-1.492 2.131v38.808c0 1.177.668 2.131 1.492 2.131h26.089c.824 0 1.492-.954 1.492-2.131v-38.808c0-1.177-.668-2.131-1.492-2.131z"></path><circle cx="1093.346" cy="686.179" r="14.916" fill="#FFF"></circle><path fill="#E6E6E6" d="M949.102 835.097c-6.593 0-11.933-5.34-11.933-11.933V545.719c0-.107.013-.211.016-.317h-.627c-6.593 0-11.933 5.34-11.933 11.933V834.78c0 6.593 5.341 11.933 11.933 11.933h184.964c6.486 0 11.747-5.171 11.917-11.616H949.102z"></path><path fill="#E6E6E6" d="M947.745 561.809s53.301 71.769 162.589 71.599H947.745v-71.599z"></path><circle cx="868.521" cy="531.897" r="82.508" fill="gray"></circle><path fill="#EA5959" d="M903.866 449.629c-44.402-19.528-96.343.549-115.784 44.755-19.442 44.206.865 96.058 45.267 115.586 44.402 19.528 96.343-.549 115.784-44.756 19.442-44.205-.865-96.057-45.267-115.585zm-65.093 148.007c-37.631-16.55-54.78-60.338-38.302-97.803 16.477-37.465 60.34-54.42 97.971-37.87 37.631 16.55 54.78 60.338 38.303 97.802-16.478 37.466-60.341 54.421-97.972 37.871z"></path><path fill="#EA5959" d="m825.946 595.354 24.045 10.575-16.13 36.674-24.045-10.576z"></path><path fill="#EA5959" d="M851.848 628.409 761.26 834.385c-5.392 12.26-19.749 17.81-32.063 12.394-12.314-5.416-17.928-19.748-12.536-32.008l90.588-205.976 44.599 19.614z"></path><path fill="#F7BD5A" d="m771.024 812.185-9.764 22.201c-5.392 12.26-19.749 17.81-32.063 12.394-12.314-5.416-17.928-19.748-12.536-32.008l9.764-22.201 44.599 19.614z"></path><path fill="#3A4F89" d="m722.651 801.205 74.318-168.978 44.6 19.616-74.318 168.977z"></path><path fill="#F7BD5A" d="m789.467 770.249-2.17 4.934-26.388-11.605a2.709 2.709 0 0 1-1.393-3.556 2.63 2.63 0 0 1 1.496-1.418 2.656 2.656 0 0 1 2.067.04l26.388 11.605zM783.5 783.817l-2.17 4.933-26.388-11.605a2.709 2.709 0 0 1-1.393-3.556 2.63 2.63 0 0 1 1.496-1.418 2.645 2.645 0 0 1 2.066.041l26.389 11.605zM778.076 796.151l-2.17 4.933-26.388-11.605a2.707 2.707 0 0 1-1.392-3.556 2.627 2.627 0 0 1 1.495-1.417 2.652 2.652 0 0 1 2.067.04l26.388 11.605z"></path><path fill="#E1E9FF" d="M823.694 501.047a4.505 4.505 0 0 1-2.573 5.85 4.552 4.552 0 0 1-5.875-2.584 4.506 4.506 0 0 1 2.573-5.85 4.553 4.553 0 0 1 5.875 2.584zM815.103 512.015a2.94 2.94 0 0 1 1.516 3.871 2.94 2.94 0 0 1-3.878 1.499 2.94 2.94 0 0 1-1.516-3.871 2.94 2.94 0 0 1 3.878-1.499zM887.282 480.605c-15.879-5.888-33.86-1.626-45.329 10.744-2.96 3.136-7.651 4.741-11.11 2.788l-1.535-.941c-3.449-1.927-3.559-8.211.747-12.843 15.893-17.14 40.808-23.047 62.812-14.889 5.956 2.199 8.729 7.852 6.534 11.116l-.939 1.528c-2.192 3.291-7.108 3.965-11.18 2.497z"></path><path fill="#62C0A6" d="m418.14 122.648-61.455-13.759c-6.262-1.402-12.474 2.538-13.876 8.799l-11.268 50.329c-1.402 6.262 2.538 12.474 8.799 13.876l61.455 13.759c6.262 1.402 12.474-2.538 13.876-8.799l11.268-50.329c1.403-6.261-2.537-12.474-8.799-13.876z"></path><path fill="#CCC" d="M423.986 125.944c.425 1.7.474 3.522.065 5.349l-11.268 50.329c-1.402 6.262-7.614 10.201-13.876 8.799l-61.455-13.759a11.569 11.569 0 0 1-5.846-3.295c1.033 4.127 4.3 7.534 8.734 8.527l61.455 13.759c6.262 1.402 12.474-2.538 13.876-8.799l11.268-50.329a11.604 11.604 0 0 0-2.953-10.581z"></path><path fill="#FFF" d="M370.893 163.074c-1.944.458-3.703-1.264-3.286-3.217l2.07-9.699 2.07-9.699c.417-1.953 2.726-2.807 4.313-1.595l9.8 7.48 8.641 6.596c1.827 1.394 1.21 4.285-1.027 4.813l-10.58 2.493-12.001 2.828z"></path><path fill="#FFF" d="M373.943 175.431c-13.166-2.948-21.48-16.058-18.532-29.224 2.948-13.167 16.058-21.48 29.224-18.532 13.167 2.948 21.48 16.058 18.532 29.224-2.948 13.166-16.058 21.48-29.224 18.532zm10.311-46.058c-12.23-2.738-24.408 4.984-27.146 17.214-2.738 12.23 4.984 24.408 17.214 27.146 12.23 2.738 24.408-4.984 27.146-17.214 2.739-12.231-4.983-24.408-17.214-27.146z"></path><path fill="#4B9DDF" d="m359.523 381.66-55.574-11.788c-6.277-1.331-12.445 2.678-13.776 8.955l-10.701 50.453c-1.331 6.277 2.678 12.445 8.955 13.776L344 454.844c6.277 1.331 12.445-2.678 13.776-8.955l10.701-50.453c1.332-6.276-2.677-12.444-8.954-13.776z"></path><path fill="#CCC" d="M364.906 384.412a11.561 11.561 0 0 1 .793 7.228l-10.701 50.453c-1.331 6.277-7.499 10.286-13.776 8.955l-55.574-11.788a11.57 11.57 0 0 1-5.384-2.751 11.602 11.602 0 0 0 8.161 6.548L344 454.844c6.277 1.331 12.445-2.678 13.776-8.955l10.701-50.453a11.607 11.607 0 0 0-3.571-11.024z"></path><path fill="#FFF" d="m336.784 443.872-38.5-8.166c-4.484-.951-7.359-5.373-6.408-9.858l7.723-36.411c.951-4.485 5.373-7.359 9.858-6.408l38.5 8.166c4.485.951 7.359 5.373 6.408 9.858l-7.723 36.411c-.952 4.484-5.374 7.359-9.858 6.408zm-27.725-58.965a6.401 6.401 0 0 0-7.582 4.928l-7.723 36.411a6.401 6.401 0 0 0 4.928 7.582l38.5 8.166a6.401 6.401 0 0 0 7.582-4.928l7.723-36.411a6.401 6.401 0 0 0-4.928-7.582l-38.5-8.166z"></path><circle cx="323.766" cy="413.338" r="16.68" fill="#FFF"></circle><path fill="#FFF" d="M356.704 388.979a3 3 0 1 1 5.868 1.244 3 3 0 0 1-5.868-1.244z"></path><path fill="#E8586C" d="m299.5 230.562-94.603 25.697a5.18 5.18 0 0 0-3.641 6.357l16.895 62.197a5.18 5.18 0 0 0 6.357 3.641l94.603-25.697a5.18 5.18 0 0 0 3.641-6.357l-16.895-62.197a5.18 5.18 0 0 0-6.357-3.641z"></path><path fill="#CCC" d="M299.967 230.46c.288.442.515.934.66 1.471l16.895 62.197a5.18 5.18 0 0 1-3.642 6.357l-94.603 25.697a5.549 5.549 0 0 1-.466.102 5.182 5.182 0 0 0 5.697 2.171l94.603-25.697a5.181 5.181 0 0 0 3.642-6.357l-16.895-62.197a5.18 5.18 0 0 0-5.891-3.744z"></path><path fill="#FFF" d="m225.144 310.062 12.123-31.862a2.6 2.6 0 0 1 4.157-1.019l23.33 20.732c1.456 1.294 3.766.586 4.247-1.302l1.929-7.578c.499-1.96 2.947-2.625 4.369-1.187l4.669 4.723c1.538 1.555 4.192.633 4.433-1.541l2.699-24.321c.267-2.407 3.39-3.174 4.741-1.165l15.427 22.932a2.6 2.6 0 0 1-1.476 3.96l-77.536 21.061c-2.051.557-3.868-1.447-3.112-3.433z"></path><circle cx="260.592" cy="262.374" r="7.581" fill="#FFF"></circle><path fill="#FFF" d="M236.922 265.433a2.09 2.09 0 0 0-.387.147 3.02 3.02 0 0 0-6.001.571 1.786 1.786 0 0 0-2.553 1.11 2.472 2.472 0 1 0 1.64 3.918c.961.441 2.379.516 3.853.115 1.381-.375 2.509-1.085 3.144-1.886a2.115 2.115 0 1 0 .304-3.975zM287.733 251.631a2.09 2.09 0 0 0-.387.147 3.02 3.02 0 0 0-6.001.571 1.786 1.786 0 0 0-2.553 1.11 2.472 2.472 0 1 0 1.64 3.918c.961.441 2.379.516 3.853.115 1.381-.375 2.509-1.085 3.144-1.886a2.115 2.115 0 1 0 .304-3.975z"></path><path fill="#EA5959" d="m975.012 406.38 14.78 5.38-5.934 16.304-14.78-5.381z"></path><path fill="#F7BD5A" d="m1006.148 402.9 14.781 5.38-10.698 29.385-14.78-5.38z"></path><path fill="#EA5959" d="m1036.938 400.37 14.78 5.382-15.113 41.515-14.78-5.381z"></path><path fill="#F7BD5A" d="m1066.917 400.07 14.781 5.381-18.719 51.418-14.78-5.381z"></path><path fill="#EA5959" d="m1088.349 370.43.674-12.759a1.17 1.17 0 0 0-1.696-1.103l-11.426 5.766a1.162 1.162 0 0 0-.107 2.013l3.15 2.048a37.316 37.316 0 0 1-6.202 6.149c-2.999 2.352-6.376 4.256-9.966 5.705-7.195 2.903-15.175 3.986-23.087 3.64a69.313 69.313 0 0 1-23.235-5.179c-3.697-1.533-7.267-3.398-10.612-5.617-3.343-2.219-6.464-4.796-9.2-7.751a.301.301 0 0 0-.454.397c2.625 3.125 5.671 5.9 8.97 8.327 3.302 2.428 6.86 4.512 10.576 6.267a71.7 71.7 0 0 0 23.76 6.5c4.127.381 8.306.392 12.464-.035 4.155-.427 8.293-1.296 12.286-2.687 3.99-1.389 7.834-3.309 11.329-5.784a42.377 42.377 0 0 0 7.753-7.083l3.221 2.095c.753.491 1.755-.014 1.802-.909z"></path></svg>