<?xml version="1.0" encoding="utf-8"?>
<!-- Generator: Adobe Illustrator 26.0.1, SVG Export Plug-In . SVG Version: 6.00 Build 0)  -->
<svg version="1.1" id="Ñëîé_1" xmlns="http://www.w3.org/2000/svg" xmlns:xlink="http://www.w3.org/1999/xlink" x="0px" y="0px"
	 viewBox="0 0 1000 665" enable-background="new 0 0 1000 665" xml:space="preserve">
<g>
	<path fill="#568AD6" d="M945.1,579.1c-4.1-2-9.6-1.2-13.6-3.4c-4.4-2.5-5.1-7.8-3.9-12.1c1.2-4.3,3.7-8.4,3.9-12.9
		c0.4-7.9-7.6-15.5-17.2-16.2c-4.5-0.3-9.8,0.5-13-2.2c-2.1-1.8-2.5-4.5-2.5-7c0.1-10.3,4.4-20.4,4.3-30.7
		c-0.1-10.3-7.1-22-19.5-23.4c-6.9-0.8-14.4,1.8-20.7-0.5c-5-1.9-7.8-6.4-8.9-10.8c-1.1-4.4-0.8-9-1.6-13.5
		c-1-5.5-3.8-10.9-8.7-14.8c-4.9-3.8-12.1-5.8-18.7-4.4c-5,1.1-9.4,4.1-14.6,3.9c-8-0.4-12.1-7.6-17.4-12.6
		c-7.8-7.2-20.3-10.1-32-9.6c-10.8,0.4-27.5,2.7-36.7,7.9c-9.8,5.5-7.6,19.5-18,23.4c-2.7,1-5.7,0.9-8.6,1.3
		c-4.3,0.6-8.3,2.2-11.6,4.5l-0.5,160l262.1,0.8c-0.2-4.9,2-9.7,3-14.6C951.5,587.4,950.3,581.6,945.1,579.1z"/>
	<g>
		<defs>
			<path id="SVGID_1_" d="M945.1,579.1c-4.1-2-9.6-1.2-13.6-3.4c-4.4-2.5-5.1-7.8-3.9-12.1c1.2-4.3,3.7-8.4,3.9-12.9
				c0.4-7.9-7.6-15.5-17.2-16.2c-4.5-0.3-9.8,0.5-13-2.2c-2.1-1.8-2.5-4.5-2.5-7c0.1-10.3,4.4-20.4,4.3-30.7
				c-0.1-10.3-7.1-22-19.5-23.4c-6.9-0.8-14.4,1.8-20.7-0.5c-5-1.9-7.8-6.4-8.9-10.8c-1.1-4.4-0.8-9-1.6-13.5
				c-1-5.5-3.8-10.9-8.7-14.8c-4.9-3.8-12.1-5.8-18.7-4.4c-5,1.1-9.4,4.1-14.6,3.9c-8-0.4-12.1-7.6-17.4-12.6
				c-7.8-7.2-20.3-10.1-32-9.6c-10.8,0.4-27.5,2.7-36.7,7.9c-9.8,5.5-7.6,19.5-18,23.4c-2.7,1-5.7,0.9-8.6,1.3
				c-4.3,0.6-8.3,2.2-11.6,4.5l-0.5,160l262.1,0.8c-0.2-4.9,2-9.7,3-14.6C951.5,587.4,950.3,581.6,945.1,579.1z"/>
		</defs>
		<use xlink:href="#SVGID_1_"  overflow="visible" fill="#5765AD"/>
		<clipPath id="SVGID_00000082363211764569272070000000295685826929383315_">
			<use xlink:href="#SVGID_1_"  overflow="visible"/>
		</clipPath>
		<g clip-path="url(#SVGID_00000082363211764569272070000000295685826929383315_)">
			<g>
				<path fill="#8193C9" d="M680.8,565.4l-0.8-0.3c2.8-8,3.3-16.6,1.4-24.8c-1-4.1-2.6-8.2-4.1-12.2c-1.8-4.7-3.7-9.5-4.6-14.5
					c-1.8-10.1,0.5-20.2,2.8-30l0.8,0.2c-2.2,9.7-4.5,19.7-2.8,29.7c0.9,4.9,2.7,9.7,4.6,14.4c1.5,4,3.2,8.1,4.1,12.3
					C684.2,548.5,683.7,557.2,680.8,565.4z"/>
				<path fill="#8193C9" d="M689.1,612.7l-0.7-0.4c10.4-19.1,3.5-76,1.2-92.9c-3.3-23.7-1.6-60.2,3.7-81.5l0.8,0.2
					c-5.3,21.2-6.9,57.7-3.6,81.2C692.8,536.3,699.7,593.3,689.1,612.7z"/>
				<path fill="#8193C9" d="M707.6,619.4c-2.8-6.8-0.8-14,1.1-20.9c1.8-6.5,3.6-13.2,1.6-19.5c-0.6-1.8-1.5-3.6-2.4-5.3
					c-1.2-2.3-2.5-4.7-2.9-7.3c-1-5.5,1.6-10.8,4.2-15.8c1.3-2.6,2.7-5.3,3.5-8.1c3.4-11.1-1.6-22.4-6.4-33.3
					c-2.2-4.9-4.4-10-5.9-15c-6.7-22.9,2-47.5,9-67.3l0.8,0.3c-7,19.7-15.6,44.2-9,66.8c1.5,5,3.7,10,5.9,14.9
					c4.9,11.1,10,22.5,6.4,33.9c-0.9,2.8-2.2,5.5-3.6,8.2c-2.6,5.2-5,10.1-4.1,15.3c0.4,2.5,1.7,4.8,2.9,7.1
					c0.9,1.7,1.8,3.5,2.5,5.4c2.1,6.5,0.2,13.3-1.6,20c-2,7.1-3.8,13.9-1.2,20.4L707.6,619.4z"/>
				<path fill="#8193C9" d="M732.1,633.7c-8.6-13.1-11.9-28.4-9.1-43.2c1-5.6,2.9-11.1,4.8-16.5c2.9-8.5,5.9-17.2,5.4-26.1
					c-0.3-6-2.2-12.1-4-17.9c-2.3-7.3-4.6-14.8-3.9-22.3c0.4-4.7,2-9.4,3.6-13.8c1.8-5.2,3.7-10.6,3.6-16c0-5.9-2.3-11.6-4.4-17.2
					c-1.1-2.8-2.2-5.7-3.1-8.7c-3.2-11.2-2.4-23.2,2.5-34l0.8,0.3c-4.8,10.6-5.6,22.4-2.4,33.4c0.8,2.9,2,5.8,3.1,8.6
					c2.2,5.6,4.5,11.4,4.5,17.5c0,5.6-1.9,11.1-3.7,16.3c-1.5,4.4-3.1,9-3.6,13.6c-0.7,7.4,1.6,14.8,3.9,22c1.8,5.9,3.7,12,4,18.1
					c0.4,9-2.6,17.8-5.5,26.4c-1.8,5.3-3.7,10.9-4.7,16.4c-2.7,14.6,0.5,29.7,9,42.6L732.1,633.7z"/>
				<path fill="#8193C9" d="M743.8,624.7c-5.8-13.1-3.1-27.4-0.5-41.1c2.1-11.4,4.3-23.2,1.8-34.4c-0.9-3.8-2.3-7.6-3.7-11.3
					c-1.3-3.5-2.7-7.1-3.6-10.8c-2.8-11.6-0.8-23.6,1.1-35.2c1.3-8,2.7-16.2,2.5-24.3c-0.1-5.8-1.1-11.6-2-17.3
					c-0.6-3.9-1.3-8-1.7-12.1c-0.9-9.9-0.2-19.8,2-29.5l0.8,0.2c-2.2,9.6-2.9,19.5-2,29.2c0.4,4,1,8.1,1.7,12
					c0.9,5.7,1.8,11.5,2,17.4c0.2,8.2-1.2,16.5-2.5,24.5c-1.9,11.5-3.9,23.4-1.2,34.9c0.9,3.6,2.2,7.2,3.5,10.7
					c1.4,3.7,2.8,7.5,3.7,11.4c2.6,11.4,0.3,23.3-1.8,34.8c-2.6,13.6-5.2,27.7,0.5,40.6L743.8,624.7z"/>
				<path fill="#8193C9" d="M765.3,630.2l-0.7-0.4c7.6-12.6,8.1-28.7,1.4-49c-1.8-5.4-3.9-10.8-5.9-16c-4.1-10.6-8.3-21.5-9.9-32.7
					c-2.2-15.5,0.7-31.3,3.5-46.6c2.9-16,5.9-32.5,3.1-48.6c-2.1-12-7.5-23.6-12.7-34.7l0.8-0.4c5.2,11.2,10.6,22.8,12.7,34.9
					c2.9,16.3-0.1,32.9-3.1,48.9c-2.8,15.2-5.6,31-3.5,46.3c1.6,11.1,5.8,22,9.9,32.5c2,5.2,4.1,10.7,5.9,16.1
					C773.5,601,773,617.3,765.3,630.2z"/>
				<path fill="#8193C9" d="M794.3,625.7c-1.7-12.5-1-25.2,2-37.5c0.3-1.1,0.5-2.2,0.8-3.3c2.6-10.1,5.2-20.6-1.2-28.7
					c-2.5-3.1-6.1-5.5-9.7-7.8c-3.4-2.2-7-4.5-9.5-7.5c-9.1-10.7-3-25.5,2.4-35.6c5.9-11.1,12.6-23.8,6.8-34.9
					c-1.2-2.4-3.1-4.6-4.8-6.8c-2.1-2.6-4.3-5.3-5.6-8.3c-2.3-5.5-1.1-11.5,0-17.2c0.8-4.3,1.7-8.7,1.1-12.9
					c-1-7.3-6-13.7-10.8-19.9c-4.5-5.8-9.2-11.7-10.8-18.6c-1.6-7.1,0.5-14.7,5.6-20.5l0.6,0.6c-4.9,5.5-6.9,12.9-5.4,19.7
					c1.5,6.7,6.1,12.5,10.6,18.2c4.9,6.3,10,12.7,11,20.3c0.6,4.4-0.3,8.8-1.1,13.2c-1.1,5.8-2.2,11.4,0,16.7
					c1.2,2.9,3.4,5.6,5.4,8.1c1.8,2.2,3.6,4.4,4.9,6.9c6,11.6-0.8,24.4-6.8,35.7c-5.3,9.9-11.3,24.3-2.5,34.7c2.5,2.9,6,5.2,9.3,7.4
					c3.6,2.3,7.3,4.7,9.9,8c6.7,8.5,3.9,19.6,1.4,29.4c-0.3,1.1-0.6,2.2-0.8,3.2c-3,12.3-3.7,24.8-2,37.2L794.3,625.7z"/>
				<path fill="#8193C9" d="M833,638.4c-9.5-14.3-20.4-33.3-20.3-53.5c0.1-8.4,2-16.9,3.9-25.1c2.6-11.1,5.2-22.6,3-33.8
					c-1.4-6.9-4.6-13.4-7.6-19.8c-2.4-4.9-4.8-9.9-6.4-15.1c-4.1-12.9-3.3-27.3,2.3-40.5c1.6-3.8,3.6-7.6,5.6-11.3
					c3.7-6.8,7.5-13.9,8.6-21.4c3.1-20.2-12.2-38.2-28.2-54.9l0.6-0.6c16.1,16.9,31.6,35.1,28.4,55.6c-1.2,7.7-5,14.8-8.7,21.7
					c-2,3.6-4,7.4-5.6,11.2c-5.5,13-6.3,27.2-2.3,39.9c1.6,5.1,4,10.1,6.4,15c3.1,6.4,6.3,13,7.7,20c2.3,11.4-0.4,23-3,34.2
					c-1.9,8.1-3.8,16.6-3.9,24.9c-0.1,19.9,10.7,38.8,20.2,53L833,638.4z"/>
				<path fill="#8193C9" d="M850.3,609.3c-12.1-6.6-20-18.9-20-31.5c0-9.1,3.9-17.8,7.6-26.3c3.8-8.6,7.7-17.6,7.5-26.8
					c-0.2-6.8-2.7-13.5-5.2-19.9c-2.1-5.5-4.2-11.2-5-17c-1.7-12.8,3.4-25.3,8.3-37.3c3.5-8.5,7.1-17.3,8.3-26.2
					c2.8-20.3-6.1-39.8-17.1-61.4l0.8-0.4c11.1,21.7,20,41.3,17.2,61.9c-1.3,9-4.9,17.9-8.4,26.4c-4.9,11.9-9.9,24.2-8.3,36.9
					c0.7,5.7,2.9,11.4,5,16.8c2.5,6.5,5,13.2,5.2,20.2c0.3,9.4-3.7,18.5-7.5,27.2c-3.7,8.3-7.5,17-7.5,25.9
					c0,12.2,7.6,24.3,19.5,30.7L850.3,609.3z"/>
				<path fill="#8193C9" d="M795.7,443.9c-1.6,0-3.2-0.4-4.6-1.2c-3.1-1.8-4.2-5.2-4.5-7.8c-0.3-2.2-0.2-4.5-0.2-6.6
					c0.1-2.3,0.1-4.6-0.2-6.8c-1-6.7-5.5-12.5-9.8-18.2c-1-1.3-2.1-2.7-3.1-4.1c-6.9-9.6-8.7-17.8-5.3-24.3l0.8,0.4
					c-3.2,6.3-1.4,14.1,5.3,23.4c1,1.4,2,2.8,3.1,4.1c4.4,5.8,9,11.7,10,18.6c0.4,2.3,0.3,4.7,0.2,7c-0.1,2.1-0.1,4.4,0.2,6.5
					c0.3,2.4,1.3,5.5,4.1,7.2c3.3,1.9,7.9,1,10.7-0.9c2.6-1.7,4.5-4.4,6.1-8.3c6.1-15.1,1.5-33-11.4-44.5c-1.3-1.2-2.8-2.3-4.1-3.4
					c-3.2-2.6-6.6-5.3-8.8-8.6c-2-2.9-2.8-6.5-2.1-9.6c0.5-2.5,1.9-4.4,4-5.8l0.5,0.7c-1.9,1.2-3.1,3-3.6,5.2c-0.6,2.9,0.1,6.2,2,9
					c2.2,3.2,5.5,5.9,8.6,8.4c1.4,1.1,2.8,2.3,4.2,3.5c13.2,11.8,17.8,30.1,11.6,45.5c-1.7,4.1-3.7,6.9-6.4,8.7
					C800.8,443.1,798.3,443.9,795.7,443.9z"/>
				<path fill="#8193C9" d="M805.9,548.5c-0.9,0-1.8-0.5-2.5-1l-9-6.2c-2.1-1.5-4.3-3-6.1-4.9c-3.8-4.1-5.4-9.9-4.5-16.3
					c1-6.9,4.3-11.5,8.9-12.3c4.8-0.8,9.7,2.7,13.2,9.4c1.6,3,2.4,6.3,2.9,9c1.6,7.9,1.5,14.1-0.1,19.5c-0.5,1.6-1.3,2.5-2.5,2.7
					C806.1,548.5,806,548.5,805.9,548.5z M784.7,520.3c-0.9,6.1,0.7,11.7,4.3,15.6c1.7,1.8,3.8,3.3,5.9,4.7l9,6.2
					c0.7,0.5,1.5,1,2.2,0.8c0.8-0.1,1.4-0.8,1.8-2.1c1.6-5.3,1.7-11.4,0.1-19.1c-0.5-2.7-1.3-5.9-2.8-8.8c-3.3-6.4-8-9.7-12.3-9
					C788.6,509.4,785.6,513.8,784.7,520.3z"/>
				<path fill="#8193C9" d="M774.2,634l-0.8-0.1c0.6-7.9,2.5-16,4.3-23.9c3.8-15.8,7.3-30.8,1-45.2c-2.4-5.5-6.4-10.8-10.1-15.8
					c-5.9-7.9-12.1-16.1-12.4-25.6c-0.3-8.4,4-16.3,8.2-24.1c5-9.3,9.8-18.1,7-27.5c-0.6-2-1.6-4-2.5-5.9c-1.2-2.4-2.4-4.8-2.9-7.4
					c-0.9-4.5,0.2-9,1.2-13.3c0.7-2.8,1.4-5.7,1.5-8.5c0.6-10.9-6.6-21.1-12.3-29.3l0.7-0.5c5.8,8.3,13.1,18.7,12.5,29.8
					c-0.2,2.9-0.9,5.8-1.6,8.7c-1.1,4.4-2.1,8.7-1.2,12.9c0.5,2.5,1.7,4.9,2.8,7.2c1,1.9,1.9,4,2.6,6c2.9,9.7-2.2,19-7.1,28.1
					c-4.1,7.6-8.4,15.5-8.1,23.6c0.3,9.2,6.1,16.9,12.3,25.1c3.8,5.1,7.8,10.3,10.2,16c6.4,14.6,2.7,30.4-0.9,45.7
					C776.6,618,774.7,626.1,774.2,634z"/>
				<path fill="#8193C9" d="M837.8,609.3c-11.9-13-16.6-30.5-12.5-46.6c0.9-3.4,2.1-6.8,3.4-10.1c2-5.4,4.1-10.9,4.4-16.6
					c0.6-9.4-3.6-18.5-7.6-27.3c-3.4-7.3-6.8-14.9-7.7-22.8c-1.2-11.6,3.3-23,7.7-33.9c1.8-4.6,3.7-9.3,5.2-14
					c7.9-25.7,2.6-54.5-14.1-77l0.7-0.5c16.9,22.7,22.2,51.8,14.2,77.7c-1.5,4.7-3.4,9.5-5.2,14.1c-4.3,10.8-8.8,22.1-7.6,33.5
					c0.8,7.7,4.3,15.2,7.6,22.5c4.1,8.9,8.3,18.1,7.7,27.7c-0.3,5.8-2.4,11.4-4.5,16.9c-1.2,3.3-2.5,6.6-3.3,10
					c-4.1,15.9,0.5,33,12.3,45.8L837.8,609.3z"/>
				<path fill="#8193C9" d="M713.6,490.6c-1.6,0-3.1-1.7-4-3.5c-2.8-5.4-3.1-12.6-3-18.8l0-0.5c0.1-16.8,1.9-26.1,5.3-27.8
					c1.1-0.5,2.3-0.3,3.6,0.7c3.6,2.7,3.1,21.1,2,38.7c-0.1,1.5-0.2,2.7-0.2,3.5c-0.2,4.4-1.2,6.9-3,7.6
					C714.2,490.6,713.9,490.6,713.6,490.6z M713.2,440.6c-0.3,0-0.6,0.1-0.8,0.2c-1.7,0.9-4.7,5.5-4.9,27.1l0,0.5
					c-0.1,6.2,0.2,13.2,2.9,18.4c0.9,1.7,2.3,3.4,3.7,2.9c1.4-0.5,2.2-2.9,2.4-6.8c0-0.8,0.1-2,0.2-3.5c0.6-9.6,2.1-35.2-1.7-38
					C714.4,440.8,713.7,440.6,713.2,440.6z"/>
			</g>
			<path fill="#8193C9" d="M855,635.7l-0.8-0.3c4.7-14.9,3.7-31.6-2.7-45.9c-0.6-1.4-1.3-2.8-2-4.2c-2-4-4.1-8.2-4.8-12.8
				c-1.4-8.9,2.4-17.4,6.2-25.6c1.5-3.3,3-6.7,4.2-10c3.9-11,4.1-23.2,0.8-34.4c-0.5-1.6-1.1-3.2-1.6-4.8c-1.3-3.7-2.6-7.5-3-11.5
				c-0.7-7.4,2-14.6,4.7-21.5c1-2.5,2-5.1,2.8-7.7c4.4-14,3.8-29.8-1.8-43.4l0.8-0.3c5.6,13.8,6.3,29.8,1.8,44
				c-0.8,2.6-1.8,5.2-2.8,7.7c-2.6,6.8-5.3,13.8-4.6,21.1c0.4,3.9,1.7,7.6,3,11.3c0.6,1.6,1.1,3.2,1.6,4.8
				c3.4,11.3,3.2,23.8-0.8,34.9c-1.2,3.4-2.8,6.8-4.3,10.1c-3.7,8.1-7.5,16.5-6.1,25.2c0.7,4.4,2.7,8.5,4.7,12.5
				c0.7,1.4,1.4,2.8,2,4.3C858.8,603.6,859.8,620.6,855,635.7z"/>
			<path fill="#8193C9" d="M871.4,502.3c-0.8,0-1.5-0.1-2.3-0.3c-3.2-0.8-6.2-3.1-7.7-6.1c-2.8-5.3-1.9-11.7-0.9-16.7
				c2.2-10.6,6.2-20.6,12-29.8l0.7,0.5c-5.7,9.1-9.7,19-11.9,29.6c-1,4.8-1.8,11,0.8,16.1c1.4,2.7,4.2,4.9,7.2,5.6
				c2.3,0.6,4.5,0.2,6.2-0.9c3.3-2.3,4-6.7,3.6-10.2c-0.3-2.7-1.3-5.3-2.2-7.8c-0.4-1.1-0.8-2.3-1.2-3.4c-1.5-4.9-1.6-8.7-0.1-11.8
				c1.2-2.7,3.5-4.6,5.7-6.5c2-1.7,4.1-3.5,5.3-5.8l0.8,0.4c-1.3,2.4-3.4,4.3-5.5,6.1c-2.2,1.9-4.3,3.7-5.4,6.2
				c-1.3,2.9-1.3,6.6,0.2,11.2c0.4,1.1,0.8,2.3,1.2,3.4c0.9,2.6,1.9,5.2,2.2,8c0.4,3.7-0.4,8.5-4,11
				C874.6,501.8,873.1,502.3,871.4,502.3z"/>
			<path fill="#8193C9" d="M893.2,632.1c-3.2-6-7.2-11.7-11.1-17.2c-3.3-4.7-6.7-9.5-9.6-14.5c-9.8-17-8.9-29.3-6.4-36.7
				c0.6-1.7,1.3-3.5,2.1-5.1c2.1-4.9,4.3-9.9,2.5-14.7c-0.5-1.3-1.2-2.4-1.9-3.6c-0.5-0.8-1-1.6-1.4-2.4c-2.2-4.4-2.3-9.9-0.2-14.3
				c2.1-4.4,6.4-7.9,11.2-8.9c0.7-0.1,1.4-0.3,2-0.4c1.3-0.2,2.4-0.4,3.6-0.8c5.8-2.3,7.1-10.3,5.4-16.8c-0.5-2.1-1.3-4.1-2-6.1
				c-1.5-4.3-3.1-8.6-2.8-13.2c0.4-5.9,3.9-11.3,6.7-15.7l7-10.8l0.7,0.5l-7,10.8c-2.9,4.5-6.2,9.6-6.5,15.3
				c-0.3,4.4,1.3,8.7,2.8,12.9c0.7,2,1.5,4.1,2,6.2c1.8,6.8,0.3,15.3-6,17.8c-1.2,0.5-2.5,0.7-3.8,0.9c-0.7,0.1-1.3,0.2-2,0.3
				c-4.5,1-8.6,4.2-10.6,8.4c-2,4.2-1.9,9.4,0.2,13.6c0.4,0.8,0.9,1.6,1.3,2.3c0.7,1.2,1.5,2.4,2,3.8c1.8,5.1-0.4,10.3-2.6,15.3
				c-0.7,1.7-1.5,3.4-2,5.1c-2.4,7.2-3.3,19.3,6.3,36c2.9,5,6.3,9.8,9.6,14.5c3.9,5.5,8,11.2,11.2,17.3L893.2,632.1z"/>
			<path fill="#8193C9" d="M918,620c-11.7-7.2-20.5-16.8-25.4-27.6c-5.6-12.2-5.8-26-0.7-37c1.5-3.2,3.4-6.1,5.2-9
				c0.9-1.5,1.9-3,2.8-4.5c8.1-13.7,10.4-28.5,6.2-40.7c-0.9-2.6-2.1-5.1-3.2-7.5c-2-4.3-4.1-8.8-4.6-13.6
				c-1.2-11.9,7.5-22.3,15.6-31.1l0.6,0.6c-8.1,8.7-16.5,18.9-15.4,30.4c0.5,4.7,2.5,9.1,4.5,13.4c1.2,2.5,2.4,5,3.2,7.6
				c4.3,12.4,2,27.5-6.3,41.4c-0.9,1.5-1.9,3-2.8,4.5c-1.8,2.9-3.7,5.8-5.2,8.9c-5,10.8-4.7,24.4,0.7,36.3
				c4.8,10.6,13.5,20.1,25.1,27.2L918,620z"/>
			<path fill="#8193C9" d="M879.9,562.7c-0.8,0-1.7-0.3-2.4-0.9c-1.3-1.3-1-3.4-0.7-4.5c0.3-1.2,0.8-2.3,1.3-3.4
				c0.8-1.9,1.6-3.6,1.5-5.6c-0.1-2-1-3.8-2-5.6c-0.5-1-1.1-2.1-1.5-3.2c-1.6-4.3-0.7-9.3,2.2-12.8c2.3-2.8,6.9-5.4,10.7-4.6
				c1.6,0.3,3.7,1.4,4.6,4.7c1.9,6.7-1.8,15.9-4.4,22.6c-0.4,1.1-0.8,2.1-1.2,3.1c-0.9,2.4-1.9,5-3.4,7.2c-1,1.4-1.9,2.2-3,2.7
				C881.1,562.6,880.5,562.7,879.9,562.7z M887.6,522.7c-3.1,0-6.7,2.1-8.6,4.4c-2.7,3.3-3.5,8-2,12c0.4,1.1,0.9,2.1,1.5,3.1
				c1,1.9,2,3.8,2.1,6c0.1,2.1-0.8,4-1.6,5.9c-0.5,1.1-1,2.2-1.2,3.3c-0.2,0.8-0.6,2.6,0.5,3.7c0.7,0.7,2,0.9,3.1,0.4
				c0.9-0.4,1.8-1.2,2.6-2.4c1.5-2.1,2.4-4.6,3.3-7c0.4-1,0.8-2,1.2-3.1c2.6-6.6,6.2-15.6,4.4-22.1c-0.7-2.3-2-3.7-4-4.1
				C888.4,522.8,888,522.7,887.6,522.7z"/>
			<path fill="#8193C9" d="M921.8,607c-3.1,0-6.1-2.6-7.8-4.3c-6.6-6.8-11.3-14.1-13.8-21.5c-2.9-8.7-2.9-17.7,0.1-25.4
				c2.4-6,6.5-11,10.5-15.9c2.7-3.3,5.5-6.7,7.7-10.3c7-11.5,8.5-26.5,3.8-39.1l0.8-0.3c4.7,12.9,3.2,28.1-3.9,39.8
				c-2.3,3.7-5.1,7.1-7.8,10.4c-4,4.8-8.1,9.8-10.4,15.7c-3,7.4-3,16.2-0.1,24.8c2.5,7.3,7.1,14.5,13.6,21.2c2,2,5.8,5.2,9.2,3.6
				c1.4-0.6,2-1.8,2.3-2.7c0.6-1.7,0.5-3.7-0.3-5.4c-1.3-2.8-4-4.8-6.9-6.7c-2.8-1.9-5.7-3.8-7.3-6.8c-1.9-3.5-1.7-8.3,0.6-12.7
				c1.9-3.7,4.9-6.8,7.9-9.7l0.2-0.2c4.2-4.2,8.1-8.5,9.8-13.7c1.7-5.4,0.7-11.2-0.2-16.8c-0.8-4.9-1.6-10-0.8-15l0.8,0.1
				c-0.8,4.8,0,9.8,0.8,14.7c0.9,5.7,1.9,11.6,0.2,17.2c-1.7,5.4-5.7,9.8-10,14.1l-0.2,0.2c-2.9,2.9-5.8,5.9-7.7,9.5
				c-2.1,4.1-2.4,8.6-0.6,11.9c1.5,2.8,4.3,4.7,7,6.5c3,2,5.8,4,7.2,7c0.9,1.8,1,4.1,0.3,6c-0.5,1.5-1.5,2.6-2.8,3.2
				C923.3,606.8,922.6,607,921.8,607z"/>
			<path fill="#8193C9" d="M934.3,614l-0.8-0.4c2.1-4.6,1.8-10.3-1-17.9c-0.4-1.1-0.8-2.2-1.3-3.3c-1.9-4.8-3.8-9.7-3.8-14.8
				c0-6.7,3.3-12.8,6.5-18.7c2.1-3.9,4.3-7.9,5.5-12.1c2.6-8.8,0.8-18.8-4.7-26.2l0.7-0.5c5.6,7.6,7.5,17.9,4.8,27
				c-1.3,4.3-3.5,8.4-5.6,12.3c-3.3,6-6.4,11.7-6.4,18.3c0,5,1.9,9.9,3.7,14.5c0.4,1.1,0.9,2.2,1.3,3.3
				C935.1,600.4,937.3,607.7,934.3,614z"/>
			<path fill="#8193C9" d="M939.8,611.3l-0.6-0.6c5.6-6.2,7.5-15.6,4.7-23.5c-0.5-1.4-1.2-2.9-1.8-4.2c-1.3-2.8-2.7-5.7-2.8-8.9
				c-0.2-5,2.6-9.6,4.8-12.6c0.3-0.4,0.6-0.8,0.9-1.2c1.6-2.1,3.2-4.3,4-6.9c0.9-2.8,0.4-6.5-2.2-8.2l0.5-0.7
				c2.9,1.9,3.5,6.1,2.5,9.2c-0.8,2.7-2.5,4.9-4.1,7.1c-0.3,0.4-0.6,0.8-0.9,1.2c-2.1,2.9-4.9,7.3-4.7,12.1c0.1,3,1.4,5.7,2.7,8.5
				c0.7,1.4,1.3,2.8,1.9,4.3C947.6,595.1,945.6,604.8,939.8,611.3z"/>
			<path fill="#8193C9" d="M951,606.7l-0.8-0.4c4.1-7.7,6.6-15.1,7.4-22.1c0.9-8.2-0.6-16.2-4.2-22.5l0.7-0.4
				c3.7,6.5,5.3,14.6,4.3,23C957.6,591.4,955.1,598.9,951,606.7z"/>
			<path fill="#8193C9" d="M948.9,578.9C948.9,578.9,948.8,578.9,948.9,578.9c-1.6-0.1-2.7-1.2-3.3-2.3c-0.6-1.2-0.8-2.5-0.9-3.7
				c-0.4-3.1-0.6-7.5,2.5-9.4l0.4,0.7c-2.7,1.6-2.5,5.7-2.1,8.6c0.1,1.2,0.3,2.4,0.8,3.4c0.6,1.1,1.5,1.8,2.5,1.8c0,0,0,0,0.1,0
				c1.9,0,3-2.4,3.2-4.1c0.3-1.9,0-4.2-1.6-5l0.4-0.7c2,1.1,2.4,3.8,2.1,5.9C952.6,576.4,951.2,578.9,948.9,578.9z"/>
		</g>
	</g>
</g>
<g>
	<g>
		<path fill="#FFFFFF" d="M792.5,599c0-0.1-0.2-0.3-0.5-0.4c-3.1,4.9-10.6,6.6-15.8,3l-4.6,1.5c-4.1,1.4-2.5,5.3,2.1,5.2l17.6-0.2
			c0.8,0,1.5-0.5,1.3-1L792.5,599z"/>
		<path fill="#FF9985" d="M792.6,599c-1.2-1.5-4-1.5-4.6-1.3l-11.8,4C781.4,605.2,789.4,603.9,792.6,599z"/>
	</g>
</g>
<g>
	<path fill="#568AD6" d="M74.6,578.8c4.1-2,9.6-1.2,13.6-3.4c4.5-2.5,5.1-7.8,4-12.1c-1.1-4.3-3.6-8.5-3.9-12.9
		c-0.4-7.9,7.7-15.5,17.2-16.1c4.5-0.3,9.8,0.5,13-2.1c2.1-1.8,2.5-4.5,2.5-7c0-10.3-4.3-20.4-4.2-30.8c0.2-10.3,7.2-22,19.6-23.3
		c6.9-0.7,14.3,1.9,20.7-0.5c5-1.9,7.8-6.4,8.9-10.8c1.1-4.4,0.8-9,1.7-13.5c1-5.5,3.8-10.9,8.7-14.7c4.9-3.8,12.2-5.8,18.7-4.3
		c5,1.1,9.4,4.1,14.6,3.9c8-0.3,12.2-7.6,17.5-12.5c7.8-7.2,20.3-10,32.1-9.5c10.8,0.5,27.4,2.8,36.7,8c9.8,5.6,7.6,19.5,17.9,23.5
		c2.7,1,5.7,1,8.6,1.3c4.3,0.6,8.3,2.2,11.6,4.5v160H72c0.2-4.9-2-9.7-2.9-14.6C68.2,587.1,69.4,581.2,74.6,578.8z"/>
	<g>
		<defs>
			<path id="SVGID_00000117678652910833586590000002091067162455379077_" d="M74.6,578.8c4.1-2,9.6-1.2,13.6-3.4
				c4.5-2.5,5.1-7.8,4-12.1c-1.1-4.3-3.6-8.5-3.9-12.9c-0.4-7.9,7.7-15.5,17.2-16.1c4.5-0.3,9.8,0.5,13-2.1c2.1-1.8,2.5-4.5,2.5-7
				c0-10.3-4.3-20.4-4.2-30.8c0.2-10.3,7.2-22,19.6-23.3c6.9-0.7,14.3,1.9,20.7-0.5c5-1.9,7.8-6.4,8.9-10.8c1.1-4.4,0.8-9,1.7-13.5
				c1-5.5,3.8-10.9,8.7-14.7c4.9-3.8,12.2-5.8,18.7-4.3c5,1.1,9.4,4.1,14.6,3.9c8-0.3,12.2-7.6,17.5-12.5c7.8-7.2,20.3-10,32.1-9.5
				c10.8,0.5,27.4,2.8,36.7,8c9.8,5.6,7.6,19.5,17.9,23.5c2.7,1,5.7,1,8.6,1.3c4.3,0.6,8.3,2.2,11.6,4.5v160H72
				c0.2-4.9-2-9.7-2.9-14.6C68.2,587.1,69.4,581.2,74.6,578.8z"/>
		</defs>
		<use xlink:href="#SVGID_00000117678652910833586590000002091067162455379077_"  overflow="visible" fill="#5765AD"/>
		<clipPath id="SVGID_00000129906869466781919680000006274449666343419537_">
			<use xlink:href="#SVGID_00000117678652910833586590000002091067162455379077_"  overflow="visible"/>
		</clipPath>
		<g clip-path="url(#SVGID_00000129906869466781919680000006274449666343419537_)">
			<g>
				<path fill="#8193C9" d="M338.9,565.8l0.8-0.3c-2.8-8-3.2-16.6-1.3-24.8c1-4.1,2.6-8.2,4.1-12.1c1.8-4.7,3.7-9.5,4.6-14.5
					c1.8-10.1-0.5-20.2-2.7-30l-0.8,0.2c2.2,9.7,4.5,19.8,2.7,29.7c-0.9,4.9-2.8,9.7-4.6,14.3c-1.6,4-3.2,8.1-4.2,12.3
					C335.6,548.9,336.1,557.6,338.9,565.8z"/>
				<path fill="#8193C9" d="M330.5,613.1l0.7-0.4c-10.3-19.2-3.3-76-0.9-92.9c3.3-23.6,1.8-60.2-3.4-81.6l-0.8,0.2
					c5.2,21.2,6.7,57.7,3.4,81.2C327,536.6,320,593.7,330.5,613.1z"/>
				<path fill="#8193C9" d="M312,619.7c2.8-6.8,0.8-14-1.1-20.9c-1.8-6.5-3.6-13.2-1.5-19.5c0.6-1.8,1.5-3.6,2.4-5.3
					c1.2-2.3,2.5-4.7,3-7.3c1-5.5-1.6-10.8-4.1-15.9c-1.3-2.6-2.7-5.4-3.5-8.1c-3.4-11.1,1.6-22.4,6.5-33.3c2.2-4.9,4.4-10,5.9-15
					c6.8-22.8-1.8-47.5-8.8-67.3l-0.8,0.3c6.9,19.7,15.5,44.2,8.8,66.8c-1.5,5-3.7,10-5.9,14.9c-4.9,11.1-10,22.5-6.5,33.9
					c0.9,2.8,2.2,5.6,3.5,8.2c2.6,5.2,5,10.1,4,15.3c-0.5,2.5-1.7,4.8-2.9,7.1c-0.9,1.7-1.9,3.5-2.5,5.4c-2.1,6.5-0.3,13.3,1.5,20
					c2,7.1,3.8,13.9,1.1,20.4L312,619.7z"/>
				<path fill="#8193C9" d="M287.4,634c8.7-13,12-28.4,9.3-43.2c-1-5.6-2.9-11.1-4.7-16.5c-2.9-8.5-5.8-17.2-5.4-26.1
					c0.3-6,2.2-12.1,4-17.9c2.3-7.2,4.6-14.7,4-22.3c-0.4-4.7-2-9.4-3.6-13.8c-1.8-5.2-3.6-10.6-3.6-16.1c0.1-5.9,2.3-11.6,4.5-17.1
					c1.1-2.8,2.3-5.7,3.1-8.7c3.3-11.2,2.4-23.2-2.4-34l-0.8,0.3c4.7,10.6,5.5,22.4,2.3,33.4c-0.8,2.9-2,5.8-3.1,8.6
					c-2.2,5.6-4.5,11.4-4.6,17.4c-0.1,5.6,1.8,11.1,3.6,16.3c1.5,4.4,3.1,9,3.5,13.6c0.7,7.4-1.7,14.8-3.9,22
					c-1.8,5.9-3.8,11.9-4.1,18.1c-0.5,9,2.5,17.8,5.4,26.4c1.8,5.3,3.7,10.9,4.7,16.4c2.7,14.6-0.6,29.7-9.1,42.5L287.4,634z"/>
				<path fill="#8193C9" d="M275.8,624.9c5.8-13.1,3.2-27.4,0.7-41.1c-2.1-11.4-4.3-23.2-1.7-34.4c0.9-3.8,2.3-7.6,3.7-11.3
					c1.3-3.5,2.7-7.1,3.6-10.8c2.8-11.6,0.9-23.6-1-35.2c-1.3-8-2.7-16.2-2.4-24.3c0.1-5.8,1.1-11.6,2-17.3c0.6-3.9,1.3-8,1.7-12.1
					c0.9-9.9,0.3-19.8-1.9-29.5l-0.8,0.2c2.2,9.6,2.8,19.5,1.9,29.2c-0.4,4-1,8.1-1.7,12c-0.9,5.7-1.9,11.5-2,17.4
					c-0.2,8.2,1.1,16.5,2.5,24.5c1.9,11.5,3.8,23.4,1.1,34.9c-0.9,3.6-2.2,7.2-3.6,10.7c-1.4,3.7-2.9,7.5-3.7,11.4
					c-2.6,11.4-0.4,23.3,1.7,34.8c2.5,13.6,5.1,27.8-0.6,40.6L275.8,624.9z"/>
				<path fill="#8193C9" d="M254.2,630.3l0.7-0.4c-7.5-12.7-8-28.7-1.3-49c1.8-5.4,3.9-10.8,5.9-16c4.1-10.5,8.4-21.5,10-32.7
					c2.2-15.5-0.6-31.3-3.3-46.6c-2.9-16-5.8-32.5-2.9-48.6c2.2-12,7.6-23.5,12.8-34.7l-0.8-0.4c-5.2,11.2-10.6,22.7-12.8,34.9
					c-2.9,16.3,0,32.9,2.9,48.9c2.7,15.2,5.5,31,3.3,46.4c-1.6,11.1-5.9,22-10,32.5c-2.1,5.2-4.2,10.7-5.9,16.1
					C246.1,601.2,246.6,617.4,254.2,630.3z"/>
				<path fill="#8193C9" d="M225.3,625.8c1.7-12.5,1.1-25.2-1.9-37.5c-0.3-1.1-0.5-2.2-0.8-3.3c-2.5-10.1-5.2-20.6,1.3-28.7
					c2.5-3.1,6.1-5.5,9.7-7.8c3.4-2.2,7-4.5,9.5-7.5c9.1-10.7,3-25.5-2.3-35.6c-5.9-11.2-12.6-23.8-6.7-35c1.3-2.4,3.1-4.6,4.8-6.7
					c2.1-2.6,4.3-5.3,5.6-8.3c2.3-5.5,1.2-11.5,0.1-17.2c-0.8-4.3-1.6-8.7-1.1-12.9c1-7.3,6-13.7,10.9-19.8
					c4.6-5.8,9.3-11.7,10.8-18.6c1.6-7.1-0.4-14.7-5.5-20.5l-0.6,0.6c4.9,5.5,6.9,12.9,5.3,19.7c-1.5,6.6-6.2,12.5-10.7,18.2
					c-4.9,6.3-10.1,12.7-11.1,20.3c-0.6,4.4,0.3,8.8,1.1,13.2c1.1,5.9,2.2,11.4,0,16.7c-1.2,2.9-3.4,5.6-5.5,8.1
					c-1.8,2.2-3.6,4.4-4.9,6.9c-6,11.5,0.8,24.4,6.7,35.7c5.3,10,11.2,24.4,2.4,34.7c-2.5,2.9-6,5.2-9.3,7.4
					c-3.6,2.3-7.3,4.7-9.9,7.9c-6.7,8.4-3.9,19.6-1.5,29.4c0.3,1.1,0.5,2.2,0.8,3.3c3,12.3,3.6,24.8,1.9,37.2L225.3,625.8z"/>
				<path fill="#8193C9" d="M186.6,638.4c9.6-14.3,20.5-33.2,20.5-53.4c0-8.4-2-16.9-3.8-25.1c-2.5-11.1-5.2-22.6-2.9-33.8
					c1.4-6.9,4.6-13.4,7.7-19.8c2.4-4.9,4.8-9.9,6.5-15.1c4.1-12.9,3.3-27.3-2.2-40.5c-1.6-3.8-3.6-7.6-5.6-11.3
					c-3.6-6.8-7.4-13.9-8.5-21.5c-3-20.2,12.4-38.1,28.4-54.8l-0.6-0.6c-16.2,16.8-31.7,35-28.6,55.5c1.1,7.7,5,14.8,8.6,21.7
					c1.9,3.6,3.9,7.4,5.5,11.2c5.4,13,6.2,27.2,2.2,39.9c-1.6,5.1-4.1,10.1-6.4,15c-3.1,6.4-6.4,13-7.8,20
					c-2.3,11.4,0.3,23,2.9,34.2c1.9,8.1,3.8,16.6,3.8,24.9c0.1,19.9-10.8,38.8-20.3,52.9L186.6,638.4z"/>
				<path fill="#8193C9" d="M169.4,609.2c12.2-6.5,20-18.9,20.1-31.4c0-9.1-3.8-17.8-7.5-26.3c-3.8-8.7-7.7-17.6-7.4-26.8
					c0.2-6.8,2.8-13.5,5.2-19.9c2.1-5.5,4.3-11.2,5.1-17c1.7-12.8-3.3-25.3-8.2-37.3c-3.5-8.5-7-17.3-8.2-26.2
					c-2.8-20.3,6.2-39.8,17.3-61.3l-0.8-0.4c-11.2,21.7-20.2,41.3-17.4,61.8c1.2,9,4.8,17.9,8.3,26.4c4.8,11.9,9.9,24.3,8.2,36.9
					c-0.8,5.7-2.9,11.4-5,16.8c-2.5,6.5-5.1,13.2-5.3,20.2c-0.3,9.4,3.6,18.5,7.5,27.2c3.7,8.4,7.4,17,7.4,25.9
					c0,12.2-7.7,24.3-19.6,30.7L169.4,609.2z"/>
				<path fill="#8193C9" d="M224.4,444c1.6,0,3.2-0.3,4.7-1.2c3.1-1.8,4.2-5.2,4.6-7.8c0.3-2.2,0.3-4.5,0.2-6.6
					c-0.1-2.3-0.1-4.6,0.2-6.8c1-6.7,5.5-12.5,9.9-18.2c1-1.3,2.1-2.7,3.1-4.1c7-9.6,8.8-17.7,5.4-24.3l-0.8,0.4
					c3.2,6.3,1.4,14.1-5.3,23.4c-1,1.4-2.1,2.7-3.1,4.1c-4.4,5.8-9,11.7-10.1,18.6c-0.4,2.3-0.3,4.7-0.2,7c0.1,2.1,0.1,4.4-0.2,6.5
					c-0.3,2.4-1.3,5.5-4.2,7.1c-3.3,1.9-7.9,1-10.7-0.9c-2.6-1.7-4.5-4.4-6.1-8.3c-6-15.1-1.4-33,11.5-44.5c1.3-1.2,2.8-2.3,4.1-3.4
					c3.2-2.6,6.6-5.2,8.8-8.6c2-2.9,2.8-6.5,2.1-9.6c-0.5-2.5-1.9-4.4-4-5.8l-0.5,0.7c1.9,1.2,3.1,3,3.6,5.2c0.6,2.9-0.2,6.2-2,9
					c-2.2,3.2-5.5,5.9-8.7,8.4c-1.4,1.1-2.8,2.3-4.2,3.5c-13.2,11.8-17.9,30-11.8,45.4c1.6,4.1,3.7,6.9,6.4,8.7
					C219.3,443.2,221.9,444,224.4,444z"/>
				<path fill="#8193C9" d="M213.6,548.5c-1.1-0.2-2-1.1-2.5-2.7c-1.7-5.4-1.7-11.6-0.1-19.5c0.6-2.8,1.3-6,2.9-9
					c3.5-6.7,8.5-10.2,13.3-9.4c4.6,0.8,7.9,5.4,8.8,12.3c0.9,6.4-0.7,12.2-4.6,16.3c-1.7,1.9-3.9,3.4-6.1,4.8l-9,6.2
					c-0.7,0.5-1.6,1-2.5,1C213.8,548.6,213.7,548.6,213.6,548.5z M227.1,508.8c-4.4-0.8-9,2.6-12.4,8.9c-1.5,2.9-2.3,6.1-2.9,8.8
					c-1.6,7.7-1.5,13.8,0.1,19.1c0.4,1.3,1,2,1.8,2.1c0.8,0.1,1.5-0.4,2.2-0.8l9-6.2c2.1-1.4,4.2-2.9,5.9-4.7
					c3.6-3.9,5.2-9.4,4.3-15.6C234.3,513.9,231.3,509.5,227.1,508.8z"/>
				<path fill="#8193C9" d="M245.4,634.1l0.8-0.1c-0.5-7.9-2.4-16-4.3-23.9c-3.7-15.9-7.2-30.8-0.8-45.2c2.5-5.5,6.4-10.7,10.2-15.8
					c6-7.9,12.1-16,12.5-25.5c0.3-8.4-4-16.4-8.1-24.1c-5-9.3-9.7-18.1-6.9-27.5c0.6-2,1.6-4,2.5-5.9c1.2-2.4,2.4-4.8,2.9-7.4
					c0.9-4.5-0.1-9-1.2-13.3c-0.7-2.8-1.4-5.7-1.5-8.5c-0.6-10.9,6.6-21.1,12.4-29.2l-0.7-0.5c-5.9,8.3-13.2,18.6-12.6,29.8
					c0.2,2.9,0.9,5.8,1.5,8.7c1.1,4.5,2.1,8.7,1.2,12.9c-0.5,2.5-1.7,4.9-2.9,7.2c-1,1.9-1.9,3.9-2.6,6c-2.9,9.7,2.1,19,7,28.1
					c4.1,7.6,8.3,15.5,8,23.7c-0.4,9.2-6.2,16.9-12.3,25.1c-3.8,5.1-7.8,10.3-10.3,15.9c-6.5,14.6-2.8,30.4,0.8,45.7
					C243,618.2,244.9,626.2,245.4,634.1z"/>
				<path fill="#8193C9" d="M181.9,609.2c12-13,16.7-30.4,12.6-46.6c-0.9-3.4-2.1-6.8-3.3-10.1c-2-5.4-4-10.9-4.4-16.6
					c-0.5-9.4,3.6-18.5,7.7-27.3c3.4-7.3,6.9-14.9,7.7-22.7c1.3-11.6-3.2-23-7.6-33.9c-1.8-4.6-3.7-9.3-5.1-14
					c-7.8-25.7-2.5-54.5,14.3-76.9l-0.7-0.5c-16.9,22.7-22.3,51.7-14.4,77.7c1.4,4.7,3.3,9.5,5.1,14.1c4.3,10.9,8.8,22.1,7.5,33.5
					c-0.8,7.7-4.3,15.2-7.7,22.5c-4.1,8.9-8.3,18-7.8,27.7c0.3,5.8,2.4,11.4,4.4,16.9c1.2,3.3,2.5,6.7,3.3,10
					c4,15.9-0.6,33-12.4,45.8L181.9,609.2z"/>
				<path fill="#8193C9" d="M305.5,490.8c-1.8-0.7-2.8-3.2-2.9-7.6c0-0.8-0.1-2-0.2-3.5c-1-17.6-1.5-36,2.2-38.7
					c1.3-1,2.5-1.2,3.6-0.6c3.4,1.7,5.2,11.1,5.3,27.8v0.5c0,6.3-0.3,13.4-3.1,18.8c-0.9,1.8-2.4,3.5-4,3.5
					C306.1,491,305.8,490.9,305.5,490.8z M305.1,441.7c-3.8,2.8-2.3,28.4-1.8,38c0.1,1.5,0.1,2.7,0.2,3.5c0.2,3.9,1,6.3,2.4,6.8
					c1.4,0.5,2.9-1.1,3.7-2.9c2.7-5.3,3-12.3,3-18.4v-0.5c-0.1-21.5-3-26.2-4.8-27.1c-0.3-0.1-0.5-0.2-0.8-0.2
					C306.4,440.9,305.8,441.2,305.1,441.7z"/>
			</g>
			<path fill="#8193C9" d="M164.5,635.6l0.8-0.3c-4.7-14.9-3.6-31.7,2.9-45.9c0.6-1.4,1.4-2.8,2-4.2c2-4,4.1-8.2,4.8-12.7
				c1.5-8.9-2.4-17.4-6.1-25.7c-1.5-3.3-3-6.7-4.2-10.1c-3.8-11-4.1-23.3-0.7-34.4c0.5-1.6,1.1-3.2,1.6-4.8c1.3-3.7,2.7-7.5,3-11.5
				c0.7-7.4-2-14.6-4.6-21.5c-1-2.5-1.9-5.1-2.7-7.7c-4.4-14-3.7-29.8,1.9-43.4l-0.8-0.3c-5.6,13.8-6.3,29.8-1.9,44
				c0.8,2.6,1.8,5.2,2.8,7.8c2.6,6.8,5.2,13.9,4.6,21.1c-0.4,3.9-1.7,7.6-3,11.2c-0.6,1.6-1.1,3.2-1.6,4.8
				c-3.5,11.3-3.2,23.8,0.7,34.9c1.2,3.4,2.7,6.8,4.2,10.1c3.7,8.1,7.5,16.5,6.1,25.2c-0.7,4.4-2.8,8.5-4.8,12.5
				c-0.7,1.4-1.4,2.8-2.1,4.3C160.9,603.5,159.8,620.5,164.5,635.6z"/>
			<path fill="#8193C9" d="M148.5,502.1c0.8,0,1.5-0.1,2.3-0.3c3.2-0.8,6.2-3.1,7.7-6c2.8-5.3,2-11.7,0.9-16.7
				c-2.2-10.6-6.2-20.7-11.9-29.9l-0.7,0.4c5.7,9.1,9.6,19.1,11.8,29.6c1,4.8,1.8,11-0.9,16.1c-1.4,2.7-4.2,4.9-7.2,5.6
				c-2.3,0.6-4.5,0.2-6.2-1c-3.3-2.3-4-6.7-3.6-10.2c0.3-2.7,1.3-5.3,2.2-7.8c0.4-1.1,0.8-2.3,1.2-3.4c1.5-4.9,1.6-8.7,0.2-11.8
				c-1.2-2.7-3.5-4.6-5.6-6.5c-2-1.7-4-3.5-5.2-5.8l-0.8,0.4c1.3,2.5,3.4,4.3,5.4,6.1c2.2,1.9,4.3,3.7,5.4,6.2
				c1.3,2.9,1.3,6.6-0.2,11.2c-0.4,1.1-0.8,2.3-1.2,3.4c-0.9,2.6-1.9,5.2-2.2,8c-0.5,3.7,0.3,8.5,3.9,11
				C145.3,501.7,146.9,502.1,148.5,502.1z"/>
			<path fill="#8193C9" d="M126.4,631.9c3.2-6,7.3-11.7,11.2-17.2c3.3-4.7,6.8-9.5,9.7-14.5c9.9-16.9,9-29.3,6.5-36.6
				c-0.6-1.7-1.3-3.5-2-5.2c-2.1-4.9-4.2-9.9-2.5-14.7c0.5-1.3,1.2-2.4,1.9-3.6c0.5-0.8,1-1.6,1.4-2.4c2.2-4.4,2.3-9.9,0.2-14.3
				c-2.1-4.4-6.4-7.9-11.2-8.9c-0.7-0.1-1.4-0.3-2-0.4c-1.3-0.2-2.4-0.4-3.6-0.8c-5.8-2.3-7.1-10.3-5.4-16.8c0.5-2.1,1.3-4.1,2-6.1
				c1.5-4.2,3.1-8.6,2.8-13.2c-0.3-5.9-3.8-11.3-6.6-15.7l-6.9-10.8l-0.7,0.5l6.9,10.8c2.9,4.5,6.2,9.6,6.5,15.3
				c0.3,4.4-1.3,8.7-2.8,12.9c-0.7,2-1.5,4.1-2,6.2c-1.8,6.8-0.3,15.3,5.9,17.8c1.2,0.5,2.5,0.7,3.8,0.9c0.7,0.1,1.3,0.2,2,0.3
				c4.5,1,8.6,4.2,10.6,8.5c2,4.2,1.9,9.4-0.2,13.6c-0.4,0.8-0.9,1.6-1.3,2.3c-0.7,1.2-1.5,2.4-2,3.8c-1.9,5.1,0.4,10.3,2.5,15.3
				c0.7,1.7,1.5,3.4,2,5.1c2.4,7.2,3.3,19.3-6.4,35.9c-2.9,5-6.3,9.8-9.6,14.4c-3.9,5.5-8,11.2-11.3,17.3L126.4,631.9z"/>
			<path fill="#8193C9" d="M101.5,619.7c11.7-7.2,20.6-16.7,25.5-27.5c5.6-12.2,5.9-26,0.8-37c-1.5-3.2-3.4-6.2-5.2-9
				c-0.9-1.5-1.9-3-2.8-4.5c-8.1-13.7-10.3-28.6-6.1-40.7c0.9-2.6,2.1-5.1,3.2-7.5c2-4.3,4.2-8.8,4.7-13.6
				c1.2-11.9-7.4-22.3-15.5-31.1l-0.6,0.6c8,8.7,16.5,18.9,15.3,30.5c-0.5,4.7-2.6,9.1-4.6,13.4c-1.2,2.5-2.4,5-3.3,7.6
				c-4.3,12.4-2.1,27.5,6.2,41.4c0.9,1.5,1.9,3,2.8,4.5c1.8,2.9,3.7,5.8,5.1,8.9c5,10.8,4.6,24.4-0.8,36.3
				c-4.9,10.6-13.6,20-25.2,27.1L101.5,619.7z"/>
			<path fill="#8193C9" d="M138.2,562.2c-1.1-0.5-2-1.3-3-2.7c-1.5-2.2-2.5-4.7-3.4-7.2c-0.4-1-0.8-2-1.2-3.1
				c-2.6-6.7-6.3-15.9-4.4-22.7c0.9-3.3,3-4.4,4.6-4.7c3.8-0.8,8.4,1.8,10.7,4.6c2.9,3.5,3.7,8.5,2.1,12.8c-0.4,1.1-1,2.2-1.5,3.2
				c-1,1.9-2,3.6-2,5.6c-0.1,1.9,0.7,3.7,1.5,5.6c0.5,1.1,1,2.3,1.3,3.5c0.3,1.1,0.6,3.2-0.8,4.5c-0.7,0.6-1.5,0.9-2.4,0.9
				C139.3,562.6,138.7,562.4,138.2,562.2z M131,522.7c-2,0.4-3.3,1.8-4,4.1c-1.8,6.5,1.7,15.5,4.3,22.1c0.4,1.1,0.8,2.1,1.2,3.1
				c0.9,2.4,1.8,4.9,3.3,7c0.9,1.3,1.7,2,2.6,2.4c1.1,0.5,2.4,0.3,3.1-0.4c1.1-1.1,0.7-3,0.5-3.7c-0.3-1.1-0.8-2.2-1.2-3.3
				c-0.8-1.9-1.6-3.8-1.6-5.9c0.1-2.2,1.1-4.1,2.1-6c0.5-1,1.1-2,1.5-3.1c1.5-4,0.7-8.7-2-12c-1.9-2.4-5.5-4.5-8.6-4.5
				C131.9,522.6,131.5,522.6,131,522.7z"/>
			<path fill="#8193C9" d="M97.8,606.7c3.1,0,6.1-2.5,7.9-4.3c6.7-6.8,11.3-14,13.9-21.5c3-8.7,3-17.7,0-25.4
				c-2.4-6-6.5-11-10.5-15.9c-2.7-3.3-5.5-6.7-7.7-10.3c-7-11.5-8.4-26.5-3.7-39.1l-0.8-0.3c-4.8,12.9-3.3,28.1,3.8,39.8
				c2.2,3.7,5,7.1,7.8,10.4c4,4.8,8,9.8,10.3,15.7c2.9,7.4,2.9,16.2,0,24.8c-2.5,7.3-7.1,14.4-13.7,21.2c-2,2-5.8,5.2-9.2,3.6
				c-1.3-0.6-2-1.8-2.3-2.7c-0.6-1.7-0.5-3.7,0.3-5.4c1.3-2.8,4-4.7,6.9-6.6c2.8-1.9,5.7-3.8,7.3-6.8c1.9-3.5,1.7-8.3-0.6-12.7
				c-1.9-3.7-4.9-6.8-7.8-9.7l-0.2-0.2c-4.2-4.2-8.1-8.5-9.7-13.8c-1.7-5.4-0.7-11.2,0.2-16.8c0.8-4.9,1.7-10,0.8-15l-0.8,0.1
				c0.8,4.8,0,9.8-0.8,14.7c-1,5.7-1.9,11.6-0.2,17.2c1.7,5.4,5.7,9.8,9.9,14.1l0.2,0.2c2.9,2.9,5.8,5.9,7.7,9.5
				c2.1,4.1,2.3,8.6,0.6,11.9c-1.5,2.8-4.3,4.7-7.1,6.5c-3,2-5.8,4-7.2,7c-0.9,1.8-1,4.1-0.3,6c0.5,1.5,1.5,2.6,2.8,3.2
				C96.3,606.5,97.1,606.7,97.8,606.7z"/>
			<path fill="#8193C9" d="M85.3,613.7l0.8-0.4c-2.1-4.6-1.8-10.3,1.1-17.9c0.4-1.1,0.8-2.2,1.3-3.3c1.9-4.7,3.8-9.7,3.9-14.8
				c0-6.7-3.3-12.8-6.4-18.7c-2.1-3.9-4.3-7.9-5.5-12.1c-2.5-8.8-0.7-18.9,4.8-26.2l-0.7-0.5c-5.6,7.6-7.5,17.9-4.9,26.9
				c1.2,4.3,3.4,8.4,5.6,12.3c3.3,6,6.3,11.7,6.3,18.3c0,5-1.9,9.8-3.8,14.5c-0.4,1.1-0.9,2.2-1.3,3.3
				C84.5,600.1,82.4,607.4,85.3,613.7z"/>
			<path fill="#8193C9" d="M79.8,610.9l0.6-0.6c-5.6-6.2-7.4-15.6-4.6-23.5c0.5-1.4,1.2-2.9,1.8-4.2c1.3-2.8,2.7-5.7,2.8-8.9
				c0.3-5-2.6-9.6-4.8-12.6c-0.3-0.4-0.6-0.8-0.9-1.2c-1.6-2.1-3.2-4.3-4-6.9c-0.9-2.8-0.4-6.5,2.2-8.2l-0.5-0.7
				c-2.9,1.9-3.5,6-2.5,9.2c0.8,2.7,2.5,4.9,4.1,7.1c0.3,0.4,0.6,0.8,0.9,1.2c2.1,2.9,4.9,7.3,4.6,12.1c-0.2,3-1.4,5.7-2.8,8.5
				c-0.7,1.4-1.3,2.8-1.9,4.3C72.1,594.7,74,604.5,79.8,610.9z"/>
			<path fill="#8193C9" d="M68.7,606.3l0.8-0.4c-4.1-7.7-6.6-15.1-7.3-22.1c-0.9-8.2,0.7-16.2,4.3-22.5l-0.7-0.4
				c-3.7,6.4-5.3,14.6-4.4,23C62,591,64.5,598.5,68.7,606.3z"/>
			<path fill="#8193C9" d="M70.8,578.5C70.9,578.5,70.9,578.5,70.8,578.5c1.6,0,2.7-1.2,3.3-2.2c0.6-1.2,0.8-2.5,0.9-3.7
				c0.4-3.1,0.6-7.5-2.5-9.5l-0.4,0.7c2.7,1.6,2.5,5.7,2.1,8.6c-0.2,1.2-0.3,2.4-0.8,3.4c-0.6,1.1-1.5,1.8-2.5,1.8c0,0,0,0-0.1,0
				c-1.9,0-3-2.4-3.2-4.1c-0.3-1.9,0-4.2,1.7-5l-0.4-0.7c-2,1.1-2.4,3.8-2.1,5.9C67.1,576.1,68.5,578.5,70.8,578.5z"/>
		</g>
	</g>
</g>
<path fill="#87B1C6" d="M171.8,399.3c2.4-88.5,33.3-187.4,139.1-251.8C560.5-4.6,746.3,89.3,790.3,164c59,100-46.9,246.4-3.7,319.5
	c0.4,0.6-2.4,1.2-2.1,1.8c31.4,52.7-23.6,120.9-82.9,120.9H338.4c-27.3,0-54.2-7.6-77.7-22.1C195.3,543.5,169.1,501.5,171.8,399.3z"
	/>
<g>
	
		<ellipse transform="matrix(0.7071 -0.7071 0.7071 0.7071 -30.7356 623.6984)" fill="#F9BB62" cx="737.5" cy="349" rx="114.9" ry="114.9"/>
	<circle fill="#FCEE88" cx="736.2" cy="349.8" r="101.2"/>
	<g>
		<g>
			<path fill="#F9BB62" d="M751.3,417.4h-17.8v-15.2c-11.7-0.6-23.2-3.3-34-8l-0.3-0.1v-28.2l0.7,0.4c6.2,3.2,13.1,5.9,20.4,8
				c7.3,2.1,13.8,3.2,19.3,3.2c4.5,0,7.8-0.5,9.9-1.6c2-1,2.9-2.7,2.9-5.1c0-1.6-0.7-3-2.1-4.2c-1.5-1.2-4.1-2.6-7.6-4.2
				c-3.6-1.6-8.5-3.5-14.6-5.7c-6.9-2.6-12.6-5.5-16.8-8.7c-4.3-3.2-7.4-6.9-9.4-10.8c-2-4-2.9-9-2.9-14.9c0-9.1,3-16.2,8.8-21.4
				c5.7-5,14.4-8.2,25.7-9.4v-11.2h17.8v11c10.6,0.6,21.5,3.3,32.3,8l0.5,0.2L774,323.6l-0.5-0.2c-11.2-5-21.5-7.6-30.5-7.6
				c-4.2,0-7.2,0.5-8.9,1.5c-1.6,1-2.4,2.4-2.4,4.2c0,1.7,0.6,3,1.7,4.1c1.2,1.1,3.4,2.4,6.5,3.8c3.1,1.4,7.5,3.1,13,5
				c11.4,4,19.6,8.7,24.6,13.8c5,5.2,7.5,12,7.5,20.2c0,9.2-3,16.8-8.8,22.6c-5.8,5.7-14.2,9.3-25.1,10.7V417.4z M734.4,416.4h15.8
				v-15.6l0.4-0.1c10.9-1.3,19.3-4.8,25-10.4c5.6-5.6,8.5-12.9,8.5-21.9c0-7.9-2.4-14.5-7.3-19.5c-4.9-5-13-9.6-24.2-13.6
				c-5.6-1.9-10-3.6-13.1-5c-3.2-1.5-5.5-2.8-6.8-4c-1.4-1.3-2.1-2.9-2.1-4.8c0-2.2,1-4,2.9-5.1c1.9-1.1,4.9-1.7,9.4-1.7
				c9,0,19.2,2.5,30.4,7.5l9.3-22.3c-10.7-4.6-21.5-7.2-32-7.7l-0.5,0v-11h-15.8v11.1l-0.4,0c-11.3,1.2-19.9,4.3-25.6,9.2
				c-5.6,4.9-8.5,11.9-8.5,20.6c0,5.8,1,10.6,2.8,14.5c1.9,3.8,4.9,7.4,9.1,10.5c4.2,3.1,9.7,6,16.5,8.5c6.1,2.2,11,4.1,14.6,5.7
				c3.6,1.6,6.3,3,7.8,4.3c1.7,1.3,2.5,3,2.5,4.9c0,2.8-1.2,4.8-3.5,6c-2.2,1.1-5.7,1.7-10.4,1.7c-5.6,0-12.2-1.1-19.6-3.2
				c-7.1-2.1-13.8-4.6-19.9-7.7v25.9c10.8,4.6,22.2,7.3,33.9,7.8l0.5,0V416.4z"/>
		</g>
	</g>
</g>
<g>
	<path fill="#B5DBEA" d="M457.4,292.4c-18.3,0-36.2-5.4-51.6-15.7l-0.8-0.6l0.9-0.5c3.9-2,6.7-5.3,7.6-9.1c0.1-0.5,0.2-0.9,0.3-1.4
		c0.3-1.4,0.5-2.8,1.3-4c2.5-3.9,7.4-3.2,12.2-2.5c4.3,0.7,8.7,1.3,11.3-1.4c1.5-1.6,1.8-3.9,2.1-6.3c0.2-1.4,0.4-2.9,0.8-4.2
		c1.8-5.5,7.5-8.4,12.2-9.3c3.8-0.7,7.7-0.6,11.5-0.4c1.4,0.1,2.7,0.1,4.1,0.1c1.1,0,2.4,0,3.2-0.7c0.8-0.7,1-1.9,1.2-3
		c1.8-8.9,7.5-19.7,17.7-20.9c7-0.8,14.2,4.1,16.1,10.9c1.8,6.8-2,14.7-8.5,17.5l-0.3,0.1c-0.8,0.3-1.5,0.6-1.9,1.2
		c-0.6,0.8-0.3,2-0.1,3.1l1.6,7c0.3,1.4,0.7,2.8,1.9,3.4c0.9,0.4,2,0.1,3.1-0.2l13-4.1c-1-1.9-0.8-4.1,0.5-6.2
		c2.1-3.4,6.2-5.5,10-5.1c4.2,0.5,7.7,2.8,10.9,5.2l0.4,0.3l-0.3,0.5c-14.4,24.7-38.9,41.2-67.1,45.2
		C466.2,292.1,461.8,292.4,457.4,292.4z M407.2,276.3c18.7,12.2,41.1,17.2,63.3,14c27.7-4,51.7-20.1,66-44.2
		c-3.4-2.5-6.4-4.3-9.9-4.7c-3.2-0.4-7,1.6-8.8,4.5c-0.7,1.1-1.6,3.4-0.1,5.6l0.4,0.7l-14.4,4.5c-1.3,0.4-2.7,0.8-4,0.2
		c-1.7-0.8-2.2-3-2.5-4.2l-1.6-7c-0.3-1.3-0.6-2.8,0.3-4c0.6-0.9,1.6-1.3,2.4-1.6l0.3-0.1c6-2.6,9.5-9.8,7.8-16.1
		c-1.7-6.3-8.3-10.8-14.8-10.1c-9.6,1.1-15,11.4-16.7,20c-0.3,1.3-0.6,2.8-1.6,3.7c-1.1,1-2.7,1-4,1c-1.4,0-2.8-0.1-4.1-0.1
		c-3.7-0.2-7.5-0.3-11.2,0.4c-4.4,0.8-9.7,3.5-11.3,8.5c-0.4,1.2-0.6,2.6-0.8,4c-0.3,2.5-0.6,5-2.4,7c-3,3.2-7.7,2.5-12.3,1.8
		c-4.6-0.7-8.9-1.4-11,1.9c-0.7,1-0.9,2.3-1.2,3.6c-0.1,0.5-0.2,1-0.3,1.5C413.6,270.8,411,274.1,407.2,276.3z"/>
	<path fill="#B5DBEA" d="M410.9,238.7c-3.5,0-7.5-1.7-10.4-3.5l-14-8.7c-0.8,4.8-6.1,8-10.9,7.9c-1.4,0-2.9-0.3-4.5-0.7l-0.3-0.1
		l-0.1-0.3c-2.6-6.7-4.5-13.7-5.5-20.7c-5.1-35.3,10.1-69.8,39.5-90l0.8-0.6l2,19.4c0.3,3.4,0.5,7.2-1.9,9.7c-2,2.1-5.1,2.7-8.1,3.2
		c-3.6,0.7-6.7,1.3-7,4.3c-0.1,0.6,0,1.2,0.2,1.9c0.2,1,0.3,2,0,3c-0.5,1.4-1.8,2.3-3,3c-0.2,0.1-0.4,0.2-0.6,0.4
		c-4.2,2.7-6.7,7.8-6.4,12.8c-0.1,1.3,0.7,2.2,1.3,2.7c1.4,1,3.5,1.3,5.1,0.7c2.2-0.8,3.8-2.6,5.5-4.5c0.5-0.6,1.1-1.2,1.6-1.7
		c3.1-3.1,6.5-4.3,9.3-3.1c1.7,0.7,3.1,2.2,4.3,3.7c1.7,2,3.2,3.7,5.2,3c0.9-0.3,1.6-1,2.4-1.8c0.5-0.6,1.1-1.2,1.8-1.6
		c3.1-2,7.4-0.7,12.1,3.9l19,18.4c1.8,1.7,3.5,3.6,3.7,6c0.2,2.2-1.2,4.3-2.1,5.8l-7,10.9c-1.9,2.9-4,6.2-7.2,8.2
		c-3.1,1.9-7.8,2.3-10.7-0.5c-0.3-0.3-0.6-0.7-0.9-1.1c-0.7-0.8-1.3-1.6-2.1-1.8c-1.5-0.4-3,1.2-3.6,2.9c-0.2,0.7-0.4,1.4-0.5,2.1
		c-0.2,1.3-0.5,2.5-1.2,3.7c-0.9,1.5-2.2,2.5-3.9,2.9C412.3,238.6,411.6,238.7,410.9,238.7z M385.4,224.4l15.6,9.8
		c3.3,2.1,8.2,4,11.6,3.2c1.4-0.3,2.5-1.2,3.2-2.4c0.6-1,0.8-2.1,1-3.3c0.1-0.7,0.3-1.5,0.5-2.3c0.7-2.3,2.8-4.2,5-3.7
		c1.2,0.3,2,1.3,2.7,2.2c0.3,0.4,0.6,0.7,0.9,1c2.4,2.4,6.5,2,9.2,0.4c3-1.8,5-5,6.8-7.8l7-10.9c1.1-1.8,2.1-3.4,1.9-5.1
		c-0.1-2-1.7-3.6-3.4-5.3l-19-18.4c-2.5-2.4-7.2-6.1-10.7-3.8c-0.6,0.4-1.1,0.9-1.6,1.4c-0.8,0.9-1.7,1.7-2.9,2.1
		c-2.7,0.8-4.6-1.3-6.4-3.4c-1.2-1.4-2.4-2.8-3.9-3.4c-3.4-1.4-7,1.9-8,2.9c-0.5,0.5-1.1,1.1-1.6,1.7c-1.7,1.9-3.5,3.8-5.9,4.8
		c-1.9,0.8-4.5,0.4-6.2-0.9c-1.2-0.9-1.9-2.2-1.8-3.6c-0.4-5.3,2.4-10.9,6.9-13.8c0.2-0.1,0.4-0.2,0.6-0.4c1.1-0.7,2.1-1.3,2.5-2.4
		c0.3-0.7,0.1-1.6,0-2.5c-0.1-0.7-0.2-1.4-0.2-2.2c0.3-3.9,4.2-4.6,8-5.3c2.8-0.5,5.7-1.1,7.4-2.9c2-2.1,1.9-5.6,1.6-8.7l-1.8-17.4
		c-28.5,20-43.1,53.8-38.2,88.3c1,6.8,2.8,13.6,5.3,20.2c1.4,0.4,2.7,0.6,3.9,0.6c4.6,0.1,9.7-3.1,9.8-7.8L385.4,224.4z"/>
	<path fill="#B5DBEA" d="M406,276.9l-0.3-0.2c-15.9-10.7-28-25.7-35-43.5l-0.4-1.1l1.1,0.3c1.5,0.4,2.9,0.7,4.2,0.7
		c4.6,0.1,9.7-3.1,9.8-7.8l0-1l15.6,9.8c3.3,2.1,8.2,4,11.6,3.2c1.4-0.3,2.5-1.2,3.2-2.4c0.6-1,0.8-2.1,1-3.3
		c0.1-0.7,0.3-1.5,0.5-2.3c0.7-2.3,2.8-4.2,5-3.7c1.2,0.3,2,1.3,2.7,2.2c0.3,0.4,0.6,0.7,0.9,1c2.4,2.4,6.5,2,9.2,0.4
		c3-1.8,5-5,6.8-7.8l7-10.9c1.1-1.8,2.1-3.4,1.9-5.1c-0.1-2-1.7-3.6-3.4-5.3l-19-18.4c-2.5-2.4-7.2-6.1-10.7-3.8
		c-0.6,0.4-1.1,0.9-1.6,1.4c-0.8,0.9-1.7,1.7-2.9,2.1c-2.7,0.8-4.6-1.3-6.4-3.4c-1.2-1.4-2.4-2.8-3.9-3.4c-3.4-1.4-7,1.9-8,2.9
		c-0.5,0.5-1.1,1.1-1.6,1.7c-1.7,1.9-3.5,3.8-5.9,4.8c-1.9,0.8-4.5,0.4-6.2-0.9c-1.2-0.9-1.9-2.2-1.8-3.6
		c-0.4-5.3,2.4-10.9,6.9-13.8c0.2-0.1,0.4-0.2,0.6-0.4c1.1-0.7,2.1-1.3,2.5-2.4c0.3-0.7,0.1-1.6,0-2.5c-0.1-0.7-0.2-1.4-0.2-2.2
		c0.3-3.9,4.2-4.6,8-5.3c2.8-0.5,5.7-1.1,7.4-2.9c2-2.1,1.9-5.6,1.6-8.7l-1.9-18.7l0.3-0.2c3.1-2.1,6.4-4.1,9.7-5.8l0.6-0.3l0.2,0.6
		c1.4,3.3,4.5,6.1,8.1,7.5c3.3,1.2,6.7,1.2,9.5-0.1l0.4-0.2c2.1-1,4.6-2.2,6.4-0.5c0.7,0.7,1,1.7,1.2,2.5l4.7,17.9
		c0.6,2.1,1.1,4,2.5,5.2c1.3,1.1,3.1,1.5,4.7,1.8l22.5,4.3l0.1,0.1c3,2.3,2.2,6.1,1.4,9.7c-0.3,1.6-0.7,3.2-0.7,4.7
		c0,2.6,1.2,5.2,3.4,7.2c2.8,2.6,6.9,3.9,10.6,3.5c7.2-0.8,13-6.5,16.5-11.1c0.7-0.9,1.4-1.9,1.5-2.9c0.1-1.3-0.6-2.6-1.4-3.9
		c-0.7-1.1-1.4-2.3-1.6-3.7c-0.3-1.9,0.6-3.6,2.3-4.8c2.3-1.6,5.4-1.9,7.7-0.7c3.3,1.7,5.4,5.4,6.5,11.1c0.1,0.7,0.3,1.5,0.4,2.2
		c0.6,3.4,1.2,6.9,3.1,9.7c1.4,1.9,3.7,3.3,6,3.5c1.1,0.1,2.8,0,4.1-1.3l0.4-0.3l0.4,0.3c2.2,1.6,2.1,4.3,2.1,6.9
		c0,2.4-0.1,4.6,1.4,5.9c1,0.9,2.5,1.2,3.7,1.4l7.3,1.3l0,0.5c0.9,18-3.5,35.8-12.6,51.4l-0.3,0.6l-0.5-0.4c-3.6-2.7-6.7-4.6-10.4-5
		c-3.2-0.4-7,1.6-8.8,4.5c-0.7,1.1-1.6,3.4-0.1,5.6l0.4,0.7l-14.4,4.5c-1.3,0.4-2.7,0.8-4,0.2c-1.7-0.8-2.2-3-2.5-4.2l-1.6-7
		c-0.3-1.3-0.6-2.8,0.3-4c0.6-0.9,1.6-1.3,2.4-1.6l0.3-0.1c6-2.6,9.5-9.8,7.8-16.1c-1.7-6.3-8.3-10.8-14.8-10.1
		c-9.6,1.1-15,11.4-16.7,20c-0.3,1.3-0.6,2.8-1.6,3.7c-1.1,1-2.7,1-4,1c-1.4,0-2.8-0.1-4.1-0.1c-3.7-0.2-7.6-0.3-11.2,0.4
		c-4.4,0.8-9.7,3.5-11.3,8.5c-0.4,1.2-0.6,2.6-0.8,4c-0.3,2.5-0.6,5-2.4,7c-3,3.2-7.7,2.5-12.3,1.8c-4.6-0.7-8.9-1.4-11,1.9
		c-0.7,1-0.9,2.3-1.2,3.6c-0.1,0.5-0.2,1-0.3,1.5c-1,4.1-4,7.7-8.3,9.8L406,276.9z M372.3,233.9c6.9,17,18.5,31.4,33.8,41.7
		c3.8-2,6.4-5.2,7.3-8.9c0.1-0.5,0.2-0.9,0.3-1.4c0.3-1.4,0.5-2.8,1.3-4c2.5-3.9,7.4-3.2,12.2-2.5c4.3,0.7,8.7,1.3,11.3-1.4
		c1.5-1.6,1.8-3.9,2.1-6.3c0.2-1.4,0.4-2.9,0.8-4.2c1.8-5.5,7.5-8.4,12.2-9.3c3.8-0.7,7.7-0.6,11.5-0.4c1.4,0.1,2.7,0.1,4.1,0.1
		c1.1,0,2.4,0,3.2-0.7c0.8-0.7,1-1.9,1.2-3c1.8-8.9,7.5-19.7,17.7-20.9c7-0.8,14.2,4.1,16.1,10.9c1.8,6.8-2,14.7-8.5,17.5l-0.3,0.1
		c-0.8,0.3-1.5,0.6-1.9,1.2c-0.6,0.8-0.3,2-0.1,3.1l1.6,7c0.3,1.4,0.7,2.8,1.9,3.4c0.9,0.4,2,0.1,3.1-0.2l13-4.1
		c-1-1.9-0.8-4.1,0.5-6.2c2.1-3.4,6.2-5.5,10-5.1c3.9,0.5,7.3,2.5,10.4,4.8c8.7-15.1,12.9-32.3,12.1-49.7l-6.4-1.2
		c-1.4-0.2-3.1-0.6-4.3-1.7c-1.8-1.7-1.8-4.3-1.7-6.8c0-2.2,0.1-4.4-1.2-5.6c-1.2,1-2.8,1.5-4.6,1.3c-2.6-0.2-5.3-1.8-6.9-4
		c-2.1-3-2.7-6.7-3.3-10.2c-0.1-0.7-0.2-1.5-0.4-2.2c-1-5.4-2.9-8.7-5.9-10.3c-1.8-1-4.5-0.7-6.4,0.6c-0.8,0.6-2.1,1.8-1.8,3.7
		c0.2,1.1,0.8,2.1,1.5,3.2c0.9,1.4,1.8,2.9,1.6,4.6c-0.1,1.4-0.9,2.5-1.7,3.5c-5.3,6.9-11.3,10.9-17.3,11.6c-4,0.5-8.4-1-11.5-3.8
		c-2.5-2.2-3.8-5.1-3.8-8.1c0-1.6,0.4-3.3,0.7-4.9c0.7-3.4,1.4-6.6-0.9-8.5l-22.2-4.3c-1.7-0.3-3.7-0.7-5.3-2
		c-1.7-1.5-2.4-3.9-2.8-5.8l-4.7-17.9c-0.2-0.7-0.4-1.5-0.9-1.9c-1.2-1.2-3.2-0.2-5.1,0.7l-0.4,0.2c-3.1,1.5-6.8,1.5-10.4,0.2
		c-3.7-1.4-6.9-4.2-8.5-7.6c-3,1.6-6,3.4-8.8,5.3l1.9,18c0.3,3.4,0.5,7.2-1.9,9.7c-2,2.1-5.1,2.7-8.1,3.2c-3.6,0.7-6.7,1.3-7,4.3
		c-0.1,0.6,0,1.2,0.2,1.9c0.2,1,0.3,2,0,3c-0.5,1.4-1.8,2.3-3,3c-0.2,0.1-0.4,0.2-0.6,0.4c-4.2,2.7-6.7,7.8-6.4,12.8
		c-0.1,1.3,0.7,2.2,1.3,2.7c1.4,1,3.5,1.3,5.1,0.7c2.2-0.8,3.8-2.6,5.5-4.5c0.5-0.6,1.1-1.2,1.6-1.7c3.1-3.1,6.5-4.3,9.3-3.1
		c1.7,0.7,3.1,2.2,4.3,3.7c1.7,2,3.2,3.7,5.2,3c0.9-0.3,1.6-1,2.4-1.8c0.5-0.6,1.1-1.2,1.8-1.6c3.1-2,7.4-0.7,12.1,3.9l19,18.4
		c1.8,1.7,3.5,3.6,3.7,6c0.2,2.2-1.2,4.3-2.1,5.8l-7,10.9c-1.9,2.9-4,6.2-7.2,8.2c-3.1,1.9-7.8,2.3-10.7-0.5
		c-0.3-0.3-0.6-0.7-0.9-1.1c-0.7-0.8-1.3-1.6-2.1-1.8c-1.5-0.4-3,1.2-3.6,2.9c-0.2,0.7-0.4,1.4-0.5,2.1c-0.2,1.3-0.5,2.5-1.2,3.7
		c-0.9,1.5-2.2,2.5-3.9,2.9c-3.8,0.9-9-1.1-12.5-3.3l-14-8.7c-0.8,4.8-6.1,8-10.9,7.9C374.6,234.3,373.4,234.2,372.3,233.9z"/>
	<path fill="#B5DBEA" d="M550.4,195.6l-7.6-1.4c-1.4-0.2-3.1-0.6-4.3-1.7c-1.8-1.7-1.8-4.3-1.7-6.8c0-2.2,0.1-4.4-1.2-5.6
		c-1.2,1-2.8,1.5-4.6,1.3c-2.6-0.2-5.3-1.8-6.9-4c-2.1-3-2.7-6.7-3.3-10.2c-0.1-0.7-0.2-1.5-0.4-2.2c-1-5.4-2.9-8.7-5.9-10.3
		c-1.8-1-4.5-0.7-6.4,0.6c-0.8,0.6-2.1,1.8-1.8,3.7c0.2,1.1,0.8,2.1,1.5,3.2c0.9,1.4,1.8,2.9,1.6,4.6c-0.1,1.4-0.9,2.5-1.7,3.5
		c-5.3,6.9-11.3,10.9-17.3,11.6c-4,0.5-8.4-1-11.5-3.8c-2.5-2.2-3.8-5.1-3.8-8.1c0-1.6,0.4-3.3,0.7-4.9c0.7-3.4,1.4-6.6-0.9-8.5
		l-22.2-4.3c-1.7-0.3-3.7-0.7-5.3-2c-1.7-1.5-2.4-3.9-2.8-5.8l-4.7-17.9c-0.2-0.7-0.4-1.5-0.9-1.9c-1.2-1.2-3.2-0.2-5.1,0.7
		l-0.4,0.2c-3.1,1.5-6.8,1.5-10.4,0.2c-3.9-1.5-7.2-4.5-8.8-8.1L414,117l0.5-0.3c9.3-4.8,19.3-8,29.7-9.5
		c50.8-7.3,98,28.1,105.3,78.9c0.4,2.8,0.7,5.7,0.8,8.8L550.4,195.6z M535.5,178.5l0.4,0.3c2.2,1.6,2.1,4.3,2.1,6.9
		c0,2.4-0.1,4.6,1.4,5.9c1,0.9,2.5,1.2,3.7,1.4l6.1,1.1c-0.2-2.7-0.4-5.4-0.8-7.9c-7.2-50.2-53.9-85.1-104-77.9
		c-10.1,1.4-19.8,4.5-28.8,9.2c1.5,3.1,4.4,5.7,7.9,7c3.3,1.2,6.7,1.2,9.5-0.1l0.3,0.5l-0.3-0.5l0.4-0.2c2.1-1,4.6-2.2,6.4-0.5
		c0.7,0.7,1,1.7,1.2,2.5l4.7,17.9c0.6,2.1,1.1,4,2.5,5.2c1.3,1.1,3.1,1.5,4.7,1.8l22.5,4.3l0.1,0.1c3,2.3,2.2,6.1,1.4,9.7
		c-0.3,1.6-0.7,3.2-0.7,4.7c0,2.6,1.2,5.2,3.4,7.2c2.8,2.6,6.9,3.9,10.6,3.5c7.2-0.8,13-6.5,16.5-11.1c0.7-0.9,1.4-1.9,1.5-2.9
		c0.1-1.3-0.6-2.6-1.4-3.9c-0.7-1.1-1.4-2.3-1.6-3.7c-0.3-1.9,0.6-3.6,2.3-4.8c2.3-1.6,5.4-1.9,7.7-0.7c3.3,1.7,5.4,5.4,6.5,11.1
		c0.1,0.7,0.3,1.5,0.4,2.2c0.6,3.4,1.2,6.9,3.1,9.7c1.4,1.9,3.7,3.3,6,3.5c1.1,0.1,2.8,0,4.1-1.3L535.5,178.5z"/>
</g>
<g>
	<path fill="#B5DBEA" d="M614.1,157.5c-0.5,0-1-0.1-1.5-0.4l-11.8-6.2c-0.6-0.3-1.4-0.3-2,0l-11.8,6.2c-1.1,0.6-2.3,0.5-3.3-0.2
		c-1-0.7-1.5-1.9-1.2-3.1l2.2-13.1c0.1-0.7-0.1-1.4-0.6-1.9l-9.5-9.3c-0.9-0.8-1.2-2.1-0.8-3.2c0.4-1.1,1.3-2,2.5-2.1l13.2-1.9
		c0.7-0.1,1.3-0.5,1.6-1.2l5.9-11.9c0.5-1.1,1.6-1.7,2.8-1.7s2.3,0.7,2.8,1.7l5.9,11.9c0.3,0.6,0.9,1.1,1.6,1.2l13.2,1.9
		c1.2,0.2,2.2,1,2.5,2.1c0.4,1.1,0.1,2.4-0.8,3.2l-9.5,9.3c-0.5,0.5-0.7,1.2-0.6,1.9l2.2,13.1c0.2,1.2-0.3,2.4-1.2,3.1
		C615.4,157.3,614.8,157.5,614.1,157.5z M599.9,108.4c-0.8,0-1.5,0.4-1.9,1.2l-5.9,11.9c-0.5,0.9-1.3,1.6-2.4,1.7l-13.2,1.9
		c-0.8,0.1-1.5,0.7-1.7,1.5c-0.3,0.8-0.1,1.6,0.5,2.2l9.5,9.3c0.7,0.7,1.1,1.8,0.9,2.8l-2.2,13.1c-0.1,0.8,0.2,1.6,0.9,2.1
		c0.7,0.5,1.5,0.6,2.3,0.2l11.8-6.2c0.9-0.5,2-0.5,2.9,0l11.8,6.2c0.7,0.4,1.6,0.3,2.3-0.2c0.7-0.5,1-1.3,0.9-2.1l-2.2-13.1
		c-0.2-1,0.2-2.1,0.9-2.8l9.5-9.3c0.6-0.6,0.8-1.4,0.5-2.2c-0.3-0.8-0.9-1.3-1.7-1.5l-13.2-1.9c-1-0.1-1.9-0.8-2.4-1.7l-5.9-11.9
		C601.4,108.9,600.7,108.4,599.9,108.4z"/>
</g>
<g>
	<g>
		<g>
			<path fill="#B5DBEA" d="M698.2,211.2c-20,0-36.3-16.3-36.3-36.3s16.3-36.3,36.3-36.3c20,0,36.3,16.3,36.3,36.3
				S718.3,211.2,698.2,211.2z M698.2,139.6c-19.5,0-35.3,15.8-35.3,35.3c0,19.5,15.8,35.3,35.3,35.3c19.5,0,35.3-15.8,35.3-35.3
				C733.6,155.4,717.7,139.6,698.2,139.6z"/>
		</g>
		<g>
			<path fill="#B5DBEA" d="M698.2,199.9c-13.8,0-25-11.2-25-25s11.2-25,25-25c13.8,0,25,11.2,25,25S712,199.9,698.2,199.9z
				 M698.2,150.9c-13.2,0-24,10.8-24,24c0,13.2,10.8,24,24,24c13.2,0,24-10.8,24-24C722.2,161.7,711.5,150.9,698.2,150.9z"/>
		</g>
		<g>
			<path fill="#B5DBEA" d="M698.2,188.6c-7.5,0-13.7-6.1-13.7-13.7s6.1-13.7,13.7-13.7c7.5,0,13.7,6.1,13.7,13.7
				S705.8,188.6,698.2,188.6z M698.2,162.2c-7,0-12.7,5.7-12.7,12.7s5.7,12.7,12.7,12.7s12.7-5.7,12.7-12.7S705.2,162.2,698.2,162.2
				z"/>
		</g>
	</g>
	<g>
		<g>
			<rect x="698.6" y="174" fill="#B5DBEA" width="59.6" height="1"/>
		</g>
		<g>
			<path fill="#B5DBEA" d="M754.9,177h-10.5c-1.3,0-2.3-1-2.3-2.3v-0.4c0-1.3,1-2.3,2.3-2.3h10.5c1.3,0,2.3,1,2.3,2.3v0.4
				C757.2,176,756.1,177,754.9,177z M744.4,173c-0.7,0-1.3,0.6-1.3,1.3v0.4c0,0.7,0.6,1.3,1.3,1.3h10.5c0.7,0,1.3-0.6,1.3-1.3v-0.4
				c0-0.7-0.6-1.3-1.3-1.3H744.4z"/>
		</g>
	</g>
</g>
<g>
	<path fill="#6071AD" d="M375.7,208.4H148.3c-4.8,0-8.8,3.9-8.8,8.8v129.9c0,4.8,3.9,8.8,8.8,8.8h227.3c4.8,0,8.8-3.9,8.8-8.8V217.2
		C384.5,212.4,380.5,208.4,375.7,208.4z"/>
	<path fill="#000543" d="M372,212.2H151.9c-4.8,0-8.8,3.9-8.8,8.8v121.9c0,4.8,3.9,8.8,8.8,8.8H372c4.8,0,8.8-3.9,8.8-8.8V221
		C380.8,216.2,376.8,212.2,372,212.2z"/>
	<g>
		<path fill="#568AD6" d="M289.5,306.9l-76.3,1c-7.7,0.1-14,5-13.9,10.9c0.1,5.9,6.4,10.6,14.2,10.6l76.5-1c1.9,0,3.7-0.7,4.9-1.9
			l6.4-6.4c1.2-1.3,1.3-3,0.1-4.3l-6.6-6.9C293.4,307.6,291.5,306.9,289.5,306.9z"/>
		<path fill="#568AD6" d="M180.4,279.9c0.3-5.7,2.4-11,5.7-15.2l-9.7-3.4c-1.3-0.4-2.2-1.5-2.5-2.8l-2.2-9.9
			c-7.3,7.9-12.1,18.4-12.7,30c-1.5,26.5,18.9,49.2,45.3,50.6c11.4,0.6,22-2.8,30.6-8.9l-13.5-16.2c-3.8,2.4-8.5,3.7-13.4,3.8
			C192.4,308.4,179.6,295.6,180.4,279.9z"/>
		<path fill="#80D5FF" d="M209.7,233.3c-11-0.6-21.4,2.6-29.8,8.4c-1,0.7-1.5,1.9-1.3,3.1l1.7,8.8c0.2,1,0.9,1.8,1.8,2.1l8.8,2.7
			c1,0.3,2.1,0.2,3.1-0.4c4.6-2.6,10.1-3.9,15.8-3.3c13.4,1.4,23.7,12.8,23.9,26.2c0.1,7.4-2.9,14-7.6,18.9c0,0-6.7,6.3-15.1,7.9
			c0,0-5.5,21.9-0.1,21.4c18.6-1.8,28.8-12.8,28.8-12.8c0.2-0.2,0.5-0.4,0.6-0.6c8.4-8.1,13.9-19.3,14.6-31.9
			C256.5,257.5,236.1,234.8,209.7,233.3z"/>
		<path fill="#80D5FF" d="M215.7,307.8l-72.7-0.1v21.5l65.9,0.1c5.9,0,10.8-4.7,10.8-10.7C219.7,312.7,221.6,307.8,215.7,307.8z"/>
		<path fill="#568AD6" d="M290.2,304.3l0.5,25.4c0,1.5,1.7,2.3,2.9,1.3l15.8-12.7c0.9-0.7,0.9-2.1,0-2.8l-16.3-12.7
			C291.9,301.9,290.2,302.8,290.2,304.3z"/>
	</g>
</g>
<g>
	<g>
		<path fill="#FFFFFF" d="M769.4,599c0-0.1-0.2-0.3-0.5-0.4c-3.1,4.9-10.6,6.6-15.8,3l-4.6,1.5c-4.1,1.4-2.5,5.3,2.1,5.2l17.6-0.2
			c0.8,0,1.5-0.5,1.3-1L769.4,599z"/>
		<path fill="#FF9985" d="M769.4,599c-1.2-1.5-4-1.5-4.6-1.3l-11.8,4C758.2,605.2,766.3,603.9,769.4,599z"/>
	</g>
</g>
<g>
	<g>
		
			<rect x="139.6" y="568.8" transform="matrix(3.899970e-03 -1 1 3.899970e-03 -394.8952 743.1115)" fill="#000543" width="71.8" height="2"/>
	</g>
	<g>
		<path fill="#000543" d="M202.1,606.5h-52.7c-0.6,0-1-0.4-1-1c0-0.6,0.4-1,1-1h52.7c0.6,0,1,0.4,1,1
			C203.1,606,202.7,606.5,202.1,606.5z"/>
	</g>
</g>
<g>
	<g>
		<path fill="#FFFFFF" d="M701.3,474H321c-3.5,0-6.4-2.9-6.4-6.4V232.7c0-3.5,2.9-6.4,6.4-6.4h380.3c3.5,0,6.4,2.9,6.4,6.4v234.9
			C707.7,471.1,704.8,474,701.3,474z"/>
		<g>
			<rect x="558.7" y="342.1" fill="#FCEE88" width="16.5" height="19.3"/>
			<rect x="569.7" y="261.5" fill="#FFE4D2" width="16.5" height="19.3"/>
			<rect x="635.7" y="261" fill="#FFE4D2" width="16.5" height="19.3"/>
			<rect x="670.3" y="260.8" fill="#568AD6" width="16.5" height="19.3"/>
			<rect x="566" y="309.1" fill="#80D5FF" width="16.5" height="19.3"/>
			<rect x="590.6" y="309.5" fill="#FCEE88" width="16.5" height="19.3"/>
			<rect x="669.5" y="310.2" fill="#80D5FF" width="16.5" height="19.3"/>
			<rect x="656.2" y="297.3" fill="#FCEE88" width="16.5" height="19.3"/>
			<rect x="572" y="352" fill="#EFB892" width="16.5" height="19.3"/>
			<rect x="598.7" y="393.8" fill="#FFE4D2" width="16.5" height="19.3"/>
			<rect x="567" y="429.7" fill="#FFE4D2" width="16.5" height="19.3"/>
			<rect x="495.1" y="389.1" fill="#568AD6" width="16.5" height="19.3"/>
			<rect x="428.8" y="349.6" fill="#568AD6" width="16.5" height="19.3"/>
			<polygon fill="#80D5FF" points="542.9,418.1 526.4,418.1 526.4,398.8 543.2,399 			"/>
			<rect x="428.8" y="431" fill="#80D5FF" width="16.5" height="19.3"/>
			<rect x="482.1" y="428.6" fill="#FCEE88" width="16.5" height="19.3"/>
			<rect x="491.4" y="260.7" fill="#FFFFFF" width="16.5" height="19.3"/>
			<rect x="404.8" y="263.7" fill="#FFE4D2" width="16.5" height="19.3"/>
			<rect x="426.7" y="264.2" fill="#568AD6" width="16.5" height="19.3"/>
			<rect x="449.9" y="258.2" fill="#80D5FF" width="16.5" height="19.3"/>
			<rect x="409.3" y="298.5" fill="#FCEE88" width="16.5" height="19.3"/>
			<rect x="452" y="307.9" fill="#568AD6" width="16.5" height="19.3"/>
			<rect x="356.7" y="344.6" fill="#FCEE88" width="16.5" height="19.3"/>
			<polygon fill="#80D5FF" points="351.5,316.9 335,316.9 335,297.6 351.4,297.5 			"/>
			<rect x="372.5" y="293.3" fill="#FCEE88" width="16.5" height="19.3"/>
			<rect x="361.7" y="309.3" fill="#EFB892" width="16.5" height="19.3"/>
			<rect x="372.8" y="351.7" fill="#FFFFFF" width="16.5" height="19.3"/>
			<rect x="338.9" y="384.7" fill="#F7E9A6" width="16.5" height="19.3"/>
			<rect x="373.3" y="398.6" fill="#FCEE88" width="16.5" height="19.3"/>
			<rect x="330.2" y="430.4" fill="#F7E9A6" width="16.5" height="19.3"/>
			<rect x="371.8" y="263.9" fill="#FFE4D2" width="16.5" height="19.3"/>
			<rect x="526.4" y="263.9" fill="#568AD6" width="16.5" height="19.3"/>
			<rect x="526.4" y="438" fill="#568AD6" width="16.5" height="19.3"/>
			<rect x="594" y="436.6" fill="#FFFFFF" width="16.5" height="19.3"/>
			<rect x="653.9" y="429.8" fill="#FFFFFF" width="16.5" height="19.3"/>
			<rect x="595.8" y="342.5" fill="#80D5FF" width="16.5" height="19.3"/>
			<rect x="635.9" y="343" fill="#EFB892" width="16.5" height="19.3"/>
			<rect x="671.5" y="351.6" fill="#FCEE88" width="16.5" height="19.3"/>
			<rect x="497.5" y="354.2" fill="#FFE4D2" width="13.2" height="19"/>
			<rect x="519" y="350.4" fill="#80D5FF" width="14.1" height="18.8"/>
			<rect x="483.1" y="300.8" fill="#80D5FF" width="14.1" height="18.8"/>
			<rect x="502.2" y="310.1" fill="#FCEE88" width="14.1" height="18.8"/>
			<rect x="526.2" y="300.9" fill="#FFE4D2" width="14.1" height="18.8"/>
		</g>
		<g>
			<path fill="#FFE4D2" d="M379.4,247.2h-40.9c-1.3,0-2.4-1.1-2.4-2.5c0-1.4,1.1-2.5,2.4-2.5h40.9c1.3,0,2.4,1.1,2.4,2.5
				C381.8,246.1,380.8,247.2,379.4,247.2z"/>
			<path fill="#FFE4D2" d="M455,247.2h-40.9c-1.3,0-2.4-1.1-2.4-2.5c0-1.4,1.1-2.5,2.4-2.5H455c1.3,0,2.4,1.1,2.4,2.5
				C457.4,246.1,456.3,247.2,455,247.2z"/>
			<path fill="#FFE4D2" d="M530.6,247.2h-40.9c-1.3,0-2.4-1.1-2.4-2.5c0-1.4,1.1-2.5,2.4-2.5h40.9c1.3,0,2.4,1.1,2.4,2.5
				C533,246.1,531.9,247.2,530.6,247.2z"/>
			<path fill="#FFE4D2" d="M606.1,247.2h-40.9c-1.3,0-2.4-1.1-2.4-2.5c0-1.4,1.1-2.5,2.4-2.5h40.9c1.3,0,2.4,1.1,2.4,2.5
				C608.5,246.1,607.5,247.2,606.1,247.2z"/>
			<path fill="#FFE4D2" d="M681.7,247.2h-40.9c-1.3,0-2.4-1.1-2.4-2.5c0-1.4,1.1-2.5,2.4-2.5h40.9c1.3,0,2.4,1.1,2.4,2.5
				C684.1,246.1,683,247.2,681.7,247.2z"/>
		</g>
		<g>
			<rect x="624.9" y="254" fill="#EFB892" width="1" height="205.6"/>
		</g>
		<g>
			<rect x="549.2" y="254" fill="#EFB892" width="1" height="205.6"/>
		</g>
		<g>
			<rect x="473.5" y="254" fill="#EFB892" width="1" height="205.6"/>
		</g>
		<g>
			<rect x="397.6" y="254" fill="#EFB892" width="1" height="205.6"/>
		</g>
		<g>
			<rect x="330.5" y="289.3" fill="#EFB892" width="361.8" height="1"/>
		</g>
		<g>
			<rect x="331.7" y="333.6" fill="#EFB892" width="361.8" height="1"/>
		</g>
		<g>
			<rect x="332.6" y="377.9" fill="#EFB892" width="361.8" height="1"/>
		</g>
		<g>
			<rect x="333.5" y="422.5" fill="#EFB892" width="361.8" height="1"/>
		</g>
	</g>
	<g>
		<polygon fill="#FD9783" points="537.3,416.4 531.4,413.7 533.4,408.5 539.3,410.9 		"/>
		<g>
			<path fill="#FD9783" d="M529.3,402.3c-0.4,0.2-0.6,0.8-0.4,1.2l2,4.1c0.2,0.5,0.8,0.7,1.2,0.4c0.4-0.2,0.6-0.8,0.4-1.2l-2-4.1
				C530.3,402.3,529.7,402.1,529.3,402.3z"/>
			<path fill="#FD9783" d="M525.7,412.3c-0.6-0.5-1.1-1.1-1.3-1.7c-0.1-0.5,0-0.9,0.1-1.3c0.3-1.1,0.8-2.1,1.5-3
				c0.6-0.8,1.6-1.7,3-1.5c1.4,0.2,2.6,1,3.4,1.9c1.5,1.8,2.1,2.5,2.2,4.5c0.2,2.4-1,3.9-4.3,2.9
				C528.7,413.7,526.9,413.4,525.7,412.3z"/>
			<path fill="#FD9783" d="M528.6,406.4l-6.5-1.9c-0.4-0.1-0.7-0.6-0.6-1c0.1-0.4,0.6-0.7,1-0.5l6.5,1.9c0.4,0.1,0.7,0.6,0.6,1
				C529.5,406.3,529,406.5,528.6,406.4z"/>
			<path fill="#FD9783" d="M527.3,408.3l-6.5-1.9c-0.4-0.1-0.7-0.6-0.6-1c0.1-0.4,0.6-0.7,1-0.5l6.5,1.9c0.4,0.1,0.7,0.6,0.6,1
				C528.2,408.2,527.7,408.4,527.3,408.3z"/>
			<path fill="#FD9783" d="M527.4,410.7l-6.5-1.9c-0.4-0.1-0.7-0.6-0.6-1c0.1-0.4,0.6-0.7,1-0.5l6.5,1.9c0.4,0.1,0.7,0.6,0.6,1
				C528.3,410.6,527.8,410.8,527.4,410.7z"/>
			<path fill="#FD9783" d="M528.5,413.2l-6.5-1.9c-0.4-0.1-0.7-0.6-0.6-1c0.1-0.4,0.6-0.7,1-0.5l6.5,1.9c0.4,0.1,0.7,0.6,0.6,1
				C529.4,413.1,528.9,413.3,528.5,413.2z"/>
		</g>
		<path fill="#39457F" d="M536.7,409c0.8-1.9,2.1-2,3.6-1.4c8.8,3.2,36.2,12.3,38.6,13.3c3.3,1.5,4.8,5.8,3.5,10.1
			c-1.6,5.2-6.4,8.4-10.5,6.8c-5-1.9-24.1-12-36.6-18c-1.5-0.7-2.7-1.4-1.9-3.3L536.7,409z"/>
		<path fill="#000543" d="M579.3,518.9c1.1,5.4,1.1,11,2.2,16.4c1.4,6.9,4.4,13.4,6.2,20.2c3.6,13.3,2,28.7,11.2,38.8
			c0.8-8.4,0.8-16.7-0.4-25.1c-3.6-26.5-8.1-52.8-13.4-79c-0.3-1.5-0.6-3-1.6-4.2c-1-1.1-2.7-1.7-3.9-0.8c-0.8,0.6-3.5-8.3-3.7-7.4
			C572.9,489.2,577.2,507.6,579.3,518.9z"/>
		<path fill="#000543" d="M633.7,486.9c-0.2,5.5-0.8,10.9-0.7,16.4c0.1,10,2.5,19.5,3.1,29.5c0.8,13.3-1.6,26.9-0.2,40
			c0.6,5.4,1.8,10.8,1.4,16.3c-0.1,1.3-0.3,2.7-0.9,3.5c-0.9,1.3-2.4,0.5-3.2-1.1c-0.7-1.6-0.9-3.8-1.1-5.8
			c-1.6-22.4-3.3-44.8-4.9-67.2c-1.3-17.2-2.5-34.6-2-51.9c0.2-5.9,3.2-15.3,6.5-7.7C634.4,464.6,633.9,480,633.7,486.9z"/>
		<polygon fill="#FD9783" points="629.7,585.1 632,602.6 624.8,602.9 621.7,599.1 622.2,598.3 620.2,585.5 		"/>
		<g>
			<path fill="#2C346B" d="M622.7,597.5l-9.6,3.3c-2.4,0.8-2.8,2.4-1.9,3.7l22.3-0.5l-0.9-4.9c-0.2-0.9-0.9-1.5-1.8-1.5H622.7z"/>
			<path fill="#000543" d="M633.5,603.9l0.2,0.8c0.2,0.5-0.5,1-1.3,1l-17.3,0.2c-1.9,0-3.2-0.6-3.9-1.5L633.5,603.9z"/>
		</g>
		<polygon fill="#FD9783" points="608.3,583.7 608.9,601.1 601.6,601.7 598.9,598 599.4,597.3 598.7,584.5 		"/>
		<g>
			<path fill="#2C346B" d="M599.4,597.4l-9.6,3.3c-2.4,0.8-2.8,2.4-1.9,3.7l22.3-0.5l-0.9-4.9c-0.2-0.9-0.9-1.5-1.8-1.5H599.4z"/>
			<path fill="#000543" d="M610.3,603.7l0.2,0.8c0.2,0.5-0.5,1-1.3,1l-17.3,0.2c-1.9,0-3.2-0.6-3.9-1.5L610.3,603.7z"/>
		</g>
		<path fill="#000543" d="M615.8,574c-2.7-15.5-5.3-30.2-6.3-40.8c-2.7-27.7-4.3-55.6-4.4-74.7v-0.3l-0.4-0.7l1.3-1.4h27.4l0.9,1.2
			l-0.1,0.7c-4.8,33.1-5.5,92.6,1,128.4c0,0.1,0.5,2.7,1,5.2c0.2,0.9,0,1.7-0.5,2.4c-0.5,0.7-1.3,1.1-2.1,1.1h-11.3
			c-1.7,0-3.2-1.3-3.5-3.1C617.9,586,616.8,579.9,615.8,574z"/>
		<path fill="#000543" d="M589.7,450.5h13.2c-0.5,40.7,1.9,82.4,12.3,140.4c0.3,1.9,0,4.1-2.2,4.1h-11.7c-1.9,0-3.5-1.3-4-3.2
			c-1.4-5.8-2.5-10.4-4.6-18.5c-6.6-26.1-13.4-53-19.6-103.2C571.8,459.7,579.6,450.5,589.7,450.5z"/>
		<path fill="#39457F" d="M637.1,448.4c0.1,1.6,0.3,3.3,0.1,4.9c-0.3,2-1.2,3.9-1.3,5.9c0,1.7,0.5,3.3,0.7,5
			c0.2,2.9-0.9,5.7-1.1,8.7c-0.1,2,0.3,4,0,5.9c-0.3,2-1.6,4-3.8,4.4c1.5-3.7,1.5-7.8,1.5-11.7c0-12.2,0-24.4,0-36.7
			c0-0.9,0-1.7,0.4-2.5c0.4-0.8,1.2-1.5,2.2-1.4C638.5,431,636.8,446,637.1,448.4z"/>
		<path fill="#39457F" d="M591.6,376.7c5.2,2.6,7.4,8.3,5,12.7c-3.3,6.2-15,30.8-16,32.9c-1.9,4-7.1,5.7-11.7,3.7
			c-4.4-1.9-6.8-6.3-5.6-10.3c2.8-9.3,9.6-24.6,14.3-35.2C579.7,375.7,586.2,373.9,591.6,376.7z"/>
		<path fill="#E4E8FA" d="M621.1,368.9l-8.3,103.2c-0.5,0-21.7-0.5-31.8-0.7l16.6-101.8C605.9,367.9,612.5,368.6,621.1,368.9z"/>
		<path fill="#39457F" d="M635.1,480.8l0.4-40.4l10.4-43.8c0.9-7.3-5.2-26-24.8-27.8L600.6,425l-2.7-55.5c0,0-16.4,0.4-21.5,13.7
			l-4.3,99.4c0,2.1,1.3,3.8,3.6,3.8h53.1C632.3,486.4,635,483.9,635.1,480.8z"/>
		<path fill="#6071AD" d="M599,418.3c-0.2,0-0.5-0.2-0.5-0.4l-7.2-31.8c-0.2-1,0.2-2,1-2.6l1.7-1.2c0.1-0.1,0.1-0.1,0.1-0.2
			c0-0.1,0-0.1-0.1-0.1l-3.2-2.4c-0.7-0.5-0.8-1.5-0.3-2.2l5.8-8c0.2-0.2,0.5-0.3,0.8-0.1c0.2,0.2,0.3,0.5,0.1,0.7l-5.8,8
			c-0.2,0.2-0.1,0.6,0.1,0.7l3.2,2.4c0.3,0.2,0.5,0.6,0.5,1c0,0.4-0.2,0.8-0.6,1.1l-1.7,1.2c-0.5,0.3-0.7,0.9-0.6,1.5l7.2,31.8
			c0.1,0.3-0.1,0.6-0.4,0.6C599.1,418.3,599.1,418.3,599,418.3z"/>
		<path fill="#6071AD" d="M603.1,418.1c-0.1,0-0.2,0-0.3-0.1c-0.3-0.2-0.3-0.5-0.2-0.7L620,388c0.3-0.5,0.3-1.1-0.1-1.5l-1.2-1.5
			c-0.3-0.3-0.3-0.7-0.3-1.1c0.1-0.4,0.4-0.8,0.8-0.9l3.9-1.7c0.3-0.1,0.5-0.4,0.4-0.7l-3-11.3c-0.1-0.3,0.1-0.6,0.4-0.7
			c0.3-0.1,0.6,0.1,0.7,0.4l3,11.2c0.2,0.8-0.2,1.7-1,2l-3.9,1.7c-0.1,0-0.1,0.1-0.2,0.2c0,0,0,0.1,0,0.2l1.2,1.5
			c0.6,0.8,0.7,1.9,0.2,2.7l-17.4,29.3C603.5,418,603.3,418.1,603.1,418.1z"/>
		<path fill="#6071AD" d="M635.1,458.9h-19.9c-0.3,0-0.6-0.2-0.6-0.5c0-0.3,0.3-0.5,0.6-0.5h19.9c0.3,0,0.6,0.2,0.6,0.5
			C635.7,458.7,635.4,458.9,635.1,458.9z"/>
		<path fill="#6071AD" d="M598.5,444.3c-0.6,0-1.1-0.2-1.5-0.6c-0.4-0.4-0.6-1-0.5-1.5c0.1-1.2,1.1-2.1,2.2-2.1
			c0.6,0,1.1,0.2,1.5,0.6c0.4,0.4,0.6,1,0.5,1.5C600.7,443.4,599.7,444.3,598.5,444.3z M598.7,441.1c-0.6,0-1.1,0.5-1.2,1.1
			c0,0.3,0.1,0.5,0.3,0.7c0.2,0.2,0.4,0.3,0.7,0.3c0.6,0,1.1-0.5,1.2-1.1c0-0.3-0.1-0.5-0.3-0.7C599.3,441.3,599,441.1,598.7,441.1z
			"/>
		<path fill="#6071AD" d="M597.6,459.7c-0.6,0-1.1-0.2-1.5-0.6c-0.4-0.4-0.6-1-0.5-1.5c0.1-1.2,1.1-2.1,2.2-2.1
			c0.6,0,1.1,0.2,1.5,0.6c0.4,0.4,0.6,1,0.5,1.5C599.8,458.8,598.8,459.7,597.6,459.7z M597.8,456.5c-0.6,0-1.1,0.5-1.2,1.1
			c0,0.3,0.1,0.5,0.3,0.7c0.2,0.2,0.4,0.3,0.7,0.3c0.6,0,1.1-0.5,1.2-1.1c0-0.3-0.1-0.5-0.3-0.7
			C598.4,456.6,598.1,456.5,597.8,456.5z"/>
		<path fill="#39457F" d="M634.4,384.4c5.7-0.9,10.5,1.8,11.2,6.8c0.9,7,6.3,34.4,6.8,36.6c0.9,4.4-2.4,8.8-7.3,9.9
			c-4.6,1-9.2-1.2-10.6-5.1c-3.2-9.2-6.7-25.6-9.2-36.9C624.2,390.5,628.4,385.3,634.4,384.4z"/>
		<path fill="#6071AD" d="M573.8,448c-0.3,0-0.5-0.3-0.5-0.5l1.6-46.1c0-0.3,0.3-0.5,0.5-0.5c0.3,0,0.5,0.3,0.5,0.5l-1.6,46.1
			C574.3,447.8,574.1,448,573.8,448z"/>
		<path fill="#6071AD" d="M581.8,457.7h-8.3c-0.3,0-0.6-0.2-0.6-0.5c0-0.3,0.2-0.5,0.6-0.5h8.3c0.3,0,0.6,0.2,0.6,0.5
			C582.4,457.5,582.1,457.7,581.8,457.7z"/>
		<path fill="#000543" d="M580.3,403.5h19.6c0.9,0,1.3-0.7,1-1.6l-12.7-33.5c-0.3-0.9-1.3-1.6-2.2-1.6h-19.6c-0.9,0-1.3,0.7-1,1.6
			l12.7,33.5C578.5,402.8,579.5,403.5,580.3,403.5z"/>
		<g>
			<path fill="#FF9985" d="M589.9,346.4c0,0.1,0,0.3,0,0.4c0,0,2.2-0.2,2.2-0.2c0.3,0,0.6,0.2,0.6,0.5c0,0.3-0.2,0.6-0.5,0.6
				l-2.2,0.2l1.5,7.4c0,0.2,0,0.3,0.1,0.5c0.5,0,6.5,0,10.2-1.4c3.1-1.1,3.4-1.9,3.9-5.2l0.6-3.3c-7.2-0.5-12.9-3.8-14.9-5
				C590.4,342.6,589.9,344.4,589.9,346.4z M593,349.2c0.1,0.6-0.2,1.1-0.6,1.1c-0.4,0-0.7-0.4-0.8-1c-0.1-0.6,0.2-1.1,0.6-1.1
				C592.6,348.2,592.9,348.7,593,349.2z M599.8,348.8c-0.1-0.6,0.2-1.1,0.6-1.1c0.4,0,0.7,0.4,0.8,1c0.1,0.6-0.2,1.1-0.6,1.1
				C600.2,349.8,599.9,349.4,599.8,348.8z M598,346.7c0-0.3,0.2-0.6,0.5-0.6l2.2-0.2c0.3,0,0.6,0.2,0.6,0.5c0,0.3-0.2,0.6-0.5,0.6
				l-2.2,0.2C598.3,347.2,598,347,598,346.7z M594.7,352.4l0.1-0.2c0.1,0.4,0.4,0.8,0.9,0.9l1.2,0.2c0.4,0.1,0.7-0.1,0.9-0.4l0,0.1
				c0.2,0.7-0.4,1.3-1,1.2l-1.2-0.2C594.9,353.8,594.4,353.1,594.7,352.4z"/>
			<path fill="#FF9985" d="M609,360.6c1.4-2,1.6-4.7,1.3-7l-0.6-5.3c1.4-0.1,2.6,1.2,2.8,2.8c0.1,1-0.2,1.9-0.8,2.5l2.1,15.7
				c0.4,2.7-0.9,5.3-3.3,6.7l-4.3-0.2c-1.6,0.9-2.3,2.3-3,0.6c-0.1-0.3-0.2-0.5-0.2-0.8l-1-10.4c1.5-0.2,2.9-0.6,3.6-1.2
				C606.6,363.3,608.3,361.5,609,360.6z"/>
			<path fill="#000543" d="M598.5,346l2.2-0.2c0.3,0,0.6,0.2,0.6,0.5c0,0.3-0.2,0.6-0.5,0.6l-2.2,0.2c-0.3,0-0.6-0.2-0.6-0.5
				C598,346.4,598.2,346.1,598.5,346z"/>
			<path fill="#000543" d="M592.1,346.6c0.3,0,0.6,0.2,0.6,0.5c0,0.3-0.2,0.6-0.5,0.6l-2.2,0.2c-0.3,0-0.6-0.2-0.6-0.5
				c0-0.3,0.2-0.6,0.5-0.6C589.9,346.8,592.1,346.6,592.1,346.6z"/>
			<path fill="#000543" d="M592.4,350.3c-0.4,0-0.7-0.4-0.8-1c-0.1-0.6,0.2-1.1,0.6-1.1c0.4,0,0.7,0.4,0.8,1
				C593,349.8,592.8,350.3,592.4,350.3z"/>
			<path fill="#000543" d="M600.4,347.7c0.4,0,0.7,0.4,0.8,1c0.1,0.6-0.2,1.1-0.6,1.1c-0.4,0-0.7-0.4-0.8-1
				C599.8,348.2,600,347.7,600.4,347.7z"/>
			<path fill="#FA694F" d="M594.7,352.2c0.1,0.4,0.4,0.8,0.9,0.9l1.2,0.2c0.4,0.1,0.7-0.1,0.9-0.4l0,0.1c0.2,0.7-0.4,1.3-1,1.2
				l-1.2-0.2c-0.7-0.1-1.1-0.9-0.9-1.5L594.7,352.2z"/>
			<path fill="#000543" d="M591.6,355.9c0,0,1,6.3,1,6.3c0.5,1.8,2.7,3.6,4.5,3.4c1.1-0.1,3-0.1,4.9-0.4c1.5-0.2,2.9-0.6,3.6-1.2
				c0.9-0.7,2.7-2.5,3.3-3.4c1.4-2,1.6-4.7,1.3-7l-0.6-5.3c1.4-0.1,2.6,1.2,2.8,2.8c0.1,1-0.2,1.9-0.8,2.5l0.6,4.2
				c0.4-0.3,1-0.3,1.4-0.6c1.1-0.7,0.4-2.6,1.1-3.7c0.5-0.8,1.5-1.1,1.9-1.9c0.4-0.8,0-1.8-0.6-2.6c-0.3-0.4-0.6-0.8-0.8-1.2
				c0.4-1.8,1.5-3.7,0.7-5.3c-0.3-0.6-0.7-1-1-1.6c-0.2-0.5-0.2-1-0.3-1.5c-0.7-3-3.7-3.7-5.9-5c-2-1.2-3.2-3.7-5.6-4.2
				c-0.2-0.1-0.4-0.2-0.6-0.2c-0.2,0-0.3,0-0.5,0.1c-0.6,0-1.2,0.2-1.8,0.5c-0.3-0.1-0.6-0.4-1-0.5c-1.2-0.3-2,1.3-3.2,1.5
				c-0.8,0.2-1.6-0.3-2.4-0.1c-0.8,0.2-1.2,1.2-1.4,2c-0.2,0.8-0.3,1.8-1,2.3c-0.4,0.3-0.9,0.5-1.3,0.8c-1,0.7-1.3,2.1-1.4,3.4
				c-0.1,1.6,0,3.2,0.1,4.8c0.1,0.6,0.1,1,0.6,1.3c0.2,0.1,0.4,0.2,0.6,0.2c0-2,0.6-3.8,1.5-5.4c2,1.3,7.7,4.5,14.9,5l-0.6,3.3
				c-0.6,3.3-0.8,4-3.9,5.2C598.1,355.8,592.1,355.9,591.6,355.9z M595.8,357.6l3.9-0.7c0,0.6-0.3,1.4-1.8,1.8
				C597.9,358.7,596.3,359,595.8,357.6z"/>
			<path fill="#FFFFFF" d="M597.9,358.7c0,0-1.7,0.3-2.1-1.1l3.9-0.7C599.7,357.5,599.4,358.3,597.9,358.7z"/>
		</g>
		<path fill="#B1BADD" d="M613.5,367c0,0-1.5,5.2-6.2,7l1.9,5.9c0,0,8.3-2.3,7.6-11.2L613.5,367z"/>
		<path fill="#B1BADD" d="M602.3,367.6c0,0,1.5,5.6,4.3,6.5l-3.1,5.1c0,0-4.4-3.8-4.4-10.1L602.3,367.6z"/>
		<path fill="#80D5FF" d="M605.8,380c-0.2-0.1-0.3-0.3-0.4-0.5l-1-1.9c-0.7-1.3,0.2-3.5,1.5-3.4l2.5,0.2c1.2,0.1,1.5,2.3,0.5,3.5
			l-1.5,1.7c-0.1,0.1-0.3,0.2-0.4,0.3l-1.3,41.6l-6.1,6l-3.5-6.5L605.8,380z"/>
		<g>
			<polygon fill="#FD9783" points="605.9,413.7 599.2,409.1 602.2,404.4 609.1,408.7 			"/>
			<g>
				<path fill="#FD9783" d="M600.2,396.8c-0.5,0.1-0.8,0.6-0.7,1.1l0.9,4.5c0.1,0.5,0.6,0.8,1.1,0.7c0.5-0.1,0.8-0.6,0.7-1.1
					l-0.9-4.5C601.2,397,600.7,396.7,600.2,396.8z"/>
				<path fill="#FD9783" d="M594.2,405.5c-0.4-0.6-0.8-1.3-0.8-1.9c0-0.5,0.2-0.9,0.4-1.2c0.6-0.9,1.3-1.8,2.2-2.5
					c0.8-0.7,1.9-1.2,3.3-0.7c1.3,0.5,2.3,1.6,2.8,2.7c1,2.2,1.3,3,1,4.9c-0.4,2.4-2,3.5-4.9,1.7
					C596.7,407.6,595.1,406.9,594.2,405.5z"/>
				<path fill="#FD9783" d="M598.5,400.5l-5.8-3.5c-0.4-0.2-0.5-0.7-0.3-1.1c0.2-0.4,0.8-0.5,1.1-0.3l5.8,3.5
					c0.4,0.2,0.5,0.7,0.3,1.1C599.4,400.6,598.9,400.7,598.5,400.5z"/>
				<path fill="#FD9783" d="M596.8,402l-5.8-3.5c-0.4-0.2-0.5-0.7-0.3-1.1c0.2-0.4,0.8-0.5,1.1-0.3l5.8,3.5c0.4,0.2,0.5,0.7,0.3,1.1
					C597.7,402.2,597.1,402.3,596.8,402z"/>
				<path fill="#FD9783" d="M596.2,404.4l-5.8-3.5c-0.4-0.2-0.5-0.7-0.3-1.1c0.2-0.4,0.8-0.5,1.1-0.3l5.8,3.5
					c0.4,0.2,0.5,0.7,0.3,1.1C597.1,404.5,596.6,404.6,596.2,404.4z"/>
				<path fill="#FD9783" d="M596.7,407.1l-5.8-3.5c-0.4-0.2-0.5-0.7-0.3-1.1c0.2-0.4,0.8-0.5,1.1-0.3l5.8,3.5
					c0.4,0.2,0.5,0.7,0.3,1.1C597.6,407.2,597.1,407.3,596.7,407.1z"/>
			</g>
		</g>
		<path fill="#39457F" d="M609.1,406.7c1-1.7,2.4-1.6,3.8-0.9c8.2,4.5,34.1,17.4,36.3,18.8c3.1,1.9,3.9,6.4,2,10.5
			c-2.3,4.9-7.6,7.3-11.4,5.2c-4.7-2.6-22.1-15.4-33.5-23.1c-1.3-0.9-2.5-1.8-1.4-3.5L609.1,406.7z"/>
		<path fill="#6071AD" d="M642.8,441.6c-1.2,0-2.3-0.3-3.3-0.8c-2.8-1.6-10.1-6.7-17.8-12.1c-5.5-3.8-11.1-7.8-15.8-11
			c-1.2-0.8-2.9-2-1.6-4.2l4.2-7c1.1-1.7,2.6-2.1,4.5-1.1c3.2,1.8,9.3,4.9,14.9,7.8c-1.3-5.7-2.6-11.6-3.6-16.3
			c-0.1-0.3,0.1-0.6,0.4-0.6c0.3-0.1,0.6,0.1,0.6,0.4c1.1,5.1,2.4,11.3,3.9,17.4c0,0.2,0,0.4-0.2,0.5c-0.2,0.1-0.4,0.1-0.6,0.1
			c-6-3.1-12.5-6.4-16-8.3c-1.4-0.8-2.3-0.6-3.1,0.7l-4.2,7c-0.7,1.2-0.3,1.8,1.3,2.8c4.7,3.2,10.3,7.2,15.8,11
			c7.7,5.4,15,10.5,17.7,12.1c1.7,0.9,3.7,0.9,5.8,0c0.3-0.1,0.6,0,0.7,0.3c0.1,0.3,0,0.6-0.3,0.7
			C645.1,441.4,643.9,441.6,642.8,441.6z"/>
	</g>
	<g>
		<path fill="#568AD6" d="M449.2,387.4c-1.4-4.4-5.9-6.9-9.8-5.6c-3.8,1.3-5.6,5.7-4.1,9.8c3,8.4,6.9,18.6,10.4,26.3l11.4-3.9
			L449.2,387.4z"/>
		<path fill="#FD9783" d="M458.2,418.3l-1.2-4.2l-11.4,3.9c2.5,5.5,5,10.9,6.5,12.6c1.3,1.4,1.2-1.4,2.7-1c1,0.3,1.8,0.3,2.5,0
			c0.1-0.1,0.3-0.1,0.4-0.2C460.1,427.4,462.1,431.7,458.2,418.3z"/>
		<g>
			<path fill="#FFFFFF" d="M397.8,480.7c1,3.4-0.6,7.1,0,10.7c0.4,2.7,2,5.3,1.9,8.1c-0.1,1.8-1,3.6-0.8,5.4c0.3,2.1,1.9,3.9,2.4,6
				c0.8,3.2-1.4,6.5-1,9.7c0.2,1.8,1.2,3.4,1.5,5.2c0.2,1.1,0.1,2.3,0,3.4c-0.1,3.5-0.1,7.7,1.4,10.9c2.1-10.1,5.3-21.1,5.2-31.5
				s-2.5-20.9-8.8-29.4c-0.1-0.1-0.9-9.2-1-9.2C397.9,469.3,397.6,479.7,397.8,480.7z"/>
			<g>
				<path fill="#FF9985" d="M425.5,583.7c2.7-13.9,6.3-27.6,10.1-41.4c0.2-0.8,1-2.9,1.2-3.6l16,1.6c-3.3,10.4-17.3,42.5-21.9,60.9
					c-0.5,2.1-6.4,2.1-7.6-1c-0.7-1.8,0.5-6.9,0.9-9.4C424.5,588.4,425,586.1,425.5,583.7z"/>
				<path fill="#FF9985" d="M404.4,539.3l16-1.5c-1.2,41.3-3.8,60.4-4.3,61.3c-2.4,4.5-6.9,5.6-8.5,1.4c-0.8-2-0.5-8-0.6-12.2
					C406.8,570.7,406.1,555.2,404.4,539.3z"/>
			</g>
			<path fill="#FFFFFF" d="M423.1,478.7c6.6-0.2,14.3,1.3,22.9-2.6c1.3-0.6,4.7-7.8,4.7-9.1c3.8,12.4,5.8,38.9,6,51.6
				c0.1,5.4-0.8,10.6-2.4,16.4c-0.3,1.2-0.7,2.5-1.1,3.8c-0.2,0.5-0.3,1-0.5,1.5c0,0-19.2-1.6-25.4-0.2c-11.4,2.6-24.2-0.2-24.2-0.2
				c0.1-23.6-2.4-51.7-5.4-68.2c0-0.2,0.7,3.5,0.6,3.3h0.2c0,0.1,0.1,0.2,0.1,0.3C402.3,478.6,406.9,479.1,423.1,478.7z"/>
			<g>
				<path fill="#39457F" d="M423,598.2c0-0.1,0.2-0.2,0.5-0.4c2.9,4.6,9.9,6.2,14.8,2.9l4.3,1.4c3.8,1.3,2.4,4.9-2,4.9l-16.5-0.2
					c-0.8,0-1.4-0.5-1.2-1L423,598.2z"/>
				<path fill="#FF9985" d="M423,598.2c1.1-1.4,3.7-1.4,4.3-1.2l11,3.7C433.5,604,425.9,602.8,423,598.2z"/>
			</g>
			<g>
				<path fill="#39457F" d="M407.3,598.2c0-0.1,0.2-0.2,0.5-0.4c2.9,4.6,9.9,6.2,14.8,2.9l4.3,1.4c3.8,1.3,2.4,4.9-2,4.9l-16.5-0.2
					c-0.8,0-1.4-0.5-1.2-1L407.3,598.2z"/>
				<path fill="#FF9985" d="M407.3,598.2c1.1-1.4,3.7-1.4,4.3-1.2l11,3.7C417.8,604,410.2,602.8,407.3,598.2z"/>
			</g>
		</g>
		<path fill="#000543" d="M441.8,336.5c-1-0.6-2.1-0.9-2.8-1.7c-0.6-0.7-1-1.6-1.5-2.3c-0.6-0.7-1.7-1.3-2.5-0.8
			c-0.4,0.2-0.7,0.6-1,0.9c-1.1,0.7-2.3-0.4-3.5-1c-1.3-0.6-2.9-0.4-4.1,0.4c-0.8,0.6-1.6,1.6-2.6,1.6c-0.8,0-1.5-0.7-2.3-0.5
			c-1.2,0.3-1.1,2-2.1,2.8c-0.7,0.5-1.6,0.4-2.4,0.6c-1.5,0.3-2.9,1.5-3.3,3c-0.2,0.8-0.2,1.7-0.6,2.4c-0.6,0.9-1.9,1.3-2.3,2.3
			c-0.9,2,1.5,3,2.7,4.6c1.4,2.1,0.6,5.6,2.8,6.8c0.5,0.3,1.2,0.4,1.5,0.9c0.3,0.5,0.1,1.2,0.4,1.7c0.5,1,2.1,0.9,3,1.4
			c0.1,0.1,0.5,0.5,0.5,0.6c4.8,4.6,11.2,6.3,15.9,3.5c3.9-2.3,5.8-7,5.3-12.3c0,0,0.1-0.1,0.1-0.1c1.1-0.9,1.6-2.3,1.8-3.7
			c0.3-2.6-1.9-3.8-2-6c0-0.8,0.6-1.6,0.7-2.4C443.7,338,442.8,337.1,441.8,336.5z"/>
		<path fill="#568AD6" d="M449.1,435.7c-1.2-18.8,2.2-30.7,1.6-40.4c0-0.4,0-0.8-0.1-1.1c-0.1-0.5-0.2-1.1-0.3-1.6c0,0,0,0,0-0.1
			c-0.4-1.4-0.8-3-1.2-4.7c-1.1-3.7-3.1-7-5.9-9.6c-10.1-9.2-20.1-5.6-27-1.3l-2.4,1.5c-11.2,7.3-7.3,24.3-7.3,24.3
			c1.2,8.3,3.8,12.3,3.9,21.6c0.2,17.4-11.6,22.1-12.6,41.2c0,0-0.5,8.5,1.7,10.7c6.5,6.3,11.8,8,20,5.6c12.1-3.5,20.3-0.7,29-4.7
			c2.1-1,3.5-3.1,3.6-5.5C453,452.7,450.6,458.8,449.1,435.7z"/>
		<path fill="#000543" d="M428,361.4c-1.8-1.3-5.4-2.6-6.7-3.7c-0.9-0.8-1.9-1.6-2.6-2.5c-0.4-0.5-0.8-1.3-1-2.6
			c0,0,0.7-1.4,0.1-0.4c1.1-1.9,1.5-3.7,1.5-5.4c-0.1-2,0.7-4,2-5.5c0,0,0,0,0,0c3.2-3.5,5-3.1,7-3.9c2.1-0.8,2-0.6,4.6-1
			c2.3-0.4,4.7,0.4,6.6,1.8c0,0,1,1,1.4,1.4c0.4,0.5,0.7,1.1,1.1,1.6c0.6,0.3,2.7,1.7,3,3.3c0.6,3.2-0.4,4.5-0.4,4.5
			c-1.6-0.2-3.1-2.4-4.5-2.1c-0.6,0.2-0.9,0.3-1.2,0.5c-1.9,1.2-3.5,2.2-4.1,4.6c-0.5,1.9,0.2,4.3-1.2,5.8c-1.2,1.3-3.6,1.3-5,2.5
			C428.4,360.6,428.2,361,428,361.4z"/>
		<g>
			<path fill="#000543" d="M424.4,358.7c0.9-0.6,1.7-1.4,2.4-2.3c1.1-1.6,1.8-3.6,2.9-5.2c1.3-2,4.9-5.5,11-5.8c0.6,0,1.5,0,1.7-0.7
				c0.1-0.2,0-0.5-0.1-0.9c-0.2-0.7-0.6-1.4-0.8-1.8c-0.1-0.2-0.1-0.3-0.2-0.4c-0.1-0.1-0.3-0.1-0.4-0.2c-1.3-0.3-2.5-0.6-3.8-0.8
				c-1.7-0.4-3.4-0.8-5.2-0.9c-1.5-0.1-3,0-4.2,0.9c-1.9,1.4-2.3,4.1-3.3,6.2c-0.2,0.5-0.5,1-0.8,1.4l-0.8-0.7
				c-0.2,0.7-0.3,1.4-0.4,2.2c-0.5,0.6-1.1,1.2-1.6,1.9l2.3,5.5c0.3,1.2,0.6,2.4,1.1,3.8c0.5,1.5,1.2,2.7,2,3.6c0,0,0.1-4.7,0.1-4.7
				C425.4,359.6,424.8,359.2,424.4,358.7z"/>
			<path fill="#FD9783" d="M444.7,350.1c0-2.5-1-4.8-2.6-6.4c0.1,0.3,0.2,0.6,0.1,0.9c-0.2,0.7-1.1,0.7-1.7,0.7
				c-6,0.3-9.6,3.8-11,5.8c-1.1,1.7-1.7,3.6-2.9,5.2c-0.6,0.9-1.5,1.7-2.4,2.3c0.4,0.6,1,1,1.7,1l-0.3,17.7c0,2.2,2.5,1.6,4.7,1.6
				l0.9,0.1c2.2,0,2.4,0.7,2.4-1.5l0.2-11c0.4,0.1,0.8,0.1,1.2,0.1c5.1,0.1,9.3-4,9.4-9.1L444.7,350.1z M435.7,353
				c0,0.6-0.3,1-0.7,1c-0.4,0-0.7-0.5-0.7-1c0-0.6,0.3-1,0.7-1l1.1,0l-0.6,0.6C435.6,352.7,435.7,352.9,435.7,353z M436,350.4
				l-2.2,0c-0.3,0-0.6-0.2-0.6-0.5c-0.1-0.4,0.2-0.7,0.6-0.7l2.2,0c0.3,0,0.6,0.2,0.6,0.5C436.7,350.1,436.4,350.4,436,350.4z
				 M440.4,358l-1,0.3c-0.6,0.2-1.1-0.4-1-1.1l0-0.1c0.2,0.3,0.5,0.5,0.8,0.4l1-0.3c0.4-0.1,0.7-0.5,0.7-1l0.1,0.2
				C441.4,357.1,441,357.9,440.4,358z M443.7,353.1c0,0.6-0.3,1-0.7,1c-0.4,0-0.7-0.5-0.7-1c0-0.6,0.3-1,0.7-1l1.1,0l-0.6,0.6
				C443.7,352.8,443.7,352.9,443.7,353.1z M444.2,350.5l-1.7,0c-0.3,0-0.5-0.3-0.5-0.6c0-0.3,0.2-0.6,0.5-0.6h1.7
				c0.3,0,0.5,0.3,0.5,0.6C444.7,350.2,444.5,350.5,444.2,350.5z"/>
			<path fill="#000543" d="M436.6,349.8c0-0.3-0.3-0.6-0.6-0.6l-2.2,0c-0.3,0-0.6,0.3-0.6,0.6c0,0.3,0.3,0.6,0.6,0.6l2.2,0
				C436.4,350.4,436.6,350.2,436.6,349.8z"/>
			<path fill="#000543" d="M444.3,349.3h-1.7c-0.3,0-0.5,0.3-0.5,0.6c0,0.3,0.2,0.6,0.5,0.6l1.7,0c0.3,0,0.5-0.3,0.5-0.6
				C444.7,349.6,444.5,349.3,444.3,349.3z"/>
			<path fill="#F8694F" d="M441.1,356.2c-0.1,0.5-0.3,0.9-0.7,1l-1,0.3c-0.3,0.1-0.7-0.1-0.8-0.4l0,0.1c-0.1,0.7,0.4,1.3,1,1.1
				l1-0.3c0.6-0.2,0.9-1,0.7-1.6L441.1,356.2z"/>
			<path fill="#000543" d="M435,352c-0.4,0-0.7,0.5-0.7,1c0,0.6,0.3,1,0.7,1c0.4,0,0.7-0.5,0.7-1c0-0.2,0-0.3-0.1-0.5l0.6-0.6
				L435,352z"/>
			<path fill="#000543" d="M443.1,352.1c-0.4,0-0.7,0.5-0.7,1c0,0.6,0.3,1,0.7,1c0.4,0,0.7-0.5,0.7-1c0-0.2,0-0.3-0.1-0.5l0.6-0.6
				L443.1,352.1z"/>
		</g>
		<g>
			<path fill="#BBD5F9" d="M426,372.4c0,0,2.2,6.1,5.5,6.8l-1.2,5.5c0,0-6.7-3.4-7.4-11.1L426,372.4z"/>
			<path fill="#BBD5F9" d="M434,372.2c0,0,0.2,5.6-2.8,6.9l3.9,5.1c0,0,3.1-4.9,1.7-10.4L434,372.2z"/>
		</g>
		<path fill="#FD9783" d="M387.4,422.1c-0.3,1.9,1.1,0.9,1.8,2.4c0.4,1,0.9,1.6,1.5,1.9c0.1,0.1,0.3,0.1,0.4,0.2
			c3,0.8,0.9,4.9,9-6.4l4.4-6.2l-10.4-6.8C390.6,413.8,387.8,419.5,387.4,422.1z"/>
		<path fill="#568AD6" d="M417.3,382.9c-3.3-2.2-7.9-0.9-10.3,2.8c-4.2,6.6-9,14.6-12.8,21.5l10.4,6.8l14.4-20
			C421.5,390.3,420.8,385.2,417.3,382.9z"/>
		<path fill="#FD9783" d="M427.9,434.9l-0.3-0.5c0,0-32.8-19.8-38.7-14.3c-0.6,0.6-1.7,1.8-1.6,2.6c0.3,2.9,1.3,3.7,2.7,4.4
			c12.5,7.2,24.1,9,36.9,12.3C426.8,437.3,426.7,436.9,427.9,434.9z"/>
		<path fill="#FD9783" d="M480.7,401.8c0,0-31.7,19.3-29.4,27c0.2,0.8,0.8,2.3,1.6,2.6c2.7,1,3.9,0.4,5.2-0.4
			c12-8,18.8-17.6,27.4-27.5C483.7,402.6,480.7,401.8,480.7,401.8z"/>
		<g>
			<path fill="#FD9783" d="M487,398.2c0.3,0.4,0.2,0.9-0.2,1.2l-3.5,2.8c-0.4,0.3-0.9,0.3-1.2-0.1c-0.3-0.4-0.2-0.9,0.2-1.2l3.5-2.8
				C486.1,397.8,486.7,397.9,487,398.2z"/>
			<path fill="#FD9783" d="M485.9,408.5c0.7-0.2,1.4-0.5,1.8-0.9c0.3-0.4,0.4-0.8,0.5-1.2c0.2-1.1,0.1-2.2,0-3.2
				c-0.2-1-0.6-2.1-1.9-2.6c-1.3-0.4-2.7-0.2-3.8,0.3c-2.1,1-2.8,1.4-3.8,3c-1.2,2.1-0.8,3.9,2.5,4.3
				C482.8,408.5,484.4,409,485.9,408.5z"/>
			<path fill="#FD9783" d="M485.9,402.1l6.4,1c0.4,0.1,0.8-0.2,0.9-0.7c0.1-0.4-0.2-0.8-0.7-0.9l-6.4-1c-0.4-0.1-0.8,0.2-0.9,0.7
				C485.2,401.6,485.5,402,485.9,402.1z"/>
			<path fill="#FD9783" d="M486.2,404.3l6.4,1c0.4,0.1,0.8-0.2,0.9-0.7c0.1-0.4-0.2-0.8-0.7-0.9l-6.4-1c-0.4-0.1-0.8,0.2-0.9,0.7
				C485.5,403.8,485.8,404.2,486.2,404.3z"/>
			<path fill="#FD9783" d="M485.1,406.4l6.4,1c0.4,0.1,0.8-0.2,0.9-0.7c0.1-0.4-0.2-0.8-0.7-0.9l-6.4-1c-0.4-0.1-0.8,0.2-0.9,0.7
				C484.3,405.9,484.6,406.3,485.1,406.4z"/>
			<path fill="#FD9783" d="M483.1,408.1l6.4,1c0.4,0.1,0.8-0.2,0.9-0.7c0.1-0.4-0.2-0.8-0.7-0.9l-6.4-1c-0.4-0.1-0.8,0.2-0.9,0.7
				C482.4,407.7,482.7,408.1,483.1,408.1z"/>
		</g>
		<g>
			<path fill="#FD9783" d="M432.4,428.9c0.3,0.3,0.3,0.9,0,1.2l-3.1,3.2c-0.3,0.4-0.9,0.4-1.2,0.1c-0.3-0.3-0.3-0.9,0-1.2l3.1-3.2
				C431.5,428.6,432.1,428.6,432.4,428.9z"/>
			<path fill="#FD9783" d="M432.6,439.3c0.7-0.3,1.3-0.7,1.7-1.2c0.3-0.4,0.3-0.8,0.3-1.2c0-1.1-0.1-2.2-0.4-3.2
				c-0.3-1-0.9-2-2.3-2.3c-1.3-0.3-2.7,0.1-3.7,0.8c-2,1.3-2.6,1.7-3.4,3.5c-1,2.2-0.3,3.9,3,4C429.5,439.6,431.1,439.9,432.6,439.3
				z"/>
			<path fill="#FD9783" d="M431.8,432.9l6.4,0.2c0.4,0,0.8-0.3,0.8-0.8c0-0.4-0.3-0.8-0.8-0.8l-6.4-0.2c-0.4,0-0.8,0.3-0.8,0.8
				C431,432.5,431.4,432.9,431.8,432.9z"/>
			<path fill="#FD9783" d="M432.4,435l6.4,0.2c0.4,0,0.8-0.3,0.8-0.8c0-0.4-0.3-0.8-0.8-0.8l-6.4-0.2c-0.4,0-0.8,0.3-0.8,0.8
				C431.6,434.7,432,435,432.4,435z"/>
			<path fill="#FD9783" d="M431.5,437.2l6.4,0.2c0.4,0,0.8-0.3,0.8-0.8c0-0.4-0.3-0.8-0.8-0.8l-6.4-0.2c-0.4,0-0.8,0.3-0.8,0.8
				C430.7,436.9,431.1,437.2,431.5,437.2z"/>
			<path fill="#FD9783" d="M429.8,439.2l6.4,0.2c0.4,0,0.8-0.3,0.8-0.8c0-0.4-0.3-0.8-0.8-0.8l-6.4-0.2c-0.4,0-0.8,0.3-0.8,0.8
				C429,438.8,429.3,439.2,429.8,439.2z"/>
		</g>
		<path fill="#FFFFFF" d="M436.2,360c0,0.7,0.6,1.3,1.3,1.3c0.7,0,1.3-0.6,1.3-1.3H436.2z"/>
		
			<rect x="486" y="395.9" transform="matrix(0.7739 0.6333 -0.6333 0.7739 366.0452 -220.4545)" fill="#80D5FF" width="11.6" height="13.1"/>
	</g>
</g>
<g>
	<g>
		<g>
			<g>
				<path fill="#000543" d="M213.1,556.3c-1,1.8-2.4,3.3-3.3,5.2c-1.3,2.7-1.3,5.8-2,8.6c-0.5,2.2-1.5,4.2-2,6.3
					c-0.6,2.1-0.8,4.5,0.1,6.5c7.4-13.2,11.9-27.8,18.9-41.2c1.1-2.2,2.3-4.3,3.5-6.4c1.2-2.3,2-5.5-1.1-6.6c-2-0.7-3.2,1-4.2,2.5
					c-3.2,4.9-6.2,9.7-7.2,15.5C215.2,549.9,214.8,553.3,213.1,556.3z"/>
				<path fill="#000543" d="M257.6,533.4c0.6,0.2,1.3,0.4,1.7,0.9c0.6,0.7,0.5,1.8,0,2.7c-0.4,0.8-1.1,1.5-1.7,2.3
					c-1.5,2.2-1.7,5-1.6,7.6c0.1,2.6,0.4,5.3-0.1,7.9c-0.6,2.8-2.1,5.2-3.2,7.8c-1.1,2.5-1.7,5.3-1.9,8c-0.2,2.2,0,4.5-0.2,6.7
					c-0.3,3.3-1.4,6.8-0.1,9.8c5.9-16.4,11.1-33.1,16.3-49.8c0.6-1.9,1.2-3.9,0.7-5.8c-0.8-3.4-4.5-5.2-7.9-5.8
					c-2-0.3-4.2-0.3-6,0.7c-1.3,0.8-3.2,3.3-2,4.8C252.6,532.5,256.2,532.9,257.6,533.4z"/>
				<polygon fill="#FF9985" points="258.2,581.5 253.3,599.5 261.6,600.2 268,581.2 				"/>
				<g>
					<g>
						<path fill="#FFFFFF" d="M273,600.3l-9.9-3.7l-8.9,0.2c-1.1,0-1.9,1-2,2.3l-0.1,5.5l22.9,0.2C276,603.2,275.5,601.3,273,600.3z
							"/>
						<path fill="#000543" d="M252.2,604.5l-0.2,1c-0.1,0.6,0.5,1.1,1.4,1.1h17.8c1.9,0,3.3-0.9,4-1.9L252.2,604.5z"/>
					</g>
					<path fill="#000543" d="M257.3,604l-3.2,0.1c-0.2,0-0.3-0.1-0.3-0.3l0-0.7c0-0.2,0.1-0.3,0.3-0.3l3.2-0.1
						c0.2,0,0.3,0.1,0.3,0.3l0,0.7C257.6,603.9,257.5,604,257.3,604z"/>
				</g>
				<g>
					<g>
						<path fill="#6A79B7" d="M321.2,444.4l-5.4,25.2h-3.4l4.7-22.3C317.6,445.7,319.3,444.4,321.2,444.4z"/>
						<polygon fill="#AFB8DB" points="312.5,469.6 318,443.9 288.3,443.9 282.8,469.6 						"/>
					</g>
					<path fill="#6A79B7" d="M262,462.6h83.9c1.5,0,3-1.1,3.3-2.4l11.2-52.7c0.3-1.3-0.7-2.4-2.2-2.4h-83.9c-1.5,0-3,1.1-3.3,2.4
						l-11.2,52.7C259.5,461.5,260.5,462.6,262,462.6z"/>
					<path fill="#AFB8DB" d="M258.9,462.6h83.9c1.5,0,3-1.1,3.3-2.4l11.2-52.7c0.3-1.3-0.7-2.4-2.2-2.4h-83.9c-1.5,0-3,1.1-3.3,2.4
						l-11.2,52.7C256.4,461.5,257.4,462.6,258.9,462.6z"/>
					<path fill="#29347C" d="M353.5,407.5h-81.4c-1,0-2,0.7-2.2,1.6l-10.2,47.9c-0.2,0.9,0.5,1.6,1.5,1.6h81.4c1,0,2-0.7,2.2-1.6
						l10.2-47.9C355.2,408.2,354.5,407.5,353.5,407.5z"/>
					<path fill="#5765AD" d="M346.2,410.8h-69.6c-0.9,0-1.7,0.6-1.9,1.3l-8.7,40.9c-0.2,0.7,0.4,1.3,1.3,1.3H337
						c0.9,0,1.7-0.6,1.9-1.3l8.7-40.9C347.7,411.4,347.1,410.8,346.2,410.8z"/>
				</g>
				<polygon fill="#FF9985" points="211.1,580.4 205.6,597.8 213.8,599.5 220.9,581.3 				"/>
				<path fill="#FF9985" d="M296.1,469.6h14.3c-2.6-6.5-11.6-6-11.6-6L296.1,469.6z"/>
				<g>
					<path fill="#FF9985" d="M224.5,405.1c4.7-1.2,8.1-4.8,9.3-9.4c0.1-0.1,0.1-0.2,0.2-0.3c-0.7-0.6-1.2-1.6-1.3-2.6
						c-0.3-2,0.7-3.7,2.1-3.9c0.6,0,1.1,0.1,1.6,0.5c0.3,0.2,0.6,0.6,0.9,1c0.3-0.1,0.4-1,0.4-1.3c0-0.6-0.1-1.2-0.1-1.8
						c0-0.9,0.4-1.9,0.9-3l1.2,9.3c0.3,3.2-1.1,6.2-3.3,8.4c-1,1-2.3,1.8-3.6,2.4c-0.6,1.3-1.1,2.6-1.5,4c-0.4,1.3-1.1,3.3-2.4,4.9
						c-0.4,0.6-0.8-0.6-1.5-0.5c-4.5,0.5-9.7-0.4-9.7-1.1c0-0.2,1.7-2.4,1.9-2.6c0.9-1.2,1.9-3.4,2.3-4.7
						C222.6,404.6,223.2,405.4,224.5,405.1z"/>
					<path fill="#000543" d="M215.1,397.5c0,0.2,0.1,0.3,0.1,0.5c0.2,1.6-0.5,3.6,0.6,4.8c0.7,0.8,1.8,1,2.9,1c1,0,2.1-0.1,3.1,0.4
						c0.6,0.3,1,0.7,1.5,0.9c0.4,0.1,0.8,0.1,1.2,0c0.2,0,0.3-0.1,0.4-0.1c6.3-1.9,8.3-7,8.9-9.3c0.1-0.1,0.1-0.2,0.2-0.3
						c-0.7-0.6-1.2-1.6-1.3-2.6c-0.3-2,0.7-3.7,2.1-3.9c0.6,0,1.1,0.1,1.6,0.5c0.3,0.2,0.6,0.6,0.9,1c0.3-0.1,0.4-1,0.4-1.3
						c0-0.6-0.1-1.2-0.1-1.8c0-0.9,0.4-1.9,0.9-3c0.4-0.9,0.8-1.8,0.9-2.5c0.4-2.1,0.1-5.2-1.1-6.9c-1.2-1.8-3.9-1.4-6-1.7
						c-0.8-0.1-1.6-0.1-2.3-0.4c-0.6-0.3-1.1-0.8-1.7-1.2c-1.1-0.7-2.6-0.6-3.8-0.3c-0.1,0-0.1,0.1-0.2,0.1c-1.2,0.4-2.3,1-3.4,1.6
						c-1.8,0.9-3.7,1.6-5.3,2.8c-0.6,0.5-1.1,1-1.6,1.7c-0.6,0.9-1,1.9-1,3c-0.2,0.2-0.5,0.4-0.6,0.6c-1.2,1.3-1.9,3-2.1,4.8
						c0,0.4,0,0.7,0,1.1c0.1,2.4,1.1,4.8,2.6,6.8C213.7,395,214.7,396.1,215.1,397.5z"/>
				</g>
				<path fill="#80D5FF" d="M241.7,457.4c0,0-12.2-13.8-14.7-19.7l-3.3-7.9c-4.9-11.5,15.4-17.5,20.2-5.9c2.3,5.4,6.4,17.4,9.5,22.1
					l0.1-0.1l1.8,1.9c7.9,8.5,28.7,10.4,41.5,11.2c1.6,0.1,2.7,1.5,2.6,3l-0.5,5c-0.1,1.4-1.4,2.5-2.8,2.5
					C251.6,468.4,250.1,464,241.7,457.4z"/>
				<path fill="#000543" d="M232.7,506.7l0.7,2.9c-1.2,5.5-5.4,15.2-10.3,26.3c-5.4,12.4-12.2,27.9-17.2,43.1
					c-0.6,1.7-0.3,3.6,0.7,5.1c1,1.5,2.5,2.5,4.3,2.7c0,0,11.3,1.2,11.3,1.2c2.6,0.3,5-1.1,6.1-3.5c8.8-19.3,15.9-32.8,21.6-43.7
					c4.9-9.4,8.5-16.2,10.7-22.1l0.6-1.5L232.7,506.7z"/>
				<path fill="#000543" d="M282.9,505.1l-0.7,1.5l0.6-1.5c-23.2-10.5-61.9-7-77.5-5l-1.8,0.2l0,0.2c-2,0.3-5.6,0.7-9.3,1l-2.9,26.4
					c5.7-0.3,12.5,3.3,20.1,2.4c14.8-1.8,32.9-0.5,48.3,0.8c1.4,0.1,2.4,1.5,2.1,2.9c-0.5,2-1.1,4.1-1.7,6.3
					c-3.5,12.9-7.8,28.9-10.4,44.2c-0.2,1.3,0.1,2.6,0.9,3.5c0.8,0.9,2,1.4,3.2,1.4c0,0,11.6-0.4,11.6-0.4c2.2-0.1,4.4-1.6,5-3.7
					c7.4-26,15.7-48.7,19.6-60C292.9,517,290.5,508.5,282.9,505.1z"/>
				<path fill="#80D5FF" d="M219.6,509.1c6.6-1.5,11.9-6.6,13.8-13.3c2.5-8.9,3.7-18.1,3-27.7c-0.4-5.3,1.1-10.6,2.7-15.6
					c1.7-5.6,3.8-11.1,5-16.8c0.8-3.8,1.2-8-0.1-11.7c-2.1-4.1-5.2-7.8-8.9-9.4c-6.5-2.7-25.1-4.2-30.3,1.5
					c-9.8,10.8-8.1,17.3-13,29.7c-7.5,19.4,1.8,20.8-15.1,56.6c-0.7,1.5-1.6,5-0.8,6.1c3.9,5.1,10.6,5.2,17.8,5.4
					C197.6,513.9,210.3,511.3,219.6,509.1z"/>
				<path fill="#83B6FF" d="M296.1,470c-39-1-45.2-4.5-52-10.2c-1.9-1.6-3.6-3.3-5.1-5c-2-2.4-5-6-7.6-9.4l0.6-0.5
					c2.5,3.4,5.5,7,7.5,9.4c1.5,1.7,3.2,3.4,5,4.9c6.7,5.5,12.8,8.9,51.5,10L296.1,470z"/>
				<g>
					<g>
						<path fill="#FFFFFF" d="M225,600l-9.9-3.7l-8.9,0.2c-1.1,0-1.9,1-2,2.3l-0.1,5.6H227C228,602.8,227.5,600.9,225,600z"/>
						<path fill="#000543" d="M204.1,604.3l-0.2,0.9c-0.1,0.6,0.5,1.1,1.4,1.1H223c1.9,0,3.3-1,4-2H204.1z"/>
					</g>
					<path fill="#000543" d="M209.3,603.7l-3.2,0.1c-0.2,0-0.3-0.1-0.3-0.3l0-0.7c0-0.2,0.1-0.3,0.3-0.3l3.2-0.1
						c0.2,0,0.3,0.1,0.3,0.3l0,0.7C209.6,603.6,209.5,603.7,209.3,603.7z"/>
				</g>
				<g>
					<g>
						<path fill="#FFFFFF" d="M165.2,523.8l-9.5-91.2c-0.6-5.7,2.7-10.4,7.2-10.4h44.6c4.5,0,8.7,4.7,9.3,10.4l9.1,91.2H165.2z"/>
						<path fill="#BBD9EF" d="M161.4,523.8l-8.4-91.2c-0.5-5.7,2.4-10.4,6.6-10.4h41.1c4.2,0,8,4.7,8.5,10.4l8.4,91.2H161.4z"/>
						<path fill="#BBD9EF" d="M161.2,523.2v4.5c0,3.4,2.3,6.1,5.2,6.1h79c3.2,0,5.8-1.2,5.8-4.9v-1.2c0-2.1-1.5-4.5-3.4-4.5H161.2z"
							/>
					</g>
					<path fill="#BBD9EF" d="M258,533.8h-14.2c-0.5,0-1-0.4-1-1v-8.7c0-0.5,0.4-1,1-1H258c1.9,0,3.5,1.6,3.5,3.5v3.5
						C261.5,532.2,259.9,533.8,258,533.8z"/>
				</g>
			</g>
			<g>
				<path fill="#FFFFFF" d="M282.6,605.8c-0.1,0-0.1,0-0.2,0c-0.6-0.1-1-0.7-0.9-1.3l10.8-72.8c0.1-0.6,0.7-1,1.3-0.9
					c0.6,0.1,1,0.7,0.9,1.3l-10.8,72.8C283.6,605.4,283.1,605.8,282.6,605.8z"/>
				<path fill="#FFFFFF" d="M291,548.8c-0.1,0-0.1,0-0.2,0c-0.6-0.1-1-0.7-0.9-1.3l10.8-72.8c0.1-0.6,0.7-1,1.3-0.9
					c0.6,0.1,1,0.7,0.9,1.3l-10.8,72.8C292,548.4,291.6,548.8,291,548.8z"/>
			</g>
			<g>
				<path fill="#FFFFFF" d="M373.1,605.3c0.1,0,0.1,0,0.2,0c0.6-0.1,1-0.7,0.9-1.3l-10.8-72.3c-0.1-0.6-0.7-1-1.3-0.9
					c-0.6,0.1-1,0.7-0.9,1.3l10.8,72.3C372.1,605,372.5,605.3,373.1,605.3z"/>
				<path fill="#FFFFFF" d="M364.7,548.7c0.1,0,0.1,0,0.2,0c0.6-0.1,1-0.7,0.9-1.3L355,475.1c-0.1-0.6-0.7-1-1.3-0.9
					c-0.6,0.1-1,0.7-0.9,1.3l10.8,72.3C363.6,548.3,364.1,548.7,364.7,548.7z"/>
			</g>
			<path fill="#F9CDAF" d="M353.5,469.6H236.6c0.2,5.3-0.2,10.5-0.9,15.7h117.8c3.9,0,7.1-3.2,7.1-7.1v-1.6
				C360.6,472.8,357.4,469.6,353.5,469.6z"/>
			<path fill="#FFFFFF" d="M299.9,469.6h-63.3c0.2,5.3-0.2,10.5-0.9,15.7h64.2c3.9,0,7.1-3.2,7.1-7.1v-1.6
				C307,472.8,303.8,469.6,299.9,469.6z"/>
		</g>
	</g>
	<g>
		<path fill="#80D5FF" d="M335.8,440.4c-1.3,0-2.5-0.2-3.5-0.5c-1.3-0.4-2.2-1-2.9-1.7c-2-2.1-1.6-5-1.2-7.9c0.1-1,0.3-2.1,0.3-3.1
			c0.1-3.5-1.8-6.8-4.6-8.2c-4.2-2.2-9.2,0.1-12.3,2.6c-2.1,1.8-3.9,4-5.6,6.1c-1.1,1.4-2.3,2.9-3.6,4.2c-2.3,2.4-4.9,4.5-7.7,6.1
			c-1.6,0.9-3.9,2.1-6.5,2.2c-2.6,0.1-5-1.1-6.1-3.1c-0.7-1.3-0.9-2.8-1.1-4.2c-0.2-1.8-0.4-3.5-1.7-4.6c-1.5-1.2-3.8-0.7-5.2,0.4
			c-1.6,1.2-2.7,3.3-3.7,5.3l-0.9-0.4c1-2,2.2-4.3,3.9-5.6c1.7-1.3,4.6-1.9,6.5-0.4c1.6,1.3,1.8,3.3,2,5.2c0.2,1.4,0.3,2.8,0.9,3.9
			c0.9,1.6,3,2.7,5.2,2.6c2.3-0.1,4.6-1.2,6-2c2.8-1.6,5.3-3.6,7.5-5.9c1.2-1.3,2.4-2.8,3.5-4.2c1.7-2.2,3.5-4.4,5.7-6.3
			c3.2-2.8,8.7-5.1,13.4-2.8c3.1,1.6,5.2,5.3,5.1,9.1c0,1.1-0.2,2.2-0.3,3.2c-0.4,2.7-0.7,5.3,0.9,7.1c0.6,0.6,1.4,1.1,2.5,1.4
			c2.7,0.9,6.8,0.3,9.2-0.7l0.4,0.9C340.5,439.9,338.1,440.4,335.8,440.4z"/>
	</g>
	<g>
		<polygon fill="#FCEE88" points="268.4,445 267.8,444.1 294.1,428 320.1,427.8 346.6,415.8 347,416.7 320.3,428.8 320.2,428.8 
			294.3,429 		"/>
	</g>
</g>
<g>
	<g>
		<polygon fill="#FF9985" points="762.6,522.4 769.7,599.2 761.8,602.1 741.7,516.4 		"/>
		<polygon fill="#FF9985" points="785.5,522 792.6,598.7 784.7,601.6 764.6,515.9 		"/>
		<g>
			<g>
				<path fill="#6A79B7" d="M702.2,446.4l5.4,25.2h3.4l-4.7-22.3C705.8,447.7,704,446.4,702.2,446.4z"/>
				<polygon fill="#AFB8DB" points="710.9,471.6 705.4,445.9 735.1,445.9 740.5,471.6 				"/>
			</g>
			<path fill="#6A79B7" d="M761.4,464.5h-83.9c-1.5,0-3-1.1-3.3-2.4L663,409.5c-0.3-1.3,0.7-2.4,2.2-2.4h83.9c1.5,0,3,1.1,3.3,2.4
				l11.2,52.7C763.9,463.5,762.9,464.5,761.4,464.5z"/>
			<path fill="#AFB8DB" d="M764.5,464.5h-83.9c-1.5,0-3-1.1-3.3-2.4l-11.2-52.7c-0.3-1.3,0.7-2.4,2.2-2.4h83.9c1.5,0,3,1.1,3.3,2.4
				l11.2,52.7C767,463.5,766,464.5,764.5,464.5z"/>
			<path fill="#29347C" d="M669.9,409.5h81.4c1,0,2,0.7,2.2,1.6l10.2,47.9c0.2,0.9-0.5,1.6-1.5,1.6h-81.4c-1,0-2-0.7-2.2-1.6
				L668.4,411C668.2,410.2,668.9,409.5,669.9,409.5z"/>
			<path fill="#E4E8FA" d="M696.1,412.3h54.5c0.7,0,1.3,0.5,1.5,1.1l6.8,32.1c0.1,0.6-0.3,1.1-1,1.1h-54.5c-0.7,0-1.3-0.5-1.5-1.1
				l-6.8-32.1C694.9,412.8,695.4,412.3,696.1,412.3z"/>
			<path fill="#5765AD" d="M687.1,422.2h6.2c0.7,0,1.3,0.5,1.5,1.1l6.8,32.1c0.1,0.6-0.3,1.1-1,1.1H683c-0.9,0-1.7-0.6-1.9-1.5
				l-6.7-30.9c-0.2-0.9,0.5-1.7,1.4-1.7H687.1z"/>
		</g>
		<path fill="#FF9985" d="M727.2,471.6H713c2.6-6.5,11.9-5.2,11.9-5.2L727.2,471.6z"/>
		<g>
			<path fill="#FF9985" d="M798.9,407c-4.7-1.2-8.1-4.8-9.3-9.4c-0.1-0.1-0.1-0.2-0.2-0.3c0.7-0.6,1.2-1.6,1.3-2.6
				c0.3-2-0.3-5-1.8-5.2c-0.6,0-1.5,0.1-1.9,0.4c-0.3,0.2-0.4,0.8-0.6,1.2c-0.3-0.1-0.6,0.1-0.6-0.1c0-0.6,0.1-1.2,0.1-1.8
				c0-0.9-0.4-1.9-0.9-3l-1.2,9.3c-0.3,3.2,1.1,6.2,3.3,8.4c1,1,2.3,1.8,3.6,2.4c0.6,1.3,1.1,2.6,1.5,4c0.4,1.3,1.1,3.3,2.4,4.9
				c0.4,0.6,0.8-0.6,1.5-0.5c4.5,0.5,10.8,2.2,10.8,1.5c0-0.2-2.8-5-2.9-5.2c-0.9-1.2-1.9-3.4-2.3-4.7
				C800.7,406.6,800.2,407.4,798.9,407z"/>
			<path fill="#000543" d="M811.2,390.6c2.9-14.6-17.5-19.8-25.7-10.4c-1.3,1.5-1.6,3.7-0.8,5.6c0.5,1.1,1,2.2,1,3.1
				c0,0.6-0.1,1.2-0.1,1.9c0,0.3,0.1,1.2,0.4,1.3c0.3-0.4,0.6-0.8,0.9-1c0.5-0.4,1.1-0.6,1.6-0.5c1.5,0.1,2.5,1.9,2.2,4
				c-0.2,1.1-0.7,2.1-1.4,2.7c0.1,0.1,0.1,0.2,0.2,0.3c0.6,2.4,2.7,7.7,9.2,9.7c0.1,0.1,0.2,0.1,0.4,0.1c0.4,0.1,0.9,0.1,1.3,0
				c0.6-0.2,1-0.6,1.6-0.9c0.9-0.4,1.9-0.4,2.8-0.4C805.8,401.2,810.1,396.1,811.2,390.6z"/>
		</g>
		<path fill="#FF9985" d="M769.6,451.6c-8.6,9.1-33.2,13.9-45.4,14.7l0.2,2.8c0.1,1.4,1.4,2.5,2.8,2.5c43.5-1.2,46-5.4,53.8-11.8
			l-9.5-9.9L769.6,451.6z"/>
		<path fill="#568AD6" d="M779.4,425.9c-1.7,4.1-6.5,14.8-8.6,19.6c-0.6,1.4-0.3,3.1,0.7,4.2l9.5,10.1c0.2-0.2,0.4-0.3,0.6-0.5
			c0,0,12.2-13.8,14.7-19.7l3.3-7.9C804.5,420.3,784.2,414.3,779.4,425.9z"/>
		<path fill="#000543" d="M829.1,503.4c-3.6-0.2-7.3-0.7-9.3-1l0-0.2l-1.8-0.2c-15-1.9-51.4-5.2-74.7,3.9
			c-6.3,9.8-0.4,19.8,10.5,23.4c10.9,3.6,22.6-1.1,33.3-3.2c1.9-0.4,2.7,2.5,0.8,2.9c-4.7,0.9-9.5,2.2-14.3,3.2
			c12.9-0.9,26.6-1.4,38.3,0c7.6,0.9,14.4-2.7,20.1-2.4L829.1,503.4z"/>
		<path fill="#568AD6" d="M803.8,511c-6.6-1.5-11.9-6.6-13.8-13.3c-2.5-8.9-3.7-18.1-3-27.7c0.4-5.3-1.1-10.6-2.7-15.6
			c-1.7-5.6-3.8-11.1-5-16.8c-0.8-3.8-1.2-8,0.1-11.7c2.1-4.1,5.2-7.8,8.9-9.4c6.5-2.7,25.1-4.2,30.3,1.5c9.8,10.8,8.1,17.3,13,29.7
			c7.5,19.4-1.8,20.8,15.1,56.6c0.7,1.5,1.6,5,0.8,6.1c-3.9,5.1-10.6,5.2-17.8,5.4C825.7,515.9,813,513.2,803.8,511z"/>
		<g>
			<g>
				<path fill="#FFFFFF" d="M858.1,525.8l9.5-91.2c0.6-5.7-2.7-10.4-7.2-10.4h-44.6c-4.5,0-8.7,4.7-9.3,10.4l-9.1,91.2H858.1z"/>
				<path fill="#BBD9EF" d="M862,525.8l8.4-91.2c0.5-5.7-2.4-10.4-6.6-10.4h-41.1c-4.2,0-8,4.7-8.5,10.4l-8.4,91.2H862z"/>
				<path fill="#BBD9EF" d="M862.2,525.2v4.5c0,3.4-2.3,6.1-5.2,6.1h-79c-3.2,0-5.8-1.2-5.8-4.9v-1.2c0-2.1,1.5-4.5,3.4-4.5H862.2z"
					/>
			</g>
			<path fill="#BBD9EF" d="M765.4,535.8h14.2c0.5,0,1-0.4,1-1v-8.7c0-0.5-0.4-1-1-1h-14.2c-1.9,0-3.5,1.6-3.5,3.5v3.5
				C761.9,534.2,763.4,535.8,765.4,535.8z"/>
		</g>
	</g>
	<g>
		<path fill="#FFFFFF" d="M740.8,606.5c0.1,0,0.1,0,0.2,0c0.6-0.1,1-0.7,0.9-1.3l-10.8-72.1c-0.1-0.6-0.7-1-1.3-0.9
			c-0.6,0.1-1,0.7-0.9,1.3l10.8,72.1C739.8,606.1,740.2,606.5,740.8,606.5z"/>
		<path fill="#FFFFFF" d="M732.3,550.1c0.1,0,0.1,0,0.2,0c0.6-0.1,1-0.7,0.9-1.3l-10.8-72.1c-0.1-0.6-0.7-1-1.3-0.9
			c-0.6,0.1-1,0.7-0.9,1.3l10.8,72.1C731.3,549.7,731.8,550.1,732.3,550.1z"/>
	</g>
	<g>
		<path fill="#FFFFFF" d="M650.3,606.1c-0.1,0-0.1,0-0.2,0c-0.6-0.1-1-0.6-0.9-1.3l10.8-71.7c0.1-0.6,0.7-1,1.3-0.9
			c0.6,0.1,1,0.6,0.9,1.2l-10.8,71.7C651.3,605.7,650.8,606.1,650.3,606.1z"/>
		<path fill="#FFFFFF" d="M658.7,550c-0.1,0-0.1,0-0.2,0c-0.6-0.1-1-0.6-0.9-1.3l10.8-71.7c0.1-0.6,0.7-1,1.3-0.9
			c0.6,0.1,1,0.6,0.9,1.3L659.8,549C659.7,549.6,659.2,550,658.7,550z"/>
	</g>
	<path fill="#F9CDAF" d="M669.9,471.6h116.9c-0.2,5.3,0.2,10.5,0.9,15.7H669.9c-3.9,0-7.1-3.2-7.1-7.1v-1.6
		C662.8,474.8,666,471.6,669.9,471.6z"/>
	<path fill="#FFE7D7" d="M723.5,471.6h63.3c-0.2,5.3,0.2,10.5,0.9,15.7h-64.2c-3.9,0-7.1-3.2-7.1-7.1v-1.6
		C716.4,474.8,719.6,471.6,723.5,471.6z"/>
	<g>
		<path fill="#568AD6" d="M704.5,441.3c-0.2,0-0.5-0.2-0.5-0.4c-0.6-4.1,1.5-8.5,5-10.7c3.5-2.2,8.3-2.1,11.8,0.2
			c1.2,0.8,2.3,1.9,3.2,2.9c0.7,0.7,1.4,1.4,2.1,2c2.3,1.9,5.1,3.1,8.1,3.3c2.8,0.2,6.2-0.7,7.4-3.3c0.7-1.5,0.6-3.3,0.5-5.1
			c0-0.3,0-0.7-0.1-1c-0.2-3.1,0.3-5.6,1.5-7.5c1.3-2.1,4.1-3.9,6.9-3.1c0.3,0.1,0.4,0.3,0.3,0.6c-0.1,0.3-0.3,0.4-0.6,0.3
			c-2.3-0.6-4.6,0.9-5.7,2.7c-1.1,1.7-1.5,4-1.4,6.9c0,0.3,0,0.7,0.1,1c0.1,1.9,0.3,3.8-0.6,5.6c-1.5,3.2-5.5,4.1-8.4,3.9
			c-3.2-0.2-6.2-1.5-8.7-3.5c-0.8-0.7-1.5-1.4-2.2-2.1c-1-1-2-2-3.1-2.8c-3.1-2.1-7.5-2.1-10.7-0.2c-3.2,2-5,6-4.5,9.7
			C705,441.1,704.8,441.3,704.5,441.3C704.5,441.3,704.5,441.3,704.5,441.3z"/>
	</g>
	<path fill="#FCEE88" d="M681.3,431.1c-1.1,0-2.1-0.9-2.1-2.1s0.9-2.1,2.1-2.1s2.1,0.9,2.1,2.1S682.4,431.1,681.3,431.1z"/>
	<path fill="#FCEE88" d="M696.4,447.6c0,2-1.7,3.7-3.7,3.7s-3.7-1.7-3.7-3.7s1.7-3.7,3.7-3.7S696.4,445.5,696.4,447.6z"/>
	
		<ellipse transform="matrix(0.2298 -0.9732 0.9732 0.2298 222.6344 1099.0438)" fill="#000543" cx="805.7" cy="408.9" rx="8.8" ry="8.8"/>
	<path fill="#568AD6" d="M716.3,419.4h-12.4c-1.2,0-2.1-1-2.1-2.1c0-1.2,1-2.1,2.1-2.1h12.4c1.2,0,2.1,1,2.1,2.1
		C718.4,418.4,717.4,419.4,716.3,419.4z"/>
	<g>
		<g>
			<rect x="826.5" y="536.3" fill="#000543" width="2" height="69.5"/>
		</g>
		<g>
			<path fill="#000543" d="M854.2,606.6h-52.7c-0.6,0-1-0.4-1-1c0-0.6,0.4-1,1-1h52.7c0.6,0,1,0.4,1,1
				C855.2,606.1,854.8,606.6,854.2,606.6z"/>
		</g>
	</g>
</g>
<g>
	<path fill="#EF6C5E" d="M284.3,272.9L284.3,272.9C284.1,273,284.3,272.9,284.3,272.9z"/>
	<g>
		<g>
			<path fill="#FCEE88" d="M286.7,276.1c0,0-6.6,0-6.6,0c-2.6,0-3.1-1.4-3.7-3c-0.2-0.5-0.3-1-0.6-1.5c-0.2-0.3-0.3-0.7-0.4-1.1
				c-1-2.8-2.4-5.3-4.3-7.6c-3.9-4.6-9.9-11.5-9.7-19.1c0-0.3,0-0.6,0-0.8c0.5-9,5.2-16.1,12.9-19.5c5.8-2.6,12.5-2.6,18.3,0
				c7.7,3.5,12.4,10.6,12.8,19.6c0,0.3,0,0.6,0,0.8c0.1,7.6-5.8,14.5-9.8,19.1c-1.9,2.2-3.4,4.7-4.3,7.5c-0.1,0.4-0.3,0.7-0.4,1.1
				c-0.3,0.6-0.4,1.1-0.6,1.5C289.8,274.7,289.3,276.1,286.7,276.1z"/>
		</g>
	</g>
	<g>
		<path fill="#F9B46E" d="M288.1,276.6h-9.1l-5.6-26.3c-0.1-0.4,0-0.7,0.2-1c0.5-0.7,1.1-1.4,1.9-1.9c1-0.8,2.1-1.1,3.2-0.9
			c1.5,0.3,2.6,1.5,3.4,2.5c0.5,0.6,1.1,1.3,1.5,1.4l0.1,0c0.1,0,0.2,0,0.2,0c0.4-0.1,1-0.8,1.5-1.4c0.8-1,1.8-2.2,3.4-2.4
			c0.4-0.1,0.8-0.1,1.2,0c1.5,0.3,2.6,1.5,3.4,2.5l0.1,0.1c0.2,0.3,0.3,0.7,0.3,1L288.1,276.6z M279.9,275.6h7.5l5.5-25.7
			c0-0.1,0-0.1,0-0.2l-0.1-0.1c-0.8-0.9-1.6-1.9-2.8-2.1c-0.3,0-0.5,0-0.8,0c-1.2,0.2-2,1.2-2.8,2.1c-0.7,0.8-1.3,1.6-2.1,1.7
			c-0.1,0-0.2,0-0.4,0c-0.1,0-0.2,0-0.3,0c-0.8-0.1-1.4-0.9-2.1-1.7c-0.8-0.9-1.6-1.9-2.8-2.1c-0.8-0.1-1.6,0.1-2.4,0.7
			c-0.7,0.5-1.2,1.1-1.7,1.8c0,0-0.1,0.1,0,0.2L279.9,275.6z"/>
	</g>
	<polygon fill="#FFB288" points="280.4,268.6 280.5,268.6 280.4,268.6 	"/>
	<g>
		<rect x="283.1" y="251" fill="#F9B46E" width="1" height="24.7"/>
	</g>
	<path fill="#FFFFFF" d="M279.1,276.2v6.9c0,3,2.1,5.5,4.6,5.5c2.5,0,4.6-2.5,4.6-5.5v-6.9H279.1z"/>
</g>
</svg>
