<?xml version="1.0" encoding="utf-8"?>
<!-- Generator: Adobe Illustrator 26.0.1, SVG Export Plug-In . SVG Version: 6.00 Build 0)  -->
<svg version="1.1" id="Ñëîé_1" xmlns="http://www.w3.org/2000/svg" xmlns:xlink="http://www.w3.org/1999/xlink" x="0px" y="0px"
	 viewBox="0 0 690 705" enable-background="new 0 0 690 705" xml:space="preserve">
<g>
	<rect x="0" y="0" fill="#000543" width="690" height="705"/>
	<g>
		<g>
			<g>
				<path fill="#404F9B" d="M345.4,72.7c9,0,17.4,2.6,24.5,6.9c0.4-1.1,0.6-2.3,0.6-3.5c0-8.9-10.9-16.1-24.4-16.1
					c-13.5,0-24.4,7.2-24.4,16.1c0,0.9,0.1,1.8,0.4,2.7C329.1,75,337,72.7,345.4,72.7L345.4,72.7z"/>
				<rect x="298.3" y="147.8" fill="#404F9B" width="94.2" height="48.1"/>
				<rect x="298.3" y="128.9" fill="#404F9B" width="94.2" height="14.1"/>
				<path fill="#404F9B" d="M298.3,119.5v4.6h94.2v-4.6c0-3.2-0.3-6.4-1-9.4h-92.2C298.7,113.1,298.3,116.3,298.3,119.5z"/>
				<path fill="#404F9B" d="M390.3,105.3c-3.5-10.8-10.8-19.9-20.3-25.7c-7.2-4.4-15.5-6.9-24.5-6.9c-8.4,0-16.4,2.2-23.2,6.1
					c-10.2,5.8-18,15.2-21.6,26.5H390.3z"/>
			</g>
			<g>
				<path fill="#FFD878" d="M265.7,617.1c50.3,22.3,108.2,22.3,158.5,0c60.3-26.8,107.2-82.9,111.4-168.4c0.1-2.4,0.2-4.8,0.3-7.3
					c1.2-63.5-47.2-121.6-85.6-166.1c-17.6-20.5-31-44-39.7-69.1c-1-3-2.2-6-3.5-8.9c-10.2-22.5-7.6-36.5-32.5-36.5h-59.3
					c-24.9,0-22.3,14-32.5,36.5c-1.3,2.9-2.5,5.8-3.5,8.9c-8.7,25.1-22,48.6-39.7,69.1c-38.4,44.5-86.8,102.6-85.6,166.1
					c0,2.4,0.1,4.9,0.3,7.3C158.5,534.2,205.4,590.3,265.7,617.1z"/>
			</g>
		</g>
		<rect x="342.2" y="0" fill="#404F9B" width="5.5" height="69.6"/>
	</g>
	<g>
		<defs>
			<path id="SVGID_1_" d="M265.7,617.1c50.3,22.3,108.2,22.3,158.5,0c60.3-26.8,107.2-82.9,111.4-168.4c0.1-2.4,0.2-4.8,0.3-7.3
				c1.2-63.5-47.2-121.6-85.6-166.1c-17.6-20.5-31-44-39.7-69.1c-1-3-2.2-6-3.5-8.9c-10.2-22.5-7.6-36.5-32.5-36.5h-59.3
				c-24.9,0-22.3,14-32.5,36.5c-1.3,2.9-2.5,5.8-3.5,8.9c-8.7,25.1-22,48.6-39.7,69.1c-38.4,44.5-86.8,102.6-85.6,166.1
				c0,2.4,0.1,4.9,0.3,7.3C158.5,534.2,205.4,590.3,265.7,617.1z"/>
		</defs>
		<clipPath id="SVGID_00000106106554050035423940000004869995360222489253_">
			<use xlink:href="#SVGID_1_"  overflow="visible"/>
		</clipPath>
		<g clip-path="url(#SVGID_00000106106554050035423940000004869995360222489253_)">
			<g>
				<g>
					<path fill="#6D72A0" d="M332.3,729.6H207.7c-4.6,0-8.4-3.8-8.4-8.4V606.8c0-0.8,0.6-1.4,1.4-1.4s1.4,0.6,1.4,1.4v114.4
						c0,3.1,2.5,5.5,5.5,5.5h124.6c0.8,0,1.4,0.6,1.4,1.4C333.8,728.9,333.1,729.6,332.3,729.6z"/>
				</g>
				<g>
					<g>
						<path fill="#F4904D" d="M186.9,605.4l-9.1-151.7c-0.8-6.9,3.7-12.5,9.9-12.5h51.8c6.2,0,12,5.6,12.8,12.5l8.3,71.9
							L186.9,605.4z"/>
					</g>
				</g>
				<g>
					<g>
						<path fill="#FFFFFF" d="M194.5,604.2l-15.3-150.6c-0.4-6.9,3.9-12.5,9.7-12.5h56.8c5.8,0,10.8,5.6,11.3,12.5l21.9,151.7
							L194.5,604.2z"/>
					</g>
				</g>
				<g>
					<g>
						<path fill="#F4904D" d="M192,597.8c-3.5,0-5.2,2.8-5.2,6.3c0,4.7,2.7,8.5,7.5,8.5H324c5.3,0,9.5-4.2,9.5-9.4v-5.4H192z"/>
					</g>
				</g>
			</g>
			<g>
				<g>
					<path fill="#6F519E" d="M341.5,597.7c-22.8,0.2-82.2,0.8-104.2-1.2c-25.7-2.3-18.9-54.9,7-55.6c51.5-1.4,106.2,9.3,128.1,22.2
						c11.5,6.8,9.7,29.6-2.8,32.9C362.2,597.9,355.4,597.6,341.5,597.7z"/>
				</g>
			</g>
			<g>
				<g>
					<g>
						<path fill="#FF9985" d="M335.7,575.1c-6.9-9.6-21.2-8.4-25.4,2.1l-1.8,4.6c-1.9,4.7-0.9,9.9,0.1,15.1
							c6.9,35.6,11.4,83.8,9.6,125.2l12.7-1c1.1-4.8,8.7-113,7.6-127.9C338.1,586.8,339.5,580.4,335.7,575.1z"/>
					</g>
				</g>
				<g>
					<g>
						<path fill="#FF9985" d="M376.8,574.4c-8.4-9.6-22.5-8.4-25.1,2.1l-1.1,4.6c-1.1,4.7,0,9.1,1.8,14.2
							c12.1,34.9,24.3,82.7,29.1,123.6c0.2,1.3,1.5,2.5,2.8,2.5l8.9,0.1c0,0-3.6-84.8-10.7-129.1C381.5,586,381.4,579.6,376.8,574.4
							z"/>
					</g>
				</g>
			</g>
			<g>
				<g>
					<g>
						<path fill="#000543" d="M407.8,722.8l-3.1-1.2c-11.2,6.5-19.1,2.4-23.4-1.6l-1.5,9.6c-0.1,0.9,0.8,1.7,1.9,1.7l24,0.3
							C412,731.6,413.5,725.1,407.8,722.8z"/>
					</g>
				</g>
				<g>
					<g>
						<path fill="#FF9985" d="M404.7,721.5l-20-8.1c-1.1-0.5-2.4,0-2.6,1l-0.9,5.4C385.6,723.9,393.5,728,404.7,721.5z"/>
					</g>
				</g>
			</g>
			<g>
				<g>
					<g>
						<path fill="#000543" d="M344.5,722.6l-3.1-1.2c-11.2,6.5-19.1,2.4-23.4-1.6l-1.5,9.6c-0.1,0.9,0.8,1.7,1.9,1.7l24,0.3
							C348.6,731.5,350.2,724.9,344.5,722.6z"/>
					</g>
				</g>
				<g>
					<g>
						<path fill="#FF9985" d="M341.4,721.3l-20-8.1c-1.1-0.5-2.4,0-2.6,1l-0.9,5.4C322.3,723.7,330.1,727.9,341.4,721.3z"/>
					</g>
				</g>
			</g>
			<g>
				<g>
					<g>
						<polygon fill="#FF9985" points="383.6,501.6 394.3,500.4 394.7,491.2 384.1,491 						"/>
					</g>
				</g>
				<g>
					<g>
						<path fill="#FF9985" d="M401.9,501.9c1.3,0,2.5,1.3,3.4,0.7c0.6-0.5,1-1.1,1.2-1.8c0.7-1.7,7.1-1.5,7.3-3.3
							c0.1-1.7-6.8-5.7-14.2-7.5c-3.9-0.9-8.1-0.6-10.4,1.7c-2.9,2.9-0.7,7.1,4.7,9.2C396.6,502.1,399.1,502,401.9,501.9z"/>
					</g>
				</g>
			</g>
			<g>
				<g>
					<path fill="#000543" d="M386.4,487.4c0.1-2.6-1.7-4.8-4-4.9c-13.1-0.8-53.3-3.2-57-3.2c-5.1,0-9.6,1.4-10.4,7.1
						c-1,6.9,3.6,16.1,9.6,16.4c7.5,0.4,38,0.4,57.3-0.1c2.3-0.1,4.1-2.1,4.2-4.7L386.4,487.4z"/>
				</g>
			</g>
			<g>
				<g>
					<path fill="#000543" d="M262.3,404.2c-6.4,5.3-6.2,16.5,0.2,25.1c9.1,12.1,42.8,60.2,45.5,64.2c5.4,7.9,14.6,11,20.6,7.1
						c5.6-3.7,6.6-12.6,2.1-20.4c-10.2-18.2-29.9-47.7-43.8-68.4C280.6,402.4,269,398.7,262.3,404.2z"/>
				</g>
			</g>
			<g>
				<g>
					<g>
						<g>
							<path fill="#FFB6D7" d="M310.3,400.1c-11.1-10-23-9-33-5l19.7,57.9L310.3,400.1z"/>
						</g>
					</g>
					<g>
						<g>
							<path fill="#FFB6D7" d="M313.3,491.7c0.5-29.6,7.5-48.5,7.8-64c0.1-0.6,0.1-1.2,0-1.8c0-0.8-0.2-1.7-0.3-2.5c0,0,0-0.1,0-0.1
								c-0.4-2.2-0.8-4.8-1.3-7.3c-1.3-6.2-4.5-11.8-9.2-15.9L297,452.9l-19.7-57.9c-3.2,1.3-6.2,2.9-9,4.5l-4,2.5
								c-18.8,11.8-14.9,38.7-14.9,38.7c0.9,13.1,4.4,19.4,3.4,34c-1.9,25.8-17.7,35-23.1,60.9c-0.8,3.9-1.9,7.7-3.1,11.5
								c-1.6,5-3.1,11.6-0.5,13c11.2,6.2,23.8,9.4,37.7,8.2c15.2-1.3,27.3-2.5,41.6-9.1c3.5-1.6,7.5-5.8,7.5-9.6
								C313.7,518.6,312.7,528.3,313.3,491.7z"/>
						</g>
					</g>
				</g>
			</g>
			<g>
				<g>
					<g>
						<g>
							<path fill="#000543" d="M258.7,341.3c-0.4-0.9-1.3-1.5-1.7-2.4c-0.9-1.8,0.5-3.9,2.2-4.9c1.7-1,3.8-1.4,5.4-2.5
								c1.9-1.3,2.9-3.4,4.3-5.2c1.4-1.8,3.6-3.4,5.9-2.8c1.8,0.4,3.3,2,5.1,2.2c4.8,0.5,7.9-3.7,13.5-2.4c3.1,0.7,5.8,2.1,7.6,4.7
								c0.1,0.1,0.1,0.2,0.2,0.3c11.4,0.5,21.3,5.6,25.5,14.2c5,10.4,0.2,22.9-10.8,31.4c-0.2,0.1-1.1,0.8-1.3,1
								c-1.4,1.7-1.4,5-3.7,5.8c-1.2,0.4-2.7-0.2-3.8,0.3c-1.1,0.5-1.5,1.8-2.3,2.8c-3.1,4.2-10.4,1.5-15.2,3.8
								c-3.8,1.8-6.3,6.5-10.5,4.1c-2-1.2-2.6-3.8-4.4-5.3c-1.4-1.1-3.3-1.3-5-1.9c-3.2-1.2-5.6-4.3-5.8-7.5
								c-0.1-1.7,0.2-3.6-0.8-5.1c-1.5-2.1-5.2-2.5-5.6-5c-0.3-1.7,1.4-3,1.6-4.6c0.3-2.1-1.7-3.9-2.8-5.7c-1.6-2.6-1.7-6-0.1-8.4
								C257.3,346,259.9,343.8,258.7,341.3z"/>
						</g>
					</g>
					<g>
						<g>
							<g>
								<path fill="#000543" d="M295.3,372.4c-3-2.8-9.2-6.1-11.5-8.4c-1.5-1.6-3.1-3.3-4.1-5.2c-0.5-1-1.2-2.5-1.2-5
									c0,0,1.7-2.3,0.4-0.6c3.2-4.1,4.3-8.3,4.1-12.2c0.8-2.1,2.1-4.5,5.1-7c6.7-5.6,9.8-4.5,13.9-5.5c4-1,3.7-0.6,8.7-0.8
									c4.3-0.1,8.6,1.8,11.6,4.9c0,0,1.7,2,2.2,3c0.6,1,1,2.1,1.5,3.2c1,0.7,4.6,3.8,4.8,6.8c0.3,5.9-1.7,8.2-1.7,8.2
									c-2.9-0.8-5.1-5.1-7.7-4.9c-1.2,0.2-1.7,0.3-2.4,0.6c-3.8,1.8-6.9,3.2-8.6,7.4c-1.4,3.4-0.6,7.9-3.5,10.3
									c-2.6,2.1-6.9,1.5-9.7,3.4C296.3,371.1,295.8,371.7,295.3,372.4z"/>
							</g>
						</g>
						<g>
							<g>
								<path fill="#000543" d="M275.3,352.7c0.2,2.9,8.9,17.6,12.7,21.3l3.3,7.1c5.3-3.1,2.7-14.5,2.7-14.5
									c-0.9-1.2-1.1-3.4-0.4-5.7c0.9-3.1,3.1-5.1,4.8-4.6c0.1,0,0.2,0.2,0.3,0.2l-8.8-14.1C287,347.3,274.7,340.7,275.3,352.7z"/>
							</g>
						</g>
					</g>
					<g>
						<g>
							<g>
								<path fill="#000543" d="M289.4,366.5c1.8-0.9,3.5-2.2,4.9-3.7c2.5-2.7,4.1-6.2,6.5-8.9c2.9-3.4,10.3-8.9,21.5-8.1
									c1.1,0.1,2.7,0.3,3.2-1c0.2-0.4,0.1-1,0-1.6c-0.2-1.3-0.8-2.8-1-3.5c-0.1-0.3-0.1-0.6-0.3-0.8c-0.2-0.2-0.5-0.3-0.7-0.4
									c-2.2-0.8-4.5-1.6-6.7-2.4c-3.1-1.1-6.1-2.2-9.3-2.9c-2.7-0.5-5.6-0.7-7.9,0.6c-3.9,2.1-5.1,7-7.6,10.6
									c-0.6,0.8-1.2,1.6-1.9,2.4l-1.3-1.5c-0.5,1.2-0.9,2.5-1.2,3.9c-1.1,1-2.2,2-3.3,3l2.9,10.7c0.2,2.2,0.6,4.6,1.1,7.2
									c0.6,2.8,1.5,5.3,2.8,7.2c0.1,0,1.3-8.5,1.3-8.5C291.1,368.5,290.1,367.7,289.4,366.5z"/>
							</g>
						</g>
						<g>
							<g>
								<path fill="#FF9985" d="M289.4,366.5c0.7,1.2,1.7,2,3,2.3c0,0-3.1,21.2-4.4,30c-0.6,4.1,2.2,7.8,6.3,8.4l1.6-1.4
									c4.1,0.6,6.2-0.8,6.8-4.9l2.7-17.8c0.7,0.2,1.4,0.4,2.1,0.5c9.3,1.3,18-5.2,19.3-14.4l2-13.6c0.7-4.6-0.7-9-3.3-12.4
									c0.1,0.6,0.2,1.2,0,1.6c-0.5,1.2-2.1,1.1-3.2,1c-11.2-0.8-18.6,4.7-21.5,8.1c-2.4,2.8-4,6.2-6.5,8.9
									C292.9,364.4,291.2,365.6,289.4,366.5z M323.7,360.6c0.1-1,0.8-1.8,1.5-1.7l2.1,0.3l-1.2,0.9c0.1,0.3,0.1,0.6,0,0.9
									c-0.1,1-0.8,1.8-1.5,1.7C324,362.6,323.6,361.6,323.7,360.6z M315.5,367.3l0.1-0.2c0.3,0.6,0.8,1,1.5,0.9l1.9-0.3
									c0.8-0.1,1.4-0.8,1.6-1.6l0.1,0.4c0.3,1.3-0.5,2.6-1.6,2.8l-1.9,0.3C316,369.8,315.1,368.5,315.5,367.3z M308.9,358.5
									c0.1-1,0.8-1.8,1.5-1.7l2.1,0.3l-1.2,0.9c0.1,0.3,0.1,0.6,0,0.9c-0.1,1-0.8,1.8-1.5,1.7
									C309.2,360.5,308.8,359.6,308.9,358.5z"/>
							</g>
						</g>
						<g>
							<g>
								<path fill="#000543" d="M315.3,354.5c0.1-0.6-0.3-1.2-0.9-1.2l-4.1-0.6c-0.6-0.1-1.2,0.3-1.2,0.9c-0.1,0.6,0.3,1.2,0.9,1.2
									l4.1,0.6C314.7,355.5,315.2,355.1,315.3,354.5z"/>
							</g>
						</g>
						<g>
							<g>
								<path fill="#000543" d="M328.2,354.5L325,354c-0.5-0.1-0.9,0.4-1,1c-0.1,0.6,0.2,1.1,0.7,1.2l3.2,0.4c0.5,0.1,0.9-0.4,1-1
									C328.9,355.1,328.6,354.5,328.2,354.5z"/>
							</g>
						</g>
						<g>
							<g>
								<path fill="#FA694F" d="M320.6,366c-0.2,0.8-0.8,1.5-1.6,1.6L317,368c-0.7,0.1-1.2-0.3-1.5-0.9l-0.1,0.2
									c-0.4,1.2,0.4,2.4,1.5,2.2l1.9-0.3c1.2-0.2,1.9-1.5,1.6-2.8L320.6,366z"/>
							</g>
						</g>
						<g>
							<g>
								<path fill="#000543" d="M310.4,356.8c-0.7-0.1-1.3,0.7-1.5,1.7c-0.1,1,0.3,2,1,2.1c0.7,0.1,1.3-0.7,1.5-1.7
									c0-0.3,0-0.6,0-0.9l1.2-0.9L310.4,356.8z"/>
							</g>
						</g>
						<g>
							<g>
								<path fill="#000543" d="M325.2,358.9c-0.7-0.1-1.3,0.7-1.5,1.7c-0.1,1,0.3,2,1,2.1c0.7,0.1,1.3-0.7,1.5-1.7
									c0-0.3,0-0.6,0-0.9l1.2-0.9L325.2,358.9z"/>
							</g>
						</g>
					</g>
				</g>
			</g>
			<g>
				<g>
					<g>
						<path fill="#FFFFFF" d="M289.1,391.2c0,0,1.4,12.7,6.8,14.6l-6,6.8c0,0-8-6.1-6-19.8L289.1,391.2z"/>
					</g>
				</g>
				<g>
					<g>
						<path fill="#FFFFFF" d="M303.5,395.1c0,0-2.3,9.3-7.7,10.8l4.7,7.6c0,0,7.8-6,7.1-15.6L303.5,395.1z"/>
					</g>
				</g>
			</g>
			<g>
				<g>
					<path fill="#20296D" d="M386.9,517c-0.1-1,0.5-1.9,1.5-2.1c1-0.2,1.9,0.5,2.1,1.5L422.1,729c0.1,1-0.5,1.9-1.5,2.1
						c-0.1,0-0.2,0-0.3,0c-0.9,0-1.7-0.7-1.8-1.6L386.9,517z"/>
				</g>
			</g>
			<g>
				<g>
					<path fill="#20296D" d="M477.9,517.6c-0.1-1,0.5-1.9,1.5-2.1c1-0.2,1.9,0.5,2.1,1.5l31.6,212.6c0.1,0.4-0.1,0.9-0.3,1.2h-3.1
						c-0.1-0.2-0.2-0.4-0.2-0.7L477.9,517.6z"/>
				</g>
			</g>
			<g>
				<g>
					<path fill="#20296D" d="M257.5,610.9l13.9-93.4c0.1-1,1.1-1.7,2.1-1.5c1,0.1,1.7,1.1,1.5,2.1l-31.6,212.6
						c0,0.2-0.1,0.5-0.2,0.7H240c-0.2-0.4-0.3-0.8-0.3-1.2L257.5,610.9z"/>
				</g>
			</g>
			<g>
				<g>
					<g>
						<polygon fill="#FF9985" points="295.1,475.7 353.4,401.5 360.9,406.9 312.3,488.1 						"/>
					</g>
				</g>
				<g>
					<g>
						<g>
							<path fill="#FF9985" d="M362.6,390.3c0.7,0.4,0.9,1.4,0.5,2.1l-4,6.6c-0.4,0.7-1.4,1-2.1,0.6c-0.7-0.4-0.9-1.4-0.5-2.1l4-6.6
								C361,390.2,361.9,389.9,362.6,390.3z"/>
						</g>
					</g>
					<g>
						<g>
							<path fill="#FF9985" d="M367.1,407.8c1-0.7,2-1.6,2.4-2.6c0.3-0.7,0.2-1.5,0-2.2c-0.4-1.8-1.1-3.6-2-5.3
								c-0.9-1.5-2.3-3.1-4.7-3.1c-2.3,0-4.5,1.2-6,2.7c-2.8,2.9-3.8,3.9-4.4,7.2c-0.8,4.1,1.1,6.8,6.7,5.6
								C361.9,409.6,364.9,409.5,367.1,407.8z"/>
						</g>
					</g>
					<g>
						<g>
							<path fill="#FF9985" d="M363.2,397.3l11-2.1c0.7-0.1,1.2-0.9,1.1-1.6c-0.2-0.7-0.9-1.2-1.6-1.1l-11,2.1
								c-0.7,0.1-1.2,0.9-1.1,1.6C361.7,396.9,362.5,397.4,363.2,397.3z"/>
						</g>
					</g>
					<g>
						<g>
							<path fill="#FF9985" d="M365.1,400.7l11-2.1c0.7-0.1,1.2-0.9,1.1-1.6c-0.2-0.7-0.9-1.2-1.6-1.1l-11,2.1
								c-0.7,0.1-1.2,0.9-1.1,1.6C363.6,400.4,364.3,400.9,365.1,400.7z"/>
						</g>
					</g>
					<g>
						<g>
							<path fill="#FF9985" d="M364.5,404.8l11-2.1c0.7-0.1,1.2-0.9,1.1-1.6c-0.2-0.7-0.9-1.2-1.6-1.1l-11,2.1
								c-0.7,0.1-1.2,0.9-1.1,1.6C363.1,404.4,363.8,404.9,364.5,404.8z"/>
						</g>
					</g>
					<g>
						<g>
							<path fill="#FF9985" d="M362.3,408.8l11-2.1c0.7-0.1,1.2-0.9,1.1-1.6c-0.2-0.7-0.9-1.2-1.6-1.1l-11,2.1
								c-0.7,0.1-1.2,0.9-1.1,1.6C360.8,408.4,361.6,408.9,362.3,408.8z"/>
						</g>
					</g>
				</g>
			</g>
			<g>
				<g>
					<g>
						<polygon fill="#FCE1D0" points="464.7,417.6 478.9,365 378.2,365 363.3,417.6 						"/>
					</g>
				</g>
				<g>
					<g>
						<path fill="#FCE1D0" d="M409.2,379.1c2.6-4.6,20.8-9.9,22.4-15.5c5.3-18.8-14.6-34-24.8-34c-10.2,0-22.8,15.2-28.1,34
							c-1.6,5.6-2.3,10.8-2.3,15.5H409.2z"/>
					</g>
				</g>
				<g>
					<g>
						<g>
							<path fill="#FFFFFF" d="M423.8,375.2h56.4v-45.7h-74.9c10.2,0,18.5,15.2,18.5,34C423.8,364,423.8,369.1,423.8,375.2z"/>
						</g>
					</g>
				</g>
				<g>
					<g>
						<polygon fill="#FFFFFF" points="500.3,375.2 500.3,364 423.6,358.4 423.6,375.2 						"/>
					</g>
				</g>
				<g>
					<g>
						<path fill="#FFFFFF" d="M499.1,375.2c0.7-3.6,1.1-7.6,1.1-11.7c0-18.8-8.3-34-18.5-34c-10.2,0-18.5,15.2-18.5,34
							c0,4.1,0.4,8,1.1,11.7H499.1z"/>
					</g>
				</g>
			</g>
			<g>
				<path fill="#FFFFFF" d="M310,371.5c0.1,1.9,1.7,3.4,3.6,3.4c1.7,0,3.1-1.2,3.5-2.7L310,371.5z"/>
			</g>
			<g>
				<polygon fill="#FF9985" points="275.9,460.9 303.1,485.4 313.2,470.8 293.8,449.1 				"/>
			</g>
			<g>
				<path fill="#FFB6D7" d="M274.6,420.7c-5.7-6.9-13.4-3.6-20.1,2.8c-1.9,1.8-2.8,4.5-3,7.5c-0.1-0.1-0.2-0.2-0.4-0.4
					c1.2,14,5.2,20.8,7.5,23.1c1.6,1.6,3.2,3.1,4.5,4.9c1.3,1.9,2.1,4.1,3.2,6.1c1.8,3.1,4.4,5.8,7.4,7.6c0.7,0.4,1.4,0.7,2,1.1
					c1.7,0.9,3.9,0.6,5.3-0.7c4.9-4.5,9-7,18.5-16.7c1.1-1.1,1.2-2.8,0.2-4C291.6,441.2,282.1,429.7,274.6,420.7z"/>
			</g>
			<g>
				<path fill="#F98FC4" d="M278.9,473.8c-0.8,0-1.6-0.2-2.3-0.6l-0.6-0.3c-0.5-0.3-1-0.5-1.4-0.8c-3.2-1.8-5.8-4.5-7.6-7.7
					c-0.5-0.8-0.9-1.7-1.3-2.5c-0.6-1.2-1.2-2.5-1.9-3.6c-1-1.5-2.3-2.7-3.6-4c-0.3-0.3-0.6-0.6-0.9-0.9c-0.9-0.9-3.4-3.9-5.3-10.6
					c-0.1-0.2,0.1-0.4,0.2-0.4c0.2-0.1,0.4,0.1,0.4,0.2c1.9,6.5,4.2,9.3,5.1,10.3c0.3,0.3,0.6,0.6,0.9,0.9c1.3,1.3,2.6,2.6,3.6,4.1
					c0.8,1.2,1.4,2.4,2,3.7c0.4,0.8,0.8,1.7,1.2,2.5c1.7,3.1,4.3,5.7,7.3,7.4c0.5,0.3,0.9,0.5,1.4,0.8l0.6,0.3
					c1.6,0.9,3.6,0.6,4.9-0.6c1.6-1.4,3-2.6,4.6-4c3.5-2.9,7.4-6.1,13.8-12.8c0.9-1,1-2.5,0.2-3.5c-6.9-8.9-14.6-18.3-21.3-26.4
					c-0.1-0.2-0.1-0.4,0-0.5c0.2-0.1,0.4-0.1,0.5,0.1c6.6,8.1,14.3,17.5,21.3,26.4c1,1.3,0.9,3.2-0.3,4.5
					c-6.5,6.7-10.4,10-13.9,12.8c-1.6,1.3-3.1,2.5-4.6,3.9C281.4,473.3,280.2,473.8,278.9,473.8z"/>
			</g>
			<g>
				<g>
					<path fill="#FCD0B1" d="M433.1,335.1h-11.3c-0.3,0-0.5-0.2-0.5-0.5c0-0.3,0.2-0.5,0.5-0.5h11.3c0.3,0,0.5,0.2,0.5,0.5
						C433.7,334.9,433.4,335.1,433.1,335.1z"/>
				</g>
				<g>
					<path fill="#FCD0B1" d="M454.6,335.1h-18.2c-0.3,0-0.5-0.2-0.5-0.5c0-0.3,0.2-0.5,0.5-0.5h18.2c0.3,0,0.5,0.2,0.5,0.5
						C455.1,334.9,454.9,335.1,454.6,335.1z"/>
				</g>
				<g>
					<path fill="#FCD0B1" d="M484.5,335.1h-26.6c-0.3,0-0.5-0.2-0.5-0.5c0-0.3,0.2-0.5,0.5-0.5h26.6c0.3,0,0.5,0.2,0.5,0.5
						C485,334.9,484.8,335.1,484.5,335.1z"/>
				</g>
				<g>
					<path fill="#FCD0B1" d="M440,340.3h-15.1c-0.3,0-0.5-0.2-0.5-0.5s0.2-0.5,0.5-0.5H440c0.3,0,0.5,0.2,0.5,0.5
						S440.3,340.3,440,340.3z"/>
				</g>
				<g>
					<path fill="#FCD0B1" d="M470.4,340.3h-28c-0.3,0-0.5-0.2-0.5-0.5s0.2-0.5,0.5-0.5h28c0.3,0,0.5,0.2,0.5,0.5
						S470.7,340.3,470.4,340.3z"/>
				</g>
				<g>
					<path fill="#FCD0B1" d="M489.1,340.3h-15.7c-0.3,0-0.5-0.2-0.5-0.5s0.2-0.5,0.5-0.5h15.7c0.3,0,0.5,0.2,0.5,0.5
						S489.4,340.3,489.1,340.3z"/>
				</g>
				<g>
					<path fill="#FCD0B1" d="M451.2,345.5h-24.6c-0.3,0-0.5-0.2-0.5-0.5c0-0.3,0.2-0.5,0.5-0.5h24.6c0.3,0,0.5,0.2,0.5,0.5
						C451.8,345.2,451.5,345.5,451.2,345.5z"/>
				</g>
				<g>
					<path fill="#FCD0B1" d="M491.7,345.5H455c-0.3,0-0.5-0.2-0.5-0.5c0-0.3,0.2-0.5,0.5-0.5h36.8c0.3,0,0.5,0.2,0.5,0.5
						C492.2,345.2,492,345.5,491.7,345.5z"/>
				</g>
				<g>
					<path fill="#FCD0B1" d="M439.4,350.7h-10.8c-0.3,0-0.5-0.2-0.5-0.5c0-0.3,0.2-0.5,0.5-0.5h10.8c0.3,0,0.5,0.2,0.5,0.5
						C440,350.4,439.7,350.7,439.4,350.7z"/>
				</g>
				<g>
					<path fill="#FCD0B1" d="M463.5,350.7h-21.1c-0.3,0-0.5-0.2-0.5-0.5c0-0.3,0.2-0.5,0.5-0.5h21.1c0.3,0,0.5,0.2,0.5,0.5
						C464.1,350.4,463.8,350.7,463.5,350.7z"/>
				</g>
				<g>
					<path fill="#FCD0B1" d="M493.6,350.7h-25.9c-0.3,0-0.5-0.2-0.5-0.5c0-0.3,0.2-0.5,0.5-0.5h25.9c0.3,0,0.5,0.2,0.5,0.5
						C494.2,350.4,493.9,350.7,493.6,350.7z"/>
				</g>
				<g>
					<path fill="#FCD0B1" d="M447,355.9h-17.8c-0.3,0-0.5-0.2-0.5-0.5c0-0.3,0.2-0.5,0.5-0.5H447c0.3,0,0.5,0.2,0.5,0.5
						C447.5,355.6,447.3,355.9,447,355.9z"/>
				</g>
				<g>
					<path fill="#FCD0B1" d="M477,355.9h-25.7c-0.3,0-0.5-0.2-0.5-0.5c0-0.3,0.2-0.5,0.5-0.5H477c0.3,0,0.5,0.2,0.5,0.5
						C477.5,355.6,477.3,355.9,477,355.9z"/>
				</g>
				<g>
					<path fill="#FCD0B1" d="M494.8,355.9h-13.5c-0.3,0-0.5-0.2-0.5-0.5c0-0.3,0.2-0.5,0.5-0.5h13.5c0.3,0,0.5,0.2,0.5,0.5
						C495.3,355.6,495.1,355.9,494.8,355.9z"/>
				</g>
				<g>
					<path fill="#FCD0B1" d="M452.4,361h-22.8c-0.3,0-0.5-0.2-0.5-0.5c0-0.3,0.2-0.5,0.5-0.5h22.8c0.3,0,0.5,0.2,0.5,0.5
						C452.9,360.8,452.6,361,452.4,361z"/>
				</g>
				<g>
					<path fill="#FCD0B1" d="M495.2,361H456c-0.3,0-0.5-0.2-0.5-0.5c0-0.3,0.2-0.5,0.5-0.5h39.2c0.3,0,0.5,0.2,0.5,0.5
						C495.7,360.8,495.5,361,495.2,361z"/>
				</g>
				<g>
					<path fill="#FCD0B1" d="M443.4,366.2h-13.7c-0.3,0-0.5-0.2-0.5-0.5c0-0.3,0.2-0.5,0.5-0.5h13.7c0.3,0,0.5,0.2,0.5,0.5
						C444,366,443.7,366.2,443.4,366.2z"/>
				</g>
				<g>
					<path fill="#FCD0B1" d="M474.9,366.2h-27.7c-0.3,0-0.5-0.2-0.5-0.5c0-0.3,0.2-0.5,0.5-0.5h27.7c0.3,0,0.5,0.2,0.5,0.5
						C475.4,366,475.2,366.2,474.9,366.2z"/>
				</g>
				<g>
					<path fill="#FCD0B1" d="M495.4,366.2H479c-0.3,0-0.5-0.2-0.5-0.5c0-0.3,0.2-0.5,0.5-0.5h16.5c0.3,0,0.5,0.2,0.5,0.5
						C496,366,495.7,366.2,495.4,366.2z"/>
				</g>
				<g>
					<path fill="#FCD0B1" d="M495,371.4h-57.4c-0.3,0-0.5-0.2-0.5-0.5s0.2-0.5,0.5-0.5H495c0.3,0,0.5,0.2,0.5,0.5
						S495.3,371.4,495,371.4z"/>
				</g>
			</g>
			<g>
				<g>
					<path fill="#AFB8DB" d="M366.5,492.8L356.4,429c-0.6-3.9,0.8-7.2,3.2-8.8l-0.1-0.4l-71.3,60.3c-2.8,2.4-4.5,6.3-4.5,10.4v12.6
						c17.7-0.4,104.3-0.4,104.3-0.4l0-0.1h-11.6C371.8,502.6,367.4,498.2,366.5,492.8z"/>
				</g>
				<g>
					<path fill="#6A79B7" d="M487.3,492.8L477.2,429c-0.9-5.4-5.3-9.8-9.8-9.8H363.1c-1.3,0-2.5,0.4-3.5,1c-2.5,1.6-3.9,4.9-3.2,8.8
						l10.1,63.8c0.9,5.4,5.3,9.8,9.8,9.8H388h92.6C485.1,502.6,488.1,498.2,487.3,492.8z"/>
				</g>
			</g>
			<g>
				<path fill="#20296D" d="M476.3,421.1h-122v-10h122c0.7,0,1.3,0.6,1.3,1.3v7.3C477.7,420.5,477.1,421.1,476.3,421.1z"/>
			</g>
			<g>
				<path fill="#384489" d="M360.6,421.2h-9.3c-0.7,0-1.4-0.6-1.4-1.4l0-7.4c0-0.7,0.6-1.4,1.4-1.4h9.3c0.7,0,1.4,0.6,1.4,1.4v7.4
					C361.9,420.6,361.3,421.2,360.6,421.2z"/>
			</g>
			<g>
				<path fill="#56609E" d="M439.7,395.5l2.7-9.6c0.5-1.9-1.5-4.2-3.6-4.2h-18.1c-2.7,0-4.9,1.5-5.5,3.9l-2.8,10
					c-0.7,2.5-2.9,4-5.7,4h-6.8c-4.1,0-7.2,2.2-8.2,5.8l-1.6,5.7h63.3l1.5-5.2c0.8-2.8-2.2-6.3-5.4-6.3h-6.1
					C441.2,399.7,439.2,397.4,439.7,395.5z"/>
			</g>
			<g>
				<path fill="#6A79B7" d="M298.7,502.9h-1.4v-14.6c0-2.4,1.2-4.6,3.2-5.9l64.8-43.5l0.8,1.2l-64.8,43.5c-1.6,1.1-2.5,2.8-2.5,4.7
					V502.9z"/>
			</g>
			<g>
				<path fill="#AFB8DB" d="M475.7,481.3h-144c-0.4,0-0.7-0.3-0.7-0.7c0-0.4,0.3-0.7,0.7-0.7h144c0.4,0,0.7,0.3,0.7,0.7
					C476.4,481,476.1,481.3,475.7,481.3z"/>
			</g>
			<g>
				<g>
					<path fill="#FCB16D" d="M493.1,517.4v-6c0-5.3-2.9-9.5-6.4-9.5H369.9c-3.5,0-6.4,4.3-6.4,9.5v6H493.1z"/>
				</g>
			</g>
			<g>
				<g>
					<path fill="#FCE8BE" d="M377.4,517.4v-6c0-5.3-3.1-9.5-6.8-9.5H269.9c-3.8,0-6.8,4.3-6.8,9.5v6H377.4z"/>
				</g>
			</g>
		</g>
	</g>
</g>
</svg>
