<?xml version="1.0" encoding="utf-8"?>
<!-- Generator: Adobe Illustrator 25.2.0, SVG Export Plug-In . SVG Version: 6.00 Build 0)  -->
<svg version="1.1" id="Ñëîé_2" xmlns="http://www.w3.org/2000/svg" xmlns:xlink="http://www.w3.org/1999/xlink" x="0px" y="0px"
	 viewBox="0 0 715 450" enable-background="new 0 0 715 450" xml:space="preserve">
<g>
	<rect fill="#FFFFFF" width="715" height="450"/>
	<g>
		<g>
			<g>
				<path fill="#BBCFF2" d="M626.3,66.6c0.3,0,0.5,0.1,0.7,0.1c9.4,1.3,15.2,11.2,12,20.2c-1.9,5.5-3.6,11.5-6.3,16.1
					c-9.9,16.6-24,32.8-24.5,53.2c0,0.8,0.2,1.6,0.8,2.2c1.6,1.8,3.9,0.5,5.4-0.8c9.8-8.8,13.4-22.6,21.3-33.1
					c4.6-6.1,10.7-11,15.8-16.8l0.3-0.3c2.2-2.5,6.3-1.6,7.3,1.7c0,0.1,0,0.1,0.1,0.2c1.9,6.8,0.4,14-4.1,19.5
					c-1.8,2.2-3.4,4.3-4.7,5.8c-2.6,3.1-6.8,8.2-9.3,11.4c-12.2,16-24.4,32.1-36.7,48.1c1,2.5,4.8,1.6,7,0.1
					c13-8.9,19.7-24.4,31.4-35c2.3-2.1,4.8-4,7.3-5.8c4.6-3.3,10.9,0.5,10.2,6.1c0,0.1,0,0.3-0.1,0.4c-1.1,8.3-5.6,15.8-12.4,20.7
					c-0.6,0.4-1.1,0.8-1.4,1.1c-7.1,5.8-12.8,13.1-18.4,20.3c-5.9,7.6-11.8,15.2-17.7,22.7c-0.3,0.3-0.5,0.7-0.6,1.2
					c-0.5,2.6,3.4,3,5.6,1.9c12.3-5.8,17-21.3,28.5-28.5c4.1-2.6,8.8-3.9,13.5-5.2c3.3-0.9,6.8,0.4,8.7,3.3c0,0,0.1,0.1,0.1,0.1
					c2.5,3.8,1.2,8.9-2.7,11.1c-2.7,1.5-4.9,3.1-6.1,4.2c-6.9,6.2-12.6,13.6-18.5,20.8c-11.2,13.6-23.5,26.3-36.6,38
					c-1.8,1.6-0.1,4.6,2.2,3.9c8.5-2.8,16.1-8.9,22.6-15.4c8.6-8.5,16.4-18.2,27.2-23.7c4.8-2.5,13.9-6,20.6-8.6
					c4.5-1.7,9.4,1.3,9.7,6.1c0,0.1,0,0.2,0,0.3c0.4,6.4-3.6,12.2-9.6,14.4c-7.4,2.7-14.3,6-16.4,7.5c-10.3,7-19.2,15.8-28.9,23.6
					c-18.3,14.8-34.7,21.6-47,27.1c-3.8,1.7-1.5,7.5,2.4,6.1c19.3-6.7,39.1-19.5,52.7-31.4c5.8-5.1,11.6-10.4,18.8-13.1
					c1.1-0.4,2.2-0.7,3.5-1c6.1-1.4,10.5,5.7,6.8,10.6c-0.1,0.1-0.1,0.2-0.2,0.3c-4.3,5.6-9.9,10-16.4,12.8
					c-8.1,3.4-15.7,8.2-22.7,13.3c-13.5,9.7-26.2,20.9-41.3,27.9c-6.4,2.9-13.1,5.1-19.4,8.2c-2.9,1.4-1.4,5.9,1.8,5.3
					c0,0,0.1,0,0.1,0c23.6-4.9,42.8-21.6,65.6-29.6c4.1-1.4,8.2,2,7.7,6.3c0,0.1,0,0.1,0,0.2c-0.6,4.5-3.8,8.3-8.2,9.7
					c-17.7,5.8-34.9,18.7-54.1,21c-7.6,0.9-15.4,0.2-22.5,2.9c-0.6,0.2-1.2,0.8-1.4,1.4c-0.5,1.6,1.3,2.7,2.8,3.1
					c15.8,4.4,32.3-2.9,47.2-9.9c8.5-4,17.5-8.1,26.9-9.9c4.6-0.9,8.6,3.2,7.9,7.8l0,0.1c0,0.1,0,0.1,0,0.2
					c-0.9,5.4-5.5,9.4-10.9,9.8c-5.4,0.4-13.5,1.7-24.1,5.6c-14.2,5.2-26.9,14.2-41.4,18.4c-4.3,1.2-8.7,2.1-13.1,2.7
					c-3.2,0.5-2.8,5.1,0.3,5.1l0.1,0c10.7,0.1,12.9-1.2,23.1-4.4c11.9-3.7,23.6-9.7,36.1-9.3c0,0,0.1,0,0.1,0
					c4.2,0.1,5.7,5.7,2.1,7.9c-5.2,3.3-10.6,6.1-16.1,8.7c-13.4,6.3-36.3,19.5-58.4,24.9c-17-15.2-31-37.6-39.8-49.5
					c-3.6-4.8-7.1-9.9-10.1-15.2c-2.1-3.6,1.8-7.8,5.6-6c0,0,0.1,0,0.1,0.1c11.2,5.5,18.7,16.3,27.5,25.2c7.5,7.6,8.9,9.8,18.3,14.8
					l0.1,0c2.8,1.5,5.3-2.5,2.7-4.4c-3.6-2.6-7.1-5.4-10.3-8.5c-10.9-10.5-17.8-24.4-27.9-35.7c-7.5-8.4-14-13.4-18.6-16.3
					c-4.6-2.9-6.7-8.6-5-13.8c0-0.1,0-0.1,0.1-0.2l0-0.1c1.5-4.4,7-6.1,10.6-3.2c7.4,6,13.4,13.8,19.1,21.3
					c9.8,13.2,20.9,27.4,37,31c1.5,0.3,3.7,0.3,4-1.4c0.1-0.7-0.1-1.4-0.6-1.9c-5-5.8-12.3-8.8-18.5-13.2
					c-15.9-11.1-25-30.5-37.9-44c-3.2-3.3-4.2-8.1-2.6-12.4c0-0.1,0-0.1,0.1-0.2c1.5-4.1,6.8-5.1,9.7-1.9
					c16.4,17.7,25.5,41.6,43.9,57c0,0,0,0,0.1,0.1c2.5,2.1,6-1.1,4.1-3.8c-4.1-5.7-9-10.8-13.3-16.4c-10-13.3-15.9-29.1-23.3-44
					c-3.9-7.8-8.3-15.6-13.8-22.5c-4.4-5.5-7.3-12-8.4-19c0-0.1,0-0.2-0.1-0.4c-1-6.2,6.3-10.3,11-6.2c1,0.8,1.8,1.7,2.6,2.5
					c5.1,5.8,7.7,13.2,10.4,20.4c6.3,16.9,17.8,37.5,31.7,52.5c2.9,3.1,7.6-0.9,5.1-4.3c-8.2-10.7-19.6-24.3-28.7-46
					c-4.8-11.5-8.6-23.4-14.3-34.4c-1.2-2.3-5.7-8.4-11-14.3c-4.3-4.7-5.1-11.8-1.7-17.2c0-0.1,0.1-0.2,0.2-0.2
					c2.5-4.1,8.3-4.5,11.5-0.8c4.7,5.4,11.1,12.9,14.1,17.3c6.9,9.9,9.3,22.2,12.8,33.7c2.7,8.8,6.5,17.7,12.7,24.2
					c1.7,1.8,4.6-0.1,3.8-2.4c-6.1-16.5-11-33.5-14.5-50.7c-1.8-9.1-3.3-18.3-6.5-27c-0.6-1.6-1.8-3.9-3.4-6.5
					c-2.4-3.8-1.1-8.9,2.9-11.1c0,0,0.1,0,0.1-0.1c3-1.7,6.7-1.2,9.2,1.2c3.5,3.4,7,6.8,9.4,11c6.7,11.8,3.6,27.7,11.7,38.5
					c1.5,2,5.1,3.5,5.9,0.9c0.1-0.4,0.1-0.9,0.1-1.3c-1.6-9.5-3.3-18.9-4.9-28.4c-1.6-9-3.1-18.1-6.7-26.6c-0.2-0.4-0.4-1-0.8-1.6
					c-3.8-7.5-4.2-16.2-1.2-24.1c0-0.1,0.1-0.2,0.1-0.4c2-5.3,9.3-5.7,11.8-0.6c1.4,2.8,2.7,5.6,3.7,8.5c5.3,14.8,4,31.7,11.3,45.6
					c1.2,2.4,4.2,5,6.3,3.2c-3.2-19.9-6.5-39.8-9.7-59.7c-0.6-4-1.9-10.5-2.8-14.4c-0.4-2-0.9-4.6-1.4-7.3c-1.4-6.9,0.7-14,5.6-19.1
					c0,0,0.1-0.1,0.1-0.1c2.3-2.4,6.4-1.3,7.2,2l0.1,0.4c1.8,7.5,4.8,14.6,6,22.2c2.1,13-1.3,26.9,3.2,39.2c0.7,1.9,2.2,4.1,4.4,3.3
					c0.8-0.3,1.4-0.9,1.7-1.6c9.2-18.2,4.3-39.2,3.4-58.5c-0.2-5.4,1.1-11.4,2-17.2C607,69,616.7,63,625.7,66.3
					C625.9,66.4,626.1,66.5,626.3,66.6C626.3,66.6,626.3,66.6,626.3,66.6z"/>
			</g>
		</g>
		<g>
			<g>
				<g>
					<path fill="#98B5E5" d="M80.4,146.6l1,0.1c-4.2,31.4-9,67,3.4,98.7c8.7,22.1,25,40.1,40.8,57.6c6.5,7.2,13.2,14.6,19.3,22.2
						c15.8,19.7,27.6,41.8,34.1,64c3.3,11.2,5.2,22.2,5.8,33h-1.1c-1.7-32.1-15.4-66.1-39.6-96.3c-6.1-7.6-12.8-15-19.2-22.2
						C109,286.2,92.6,268,83.9,245.8C71.3,213.8,76.1,178.1,80.4,146.6z"/>
				</g>
			</g>
			<g>
				<g>
					<path fill="#98B5E5" d="M87.4,207.5c4.4-3.2,9.1-6.7,10.5-11.9c0.9-3.6,0.1-7.6,1.4-11c1.5-3.7,5.4-6,7.6-9.4
						c3-4.4,3-10.3,5.6-14.9c2.3-3.9,6.5-7,6.9-11.5c0.1-0.8,0-1.7-0.6-2.4c-1.2-1.5-3.6-0.6-5.2,0.5c-5.8,4-10.2,10.1-12.2,16.9
						c-1.1,3.7-1.6,7.8-4.1,10.8c-1.3,1.6-3.1,2.7-4.6,4c-2.9,2.5-4.9,6-5.8,9.7c-0.7,3-0.7,6.3-2.3,9.1c-2.7,4.8-9,7.5-8.4,14.1
						C77.2,221,84.7,209.4,87.4,207.5z"/>
				</g>
			</g>
			<g>
				<g>
					<path fill="#98B5E5" d="M85.7,249.7c-0.7-1.4-1.1-3-1.5-4.5c1.7-3.6,5.6-6,7.5-9.4c1.5-2.7,1.5-6,2.3-9.1
						c0.9-3.7,3-7.2,5.8-9.7c1.5-1.4,3.3-2.5,4.6-4c2.5-3,3-7.1,4.1-10.8c2-6.8,6.4-12.8,12.2-16.9c1.6-1.1,4-1.9,5.2-0.5
						c0.5,0.6,0.6,1.5,0.6,2.4c-0.4,4.5-4.6,7.6-6.9,11.5c-2.7,4.6-2.7,10.5-5.6,14.9c-2.3,3.4-6.1,5.6-7.6,9.4
						c-1.4,3.4-0.5,7.4-1.4,11c-1.3,5.2-6.1,8.7-10.5,11.9c-1.5,1.1-4.6,5.3-7.1,7C86.8,251.8,86.2,250.8,85.7,249.7z"/>
				</g>
			</g>
			<g>
				<g>
					<path fill="#98B5E5" d="M106.9,269.1c4.4-3.2,9.1-6.7,10.5-11.9c0.9-3.6,0.1-7.6,1.4-11c1.5-3.7,5.4-6,7.6-9.4
						c3-4.4,3-10.3,5.6-14.9c2.3-3.9,6.5-7,6.9-11.5c0.1-0.8,0-1.7-0.6-2.4c-1.2-1.5-3.6-0.6-5.2,0.5c-5.8,4-10.2,10.1-12.2,16.9
						c-1.1,3.7-1.6,7.8-4.1,10.8c-1.3,1.6-3.1,2.7-4.6,4c-2.9,2.5-4.9,6-5.8,9.7c-0.7,3-0.7,6.3-2.3,9.1c-2.7,4.8-9,7.5-8.4,14.1
						C96.8,282.6,104.3,271,106.9,269.1z"/>
				</g>
			</g>
			<g>
				<g>
					<path fill="#98B5E5" d="M125.5,285.9c3.9-3.7,8.2-7.7,8.9-13.1c0.5-3.7-0.9-7.5,0.1-11.1c1-3.9,4.6-6.6,6.4-10.2
						c2.4-4.7,1.7-10.6,3.8-15.5c1.8-4.2,5.6-7.8,5.4-12.3c0-0.8-0.2-1.7-0.8-2.3c-1.4-1.3-3.7-0.2-5.1,1.1
						c-5.3,4.7-8.9,11.3-10.1,18.2c-0.6,3.8-0.6,8-2.7,11.2c-1.1,1.7-2.7,3-4,4.6c-2.5,2.9-4.1,6.5-4.6,10.3
						c-0.4,3.1,0.1,6.4-1.1,9.3c-2,5.1-8,8.5-6.6,15C117.1,300.6,123.1,288.1,125.5,285.9z"/>
				</g>
			</g>
			<g>
				<g>
					<path fill="#98B5E5" d="M145.5,311.5c3.5-4.1,7.3-8.6,7.3-14c0-3.7-1.7-7.3-1.2-11c0.6-4,3.8-7.1,5.2-10.9
						c1.8-5,0.4-10.7,1.9-15.8c1.3-4.4,4.7-8.4,3.9-12.8c-0.1-0.8-0.4-1.7-1.1-2.2c-1.5-1.2-3.7,0.2-5,1.7
						c-4.7,5.3-7.5,12.2-7.9,19.3c-0.2,3.9,0.3,8-1.4,11.5c-0.9,1.8-2.3,3.3-3.5,5c-2.2,3.1-3.4,7-3.4,10.8c0,3.1,0.8,6.3,0,9.4
						c-1.4,5.3-7,9.4-4.8,15.7C138.8,327,143.4,314,145.5,311.5z"/>
				</g>
			</g>
			<g>
				<g>
					<path fill="#98B5E5" d="M166,273.8c-3.1,4.4-6.5,9.3-6.1,14.6c0.3,3.7,2.4,7.2,2.2,10.9c-0.2,4-3.1,7.4-4.2,11.3
						c-1.4,5.1,0.5,10.7-0.5,15.9c-0.9,4.4-3.9,8.7-2.8,13.1c0.2,0.8,0.6,1.6,1.3,2.1c1.6,1,3.6-0.6,4.8-2.1
						c4.2-5.7,6.4-12.8,6.2-19.9c-0.2-3.9-1-7.9,0.4-11.6c0.7-1.9,2-3.5,3-5.3c1.9-3.3,2.7-7.2,2.4-11c-0.3-3.1-1.4-6.2-0.8-9.3
						c1-5.4,6.1-10,3.4-16C171.3,257.7,167.9,271.1,166,273.8z"/>
				</g>
			</g>
			<g>
				<g>
					<path fill="#98B5E5" d="M178.3,299.3c-3.1,4.4-6.5,9.3-6.1,14.6c0.3,3.7,2.4,7.2,2.2,10.9c-0.2,4-3.1,7.4-4.2,11.3
						c-1.4,5.1,0.5,10.7-0.5,15.9c-0.9,4.4-3.9,8.7-2.8,13.1c0.2,0.8,0.6,1.6,1.3,2.1c1.6,1,3.6-0.6,4.8-2.1
						c4.2-5.7,6.4-12.8,6.2-19.9c-0.2-3.9-1-7.9,0.4-11.6c0.7-1.9,2-3.5,3-5.3c1.9-3.3,2.7-7.2,2.4-11c-0.3-3.1-1.4-6.2-0.8-9.3
						c1-5.4,6.1-10,3.4-16C183.5,283.2,180.2,296.6,178.3,299.3z"/>
				</g>
			</g>
			<g>
				<g>
					<path fill="#98B5E5" d="M91.4,326.7c5.2-1.4,10.9-3,15.8-0.8c3.4,1.5,5.9,4.7,9.5,5.7c3.9,1.1,8-0.5,12.1-0.1
						c5.3,0.4,9.9,4.1,15.2,4.9c4.5,0.7,9.5-0.7,13.3,1.8c0.7,0.5,1.3,1.1,1.5,1.9c0.4,1.9-1.8,3.2-3.6,3.8
						c-6.8,2.1-14.2,1.7-20.8-0.9c-3.6-1.5-7.1-3.6-11-3.5c-2,0-4,0.7-6,1.1c-3.8,0.7-7.7,0.1-11.2-1.5c-2.8-1.3-5.4-3.4-8.5-3.9
						c-5.4-0.9-11.5,2.4-16.2-2.2C74.5,326.2,88.3,327.5,91.4,326.7z"/>
				</g>
			</g>
			<g>
				<g>
					<path fill="#98B5E5" d="M105.9,350.4c5.2-1.4,10.9-3,15.8-0.8c3.4,1.5,5.9,4.7,9.5,5.7c3.9,1.1,8-0.5,12.1-0.1
						c5.3,0.4,9.9,4.1,15.2,4.9c4.5,0.7,9.5-0.7,13.3,1.8c0.7,0.5,1.3,1.1,1.5,1.9c0.4,1.9-1.8,3.2-3.6,3.8
						c-6.8,2.1-14.2,1.7-20.8-0.9c-3.6-1.5-7.1-3.6-11-3.5c-2,0-4,0.7-6,1.1c-3.8,0.7-7.7,0.1-11.2-1.5c-2.8-1.3-5.4-3.4-8.5-3.9
						c-5.4-0.9-11.5,2.4-16.2-2.2C89,349.9,102.8,351.3,105.9,350.4z"/>
				</g>
			</g>
			<g>
				<g>
					<path fill="#98B5E5" d="M197,327.3c-3.6,4-7.6,8.3-7.9,13.7c-0.2,3.7,1.4,7.4,0.7,11.1c-0.8,4-4.1,6.9-5.6,10.7
						c-2.1,4.9-0.9,10.7-2.6,15.7c-1.5,4.3-5,8.2-4.5,12.7c0.1,0.8,0.4,1.7,1,2.2c1.5,1.2,3.7-0.1,5-1.5c4.9-5.1,8-11.9,8.7-18.9
						c0.3-3.9,0-8,1.9-11.4c1-1.8,2.5-3.2,3.7-4.9c2.3-3.1,3.6-6.8,3.8-10.6c0.1-3.1-0.5-6.4,0.4-9.4c1.7-5.2,7.4-9.1,5.4-15.5
						C204.3,312,199.2,324.9,197,327.3z"/>
				</g>
			</g>
			<g>
				<g>
					<path fill="#98B5E5" d="M118.7,368.6c5.3-0.8,11.2-1.5,15.8,1.3c3.2,1.9,5.3,5.4,8.7,6.9c3.7,1.6,8,0.6,12,1.4
						c5.2,1.1,9.3,5.3,14.4,6.8c4.4,1.2,9.6,0.5,13,3.5c0.6,0.5,1.2,1.3,1.2,2.1c0.2,1.9-2.2,3-4.1,3.3c-7,1.2-14.3-0.1-20.5-3.6
						c-3.4-1.9-6.6-4.5-10.5-4.9c-2-0.2-4.1,0.2-6.1,0.3c-3.8,0.2-7.7-0.9-10.9-2.9c-2.6-1.7-4.9-4.1-7.9-5
						c-5.2-1.6-11.7,0.9-15.8-4.3C101.9,366,115.4,369.1,118.7,368.6z"/>
				</g>
			</g>
			<g>
				<g>
					<path fill="#98B5E5" d="M203.2,394.3c-2.6,2.9-3.2,7-4.4,10.7c-2.2,6.7-6.7,12.7-12.6,16.6c-0.4,0.2-0.8,0.5-1.2,0.7h-3.7
						c-0.1-0.1-0.2-0.2-0.3-0.3c-0.5-0.7-0.6-1.5-0.5-2.4c0.5-4.5,4.8-7.5,7.2-11.4c2.8-4.5,2.9-10.4,6-14.7
						c2.3-3.3,6.2-5.5,7.9-9.2c1.5-3.4,0.7-7.4,1.7-11c1.5-5.2,6.3-8.6,10.7-11.6c2.7-1.9,10.5-13.3,11.2-3.7
						c0.5,6.6-5.9,9.2-8.7,13.9c-1.6,2.7-1.7,6-2.5,9c-1,3.7-3.1,7.1-6.1,9.5C206.3,391.7,204.5,392.7,203.2,394.3z"/>
				</g>
			</g>
			<g>
				<g>
					<path fill="#98B5E5" d="M125.4,393.3c5.4-0.4,11.3-0.8,15.7,2.3c3,2.1,4.9,5.7,8.2,7.4c3.6,1.9,8,1.1,11.9,2.2
						c5.1,1.4,8.9,5.9,13.9,7.7c4.3,1.5,9.5,1.1,12.7,4.3c0.6,0.6,1.1,1.3,1.1,2.2c0,1.4-1.3,2.3-2.7,2.7h-10
						c-4.2-0.7-8.2-2.3-11.8-4.6c-3.3-2.1-6.3-4.9-10.1-5.6c-2-0.3-4.1-0.1-6.1-0.1c-3.8-0.1-7.6-1.4-10.7-3.6
						c-2.5-1.8-4.7-4.4-7.6-5.5c-5.1-1.9-11.7,0.1-15.5-5.3C108.9,389.6,122.2,393.6,125.4,393.3z"/>
				</g>
			</g>
			<g>
				<g>
					<path fill="#98B5E5" d="M69.8,228.6c-3.9-3.8-8.1-7.9-8.7-13.2c-0.4-3.7,1-7.5,0.1-11.1c-1-3.9-4.5-6.7-6.2-10.3
						c-2.3-4.8-1.5-10.6-3.5-15.5c-1.7-4.2-5.5-7.8-5.2-12.4c0.1-0.8,0.3-1.7,0.9-2.3c1.4-1.3,3.7-0.1,5.1,1.2
						c5.2,4.8,8.7,11.4,9.8,18.4c0.6,3.8,0.5,8,2.5,11.3c1.1,1.7,2.7,3.1,4,4.6c2.5,2.9,4,6.6,4.4,10.4c0.3,3.1-0.2,6.4,1,9.3
						c2,5.1,7.9,8.7,6.3,15.1C78,243.4,72.2,230.9,69.8,228.6z"/>
				</g>
			</g>
			<g>
				<g>
					<path fill="#98B5E5" d="M83.7,262.5c-5.3-1.2-11-2.5-14.3-6.7c-2.3-2.9-3.1-6.9-5.7-9.5c-2.9-2.8-7.3-3.4-10.7-5.5
						c-4.5-2.9-6.8-8.2-11.1-11.4c-3.7-2.7-8.8-3.8-10.9-7.8c-0.4-0.7-0.7-1.6-0.4-2.4c0.5-1.9,3.1-2,5-1.7
						c6.9,1.4,13.4,5.1,17.9,10.6c2.5,3,4.6,6.5,8.1,8.3c1.8,0.9,3.9,1.2,5.8,1.9c3.6,1.2,6.9,3.5,9.2,6.6c1.9,2.5,3.2,5.5,5.7,7.4
						c4.3,3.3,11.3,3.3,13.3,9.6C98.5,270.9,86.9,263.2,83.7,262.5z"/>
				</g>
			</g>
			<g>
				<g>
					<path fill="#98B5E5" d="M110.6,300.7c-5.4-0.4-11.3-0.8-15.2-4.5c-2.7-2.5-4.1-6.4-7.1-8.5c-3.3-2.4-7.7-2.2-11.4-3.8
						c-4.9-2.1-8-7.1-12.7-9.6c-4-2.1-9.3-2.4-12-6.1c-0.5-0.7-0.9-1.5-0.8-2.3c0.2-1.9,2.7-2.5,4.7-2.4c7.1,0.3,14,3,19.3,7.7
						c2.9,2.6,5.5,5.8,9.2,7c1.9,0.6,4,0.6,6,1c3.8,0.6,7.4,2.4,10.1,5.1c2.3,2.2,4,5,6.8,6.5c4.8,2.6,11.6,1.5,14.6,7.4
						C126.4,306.7,113.9,300.9,110.6,300.7z"/>
				</g>
			</g>
			<g>
				<g>
					<path fill="#98B5E5" d="M128.2,322.4c-5.3,1.2-11,2.4-15.8-0.1c-3.3-1.7-5.7-5-9.2-6.2c-3.8-1.3-8,0-12.1-0.5
						c-5.3-0.7-9.7-4.6-14.9-5.7c-4.4-0.9-9.6,0.2-13.2-2.5c-0.7-0.5-1.3-1.2-1.4-2c-0.3-1.9,1.9-3.1,3.8-3.6c6.9-1.7,14.3-1,20.7,2
						c3.5,1.6,6.9,4,10.8,4.1c2,0.1,4-0.5,6.1-0.8c3.8-0.5,7.7,0.3,11.1,2.1c2.8,1.5,5.2,3.7,8.3,4.3c5.3,1.2,11.6-1.8,16.1,3.1
						C145,323.8,131.4,321.7,128.2,322.4z"/>
				</g>
			</g>
			<g>
				<g>
					<path fill="#98B5E5" d="M83.4,173.4c3-4.5,6.3-9.4,5.7-14.8c-0.4-3.7-2.5-7.1-2.4-10.8c0.1-4,3-7.5,3.9-11.4
						c1.3-5.2-0.8-10.7,0.2-15.9c0.8-4.5,3.7-8.8,2.5-13.2c-0.2-0.8-0.6-1.6-1.3-2c-1.7-1-3.6,0.6-4.7,2.2c-4.1,5.8-6.1,13-5.7,20
						c0.2,3.9,1.2,7.9-0.1,11.6c-0.7,1.9-1.9,3.6-2.9,5.4c-1.8,3.4-2.6,7.3-2.1,11.1c0.4,3.1,1.5,6.2,1,9.3
						c-0.9,5.4-5.9,10.1-3,16.1C78.5,189.6,81.6,176.1,83.4,173.4z"/>
				</g>
			</g>
		</g>
		<g>
			<path fill="#4171C4" d="M541.3,91c-53-20-115,0-166-41c-34-29-80.7-27.9-126-23c-109.5,11.8-140.1,79.7-132,129
				c2.1,12.8,15.1,20.3,20.7,33.9c5.2,11.9,5.2,26.5-0.8,39.8c-18.1,39.7-42.9,46.2-62.8,80.9c-9.8,18.1-8.6,46.8-1.5,72.2
				c7,25.4,30.3,42.9,56.7,42.9h320.2h89.6c24.9,0,42.8-23.8,36.1-47.7c-3.8-13.5-8.6-25.8-11.4-40c-0.9-4.5-1.5-9.1-1.8-13.7
				c-0.4-17.8,2.8-36.5,8.9-53.6c1.2-3.4,12.9-39.1,17.4-50c3.4-8.2,7-16.6,8.1-25.4C601.7,151.2,582.4,106.2,541.3,91z"/>
		</g>
		<g>
			<g>
				<path fill="#BBCFF2" d="M286.6,174.5c-0.1,0-0.1,0-0.2-0.1c-0.1-0.1-0.1-0.3,0-0.4l16.7-17.3l16.3,8.9l35.7-43.8l17.8,5.9
					l14.8-20.7c0.1-0.1,0.2-0.1,0.4-0.1c0.1,0.1,0.1,0.2,0.1,0.4l-15,21l-17.9-6l-35.7,43.9l-16.4-8.9l-16.4,17
					C286.7,174.5,286.7,174.5,286.6,174.5z"/>
			</g>
			<rect x="301" y="155.7" fill="#BBCFF2" width="5.2" height="5.2"/>
			<rect x="316.6" y="163.1" fill="#BBCFF2" width="5.2" height="5.2"/>
			<rect x="352.3" y="120" fill="#BBCFF2" width="5.2" height="5.2"/>
			<rect x="370.1" y="125.2" fill="#BBCFF2" width="5.2" height="5.2"/>
		</g>
		<g>
			<path fill="#FFE578" d="M401.7,325.2h32.4c0.7,0,1.3-0.6,1.3-1.3v-7.6c0-0.7-0.6-1.3-1.3-1.3h-32.4c-0.7,0-1.3,0.6-1.3,1.3v7.6
				C400.4,324.6,401,325.2,401.7,325.2z"/>
			<g>
				<path fill="#FFBB61" d="M428.1,315.1h24.2c0.7,0,1.2,0.4,1.4,1h-24.3c-0.6,0-1.2,0.5-1.2,1.1v5.7c0,0.6,0.5,1.1,1.2,1.1h24.4
					c-0.1,0.7-0.7,1.2-1.4,1.2h-24.2c-0.8,0-1.4-0.6-1.4-1.4v-7.4C426.7,315.7,427.3,315.1,428.1,315.1z"/>
				<path fill="#FFFFFF" d="M428.1,322.9v-5.7c0-0.6,0.5-1.1,1.2-1.1h24.3c0,0.1,0.1,0.2,0.1,0.3v7.4c0,0.1,0,0.1,0,0.2h-24.4
					C428.6,324,428.1,323.5,428.1,322.9z"/>
			</g>
			
				<rect x="406" y="315" transform="matrix(-1 -1.224647e-16 1.224647e-16 -1 819.8048 640.194)" fill="#FFBB61" width="7.9" height="10.2"/>
			<path fill="#0B1775" d="M428.5,323.4c0.2,0,0.4-0.2,0.4-0.3v-6c0-0.2-0.2-0.3-0.4-0.3c-0.2,0-0.4,0.2-0.4,0.3v6
				C428.1,323.2,428.3,323.4,428.5,323.4z"/>
		</g>
		<g>
			<path fill="#FF685A" d="M447.1,315.1h-24.9c-0.7,0-1.3-0.6-1.3-1.3v-5.4c0-0.7,0.6-1.3,1.3-1.3h24.9c0.7,0,1.3,0.6,1.3,1.3v5.4
				C448.4,314.5,447.8,315.1,447.1,315.1z"/>
			<g>
				<path fill="#FF7F5C" d="M426.7,307.1h-18.9c-0.5,0-0.9,0.3-1.1,0.8h19.1c0.5,0,0.9,0.4,0.9,0.9v4.5c0,0.5-0.4,0.9-0.9,0.9h-19.1
					c0.1,0.5,0.5,0.9,1.1,0.9h18.9c0.6,0,1.1-0.5,1.1-1.1v-5.8C427.8,307.6,427.3,307.1,426.7,307.1z"/>
				<path fill="#FFFFFF" d="M426.7,313.2v-4.5c0-0.5-0.4-0.9-0.9-0.9h-19.1c0,0.1-0.1,0.2-0.1,0.3v5.8c0,0,0,0.1,0,0.1h19.1
					C426.3,314.1,426.7,313.7,426.7,313.2z"/>
			</g>
			<path fill="#0B1775" d="M426.4,313.6c-0.2,0-0.3-0.1-0.3-0.3v-4.7c0-0.1,0.1-0.3,0.3-0.3c0.2,0,0.3,0.1,0.3,0.3v4.7
				C426.7,313.5,426.6,313.6,426.4,313.6z"/>
		</g>
		<g>
			<path fill="#4DB4E8" d="M417.7,307.1h21.9c0.4,0,0.7-0.3,0.7-0.7V301c0-0.4-0.3-0.7-0.7-0.7h-21.9c-0.4,0-0.7,0.3-0.7,0.7v5.4
				C417,306.8,417.3,307.1,417.7,307.1z"/>
			<g>
				<path fill="#3788C4" d="M435.4,300.4h16.1c0.4,0,0.8,0.3,0.9,0.7h-16.2c-0.4,0-0.8,0.3-0.8,0.7v3.8c0,0.4,0.3,0.7,0.8,0.7h16.2
					c-0.1,0.4-0.4,0.8-0.9,0.8h-16.1c-0.5,0-1-0.4-1-0.9v-4.9C434.5,300.8,434.9,300.4,435.4,300.4z"/>
				<path fill="#FFFFFF" d="M435.4,305.6v-3.8c0-0.4,0.3-0.7,0.8-0.7h16.2c0,0.1,0,0.1,0,0.2v4.9c0,0,0,0.1,0,0.1h-16.2
					C435.8,306.3,435.4,306,435.4,305.6z"/>
			</g>
			
				<rect x="420.7" y="300.3" transform="matrix(-1 -1.224647e-16 1.224647e-16 -1 846.5868 607.4382)" fill="#3788C4" width="5.2" height="6.8"/>
			<path fill="#0B1775" d="M435.6,305.9c0.2,0,0.3-0.1,0.3-0.2v-4c0-0.1-0.1-0.2-0.2-0.2c-0.2,0-0.3,0.1-0.3,0.2v4
				C435.4,305.8,435.5,305.9,435.6,305.9z"/>
		</g>
		<g>
			<g>
				<path fill="#FFFFFF" d="M207.5,158.8c-7.3-8.6-20.7-8.6-28.1,0c0,0-0.1,0.1-0.1,0.1c-5.1,6.1-8,14.7-5.3,22.2
					c1.4,3.8,4.2,7.3,4.2,11.4c0,6.9-7.4,11.1-11.5,16.6c-4,5.4-4.9,12.9-2.3,19.1c2.4,5.8,7.7,10.8,7.3,17
					c-0.3,4.1-3.1,7.6-5.7,10.7c-4.2,5-8.3,10.2-10.7,16.3c-2.4,6.1-2.9,13.3,0.3,19c2.6,4.7,7.6,8.2,8.8,13.4
					c1.2,5.2-1.5,10.4-2,15.7c-0.9,10,6.9,19.5,16.6,22.1c4.3,1.1,8.7,1.1,13,0.1c0.9-0.2,1.9-0.2,2.8,0c4.3,1,8.7,1.1,13-0.1
					c9.7-2.6,17.5-12.1,16.6-22.1c-0.5-5.3-3.2-10.5-2-15.7c1.3-5.3,6.2-8.7,8.8-13.4c3.2-5.7,2.8-12.9,0.3-19
					c-2.4-6.1-6.6-11.3-10.7-16.3c-2.6-3.2-5.4-6.6-5.7-10.7c-0.4-6.2,4.9-11.2,7.3-17c2.6-6.2,1.7-13.7-2.3-19.1
					c-4.1-5.6-11.5-9.7-11.5-16.6c0-4.1,2.8-7.6,4.2-11.4c2.7-7.5-0.2-16.1-5.3-22.2C207.6,158.9,207.5,158.9,207.5,158.8z"/>
				<path fill="#98B5E5" d="M211.5,299.5l1.7-7.7l-1.5-0.3l-2.5,11.5l0.1,0l-15.6,24.6v-42.2l23.6-26.7l-1.1-1l-11.5,12.9l3.5-16.9
					l-1.5-0.3l-4,18.9l0.3,0.1l-9.5,10.7v-31.5c0,0,0-50.7,0-50.7c0,0,9.1-12.6,9.1-12.6c0,0,0-0.1,0-0.1l3.7-5.2l-1.2-0.9l-2.1,2.9
					l1.3-10.8l-1.5-0.2l-1.6,13.5l-7.7,10.7v-37.5h-1.5v30.7l-10-14.4l-1.2,0.9l11.2,16.2v54.5l-9.5-18.4l0.3,0l-0.2-11.4l-1.5,0
					l0.2,9l-5-9.7l-1.3,0.7l17.1,33v60.8l-14.8-21.2l0.3-0.1l-4.3-19.6l-1.5,0.3l3.7,16.9l-4-5.7l-1.2,0.9l21.7,31l0.1,0v65.7h1.5
					v-50.6c0,0,23.3-36.7,23.3-36.7l-1.3-0.8L211.5,299.5z"/>
			</g>
			<g>
				<path fill="#98B5E5" d="M217,416.5h-49.8c-1.7,0-3.1-1.4-3.1-3.1v-34.6c0-1.7,1.4-3.1,3.1-3.1H217c1.7,0,3.1,1.4,3.1,3.1v34.6
					C220.1,415.1,218.7,416.5,217,416.5z"/>
			</g>
		</g>
		<g>
			<g>
				<polygon fill="#0B1775" points="380.9,254.3 381.2,280.9 386.7,280.9 386.4,254.3 				"/>
				<polygon fill="#000543" points="333,254.3 333.2,280.9 381.6,280.9 381.4,254.3 				"/>
			</g>
			<path fill="#0B1775" d="M295.9,269.4H433c2.5,0,4.5-1.7,4.5-3.9l-0.8-86c0-2.1-2.1-3.9-4.5-3.9H295c-2.5,0-4.5,1.7-4.5,3.9
				l0.8,86C291.4,267.7,293.4,269.4,295.9,269.4z"/>
			<path fill="#000543" d="M291.6,269.4h137.1c2.5,0,4.5-1.7,4.5-3.9l-0.8-86c0-2.1-2.1-3.9-4.5-3.9H290.7c-2.5,0-4.5,1.7-4.5,3.9
				l0.8,86C287,267.7,289.1,269.4,291.6,269.4z"/>
			<path fill="#C2D1F2" d="M429.1,182c0-1.4-1.4-2.6-3.1-2.6h-28.4h-27.5h-9.1h-52.7h-15.2c-1.7,0-3,1.2-3,2.6l0,2.7l139-0.2
				L429.1,182z"/>
			<path fill="#98B5E5" d="M429.6,230.7l-0.1-8.7l-0.3-37.5l-139,0.2l0.3,37.3l0.1,11.7l0.2,21.1l0.1,5.5c0,1.4,1.4,2.6,3.1,2.6
				h67.9h2.9h12.7h49.5c1.7,0,3-1.2,3-2.6l-0.2-21.3L429.6,230.7z"/>
		</g>
		<polygon fill="#C2D1F2" points="214.8,416.5 227.3,279.8 223.8,279.8 211.3,416.5 		"/>
		<rect x="223.4" y="279.8" fill="#C2D1F2" width="207.9" height="7.4"/>
		<g>
			<rect x="392.6" y="405.1" fill="#091468" width="29.9" height="11.5"/>
			<rect x="422.4" y="405.1" fill="#1C2E9B" width="45.7" height="11.5"/>
			<g>
				<path fill="#000543" d="M427.2,416.6h-1.6v-6.4c0-0.4,0.3-0.8,0.8-0.8c0.4,0,0.8,0.3,0.8,0.8V416.6z"/>
				<path fill="#000543" d="M430.6,416.6H429v-6.4c0-0.4,0.3-0.8,0.8-0.8s0.8,0.3,0.8,0.8V416.6z"/>
				<path fill="#000543" d="M434,416.6h-1.6v-6.4c0-0.4,0.3-0.8,0.8-0.8c0.4,0,0.8,0.3,0.8,0.8V416.6z"/>
				<path fill="#000543" d="M437.3,416.6h-1.6v-6.4c0-0.4,0.3-0.8,0.8-0.8c0.4,0,0.8,0.3,0.8,0.8V416.6z"/>
				<path fill="#000543" d="M440.7,416.6h-1.6v-6.4c0-0.4,0.3-0.8,0.8-0.8c0.4,0,0.8,0.3,0.8,0.8V416.6z"/>
				<path fill="#000543" d="M444.1,416.6h-1.6v-6.4c0-0.4,0.3-0.8,0.8-0.8c0.4,0,0.8,0.3,0.8,0.8V416.6z"/>
				<path fill="#000543" d="M447.5,416.6H446v-6.4c0-0.4,0.3-0.8,0.8-0.8c0.4,0,0.8,0.3,0.8,0.8V416.6z"/>
				<path fill="#000543" d="M450.9,416.6h-1.6v-6.4c0-0.4,0.3-0.8,0.8-0.8s0.8,0.3,0.8,0.8V416.6z"/>
				<path fill="#000543" d="M454.3,416.6h-1.6v-6.4c0-0.4,0.3-0.8,0.8-0.8c0.4,0,0.8,0.3,0.8,0.8V416.6z"/>
				<path fill="#000543" d="M457.7,416.6h-1.6v-6.4c0-0.4,0.3-0.8,0.8-0.8s0.8,0.3,0.8,0.8V416.6z"/>
				<path fill="#000543" d="M461.1,416.6h-1.6v-6.4c0-0.4,0.3-0.8,0.8-0.8c0.4,0,0.8,0.3,0.8,0.8V416.6z"/>
				<path fill="#000543" d="M464.5,416.6h-1.6v-6.4c0-0.4,0.3-0.8,0.8-0.8c0.4,0,0.8,0.3,0.8,0.8V416.6z"/>
			</g>
			<path fill="#000543" d="M409.5,413.3h-2.1c-0.7,0-1.4-0.6-1.4-1.4c0-0.7,0.6-1.4,1.4-1.4h2.1c0.7,0,1.4,0.6,1.4,1.4
				C410.9,412.7,410.3,413.3,409.5,413.3z"/>
			<path fill="#0B1775" d="M467.4,406.5h-44.8l-20.7-81.3H468c2.7,0,5.3,2.5,5.3,5.2l-0.1,70.1C473.5,404,471,406.5,467.4,406.5z"/>
			<path fill="#000543" d="M405.7,406.5h4c9.5,0,17.3-7.7,17.3-17.3v-46.7c0-9.5-7.7-17.3-17.3-17.3h-4c-9.5,0-17.3,7.7-17.3,17.3
				v46.7C388.4,398.7,396.2,406.5,405.7,406.5z"/>
			<g>
				<path fill="#FFE578" d="M415.7,403.9h-2.6c-0.3,0-0.5-0.2-0.5-0.5c0-0.3,0.2-0.5,0.5-0.5h2.6c0.3,0,0.5,0.2,0.5,0.5
					C416.1,403.6,415.9,403.9,415.7,403.9z"/>
				<path fill="#FFE578" d="M423,402.9h-2.6c0,0-0.1,0-0.1,0c0,0-0.1,0-0.1,0h-2.6c-0.3,0-0.5,0.2-0.5,0.5c0,0.3,0.2,0.5,0.5,0.5
					h2.6c0,0,0.1,0,0.1,0c0,0,0.1,0,0.1,0h2.6c0.3,0,0.5-0.2,0.5-0.5C423.5,403.1,423.3,402.9,423,402.9z"/>
			</g>
			<g>
				<g>
					<path fill="#FFE578" d="M407,333.8c-4.1,0-7.4,4-7.4,8.8c0,4.9,3.3,8.8,7.4,8.8c4.1,0,7.4-4,7.4-8.8
						C414.5,337.8,411.1,333.8,407,333.8z M407,352.1c-4.4,0-8-4.2-8-9.4c0-5.2,3.6-9.4,8-9.4s8,4.2,8,9.4
						C415,347.8,411.5,352.1,407,352.1z"/>
				</g>
				<path fill="#FFE578" d="M407,357c-4.1,0-7.4,4-7.4,8.8c0,4.9,3.3,8.8,7.4,8.8c4.1,0,7.4-4,7.4-8.8C414.5,361,411.1,357,407,357z
					 M407,375.2c-4.4,0-8-4.2-8-9.4c0-5.2,3.6-9.4,8-9.4s8,4.2,8,9.4C415,371,411.5,375.2,407,375.2z"/>
				<g>
					<path fill="#FFE578" d="M407,380.2c-4.1,0-7.4,4-7.4,8.8c0,4.9,3.3,8.8,7.4,8.8c4.1,0,7.4-4,7.4-8.8
						C414.5,384.1,411.1,380.2,407,380.2z M407,398.4c-4.4,0-8-4.2-8-9.4c0-5.2,3.6-9.4,8-9.4s8,4.2,8,9.4
						C415,394.2,411.5,398.4,407,398.4z"/>
				</g>
			</g>
		</g>
		<rect x="416.1" y="279.8" fill="#FFFFFF" width="54.7" height="7.4"/>
		<polygon fill="#FFFFFF" points="487.6,416.6 474.9,279.8 471.4,279.8 484.1,416.6 		"/>
		<polygon fill="#FFFFFF" points="429.1,416.8 416.6,279.8 413.1,279.8 425.4,416.8 		"/>
		<g>
			<path fill="#452A51" d="M415.6,182.2c0,0.9-0.7,1.6-1.6,1.6c-0.9,0-1.6-0.7-1.6-1.6s0.7-1.6,1.6-1.6
				C414.8,180.5,415.6,181.2,415.6,182.2z"/>
			<path fill="#452A51" d="M421,182.2c0,0.9-0.7,1.6-1.6,1.6c-0.9,0-1.6-0.7-1.6-1.6s0.7-1.6,1.6-1.6
				C420.3,180.5,421,181.2,421,182.2z"/>
			<path fill="#452A51" d="M426.4,182.2c0,0.9-0.7,1.6-1.6,1.6c-0.9,0-1.6-0.7-1.6-1.6s0.7-1.6,1.6-1.6
				C425.7,180.5,426.4,181.2,426.4,182.2z"/>
		</g>
		<path fill="#000543" d="M422.1,189.8h-9c0-1.1,0.9-1.9,1.9-1.9h5.2C421.2,187.9,422.1,188.8,422.1,189.8L422.1,189.8z"/>
		<circle fill="#B9CBED" cx="320.2" cy="250.7" r="0.1"/>
		<path fill="#D7E1FC" d="M368.6,279.8h-58.7c-1.3,0-2.3-1-2.3-2.3c0-1.3,1-2.3,2.3-2.3h58.7c1.3,0,2.3,1,2.3,2.3
			C370.9,278.7,369.8,279.8,368.6,279.8z"/>
		<polygon fill="#6A4C7A" points="253.6,231.7 254.2,237.7 259.4,237.7 258.8,231.7 		"/>
		<path fill="#FFFFFF" d="M343.6,279.8H285c-1.3,0-2.3-1-2.3-2.3c0-1.3,1-2.3,2.3-2.3h58.7c1.3,0,2.3,1,2.3,2.3
			C346,278.7,344.9,279.8,343.6,279.8z"/>
		<path fill="#FF685A" d="M449.5,257.3c-0.5,0.1-1-0.2-1.1-0.7l-4.2-19.5c-0.1-0.5,0.2-1,0.7-1.1c0.5-0.1,1,0.2,1.1,0.7l4.2,19.5
			C450.3,256.7,450,257.2,449.5,257.3z"/>
		<path fill="#4DB4E8" d="M451,254.3c-0.5,0.1-1-0.3-1-0.8l-2.2-19.8c-0.1-0.5,0.3-1,0.8-1c0.5-0.1,1,0.3,1,0.8l2.2,19.8
			C451.9,253.8,451.5,254.3,451,254.3z"/>
		<path fill="#000543" d="M452.8,252.5c-0.5-0.1-0.9-0.5-0.8-1l2.6-19.8c0.1-0.5,0.5-0.9,1-0.8c0.5,0.1,0.9,0.5,0.8,1l-2.6,19.8
			C453.8,252.2,453.3,252.6,452.8,252.5z"/>
		<path fill="#FFFFFF" d="M455.1,256.1c-0.5-0.1-0.8-0.6-0.7-1.1l4.4-19.5c0.1-0.5,0.6-0.8,1.1-0.7c0.5,0.1,0.8,0.6,0.7,1.1
			l-4.4,19.5C456.1,255.9,455.6,256.2,455.1,256.1z"/>
		<rect x="445.5" y="245.4" fill="#98B5E5" width="12.8" height="34.4"/>
		<path fill="#FFFFFF" d="M256.3,237.7h-3.7v-10.1c0-1,0.8-1.9,1.9-1.9c1,0,1.9,0.8,1.9,1.9V237.7z"/>
		<g>
			<ellipse fill="#F0F3FC" cx="251.6" cy="135" rx="26" ry="26"/>
			<ellipse fill="#FFFFFF" cx="251.6" cy="135" rx="20.5" ry="20.5"/>
			<path fill="#BBCFF2" d="M251.6,136.4c-0.7,0-1.3-0.6-1.3-1.3v-14.7c0-0.7,0.6-1.3,1.3-1.3c0.7,0,1.3,0.6,1.3,1.3v14.7
				C252.8,135.9,252.3,136.4,251.6,136.4z"/>
			<path fill="#BBCFF2" d="M260.5,136.4h-9c-0.6,0-1.2-0.5-1.2-1.2c0-0.6,0.5-1.2,1.2-1.2h9c0.6,0,1.2,0.5,1.2,1.2
				C261.6,135.9,261.1,136.4,260.5,136.4z"/>
		</g>
		<path fill="#FFFFFF" d="M434,311.3c0,1.3,2.2,2.3,4.9,2.3c2.7,0,4.9-1,4.9-2.3c0-1.3-2.2-2.3-4.9-2.3
			C436.2,308.9,434,310,434,311.3z"/>
		<g>
			<g>
				<path fill="#BBCFF2" d="M450.9,115.7c0.3,0,0.5-0.2,0.5-0.5v-1c0-0.3-0.2-0.5-0.5-0.5c-0.3,0-0.5,0.2-0.5,0.5v1
					C450.4,115.5,450.6,115.7,450.9,115.7z"/>
			</g>
			<g>
				<path fill="#BBCFF2" d="M448.4,115.5c0.1,0.1,0.2,0.2,0.3,0.2l0.1,0c0.1,0,0.2,0,0.2-0.1c0.1-0.1,0.2-0.2,0.2-0.3
					c0-0.1,0-0.3,0-0.4l-0.2-0.4c-0.1-0.1-0.2-0.2-0.3-0.2c-0.1,0-0.3,0-0.4,0c-0.1,0.1-0.2,0.2-0.2,0.3c0,0.1,0,0.3,0,0.4
					L448.4,115.5z"/>
			</g>
			<g>
				<path fill="#BBCFF2" d="M446.7,116.9l0.8,0.5l0.1,0c0,0,0.1,0,0.1,0l0.1,0c0.1,0,0.2-0.1,0.3-0.2c0.1-0.1,0.1-0.2,0-0.4
					c0-0.1-0.1-0.2-0.2-0.3l-0.8-0.5c0,0-0.1,0-0.2-0.1c-0.1,0-0.2,0-0.2,0c-0.1,0-0.2,0.1-0.3,0.2
					C446.4,116.5,446.5,116.8,446.7,116.9z"/>
			</g>
			<g>
				<path fill="#BBCFF2" d="M452.6,115.6c0.1,0,0.2,0.1,0.2,0.1l0.1,0c0.1,0,0.2-0.1,0.3-0.2l0.2-0.4c0.1-0.1,0.1-0.2,0-0.4
					c0-0.1-0.1-0.2-0.2-0.3c-0.2-0.1-0.5-0.1-0.7,0.2l-0.2,0.4c-0.1,0.1-0.1,0.2,0,0.4C452.4,115.4,452.5,115.5,452.6,115.6z"/>
			</g>
			<g>
				<path fill="#BBCFF2" d="M455.1,120.4l-0.8-0.5l-0.1,0c-0.1,0-0.2,0-0.3,0c-0.1,0-0.2,0.1-0.3,0.2c-0.1,0.1-0.1,0.2,0,0.4
					c0,0.1,0.1,0.2,0.2,0.3l0.8,0.5c0,0,0.1,0,0.1,0l0.1,0c0.2,0,0.3-0.1,0.4-0.2c0.1-0.1,0.1-0.2,0-0.4
					C455.3,120.6,455.2,120.5,455.1,120.4z"/>
			</g>
			<g>
				<path fill="#BBCFF2" d="M455.4,118.1h-0.5c-0.3,0-0.5,0.2-0.5,0.5c0,0.3,0.2,0.5,0.5,0.5h0.5c0.3,0,0.5-0.2,0.5-0.5
					C455.9,118.3,455.7,118.1,455.4,118.1z"/>
			</g>
			<g>
				<path fill="#BBCFF2" d="M447.8,120.1c-0.1,0-0.3,0-0.4,0l-0.7,0.4c-0.1,0.1-0.2,0.2-0.2,0.3c0,0.1,0,0.3,0,0.4
					c0.1,0.1,0.2,0.2,0.3,0.2l0.1,0c0.1,0,0.2,0,0.2-0.1l0.7-0.4c0.1-0.1,0.2-0.2,0.2-0.3c0-0.1,0-0.3,0-0.4
					C448.1,120.2,448,120.1,447.8,120.1z"/>
			</g>
			<g>
				<path fill="#BBCFF2" d="M451,121.7c-0.3,0-0.5,0.2-0.5,0.5v1c0,0.3,0.2,0.5,0.5,0.5c0.3,0,0.5-0.2,0.5-0.5v-1
					C451.4,121.9,451.2,121.7,451,121.7z"/>
			</g>
			<g>
				<path fill="#BBCFF2" d="M453.4,121.9c-0.1-0.1-0.2-0.2-0.3-0.2c-0.1,0-0.3,0-0.4,0c-0.1,0.1-0.2,0.2-0.2,0.3c0,0.1,0,0.3,0,0.4
					l0.2,0.4c0.1,0.2,0.3,0.2,0.4,0.2c0.1,0,0.2,0,0.2-0.1c0.1-0.1,0.2-0.2,0.2-0.3c0-0.1,0-0.3,0-0.4L453.4,121.9z"/>
			</g>
			<g>
				<path fill="#BBCFF2" d="M449.2,121.8c-0.2-0.1-0.5-0.1-0.7,0.2l-0.2,0.4c-0.1,0.1-0.1,0.2,0,0.4c0,0.1,0.1,0.2,0.2,0.3
					c0.1,0,0.2,0.1,0.2,0.1l0.1,0c0.1,0,0.2-0.1,0.3-0.2l0.2-0.4c0.1-0.1,0.1-0.2,0-0.4C449.4,121.9,449.3,121.8,449.2,121.8z"/>
			</g>
			<g>
				<path fill="#BBCFF2" d="M447.4,118.7c0-0.3-0.2-0.5-0.5-0.5h-0.5c-0.3,0-0.5,0.2-0.5,0.5c0,0.3,0.2,0.5,0.5,0.5h0.5
					C447.1,119.2,447.4,119,447.4,118.7z"/>
			</g>
			<g>
				<path fill="#BBCFF2" d="M454,117.2l0.1,0c0.1,0,0.2,0,0.2-0.1l0.7-0.4c0.1-0.1,0.2-0.2,0.2-0.3c0-0.1,0-0.3,0-0.4
					c-0.1-0.1-0.1-0.2-0.2-0.2l-0.1,0c-0.1,0-0.3,0-0.4,0l-0.7,0.4c-0.1,0.1-0.2,0.2-0.2,0.3c0,0.1,0,0.3,0,0.4
					C453.7,117.1,453.8,117.2,454,117.2z"/>
			</g>
		</g>
		<g>
			<g>
				<path fill="#BBCFF2" d="M133.6,350.8c0.7,0,1.2-0.5,1.2-1.2v-2.5c0-0.7-0.5-1.2-1.2-1.2c-0.7,0-1.2,0.5-1.2,1.2v2.5
					C132.4,350.3,132.9,350.8,133.6,350.8z"/>
			</g>
			<g>
				<path fill="#BBCFF2" d="M127.6,350.3c0.2,0.3,0.4,0.5,0.7,0.6l0.3,0c0.2,0,0.4-0.1,0.6-0.2c0.3-0.2,0.5-0.4,0.6-0.7
					c0.1-0.3,0-0.6-0.1-0.9l-0.6-1c-0.2-0.3-0.4-0.5-0.7-0.6c-0.3-0.1-0.6,0-0.9,0.1c-0.3,0.2-0.5,0.4-0.6,0.7
					c-0.1,0.3,0,0.6,0.1,0.9L127.6,350.3z"/>
			</g>
			<g>
				<path fill="#BBCFF2" d="M123.4,353.8l2,1.2l0.3,0.1c0.1,0,0.2,0.1,0.3,0.1l0.3,0c0.3-0.1,0.6-0.3,0.7-0.6
					c0.2-0.3,0.2-0.6,0.1-0.9c-0.1-0.3-0.3-0.6-0.6-0.7l-2.1-1.2c-0.1-0.1-0.2-0.1-0.4-0.1c-0.2,0-0.4,0-0.6,0
					c-0.3,0.1-0.6,0.3-0.7,0.6C122.6,352.7,122.8,353.5,123.4,353.8z"/>
			</g>
			<g>
				<path fill="#BBCFF2" d="M137.9,350.5c0.2,0.1,0.4,0.2,0.6,0.2l0.3,0c0.3-0.1,0.6-0.3,0.7-0.6l0.6-1c0.2-0.3,0.2-0.6,0.1-0.9
					c-0.1-0.3-0.3-0.6-0.6-0.7c-0.6-0.3-1.3-0.1-1.6,0.4l-0.6,1c-0.2,0.3-0.2,0.6-0.1,0.9C137.5,350.1,137.7,350.4,137.9,350.5z"/>
			</g>
			<g>
				<path fill="#BBCFF2" d="M144,362.5l-2-1.2l-0.3-0.1c-0.2-0.1-0.5-0.1-0.7,0c-0.3,0.1-0.6,0.3-0.7,0.6c-0.2,0.3-0.2,0.6-0.1,0.9
					c0.1,0.3,0.3,0.6,0.6,0.7l2,1.2c0.1,0.1,0.2,0.1,0.3,0.1l0.3,0.1c0.4,0,0.8-0.2,1-0.6c0.2-0.3,0.2-0.6,0.1-0.9
					C144.5,362.9,144.3,362.6,144,362.5z"/>
			</g>
			<g>
				<path fill="#BBCFF2" d="M144.8,356.8h-1.2c-0.7,0-1.2,0.5-1.2,1.2c0,0.7,0.5,1.2,1.2,1.2h1.2c0.7,0,1.2-0.5,1.2-1.2
					C146,357.3,145.4,356.8,144.8,356.8z"/>
			</g>
			<g>
				<path fill="#BBCFF2" d="M126.1,361.7c-0.3-0.1-0.6,0-0.9,0.1l-1.7,1c-0.3,0.2-0.5,0.4-0.6,0.7c-0.1,0.3,0,0.6,0.1,0.9
					c0.2,0.3,0.5,0.5,0.7,0.6l0.4,0.1c0.2,0,0.4-0.1,0.6-0.2l1.7-1c0.3-0.2,0.5-0.4,0.6-0.7c0.1-0.3,0-0.6-0.1-0.9
					C126.7,362,126.4,361.8,126.1,361.7z"/>
			</g>
			<g>
				<path fill="#BBCFF2" d="M133.8,365.5c-0.7,0-1.2,0.5-1.2,1.2v2.5c0,0.7,0.5,1.2,1.2,1.2c0.7,0,1.2-0.5,1.2-1.2v-2.5
					C135,366,134.5,365.5,133.8,365.5z"/>
			</g>
			<g>
				<path fill="#BBCFF2" d="M139.8,366c-0.2-0.3-0.4-0.5-0.7-0.6c-0.3-0.1-0.6,0-0.9,0.1c-0.3,0.2-0.5,0.4-0.6,0.7
					c-0.1,0.3,0,0.6,0.1,0.9l0.6,1c0.2,0.4,0.6,0.6,1,0.6c0.2,0,0.4-0.1,0.6-0.2c0.3-0.2,0.5-0.4,0.6-0.7c0.1-0.3,0-0.6-0.1-0.9
					L139.8,366z"/>
			</g>
			<g>
				<path fill="#BBCFF2" d="M129.4,365.7c-0.6-0.3-1.3-0.1-1.7,0.4l-0.6,1c-0.2,0.3-0.2,0.6-0.1,0.9c0.1,0.3,0.3,0.6,0.6,0.7
					c0.2,0.1,0.4,0.2,0.6,0.2l0.3,0c0.3-0.1,0.6-0.3,0.7-0.6l0.6-1c0.2-0.3,0.2-0.6,0.1-0.9C129.9,366.2,129.7,365.9,129.4,365.7z"
					/>
			</g>
			<g>
				<path fill="#BBCFF2" d="M125,358.3c0-0.7-0.5-1.2-1.2-1.2h-1.2c-0.7,0-1.2,0.5-1.2,1.2c0,0.7,0.5,1.2,1.2,1.2h1.2
					C124.4,359.5,125,359,125,358.3z"/>
			</g>
			<g>
				<path fill="#BBCFF2" d="M141.3,354.6l0.3,0c0.2,0,0.4-0.1,0.6-0.2l1.7-1c0.3-0.2,0.5-0.4,0.6-0.7c0.1-0.3,0-0.6-0.1-0.9
					c-0.1-0.2-0.3-0.4-0.5-0.5l-0.2-0.1c-0.3-0.1-0.7-0.1-1,0.1l-1.7,1c-0.3,0.2-0.5,0.4-0.6,0.7c-0.1,0.3,0,0.6,0.1,0.9
					C140.7,354.3,141,354.5,141.3,354.6z"/>
			</g>
		</g>
		<g>
			<g>
				<path fill="#BBCFF2" d="M173.2,84.3c0.3,0,0.5-0.2,0.5-0.5v-1c0-0.3-0.2-0.5-0.5-0.5c-0.3,0-0.5,0.2-0.5,0.5v1
					C172.8,84.1,173,84.3,173.2,84.3z"/>
			</g>
			<g>
				<path fill="#BBCFF2" d="M170.8,84.1c0.1,0.1,0.2,0.2,0.3,0.2l0.1,0c0.1,0,0.2,0,0.2-0.1c0.1-0.1,0.2-0.2,0.2-0.3
					c0-0.1,0-0.3,0-0.4l-0.2-0.4c-0.1-0.1-0.2-0.2-0.3-0.2c-0.1,0-0.3,0-0.4,0c-0.1,0.1-0.2,0.2-0.2,0.3c0,0.1,0,0.3,0,0.4
					L170.8,84.1z"/>
			</g>
			<g>
				<path fill="#BBCFF2" d="M169.1,85.6l0.8,0.5l0.1,0c0,0,0.1,0,0.1,0l0.1,0c0.1,0,0.2-0.1,0.3-0.2c0.1-0.1,0.1-0.2,0-0.4
					c0-0.1-0.1-0.2-0.2-0.3l-0.8-0.5c0,0-0.1,0-0.2-0.1c-0.1,0-0.2,0-0.2,0c-0.1,0-0.2,0.1-0.3,0.2
					C168.8,85.1,168.9,85.4,169.1,85.6z"/>
			</g>
			<g>
				<path fill="#BBCFF2" d="M175,84.2c0.1,0,0.2,0.1,0.2,0.1l0.1,0c0.1,0,0.2-0.1,0.3-0.2l0.2-0.4c0.1-0.1,0.1-0.2,0-0.4
					c0-0.1-0.1-0.2-0.2-0.3c-0.2-0.1-0.5-0.1-0.7,0.2l-0.2,0.4c-0.1,0.1-0.1,0.2,0,0.4C174.8,84.1,174.9,84.2,175,84.2z"/>
			</g>
			<g>
				<path fill="#BBCFF2" d="M177.5,89.1l-0.8-0.5l-0.1,0c-0.1,0-0.2,0-0.3,0c-0.1,0-0.2,0.1-0.3,0.2c-0.1,0.1-0.1,0.2,0,0.4
					c0,0.1,0.1,0.2,0.2,0.3l0.8,0.5c0,0,0.1,0,0.1,0l0.1,0c0.2,0,0.3-0.1,0.4-0.2c0.1-0.1,0.1-0.2,0-0.4
					C177.7,89.2,177.6,89.1,177.5,89.1z"/>
			</g>
			<g>
				<path fill="#BBCFF2" d="M177.8,86.8h-0.5c-0.3,0-0.5,0.2-0.5,0.5c0,0.3,0.2,0.5,0.5,0.5h0.5c0.3,0,0.5-0.2,0.5-0.5
					C178.3,87,178.1,86.8,177.8,86.8z"/>
			</g>
			<g>
				<path fill="#BBCFF2" d="M170.2,88.7c-0.1,0-0.3,0-0.4,0l-0.7,0.4c-0.1,0.1-0.2,0.2-0.2,0.3c0,0.1,0,0.3,0,0.4
					c0.1,0.1,0.2,0.2,0.3,0.2l0.1,0c0.1,0,0.2,0,0.2-0.1l0.7-0.4c0.1-0.1,0.2-0.2,0.2-0.3c0-0.1,0-0.3,0-0.4
					C170.5,88.9,170.3,88.8,170.2,88.7z"/>
			</g>
			<g>
				<path fill="#BBCFF2" d="M173.3,90.3c-0.3,0-0.5,0.2-0.5,0.5v1c0,0.3,0.2,0.5,0.5,0.5c0.3,0,0.5-0.2,0.5-0.5v-1
					C173.8,90.5,173.6,90.3,173.3,90.3z"/>
			</g>
			<g>
				<path fill="#BBCFF2" d="M175.8,90.5c-0.1-0.1-0.2-0.2-0.3-0.2c-0.1,0-0.3,0-0.4,0c-0.1,0.1-0.2,0.2-0.2,0.3c0,0.1,0,0.3,0,0.4
					l0.2,0.4c0.1,0.2,0.3,0.2,0.4,0.2c0.1,0,0.2,0,0.2-0.1c0.1-0.1,0.2-0.2,0.2-0.3c0-0.1,0-0.3,0-0.4L175.8,90.5z"/>
			</g>
			<g>
				<path fill="#BBCFF2" d="M171.6,90.4c-0.2-0.1-0.5-0.1-0.7,0.2l-0.2,0.4c-0.1,0.1-0.1,0.2,0,0.4c0,0.1,0.1,0.2,0.2,0.3
					c0.1,0,0.2,0.1,0.2,0.1l0.1,0c0.1,0,0.2-0.1,0.3-0.2l0.2-0.4c0.1-0.1,0.1-0.2,0-0.4C171.8,90.6,171.7,90.5,171.6,90.4z"/>
			</g>
			<g>
				<path fill="#BBCFF2" d="M169.8,87.4c0-0.3-0.2-0.5-0.5-0.5h-0.5c-0.3,0-0.5,0.2-0.5,0.5c0,0.3,0.2,0.5,0.5,0.5h0.5
					C169.5,87.9,169.8,87.7,169.8,87.4z"/>
			</g>
			<g>
				<path fill="#BBCFF2" d="M176.4,85.9l0.1,0c0.1,0,0.2,0,0.2-0.1l0.7-0.4c0.1-0.1,0.2-0.2,0.2-0.3c0-0.1,0-0.3,0-0.4
					c-0.1-0.1-0.1-0.2-0.2-0.2l-0.1,0c-0.1,0-0.3,0-0.4,0l-0.7,0.4c-0.1,0.1-0.2,0.2-0.2,0.3c0,0.1,0,0.3,0,0.4
					C176.1,85.8,176.2,85.8,176.4,85.9z"/>
			</g>
		</g>
		<g>
			<g>
				<path fill="#BBCFF2" d="M406.6,145.5c0.5,0,0.8-0.4,0.8-0.8v-1.8c0-0.5-0.4-0.8-0.8-0.8c-0.5,0-0.8,0.4-0.8,0.8v1.8
					C405.7,145.1,406.1,145.5,406.6,145.5z"/>
			</g>
			<g>
				<path fill="#BBCFF2" d="M402.4,145.1c0.1,0.2,0.3,0.3,0.5,0.4l0.2,0c0.1,0,0.3,0,0.4-0.1c0.2-0.1,0.3-0.3,0.4-0.5
					c0.1-0.2,0-0.4-0.1-0.6l-0.4-0.7c-0.1-0.2-0.3-0.3-0.5-0.4c-0.2-0.1-0.5,0-0.6,0.1c-0.2,0.1-0.3,0.3-0.4,0.5
					c-0.1,0.2,0,0.4,0.1,0.6L402.4,145.1z"/>
			</g>
			<g>
				<path fill="#BBCFF2" d="M399.5,147.6l1.4,0.8l0.2,0.1c0.1,0,0.2,0,0.2,0l0.2,0c0.2-0.1,0.4-0.2,0.5-0.4c0.1-0.2,0.1-0.4,0.1-0.6
					c-0.1-0.2-0.2-0.4-0.4-0.5l-1.4-0.8c-0.1,0-0.1-0.1-0.3-0.1c-0.1,0-0.3,0-0.4,0c-0.2,0.1-0.4,0.2-0.5,0.4
					C398.9,146.8,399.1,147.3,399.5,147.6z"/>
			</g>
			<g>
				<path fill="#BBCFF2" d="M409.6,145.3c0.1,0.1,0.3,0.1,0.4,0.1l0.2,0c0.2-0.1,0.4-0.2,0.5-0.4l0.4-0.7c0.1-0.2,0.1-0.4,0.1-0.6
					c-0.1-0.2-0.2-0.4-0.4-0.5c-0.4-0.2-0.9-0.1-1.2,0.3l-0.4,0.7c-0.1,0.2-0.1,0.4-0.1,0.6C409.3,145,409.4,145.2,409.6,145.3z"/>
			</g>
			<g>
				<path fill="#BBCFF2" d="M413.8,153.6l-1.4-0.8l-0.2-0.1c-0.2-0.1-0.3-0.1-0.5,0c-0.2,0.1-0.4,0.2-0.5,0.4
					c-0.1,0.2-0.1,0.4-0.1,0.6c0.1,0.2,0.2,0.4,0.4,0.5l1.4,0.8c0.1,0,0.2,0.1,0.2,0.1l0.2,0c0.3,0,0.6-0.2,0.7-0.4
					c0.1-0.2,0.1-0.4,0.1-0.6C414.2,153.9,414,153.7,413.8,153.6z"/>
			</g>
			<g>
				<path fill="#BBCFF2" d="M414.4,149.6h-0.8c-0.5,0-0.8,0.4-0.8,0.8c0,0.5,0.4,0.9,0.8,0.9h0.8c0.5,0,0.8-0.4,0.8-0.8
					C415.2,150,414.9,149.6,414.4,149.6z"/>
			</g>
			<g>
				<path fill="#BBCFF2" d="M401.4,153.1c-0.2-0.1-0.5,0-0.6,0.1l-1.2,0.7c-0.2,0.1-0.3,0.3-0.4,0.5c-0.1,0.2,0,0.4,0.1,0.6
					c0.1,0.2,0.3,0.4,0.5,0.4l0.2,0c0.1,0,0.3,0,0.4-0.1l1.2-0.7c0.2-0.1,0.3-0.3,0.4-0.5c0.1-0.2,0-0.4-0.1-0.6
					C401.8,153.3,401.6,153.1,401.4,153.1z"/>
			</g>
			<g>
				<path fill="#BBCFF2" d="M406.7,155.7c-0.5,0-0.8,0.4-0.8,0.8v1.8c0,0.5,0.4,0.8,0.8,0.8c0.5,0,0.8-0.4,0.8-0.8v-1.8
					C407.6,156.1,407.2,155.7,406.7,155.7z"/>
			</g>
			<g>
				<path fill="#BBCFF2" d="M410.9,156.1c-0.1-0.2-0.3-0.3-0.5-0.4c-0.2-0.1-0.4,0-0.6,0.1c-0.2,0.1-0.3,0.3-0.4,0.5
					c-0.1,0.2,0,0.4,0.1,0.6l0.4,0.7c0.2,0.3,0.4,0.4,0.7,0.4c0.1,0,0.3,0,0.4-0.1c0.2-0.1,0.3-0.3,0.4-0.5c0.1-0.2,0-0.4-0.1-0.6
					L410.9,156.1z"/>
			</g>
			<g>
				<path fill="#BBCFF2" d="M403.7,155.9c-0.4-0.2-0.9-0.1-1.2,0.3l-0.4,0.7c-0.1,0.2-0.1,0.4-0.1,0.6c0.1,0.2,0.2,0.4,0.4,0.5
					c0.1,0.1,0.3,0.1,0.4,0.1l0.2,0c0.2-0.1,0.4-0.2,0.5-0.4l0.4-0.7c0.1-0.2,0.1-0.4,0.1-0.6C404,156.2,403.9,156,403.7,155.9z"/>
			</g>
			<g>
				<path fill="#BBCFF2" d="M400.6,150.7c0-0.5-0.4-0.9-0.8-0.9h-0.8c-0.5,0-0.8,0.4-0.8,0.8c0,0.5,0.4,0.9,0.8,0.9h0.8
					C400.2,151.6,400.6,151.2,400.6,150.7z"/>
			</g>
			<g>
				<path fill="#BBCFF2" d="M412,148.1l0.2,0c0.1,0,0.3,0,0.4-0.1l1.2-0.7c0.2-0.1,0.3-0.3,0.4-0.5c0.1-0.2,0-0.4-0.1-0.6
					c-0.1-0.2-0.2-0.3-0.4-0.3l-0.1-0.1c-0.2-0.1-0.5,0-0.7,0.1l-1.2,0.7c-0.2,0.1-0.3,0.3-0.4,0.5c-0.1,0.2,0,0.4,0.1,0.6
					C411.5,147.9,411.7,148.1,412,148.1z"/>
			</g>
		</g>
		<g>
			<g>
				<path fill="#BBCFF2" d="M302.1,82.2c0.9,0,1.6-0.7,1.6-1.6v-3.3c0-0.9-0.7-1.6-1.6-1.6c-0.9,0-1.6,0.7-1.6,1.6v3.3
					C300.5,81.5,301.3,82.2,302.1,82.2z"/>
			</g>
			<g>
				<path fill="#BBCFF2" d="M294.2,81.5c0.2,0.4,0.6,0.6,1,0.8l0.4,0.1c0.3,0,0.6-0.1,0.8-0.2c0.4-0.2,0.6-0.6,0.8-1
					c0.1-0.4,0.1-0.9-0.2-1.2l-0.8-1.3c-0.2-0.4-0.6-0.6-1-0.7c-0.4-0.1-0.9-0.1-1.2,0.2c-0.4,0.2-0.6,0.6-0.8,1
					c-0.1,0.4-0.1,0.8,0.2,1.2L294.2,81.5z"/>
			</g>
			<g>
				<path fill="#BBCFF2" d="M288.6,86.2l2.7,1.6l0.4,0.2c0.2,0,0.3,0.1,0.5,0.1l0.4-0.1c0.4-0.1,0.8-0.4,1-0.7
					c0.2-0.4,0.3-0.8,0.2-1.2c-0.1-0.4-0.4-0.8-0.8-1l-2.7-1.6c-0.1-0.1-0.3-0.1-0.5-0.2c-0.3-0.1-0.5-0.1-0.8,0
					c-0.4,0.1-0.8,0.4-1,0.7C287.6,84.8,287.8,85.7,288.6,86.2z"/>
			</g>
			<g>
				<path fill="#BBCFF2" d="M308,81.8c0.2,0.1,0.5,0.2,0.8,0.2l0.4-0.1c0.4-0.1,0.8-0.4,1-0.8l0.8-1.3c0.2-0.4,0.3-0.8,0.2-1.2
					c-0.1-0.4-0.4-0.8-0.8-1c-0.8-0.4-1.7-0.2-2.2,0.6l-0.8,1.3c-0.2,0.4-0.3,0.8-0.2,1.2C307.3,81.3,307.6,81.6,308,81.8z"/>
			</g>
			<g>
				<path fill="#BBCFF2" d="M316,97.7l-2.7-1.6l-0.3-0.1c-0.3-0.1-0.6-0.1-0.9,0c-0.4,0.1-0.8,0.4-1,0.7c-0.2,0.4-0.3,0.8-0.2,1.2
					c0.1,0.4,0.4,0.8,0.7,1l2.7,1.6c0.1,0.1,0.3,0.1,0.4,0.2l0.5,0.1c0.6,0,1.1-0.3,1.4-0.8c0.2-0.4,0.3-0.8,0.2-1.2
					C316.6,98.3,316.4,98,316,97.7z"/>
			</g>
			<g>
				<path fill="#BBCFF2" d="M317.1,90.1h-1.5c-0.9,0-1.6,0.7-1.6,1.6c0,0.9,0.7,1.6,1.6,1.6h1.5c0.9,0,1.6-0.7,1.6-1.6
					C318.7,90.8,318,90.1,317.1,90.1z"/>
			</g>
			<g>
				<path fill="#BBCFF2" d="M292.2,96.7c-0.4-0.1-0.9-0.1-1.2,0.2l-2.2,1.3c-0.4,0.2-0.6,0.6-0.8,1c-0.1,0.4-0.1,0.9,0.2,1.2
					c0.2,0.4,0.6,0.7,1,0.7l0.5,0.1c0.3,0,0.6-0.1,0.8-0.2l2.2-1.3c0.4-0.2,0.6-0.6,0.7-1c0.1-0.4,0-0.8-0.2-1.2
					C293,97.1,292.7,96.8,292.2,96.7z"/>
			</g>
			<g>
				<path fill="#BBCFF2" d="M302.5,101.7c-0.9,0-1.6,0.7-1.6,1.6v3.3c0,0.9,0.7,1.6,1.6,1.6c0.9,0,1.6-0.7,1.6-1.6v-3.3
					C304.1,102.5,303.4,101.7,302.5,101.7z"/>
			</g>
			<g>
				<path fill="#BBCFF2" d="M310.4,102.5c-0.2-0.4-0.6-0.6-1-0.8c-0.4-0.1-0.9-0.1-1.2,0.2c-0.4,0.2-0.6,0.6-0.8,1
					c-0.1,0.4-0.1,0.8,0.2,1.2l0.8,1.3c0.3,0.5,0.8,0.8,1.4,0.8c0.3,0,0.5-0.1,0.8-0.2c0.4-0.2,0.6-0.6,0.7-1
					c0.1-0.4,0.1-0.8-0.2-1.2L310.4,102.5z"/>
			</g>
			<g>
				<path fill="#BBCFF2" d="M296.6,102.1c-0.8-0.4-1.8-0.2-2.2,0.6l-0.8,1.3c-0.2,0.4-0.3,0.8-0.2,1.2c0.1,0.4,0.4,0.8,0.8,1
					c0.2,0.1,0.5,0.2,0.8,0.2l0.4-0.1c0.4-0.1,0.8-0.4,1-0.7l0.8-1.3c0.2-0.4,0.3-0.8,0.2-1.2C297.3,102.7,297,102.3,296.6,102.1z"
					/>
			</g>
			<g>
				<path fill="#BBCFF2" d="M290.7,92.2c0-0.9-0.7-1.6-1.6-1.6h-1.5c-0.9,0-1.6,0.7-1.6,1.6c0,0.9,0.7,1.6,1.6,1.6h1.5
					C290,93.8,290.7,93.1,290.7,92.2z"/>
			</g>
			<g>
				<path fill="#BBCFF2" d="M312.4,87.3l0.4,0c0.3,0,0.6-0.1,0.8-0.2l2.2-1.3c0.4-0.2,0.6-0.6,0.7-1c0.1-0.4,0-0.8-0.2-1.2
					c-0.2-0.3-0.5-0.6-0.7-0.7l-0.2-0.1c-0.5-0.1-0.9-0.1-1.3,0.1l-2.2,1.3c-0.4,0.2-0.6,0.6-0.7,1c-0.1,0.4-0.1,0.8,0.2,1.2
					C311.6,86.9,312,87.2,312.4,87.3z"/>
			</g>
		</g>
		<g>
			<g>
				<path fill="#FFFFFF" d="M382.6,237.4c-4.6-3.4-9.2-5.8-14-8.3c-6.8-3.5-13.6-6.4-19.6-11.4c-0.7-0.6-1.5-0.8-2.2-1.4
					c-7.8-6.5-14.6-13.5-18.6-22.6c-1.3-2.9-2.3-6-2.9-9.1l-34.4,0l0.3,37.2l0.1,11.6l0.2,21l0.1,5.4c0,1.4,1.4,2.6,3.1,2.6h67.8
					h2.9h12.6h25.5c-2.1-4.2-4.5-8.1-7.5-11.9C391.8,245.5,387.9,241.2,382.6,237.4z"/>
			</g>
			<g>
				<path fill="#26182D" d="M331.3,240.9c0,0.2-0.2,0.5-0.5,0.5c-0.2,0-0.5-0.2-0.5-0.5c0-0.2,0.2-0.5,0.5-0.5
					C331.1,240.5,331.3,240.7,331.3,240.9z"/>
			</g>
			<g>
				<circle fill="#26182D" cx="312" cy="259.9" r="0.5"/>
			</g>
			<path fill="#8D6AA3" d="M290.4,207.6l34.5,24.7c5.4,3.9,12.7,4.1,18.3,0.6l44.8-27.8c2.8-1.7,6.2-2.1,9.3-1.1l32.6,10.2l0.3,49.1
				H290.6L290.4,207.6z"/>
			<path opacity="0.49" fill="#CCD7F2" d="M382.2,197.6c-1.9-0.6-4.1-0.1-5.7,1c-0.1-0.1-0.2-0.1-0.4-0.2c-0.6-3.8-4.9-7.5-8.2-8.5
				c-3.5-1.1-7.5,0.2-10.4,2.4c-0.3,0.2-0.6,0.5-0.9,0.8c-0.9-0.8-2-1.3-3.3-1.3c-2.9,0-5.3,2.9-5.3,6.4c0,0.1,0,0.2,0,0.2
				c-1.8-0.9-3.9-1.4-5.8-0.7c-1.2,0.4-2.5,1.3-3.6,2.4c-0.8,0.8-0.2,2.1,0.9,2.1h46c0.5,0,0.9-0.6,0.6-1
				C385.4,199.5,383.9,198.1,382.2,197.6z"/>
			<g>
				<circle fill="#26182D" cx="353.1" cy="212.1" r="0.5"/>
			</g>
			<g>
				<g>
					<path fill="#30B8C6" d="M334.5,254.6c-1.7,2.1-3.4,4.2-4.4,6.7c-0.3,0.6-0.5,1.3-0.6,2H362c-0.1-0.7-0.3-1.4-0.6-2
						c-1-2.5-2.7-4.6-4.4-6.7c-1.1-1.3-2.2-2.7-2.3-4.4c-0.2-2.6,2-4.6,3-7c1.1-2.5,0.7-5.6-0.9-7.8c-1.7-2.3-4.7-4-4.7-6.8
						c0-1.7,1.2-3.1,1.7-4.7c1.1-3.1-0.1-6.6-2.2-9.1c0,0,0,0,0-0.1c-3-3.5-8.5-3.5-11.5,0c0,0,0,0,0,0.1c-2.1,2.5-3.3,6-2.2,9.1
						c0.6,1.6,1.7,3,1.7,4.7c0,2.8-3,4.5-4.7,6.8c-1.6,2.2-2,5.3-0.9,7.8c1,2.4,3.2,4.4,3,7C336.7,251.9,335.6,253.3,334.5,254.6z"
						/>
				</g>
				<g>
					<g>
						<path fill="#26182D" d="M357.4,212.7c-0.3,0-0.6-0.3-0.6-0.6s0.3-0.6,0.6-0.6s0.6,0.3,0.6,0.6S357.8,212.7,357.4,212.7z"/>
					</g>
					<g>
						<path fill="#26182D" d="M334.1,212.7c-0.3,0-0.6-0.3-0.6-0.6s0.3-0.6,0.6-0.6s0.6,0.3,0.6,0.6S334.4,212.7,334.1,212.7z"/>
					</g>
					<g>
						<rect x="334.1" y="212" fill="#26182D" width="23.3" height="0.2"/>
					</g>
				</g>
				<g>
					<g>
						<circle fill="#26182D" cx="333.2" cy="239.7" r="0.6"/>
					</g>
					<g>
						<g>
							<path fill="#26182D" d="M333.7,228c0,0.3-0.3,0.6-0.6,0.6s-0.6-0.3-0.6-0.6c0-0.3,0.3-0.6,0.6-0.6S333.7,227.7,333.7,228z"/>
						</g>
						<g>
							<circle fill="#26182D" cx="333.2" cy="251.3" r="0.6"/>
						</g>
						<g>
							<rect x="333.1" y="228" fill="#26182D" width="0.2" height="23.3"/>
						</g>
					</g>
				</g>
				<g>
					<g>
						<path fill="#26182D" d="M358.8,239.7c0,0.3-0.3,0.6-0.6,0.6c-0.3,0-0.6-0.3-0.6-0.6s0.3-0.6,0.6-0.6
							C358.6,239.1,358.8,239.3,358.8,239.7z"/>
					</g>
					<g>
						<g>
							<path fill="#26182D" d="M358.8,228c0,0.3-0.3,0.6-0.6,0.6c-0.3,0-0.6-0.3-0.6-0.6c0-0.3,0.3-0.6,0.6-0.6
								C358.6,227.4,358.8,227.7,358.8,228z"/>
						</g>
						<g>
							<path fill="#26182D" d="M358.8,251.3c0,0.3-0.3,0.6-0.6,0.6c-0.3,0-0.6-0.3-0.6-0.6s0.3-0.6,0.6-0.6
								C358.6,250.8,358.8,251,358.8,251.3z"/>
						</g>
						<g>
							<rect x="358.1" y="228" fill="#26182D" width="0.2" height="23.3"/>
						</g>
					</g>
				</g>
			</g>
			<g>
				<path fill="#FFDE9A" d="M391.1,220.6l7-3.1c-1.8-0.6-3.8-1-5.9-1c-9.6,0.1-17.3,7.8-17.3,17.4c0,9.6,7.8,17.4,17.4,17.4
					c0.4,0,0.9,0,1.3,0l-5.7-13.7c-0.4-1.1,0.1-2.3,1.1-2.7l5.1-2.1l-4.1-9.3C389.6,222.4,390.1,221.1,391.1,220.6z"/>
				<path fill="#FFDE9A" d="M398.1,217.5l-7,3.1c-1.1,0.5-1.5,1.7-1.1,2.8l3.2,7.3c0.5,1.1,0,2.5-1.2,2.9l-3.2,1.3
					c-1,0.4-1.5,1.5-1,2.5l5.7,13.8c9-0.7,16.1-8.2,16.1-17.4C409.7,226.3,404.9,219.9,398.1,217.5z"/>
				<g>
					<g>
						<path fill="#26182D" d="M409.9,251.4h-34.9v-34.9h34.9V251.4z M375,251.3h34.7v-34.6H375V251.3z"/>
					</g>
				</g>
				<g>
					<path fill="#26182D" d="M375.5,216.6c0,0.2-0.2,0.5-0.5,0.5c-0.2,0-0.5-0.2-0.5-0.5c0-0.2,0.2-0.5,0.5-0.5
						C375.3,216.1,375.5,216.3,375.5,216.6z"/>
				</g>
				<g>
					<path fill="#26182D" d="M410.3,216.5c0,0.2-0.2,0.5-0.5,0.5c-0.2,0-0.5-0.2-0.5-0.5s0.2-0.5,0.5-0.5
						C410.1,216.1,410.3,216.3,410.3,216.5z"/>
				</g>
				<g>
					<path fill="#26182D" d="M375.5,251.4c0,0.2-0.2,0.5-0.5,0.5s-0.5-0.2-0.5-0.5c0-0.2,0.2-0.5,0.5-0.5S375.5,251.2,375.5,251.4z"
						/>
				</g>
				<g>
					<path fill="#26182D" d="M410.2,251.4c0,0.2-0.2,0.5-0.5,0.5c-0.2,0-0.5-0.2-0.5-0.5c0-0.2,0.2-0.5,0.5-0.5
						C410,250.9,410.2,251.1,410.2,251.4z"/>
				</g>
			</g>
		</g>
		<rect x="295.5" y="190.2" fill="#D7E1FC" width="21.4" height="32.3"/>
		<g>
			<path fill="#B9CBED" d="M314.6,193.6h-16.8c-0.4,0-0.7-0.3-0.7-0.7c0-0.4,0.3-0.7,0.7-0.7h16.8c0.4,0,0.7,0.3,0.7,0.7
				C315.2,193.3,314.9,193.6,314.6,193.6z"/>
			<path fill="#B9CBED" d="M314.6,197.7h-16.8c-0.4,0-0.7-0.3-0.7-0.7c0-0.4,0.3-0.7,0.7-0.7h16.8c0.4,0,0.7,0.3,0.7,0.7
				C315.2,197.4,314.9,197.7,314.6,197.7z"/>
			<path fill="#B9CBED" d="M314.6,201.8h-16.8c-0.4,0-0.7-0.3-0.7-0.7c0-0.4,0.3-0.7,0.7-0.7h16.8c0.4,0,0.7,0.3,0.7,0.7
				C315.2,201.5,314.9,201.8,314.6,201.8z"/>
			<path fill="#B9CBED" d="M314.6,205.9h-16.8c-0.4,0-0.7-0.3-0.7-0.7s0.3-0.7,0.7-0.7h16.8c0.4,0,0.7,0.3,0.7,0.7
				S314.9,205.9,314.6,205.9z"/>
			<path fill="#B9CBED" d="M314.6,210h-16.8c-0.4,0-0.7-0.3-0.7-0.7c0-0.4,0.3-0.7,0.7-0.7h16.8c0.4,0,0.7,0.3,0.7,0.7
				C315.2,209.7,314.9,210,314.6,210z"/>
			<path fill="#B9CBED" d="M314.6,214.1h-16.8c-0.4,0-0.7-0.3-0.7-0.7c0-0.4,0.3-0.7,0.7-0.7h16.8c0.4,0,0.7,0.3,0.7,0.7
				C315.2,213.8,314.9,214.1,314.6,214.1z"/>
			<path fill="#B9CBED" d="M314.6,218.2h-16.8c-0.4,0-0.7-0.3-0.7-0.7c0-0.4,0.3-0.7,0.7-0.7h16.8c0.4,0,0.7,0.3,0.7,0.7
				C315.2,217.9,314.9,218.2,314.6,218.2z"/>
			<path fill="#B9CBED" d="M314.6,222.3h-16.8c-0.4,0-0.7-0.3-0.7-0.7c0-0.4,0.3-0.7,0.7-0.7h16.8c0.4,0,0.7,0.3,0.7,0.7
				C315.2,222,314.9,222.3,314.6,222.3z"/>
			<path fill="#B9CBED" d="M314.6,226.4h-16.8c-0.4,0-0.7-0.3-0.7-0.7c0-0.4,0.3-0.7,0.7-0.7h16.8c0.4,0,0.7,0.3,0.7,0.7
				C315.2,226.1,314.9,226.4,314.6,226.4z"/>
		</g>
		<path fill="#FFFFFF" d="M300.8,192.9c0,0.8-0.6,1.4-1.4,1.4s-1.4-0.6-1.4-1.4s0.6-1.4,1.4-1.4S300.8,192.1,300.8,192.9z"/>
		<path fill="#FFFFFF" d="M314.2,197.1c0,0.8-0.6,1.4-1.4,1.4s-1.4-0.6-1.4-1.4s0.6-1.4,1.4-1.4S314.2,196.3,314.2,197.1z"/>
		<path fill="#FFFFFF" d="M303.3,201.2c0,0.8-0.6,1.4-1.4,1.4s-1.4-0.6-1.4-1.4s0.6-1.4,1.4-1.4S303.3,200.4,303.3,201.2z"/>
		<path fill="#000543" d="M316.9,190.2v-0.6c0-0.9-0.8-1.7-1.7-1.7h-18c-0.9,0-1.7,0.8-1.7,1.7v0.6H316.9z"/>
		<rect x="413.1" y="189.8" fill="#D7E1FC" width="9" height="64.5"/>
		<g>
			<g>
				<rect x="414.2" y="191.2" fill="#B9CBED" width="2.8" height="2.8"/>
				<rect x="418.2" y="191.2" fill="#B9CBED" width="2.8" height="2.8"/>
			</g>
			<g>
				<rect x="414.2" y="195.7" fill="#B9CBED" width="2.8" height="2.8"/>
				<rect x="418.2" y="195.7" fill="#B9CBED" width="2.8" height="2.8"/>
			</g>
			<g>
				<rect x="414.2" y="200.3" fill="#B9CBED" width="2.8" height="2.8"/>
				<rect x="418.2" y="200.3" fill="#B9CBED" width="2.8" height="2.8"/>
			</g>
			<g>
				<rect x="414.2" y="204.9" fill="#B9CBED" width="2.8" height="2.8"/>
				<rect x="418.2" y="204.9" fill="#B9CBED" width="2.8" height="2.8"/>
			</g>
			<g>
				<rect x="414.2" y="209.4" fill="#B9CBED" width="2.8" height="2.8"/>
				<rect x="418.2" y="209.4" fill="#B9CBED" width="2.8" height="2.8"/>
			</g>
			<g>
				<rect x="414.2" y="214" fill="#B9CBED" width="2.8" height="2.8"/>
				<rect x="418.2" y="214" fill="#B9CBED" width="2.8" height="2.8"/>
			</g>
			<g>
				<rect x="414.2" y="218.6" fill="#B9CBED" width="2.8" height="2.8"/>
				<rect x="418.2" y="218.6" fill="#B9CBED" width="2.8" height="2.8"/>
			</g>
			<g>
				<rect x="414.2" y="223.1" fill="#B9CBED" width="2.8" height="2.8"/>
				<rect x="418.2" y="223.1" fill="#B9CBED" width="2.8" height="2.8"/>
			</g>
			<g>
				<rect x="414.2" y="227.7" fill="#B9CBED" width="2.8" height="2.8"/>
				<rect x="418.2" y="227.7" fill="#B9CBED" width="2.8" height="2.8"/>
			</g>
			<g>
				<rect x="414.2" y="232.3" fill="#B9CBED" width="2.8" height="2.8"/>
				<rect x="418.2" y="232.3" fill="#B9CBED" width="2.8" height="2.8"/>
			</g>
			<g>
				<rect x="414.2" y="236.8" fill="#B9CBED" width="2.8" height="2.8"/>
				<rect x="418.2" y="236.8" fill="#B9CBED" width="2.8" height="2.8"/>
			</g>
			<g>
				<rect x="414.2" y="241.4" fill="#B9CBED" width="2.8" height="2.8"/>
				<rect x="418.2" y="241.4" fill="#B9CBED" width="2.8" height="2.8"/>
			</g>
			<g>
				<rect x="414.2" y="246" fill="#B9CBED" width="2.8" height="2.8"/>
				<rect x="418.2" y="246" fill="#B9CBED" width="2.8" height="2.8"/>
			</g>
			<g>
				<rect x="414.2" y="250.5" fill="#B9CBED" width="2.8" height="2.8"/>
				<rect x="418.2" y="250.5" fill="#B9CBED" width="2.8" height="2.8"/>
			</g>
		</g>
		<g>
			<path fill="#D7E1FC" d="M392.3,191.5v7.1c0,0.5,0.4,0.8,0.8,0.8h15.7c0.5,0,0.8-0.4,0.8-0.8v-7.3L392.3,191.5z"/>
			<path fill="#000543" d="M409.7,191.5v-0.4c0-0.5-0.4-0.9-0.9-0.9h-15.6c-0.5,0-0.9,0.4-0.9,0.9v0.4H409.7z"/>
			<path fill="#30B8C6" d="M396.9,193.9c0,1-0.8,1.9-1.9,1.9c-1,0-1.9-0.8-1.9-1.9c0-1,0.8-1.9,1.9-1.9
				C396.1,192,396.9,192.9,396.9,193.9z"/>
			<path fill="#8D6AA3" d="M405,193.9c0,1-0.8,1.9-1.9,1.9c-1,0-1.9-0.8-1.9-1.9c0-1,0.8-1.9,1.9-1.9C404.2,192,405,192.9,405,193.9
				z"/>
			<path fill="#FFFFFF" d="M400.9,196.6c0,1-0.8,1.9-1.9,1.9s-1.9-0.8-1.9-1.9c0-1,0.8-1.9,1.9-1.9S400.9,195.6,400.9,196.6z"/>
			<path fill="#FFBB61" d="M409,196.6c0,1-0.8,1.9-1.9,1.9c-1,0-1.9-0.8-1.9-1.9c0-1,0.8-1.9,1.9-1.9
				C408.1,194.8,409,195.6,409,196.6z"/>
		</g>
		<g>
			<path fill="#30B8C6" d="M422.2,259.6h-12c-0.6,0-1.2,0.5-1.2,1.2v16.4c0,1.4,1.2,2.6,2.6,2.6h9.1c1.4,0,2.6-1.2,2.6-2.6v-16.4
				C423.4,260.1,422.9,259.6,422.2,259.6z"/>
			<g>
				<path fill="#30B8C6" d="M423.1,274.8c-3.1,0-5.7-2.6-5.7-5.7c0-3.1,2.6-5.7,5.7-5.7s5.7,2.6,5.7,5.7
					C428.8,272.2,426.2,274.8,423.1,274.8z M423.1,264c-2.8,0-5.1,2.3-5.1,5.1c0,2.8,2.3,5.1,5.1,5.1c2.8,0,5.1-2.3,5.1-5.1
					C428.1,266.3,425.8,264,423.1,264z"/>
			</g>
		</g>
		<g>
			<path fill="#000543" d="M329.5,248.1c0-1-0.8-1.9-1.9-1.9h-33.3c-0.9,0-1.6,0.7-1.6,1.6v2.3h36.8V248.1z"/>
			<path fill="#D7E1FC" d="M329.5,248h-36.8v7.5c0,0.9,0.7,1.6,1.6,1.6h33.5c0.9,0,1.7-0.8,1.7-1.7V248z"/>
			<g>
				<path fill="#98B5E5" d="M298.2,257.1v-6.2c0-0.6-0.5-1.1-1.1-1.1c-0.6,0-1.1,0.5-1.1,1.1v6.2H298.2z"/>
				<path fill="#98B5E5" d="M318.6,257.1v-5.2c0-0.2-0.2-0.4-0.3-0.4h-1.8c-0.2,0-0.3,0.2-0.3,0.4v5.2H318.6z"/>
				<polygon fill="#98B5E5" points="302.8,251.4 302.8,257.1 304.6,257.1 304.6,249.4 				"/>
				<polygon fill="#98B5E5" points="325.8,251.5 325.3,249.4 324.7,251.5 				"/>
				<polygon fill="#98B5E5" points="324.7,251.7 323.9,254.9 323.9,257.1 326.7,257.1 326.7,254.9 325.9,251.7 				"/>
				<path fill="#98B5E5" d="M301,257.1v-3.6c0-0.3-0.3-0.6-0.6-0.6c-0.3,0-0.6,0.3-0.6,0.6v3.6H301z"/>
				<path fill="#98B5E5" d="M311.1,257.1V255c0-0.3-0.3-0.6-0.6-0.6c-0.3,0-0.6,0.3-0.6,0.6v2.1H311.1z"/>
				<rect x="306.2" y="253.5" fill="#98B5E5" width="1.9" height="3.6"/>
				<polygon fill="#98B5E5" points="306.2,253.4 308.1,253.4 307.2,249.8 				"/>
				<path fill="#98B5E5" d="M322.6,253.6l-0.9-2.6c-0.1-0.3-0.5-0.3-0.6,0l-0.9,2.6c0,0,0,3.5,0,3.5h2.3L322.6,253.6L322.6,253.6z"
					/>
				<polygon fill="#98B5E5" points="312.9,257.1 314.8,257.1 313.9,253.5 				"/>
				<path fill="#98B5E5" d="M301.1,251.4c0,0.7-0.3,1.3-0.7,1.3c-0.4,0-0.7-0.6-0.7-1.3c0-0.7,0.7-1.3,0.7-1.3
					S301.1,250.6,301.1,251.4z"/>
				<path fill="#98B5E5" d="M314.6,252.5c0,1.3-0.3,2.4-0.7,2.4c-0.4,0-0.7-1.1-0.7-2.4c0-1.3,0.7-2.4,0.7-2.4
					S314.6,251.1,314.6,252.5z"/>
				<path fill="#98B5E5" d="M310.6,250.5v2.9h-0.1v-3c-0.2,0.2-0.7,1.1-0.7,2.1c0,1.2,0.3,2.1,0.7,2.1c0.4,0,0.7-0.9,0.7-2.1
					C311.3,251.6,310.8,250.8,310.6,250.5z"/>
				<path fill="#98B5E5" d="M318,251.8h-1.2c-0.2,0-0.4-0.2-0.4-0.4c0-0.2,0.2-0.4,0.4-0.4h1.2c0.2,0,0.4,0.2,0.4,0.4
					C318.4,251.6,318.2,251.8,318,251.8z"/>
				<path fill="#98B5E5" d="M316.9,251.3v-1.6c0-0.3,0.2-0.5,0.5-0.5c0.3,0,0.5,0.2,0.5,0.5v1.6c0,0.2-0.2,0.4-0.4,0.4h-0.2
					C317.1,251.7,316.9,251.5,316.9,251.3z"/>
				<path fill="#98B5E5" d="M317.4,249.7C317.4,249.7,317.3,249.6,317.4,249.7l-0.1-1.3c0,0,0-0.1,0.1-0.1c0,0,0.1,0,0.1,0.1
					L317.4,249.7C317.5,249.6,317.4,249.7,317.4,249.7z"/>
			</g>
		</g>
		<path fill="#B9CBED" d="M380,272.3c-0.6,0-1.2-0.5-1.2-1.2v-19.1c0-0.6,0.5-1.2,1.2-1.2c0.6,0,1.2,0.5,1.2,1.2v19.1
			C381.2,271.8,380.6,272.3,380,272.3z"/>
		<path fill="#FFFFFF" d="M382.3,270.4h-4.7c-0.6,0-1.1,0.5-1.1,1.1v7.2c0,0.6,0.5,1.1,1.1,1.1h4.7c0.6,0,1.1-0.5,1.1-1.1v-7.2
			C383.3,270.9,382.9,270.4,382.3,270.4z"/>
		<g>
			<g>
				<path fill="#000543" d="M298.2,370.4c-1,1.8-2.4,3.3-3.3,5.2c-1.3,2.7-1.3,5.7-2,8.6c-0.5,2.2-1.4,4.2-2,6.3
					c-0.6,2.1-0.8,4.5,0.1,6.5c7.4-13.2,11.8-27.8,18.8-41.1c1.1-2.2,2.3-4.3,3.5-6.4c1.2-2.3,2-5.5-1.1-6.6c-2-0.7-3.2,1-4.2,2.4
					c-3.2,4.9-6.1,9.7-7.2,15.4C300.3,364.1,299.9,367.5,298.2,370.4z"/>
			</g>
			<g>
				<path fill="#000543" d="M351.5,347.6c0.6,0.2,1.3,0.4,1.7,0.9c0.6,0.7,0.5,1.8,0,2.7c-0.4,0.8-1.1,1.5-1.7,2.3
					c-1.5,2.2-1.7,5-1.6,7.6c0.1,2.6,0.4,5.3-0.1,7.9c-0.6,2.8-2.1,5.2-3.2,7.8c-1.1,2.5-1.7,5.3-1.9,8c-0.2,2.2,0,4.5-0.2,6.7
					c-0.3,3.3-1.4,6.7-0.1,9.8c5.9-16.4,11.1-33,16.3-49.7c0.6-1.9,1.2-3.9,0.7-5.8c-0.8-3.4-4.4-5.2-7.8-5.8c-2-0.3-4.2-0.3-6,0.7
					c-1.3,0.8-3.2,3.3-2,4.8C346.4,346.8,350.1,347.2,351.5,347.6z"/>
			</g>
			<g>
				<polygon fill="#FF9985" points="352.1,395.6 347.2,413.5 355.4,414.2 361.9,395.3 				"/>
			</g>
			<g>
				<g>
					<g>
						<path fill="#FFE578" d="M366.9,414.4l-9.9-3.7l-8.9,0.2c-1.1,0-1.9,1-2,2.3l-0.1,5.4l22.8,0.2
							C369.8,417.2,369.3,415.3,366.9,414.4z"/>
					</g>
					<g>
						<path fill="#000543" d="M346,418.5l-0.2,1c-0.1,0.6,0.5,1.2,1.4,1.2l17.7-0.1c1.9,0,3.3-0.8,4-1.9L346,418.5z"/>
					</g>
					<g>
						<path fill="#000543" d="M357.6,413.7l-0.7-0.2c-0.1,0-0.2-0.2-0.2-0.4l0.8-3.4c0-0.2,0.2-0.2,0.3-0.2l0.7,0.2
							c0.1,0,0.2,0.2,0.2,0.4l-0.8,3.4C357.9,413.7,357.8,413.8,357.6,413.7z"/>
					</g>
					<g>
						<path fill="#000543" d="M360.3,414.5l-0.7-0.2c-0.1,0-0.2-0.2-0.2-0.4l0.8-3.4c0-0.2,0.2-0.2,0.3-0.2l0.7,0.2
							c0.1,0,0.2,0.2,0.2,0.4l-0.8,3.4C360.5,414.5,360.4,414.6,360.3,414.5z"/>
					</g>
					<g>
						<path fill="#000543" d="M362.7,415.5l-0.7-0.2c-0.1,0-0.2-0.2-0.2-0.4l0.8-3.4c0-0.2,0.2-0.2,0.3-0.2l0.7,0.2
							c0.1,0,0.2,0.2,0.2,0.4l-0.8,3.4C363,415.4,362.9,415.5,362.7,415.5z"/>
					</g>
				</g>
				<g>
					<path fill="#000543" d="M351.2,418.1l-3.2,0.1c-0.2,0-0.3-0.1-0.3-0.3l0-0.7c0-0.2,0.1-0.3,0.3-0.3l3.2-0.1
						c0.2,0,0.3,0.1,0.3,0.3l0,0.7C351.5,417.9,351.3,418.1,351.2,418.1z"/>
				</g>
			</g>
			<g>
				<polygon fill="#FF9985" points="296.3,394.5 290.7,411.9 298.9,413.5 306,395.3 				"/>
			</g>
			<g>
				<path fill="#FF9985" d="M391.8,280.4H406c-2.6-6.5-11.6-6-11.6-6L391.8,280.4z"/>
			</g>
			<g>
				<polygon fill="#C2D1F2" points="231.1,420.6 243.9,280.3 240.3,280.3 227.5,420.6 				"/>
			</g>
			<g>
				<g>
					<path fill="#FF9985" d="M320.4,220.7c5.2-1.4,8.9-5.3,10.2-10.4c0.1-0.1,0.1-0.2,0.2-0.3c-0.7-0.7-1.3-1.7-1.5-2.9
						c-0.3-2.2,0.7-4.1,2.4-4.3c0.6-0.1,1.2,0.2,1.7,0.5c0.4,0.3,0.7,0.7,1,1.1c0.3-0.1,0.4-1.1,0.4-1.4c0-0.7-0.1-1.3-0.1-2
						c0-1,0.5-2.1,1-3.3l1.3,10.2c0.3,3.6-1.2,6.9-3.7,9.3c-1.1,1.1-2.5,2-3.9,2.6c-0.7,1.4-1.2,2.9-1.7,4.5
						c-0.4,1.5-1.2,3.6-2.6,5.4c-0.5,0.6-0.9-0.7-1.7-0.6c-5,0.6-10.7-0.5-10.8-1.3c0-0.2,1.9-2.7,2.1-2.9c1-1.3,2.1-3.8,2.6-5.2
						C318.4,220.2,319,221.1,320.4,220.7z"/>
				</g>
				<g>
					<path fill="#000543" d="M310,212.4c0,0.2,0.1,0.3,0.2,0.5c0.3,1.8-0.5,3.9,0.7,5.3c0.7,0.9,2,1.1,3.2,1.1
						c1.1,0,2.4-0.1,3.4,0.4c0.6,0.3,1.1,0.8,1.7,1c0.4,0.2,0.9,0.1,1.3,0c0.2,0,0.3-0.1,0.4-0.1c7-2.1,9.2-7.8,9.8-10.3
						c0.1-0.1,0.1-0.2,0.2-0.3c-0.7-0.7-1.3-1.7-1.5-2.9c-0.3-2.2,0.7-4.1,2.4-4.3c0.6-0.1,1.2,0.2,1.7,0.5c0.4,0.3,0.7,0.7,1,1.1
						c0.3-0.1,0.4-1.1,0.4-1.4c0-0.7-0.1-1.3-0.1-2c0-1,0.5-2.1,1-3.3c0.4-1,0.9-2,1-2.7c0.5-2.3,0.1-5.7-1.2-7.7
						c-1.3-2-4.3-1.6-6.7-1.9c-0.8-0.1-1.7-0.1-2.5-0.5c-0.7-0.3-1.2-0.9-1.8-1.3c-1.2-0.8-2.8-0.7-4.2-0.3c-0.1,0-0.1,0.1-0.2,0.1
						c-1.3,0.4-2.5,1.1-3.7,1.8c-2,1-4.1,1.8-5.8,3.1c-0.7,0.5-1.3,1.1-1.7,1.8c-0.7,1-1.1,2.1-1.1,3.3c-0.3,0.2-0.5,0.4-0.7,0.7
						c-1.3,1.4-2.1,3.4-2.3,5.3c0,0.4,0,0.8,0,1.2c0.1,2.7,1.2,5.4,2.8,7.6C308.5,209.6,309.6,210.9,310,212.4L310,212.4z"/>
				</g>
			</g>
			<g>
				<path fill="#FFFFFF" d="M337.5,268.2c0,0-12.1-13.8-14.6-19.6c0,0-3.3-7.8-3.3-7.8c-4.8-11.5,16.3-11.2,21.2,0.3
					c2.3,5.4,5.4,11.1,8.5,15.8l0.1-0.1l1.8,1.9c7.9,8.5,28.6,10.4,41.3,11.2c1.6,0.1,2.7,1.5,2.6,3l-0.5,5
					c-0.1,1.4-1.4,2.5-2.8,2.5C347.3,279.2,345.8,274.8,337.5,268.2z"/>
			</g>
			<g>
				<path fill="#000543" d="M317.7,321l0.7,2.9c-1.2,5.5-5.4,15.1-10.3,26.3c-5.4,12.4-12.2,27.8-17.1,43c-0.6,1.7-0.3,3.6,0.7,5.1
					c1,1.5,2.5,2.5,4.3,2.7c0,0,0.1,0,0.1,0l11.2,1.2c2.6,0.3,5-1.1,6.1-3.5c8.7-19.2,15.8-32.7,21.5-43.6c4.9-9.4,8.4-16.1,10.6-22
					l0.6-1.5L317.7,321z"/>
			</g>
			<g>
				<path fill="#000543" d="M376.7,319.4l-0.7,1.5l0.6-1.5c-23.1-10.4-61.7-7-77.3-5l-1.7,0.2l0,0.2c-1.9,0.3-5.6,0.7-9.3,1
					l-2.9,34.3c5.6-0.3,12.5-1.1,20.1-2.1c14.8-1.8,32.8-4,48.2-2.7c1.4,0.1,2.4,1.5,2,2.9c-0.5,2-1.1,4.1-1.7,6.2
					c-3.5,12.8-7.8,28.8-10.3,44.1c-0.2,1.3,0.1,2.6,0.9,3.5c0.8,0.9,2,1.4,3.2,1.4c0,0,0.1,0,0.1,0l11.5-0.4c2.2-0.1,4.4-1.6,5-3.7
					c7.4-26,15.7-48.6,19.5-59.8C386.7,331.2,384.3,322.8,376.7,319.4z"/>
			</g>
			<g>
				<g>
					<path fill="#FFFFFF" d="M341.1,252.6c1.9-4.8-0.9-19.7-9.3-23.3c-6.8-2.9-27.5-4.6-34.6,1.7c-13.2,11.7-12.7,18.8-20.8,32.3
						c-12.4,21.1-2.2,22.6-28.6,61.6c-1.1,1.6-2.8,5.5-2.1,6.6c3.3,5.5,11,5.7,19.1,5.9c7.6,0.2,39.6-7.3,39.6-7.3
						c6.9-1.5,13.8-6.6,16.3-11.8c2.8-5.9,5.5-12.4,5.1-16.2C321.7,263,333.4,272.7,341.1,252.6z"/>
				</g>
			</g>
			<g>
				<g>
					<path fill="#C2D1F2" d="M391.8,280.8c-38.9-1-45-4.5-51.9-10.1c-1.9-1.6-3.6-3.2-5.1-5c-2-2.4-5-6-7.5-9.4l0.6-0.5
						c2.5,3.4,5.5,7,7.5,9.4c1.5,1.7,3.2,3.4,5,4.9c6.7,5.5,12.7,8.9,51.4,9.9L391.8,280.8z"/>
				</g>
			</g>
			<g>
				<g>
					<g>
						<path fill="#FFE578" d="M308.9,414.6l-9.9-3.8l-8.9,0.1c-1.1,0-1.9,1-2,2.2l-0.2,5.4l22.8,0.5
							C311.8,417.5,311.3,415.5,308.9,414.6z"/>
					</g>
					<g>
						<path fill="#000543" d="M288,418.5l-0.2,1c-0.2,0.6,0.5,1.2,1.3,1.2l17.7,0.1c1.9,0,3.3-0.8,4-1.8L288,418.5z"/>
					</g>
					<g>
						<path fill="#000543" d="M299.7,413.8l-0.7-0.2c-0.1,0-0.2-0.2-0.2-0.4l0.9-3.4c0-0.2,0.2-0.2,0.3-0.2l0.7,0.2
							c0.1,0,0.2,0.2,0.2,0.4l-0.9,3.4C300,413.8,299.8,413.9,299.7,413.8z"/>
					</g>
					<g>
						<path fill="#000543" d="M302.3,414.7l-0.7-0.2c-0.1,0-0.2-0.2-0.2-0.4l0.9-3.4c0-0.2,0.2-0.2,0.3-0.2l0.7,0.2
							c0.1,0,0.2,0.2,0.2,0.4l-0.9,3.4C302.6,414.6,302.4,414.7,302.3,414.7z"/>
					</g>
					<g>
						<path fill="#000543" d="M304.8,415.6l-0.7-0.2c-0.1,0-0.2-0.2-0.2-0.4l0.9-3.4c0-0.2,0.2-0.2,0.3-0.2l0.7,0.2
							c0.1,0,0.2,0.2,0.2,0.4l-0.9,3.4C305.1,415.6,304.9,415.7,304.8,415.6z"/>
					</g>
				</g>
				<g>
					<path fill="#000543" d="M293.2,418.1l-3.2,0c-0.2,0-0.3-0.1-0.3-0.3l0-0.7c0-0.2,0.1-0.3,0.3-0.3l3.2,0c0.2,0,0.3,0.1,0.3,0.3
						l0,0.7C293.5,418,293.4,418.1,293.2,418.1z"/>
				</g>
			</g>
			<g>
				<g>
					<g>
						<path fill="#FFE578" d="M333.7,336H328c-18.5,0-38.8-11.3-41.4-29.6l-3.5-61.3c-0.6-4.2-2.2-8.3-4.8-11.6c0,0,0-0.1-0.1-0.1
							c-3.1-4-11.1-5.9-13.5-10.4c-2.7-5.3-2.4-14.8-6.1-19.3c-3.9-4.8-8.2-5.9-15.1-5.9c-4.6,0-9.9,1.2-12.3,5.2
							c-3.4,5.5,0.8,13.1-1.6,19.1c-1.7,4.4-6.5,6.8-9,10.8c-1.8,3-2.5,6.5-2.5,10l15.4,64.5c0.7,3-5.6,42.9,29.1,42.9h70.8V336z"/>
					</g>
				</g>
				<g>
					<g>
						<path fill="#FFBB61" d="M347.7,341.7c-0.6-3.4-3.3-5.7-6.2-5.7h-20.6c-18.5,0-38.8-11.3-41.4-29.6l-3.5-61.3
							c-0.6-4.2-2.2-8.3-4.8-11.6c0,0,0-0.1-0.1-0.1c-3.1-4-11.1-5.9-13.5-10.4c-2.7-5.3-2.4-14.8-6.1-19.3
							c-3.9-4.8-8.2-5.9-15.1-5.9c-4.6,0-9.9,1.2-12.3,5.2c-3.4,5.5,0.8,13.1-1.6,19.1c-1.7,4.4-6.5,6.8-9,10.8
							c-1.8,3-2.5,6.5-2.5,10l15.4,64.5c0.7,3-5.6,42.9,29.1,42.9h86.1C345.5,350.2,348.5,346.2,347.7,341.7z"/>
					</g>
				</g>
			</g>
			<g>
				<g>
					<rect x="283" y="385.3" fill="#26182D" width="4.8" height="26.1"/>
				</g>
				<g>
					<path fill="#6A4C7A" d="M285.4,391.2c-3.2,0-5.8-2.6-5.8-5.8v-33h11.5v33C291.1,388.6,288.6,391.2,285.4,391.2z"/>
				</g>
				<g>
					<path fill="#FFBB61" d="M303.8,354.2h-36.9c-2,0-3.7-1.7-3.7-3.7s1.7-3.7,3.7-3.7h36.9c2,0,3.7,1.7,3.7,3.7
						S305.8,354.2,303.8,354.2z"/>
				</g>
				<g>
					<path fill="#6A4C7A" d="M323.2,417.7c-0.6,0-1-0.5-1-1c0-2.3-1.9-4.2-4.2-4.2h-65.2c-2.3,0-4.2,1.9-4.2,4.2c0,0.6-0.5,1-1,1
						c-0.6,0-1-0.5-1-1c0-3.5,2.8-6.3,6.3-6.3H318c3.5,0,6.3,2.8,6.3,6.3C324.3,417.2,323.8,417.7,323.2,417.7z"/>
				</g>
			</g>
			<g>
				<path fill="#26182D" d="M326.8,417.1c0,2-1.6,3.6-3.6,3.6c-2,0-3.6-1.6-3.6-3.6c0-2,1.6-3.6,3.6-3.6
					C325.2,413.5,326.8,415.1,326.8,417.1z"/>
			</g>
			<g>
				<circle fill="#26182D" cx="247.5" cy="417.1" r="3.6"/>
			</g>
			<g>
				<g>
					<ellipse fill="#A5BDE5" cx="332" cy="206.8" rx="4.2" ry="6.4"/>
				</g>
			</g>
			<g>
				<rect x="331.8" y="200.4" fill="#A5BDE5" width="3" height="1.4"/>
			</g>
			<g>
				<rect x="331.8" y="211.8" fill="#A5BDE5" width="3" height="1.4"/>
			</g>
			<g>
				<path fill="#FFFFFF" d="M335.7,204.3c-0.3,0-0.5-0.2-0.4-0.5c0.6-7.5-1.7-12.1-3.8-14.6c-2.2-2.7-4.7-3.6-4.7-3.6
					c-0.2-0.1-0.4-0.3-0.3-0.6c0.1-0.2,0.3-0.4,0.6-0.3c0.1,0,2.6,1,5,3.8c2.2,2.6,4.7,7.4,4,15.3
					C336.2,204.1,336,204.3,335.7,204.3z"/>
			</g>
			<g>
				<g>
					<path fill="#A5BDE5" d="M405.2,415.3c-4,0-8-0.3-11.9-1.3c-6.8-1.8-12.1-6.1-14.3-11.3c-1.6-3.8-1.8-8.5-0.6-14.4
						c1.9-9.3,6.3-18.2,10.5-26.7c5.4-10.8,10.9-21.9,11.2-34c0.2-5.1-0.8-9.5-2.7-12.9c-2.9-5.2-8.6-9-17-11.5
						c-2.4-0.7-5-1.3-7.4-1.9c-4.4-1-9-2.1-13.2-3.9c-13.3-5.8-23.4-19.8-27-37.3c-3.2-15.7-1.3-31.8,0.5-47.4l0.9,0.1
						c-1.8,15.5-3.7,31.5-0.5,47.1c3.5,17.2,13.4,31,26.5,36.7c4.1,1.8,8.7,2.9,13,3.9c2.5,0.6,5,1.2,7.5,1.9
						c8.6,2.5,14.5,6.5,17.5,11.9c2,3.5,2.9,8,2.8,13.3c-0.4,12.3-5.9,23.5-11.3,34.4c-4.2,8.5-8.5,17.2-10.5,26.4
						c-1.2,5.7-1,10.2,0.6,13.9c2.1,5,7.3,9,13.8,10.8c5.9,1.6,12.2,1.4,18.3,1.1l0,0.9C409.7,415.2,407.4,415.3,405.2,415.3z"/>
				</g>
			</g>
			<g>
				<path fill="#C2D1F2" d="M413.1,416.1H411c-0.8,0-1.4-0.6-1.4-1.4c0-0.8,0.6-1.4,1.4-1.4h2.1c0.8,0,1.4,0.6,1.4,1.4
					C414.5,415.5,413.9,416.1,413.1,416.1z"/>
			</g>
			<g>
				<ellipse fill="#FFFFFF" cx="334.6" cy="206.8" rx="4.2" ry="6.4"/>
			</g>
		</g>
		<g>
			<g>
				<path fill="#000543" d="M478.4,420.9l4-1.4c4.5,3.3,11.5,2,14.2-2.4c0,0,0.1,7.5,0.1,7.5c0.1,0.5-0.4,0.9-1.1,0.9l-15.3,0.2
					C476.2,425.7,474.8,422.1,478.4,420.9z"/>
				<path fill="#FF9985" d="M482.3,419.4l10.2-3.7c0.5-0.2,3-0.2,4,1.2C493.8,421.5,486.8,422.7,482.3,419.4z"/>
			</g>
			<g>
				<path fill="#FF9985" d="M513.1,194c-1.5-3.7-4.3-6.4-7.6-6.1c1.7,2.4,2.6,5.3,2.5,8.2c-0.2,5-0.8,9.4-2.1,15.7
					c-0.2,1-0.4,2-0.7,3.1c2.9,9.7,5.2,19.6,6.5,29.6c0.2,1.8,0.4,3.5,0.6,5.3c0.4,3.7,0.6,7.3,0.7,10.9c0.5,1.3,1,2.6,1.5,4
					c1.3,3.9,2.3,7.8,2.9,11.7c0.3,2-0.7,4-2.5,4.9c-0.8,0.4-1.7,0.9-2.8,1.3l4.8,1.1C521.7,255.1,524,221.4,513.1,194z"/>
				<path fill="#000543" d="M492.5,133c1-0.9,2.1-1.6,2.8-2.7c0.6-1,0.9-2.1,1.4-3.1c0.5-1,1.6-1.9,2.6-1.5c0.4,0.2,0.7,0.6,1.2,0.8
					c1.2,0.5,2.4-1,3.6-1.9c1.3-1,3-1.1,4.3-0.4c0.9,0.5,1.8,1.5,2.9,1.3c0.8-0.2,1.6-1.2,2.4-1.1c1.2,0.1,1.4,2.2,2.4,2.9
					c0.7,0.5,1.7,0.2,2.6,0.2c1.6,0,3.2,1.2,3.7,2.9c0.3,0.9,0.3,2,0.9,2.7c0.7,1,2.1,1.1,2.6,2.2c1.1,2.2-1.4,3.8-2.4,6.1
					c-1.3,2.8-0.1,6.8-2.3,8.7c-0.5,0.4-1.2,0.7-1.5,1.4c-0.3,0.7,0,1.5-0.3,2.2c-0.4,1.3-2.1,1.5-3.1,2.4c-0.1,0.1-0.5,0.7-0.5,0.8
					c-4.6,6.5-11.2,9.9-16.4,7.6c-4.3-1.9-6.7-7.1-6.6-13.4c-0.1,0-0.1,0-0.2-0.1c-1.3-0.9-1.9-2.3-2.2-4c-0.5-3.1,1.7-5,1.6-7.6
					c0-1-0.8-1.8-1-2.8C490.7,135.1,491.5,133.9,492.5,133z"/>
				<g>
					<path fill="#FF9985" d="M496.6,415c-1.5-16.5-4-41.8-8-75.3h-16.8c2.1,17.5,12.1,52.9,16.4,75.5c0.6,3.3,0.1,4.5,3.8,4.5
						C495.7,419.7,496.9,418.3,496.6,415z"/>
				</g>
				<g>
					<path fill="#FF9985" d="M511.2,416.5c0.7-16.5,1.7-42,2.2-75.6l-16.7-2.1c-0.2,17.6,4.8,54,6.1,76.9c0.2,3.3-0.5,4.5,3.1,5
						C509.7,421.1,511.1,419.9,511.2,416.5z"/>
				</g>
				<g>
					<path fill="#FF685A" d="M464,275.6l13.9,0.1h23.3c4.1,0,8.1,0,14.7,0c2.2,2.1,3.5,5.1,3.4,8.1c0.1,5,0.2,9.9,0.3,14.8
						c-0.5,10.6-4.4,19.6-4.2,28.3c0.2,8.2,4,14.7,5.1,22.4c0.4,2.3-1,4.6-3.2,5.5c-2.7,1.1-6.8,2.2-11.1,2.2
						c-13,0-15.9-1.5-19.1-2.8c-0.9-0.4-1.8-0.7-2.9-1c-3.7-1-9.3-0.6-12.2-0.2c-1,0.1-2-0.6-2.1-1.6c-3.3-23.5-7.4-47.2-7.1-70.7
						C462.7,278.8,463.1,277.1,464,275.6z"/>
				</g>
				<g>
					<g>
						<path fill="#FF9985" d="M480.5,150.7l-1.6,12.5c-0.3,3.2,1.2,6.2,3.6,8.4c1.4,1.3,3.1,2.3,4.9,2.8c0.4,0.1,0.7,0.4,0.7,0.8
							c0,0.2,0,0.4-0.1,0.6c-0.3,1.4-0.4,12,0.1,14c0.2,0.7,0.7,0.5,1.4,0.9c2.5,1.6,1.4,2.4,4.3,1.6c0.2-0.1,5.8,0.2,5.9,0
							c0.1-0.2-0.7-10.5-0.8-10.7c-0.3-1.4-0.2-2.6-0.2-4c0-1.1,0.6-2.8,0.4-3.7c-0.1-1-1.6-1.1-2.5-1.4c-0.1,0-0.5-0.1-1-0.3
							l2.5-0.7c0.2-0.7,0.4-1.2,0.5-1.4c1.3-1.7,2.1-3.7,2.3-5.9l0.8-8.8c0.3-3.5-1.1-6.6-3.5-8.8l-16.7,3.8L480.5,150.7z"/>
					</g>
					<path fill="#000543" d="M504.7,167.4c0.2-0.6,0.5-2.7,4.2-4.2c-0.8-3.3-4.7-3.9-5.5-7.1c-0.4,0-0.8-0.2-1.1-0.5
						c-0.6-0.5-0.8-1.5-0.4-2.2c0.1-0.2,0.3-0.4,0.5-0.6c-1.3-3.5-3.2-6.8-6.9-9.4c-0.7-0.5-3.5-1.9-4.3-1.3
						c-1.8,1.3-1.3,0.5-4.8,0.9c-2.2,0.3-5.1-0.1-6.3,1.6c-1.2,1.8-1.6,4.8-1.1,6.9c0.4,1.6,2,3.9,2,5.5c0,0.6-0.3,2.9,0.3,3.1
						c0.2,0,0.3-0.1,0.4-0.3c0.7,1.6,1.9,3.6,3.3,5.5c1.3,4.6,4.9,8.2,9.8,9.5c0.4,0.1,0.8,0.1,1.3,0c1.6-0.5,0.6-1.2,4.8-1.2
						C506.2,173.6,504.1,169.8,504.7,167.4C504.7,167.4,504.7,167.4,504.7,167.4z"/>
					<g>
						<path fill="#FF9985" d="M482.3,159c0.5-0.3,1.1-0.5,1.7-0.5c1.6,0.1,2.6,1.9,2.3,3.9c-0.2,1.6-1.3,2.9-2.5,3.3
							c-0.3,0.1-0.6,0.1-0.8,0.1c-1.6-0.1-2.6-1.9-2.3-3.9C480.8,160.7,481.5,159.6,482.3,159z"/>
					</g>
				</g>
				<g>
					<path fill="#000543" d="M513.2,258.7c-1.1-3.2-0.8-2.2-2.1-5.3c-1.8-4.2-4.2-8.4-5.1-12.9c-1.6-8.1,1.4-15.4,3.6-23.1
						c-1.3-5.4-2.9-10.7-4.7-15.9c-1.5-4.2,1.5-9.4,4.9-10.7c0.5-0.2,1-0.3,1.5-0.4c-1.2-1.8-2.8-3.3-4.7-4.3c0,0-0.1,0-0.1,0
						c-5-2.7-10.7-5.4-15.5-5.1c-2.3-0.1-4.8,0.3-7.2,1.1c-8.8,2.7-14.9,10.5-15,19c-0.3,20.3-0.7,56.8-4.3,67.1
						c-1,2.7-1.5,5.1-1.9,7.5c-0.5,2.8,1.6,5.3,4.5,5.4c0.6,0,1.2,0,1.8,0.1c1.2,0.1,2.6,0.2,4.1,0.5c9.7,1.6,11,5.9,24,5.9
						c7.1,0,12.2-1.2,15.6-2.6l-0.2,0C513.9,277.6,512.9,266,513.2,258.7z"/>
				</g>
				<g>
					<path fill="#000543" d="M504.9,201.4c1.8,5.2,3.3,10.5,4.7,15.9c0.3-1,0.6-2,0.8-3.1c1.6-6.4,2.5-10.7,3-15.7
						c0.3-2.9-0.5-5.8-2-8.1c-0.5,0.1-1,0.2-1.5,0.4C506.5,192,503.5,197.2,504.9,201.4z"/>
				</g>
				<g>
					<path fill="#FF9985" d="M518.9,283.3c-0.3-3.9-1.7-12.6-2.8-16.4c-0.4-1.3-2.7-8.9-3.1-10.1c-0.2,7.4,0.9,20.9-0.5,28.1l0.2,0
						c1.1-0.4,2.1-0.9,2.9-1.3C517.4,282.5,519.1,285.3,518.9,283.3z"/>
				</g>
				<path fill="#FF9985" d="M498.5,254.3c-0.8-1.7-1.5-3.4-2.2-5.1c-6.2-14.9-10.4-30.9-12.7-46.6c-0.7-4.6-5.8-8-9.4-7.5
					c-4.3,0.6-6,4.9-5.3,9.5c4.4,29.7,24,58.9,43.2,82.2l3.9-3.4C509,274.6,503.2,264.7,498.5,254.3z"/>
				<g>
					<path fill="#FF9985" d="M510.9,279.3c-2,3.6,0.4,8.1,3.5,10.8c1,0.9,2.1,1.7,3.4,1.7c1.7,0,3.1-1.4,3.5-3.1
						c0.3-1.6-0.3-3.4-1.2-4.7c-2.2-3-6.3-4.4-9.8-3.3L510.9,279.3z"/>
				</g>
			</g>
			<g>
				<path fill="#000543" d="M493.1,420.9l4-1.4c4.5,3.3,11.5,2,14.2-2.4c0,0,0.1,7.5,0.1,7.5c0.1,0.5-0.4,0.9-1.1,0.9l-15.3,0.2
					C490.9,425.7,489.5,422.1,493.1,420.9z"/>
				<path fill="#FF9985" d="M497,419.4l10.2-3.7c0.5-0.2,3-0.2,4,1.2C508.5,421.5,501.5,422.7,497,419.4z"/>
			</g>
		</g>
	</g>
</g>
</svg>
