<?xml version="1.0" encoding="utf-8"?>
<!-- Generator: Adobe Illustrator 25.4.1, SVG Export Plug-In . SVG Version: 6.00 Build 0)  -->
<svg version="1.1" id="Ñëîé_1" xmlns="http://www.w3.org/2000/svg" xmlns:xlink="http://www.w3.org/1999/xlink" x="0px" y="0px"
	 viewBox="0 0 1458 800" enable-background="new 0 0 1458 800" xml:space="preserve">
<g>
	<rect x="630" y="159.6" fill="#5393C7" width="474.5" height="471.6"/>
	<g>
		<g>
			
				<ellipse transform="matrix(0.9871 -0.1602 0.1602 0.9871 -20.5282 170.1675)" fill="#FFFFFF" cx="1045.2" cy="212.4" rx="29.3" ry="29.3"/>
		</g>
	</g>
	<g>
		<g>
			<path fill="#FFD878" d="M1021.5,633.4c-8.1-5.3-15.6-10.9-22.4-16.8c4.7-2.4,9.3-4.7,14-7.1c-14.9-8-33.3-13.6-52.7-16.2
				c5.6-4.7,11.3-9.4,16.9-14c-9.4-3.2-18.9-6.4-28.3-9.6c17.8-5.5,35.6-11.1,53.5-16.6c-49.6-16.6-89.5-43.5-111.3-75
				c39.4,14.9,84.9,24,131.4,26.2c-38.2-19-69.2-43.2-89.8-70.3c30.7,12,61.4,24.1,92.1,36.1c-21.6-24.6-35.8-51.5-41.7-79
				c24.2,19.9,48.3,39.7,72.5,59.6c-14.3-46.4-28.6-92.8-42.9-139.3c8.7,23.8,48.5,50.8,63.7,74.7c13.8,21.7,23.8,44,31,66.7v180.8
				H1021.5z"/>
		</g>
	</g>
	<g>
		<g>
			<path fill="#FFD878" d="M678.5,631.2H630V589c5.8,8.2,10,17.5,12.2,27.3c0.6-14.9,1.1-29.8,1.7-44.7
				c11.3,14.3,13.7,33.5,15.6,51.7c-1.1-28.2,3.7-56.5,14-82.8c4-10.3,8.9-20.5,9.5-31.5c8.1,39.2,6.7,80.4-3.7,119
				C679.1,628.9,678.8,630,678.5,631.2z"/>
		</g>
	</g>
	<g>
		<g>
			<g>
				<g>
					
						<rect x="598.9" y="182.8" transform="matrix(1 -8.733103e-03 8.733103e-03 1 -3.7146 5.2654)" fill="#452A51" width="4.3" height="490.3"/>
				</g>
			</g>
		</g>
		<g>
			<g>
				<g>
					<g>
						<path fill="#776087" d="M615.4,243.1l-1.8-2.5l-0.2-0.3l0.2,0.3l-1-1.4l2.5,9.4l-2.1-7.7c-0.3-1.1-0.8-2.2-1.5-3.1l-0.8-1.1
							l1.8,2.5l-15-55.3l-0.1,0.1l-3.7,79.9c0,0.9,0,1.8,0.2,2.6l15.6,67.8c1.8,7.9,11.9,10.2,17,4l32.5-39.9l-45.7-57.8
							L615.4,243.1z"/>
					</g>
				</g>
			</g>
			<polygon fill="#614870" points="660.4,160.5 599.4,182 597.8,183.7 597.6,183.9 612.6,239.2 613.6,240.6 659.2,298.4 
				660.5,296.8 692.6,228.3 724.7,159.8 724.9,158.6 			"/>
			<g>
				<g>
					<g>
						<path fill="#452A51" d="M661.5,118.3L599.4,182l61-21.6l-8.7,0.2l8.7-0.2l2.3-0.8l-2.3,0.8l64.5-1.8l10.4-57
							c1.1-6.1-4.9-11.1-10.7-8.7L661.5,118.3z"/>
					</g>
				</g>
			</g>
		</g>
	</g>
	<g>
		<g>
			
				<rect x="642.4" y="631.3" transform="matrix(-1 -1.224647e-16 1.224647e-16 -1 1292.0728 1283.9246)" fill="#000543" width="7.2" height="21.4"/>
		</g>
	</g>
	<g>
		<g>
			<g>
				<path fill="#452A51" d="M1166.8,665l20,22.8c0.9,1,0.8,2.5-0.2,3.4c-1,0.9-2.5,0.8-3.4-0.2l-22.8-26H1166.8z"/>
				<path fill="#452A51" d="M1189.8,701.8l-7.6-8.7c-1.5-1.7-1.3-4.4,0.4-5.9c1.7-1.5,4.4-1.3,5.9,0.4l7.6,8.7
					c1.5,1.7,1.3,4.4-0.4,5.9C1194,703.7,1191.3,703.5,1189.8,701.8z"/>
			</g>
			<g>
				<path fill="#452A51" d="M1137.1,668.6l-0.2,21.8c0,1.3-1.1,2.4-2.4,2.4c-1.3,0-2.4-1.1-2.4-2.4l0.2-21.7H1137.1z"/>
				<path fill="#452A51" d="M1129.8,702.8l0.2-11.6c0-2.3,1.9-4.1,4.2-4.1c2.3,0,4.1,1.9,4.1,4.2l-0.2,11.6c0,2.3-1.9,4.1-4.2,4.1
					C1131.6,707,1129.8,705.1,1129.8,702.8z"/>
			</g>
			<g>
				<path fill="#452A51" d="M1098.5,667.8l-20,22.8c-0.9,1-0.8,2.5,0.2,3.4c1,0.9,2.5,0.8,3.4-0.2l22.8-26H1098.5z"/>
				<path fill="#452A51" d="M1075.4,704.6l7.6-8.7c1.5-1.7,1.3-4.4-0.4-5.9c-1.7-1.5-4.4-1.3-5.9,0.4l-7.6,8.7
					c-1.5,1.7-1.3,4.4,0.4,5.9C1071.3,706.5,1073.9,706.3,1075.4,704.6z"/>
			</g>
			<path fill="#452A51" d="M1096.2,669.8c0-0.1,0-0.1,0-0.1c0-3.2,2.6-5.8,5.8-5.8h63.6c3.2,0,5.8,2.6,5.8,5.8c0,0.1,0,0.1,0,0.1
				H1096.2z"/>
		</g>
		<rect x="1132.8" y="357.5" fill="#452A51" width="4.2" height="309.5"/>
		<g>
			<g>
				<path fill="#452A51" d="M1063.5,265.1h151.1l-25.9,131.1h-151.1c-6.1,0-10-4.9-8.8-11l21.5-109.1
					C1051.6,270,1057.5,265.1,1063.5,265.1z"/>
				<path fill="#614870" d="M1058.5,396.4h153.3c4.7,0,9.3-3.8,10.2-8.5l22.6-114.6c0.9-4.7-2.2-8.5-6.8-8.5h-153.3
					c-4.7,0-9.3,3.8-10.2,8.5l-22.6,114.6C1050.7,392.6,1053.8,396.4,1058.5,396.4z"/>
			</g>
			<g>
				<path fill="#452A51" d="M1100.6,292.8h84.9l-14.5,73.6H1086c-3.4,0-5.6-2.8-5-6.2l12.1-61.3
					C1093.8,295.6,1097.1,292.8,1100.6,292.8z"/>
				<path fill="#776087" d="M1097.7,366.6h86.1c2.6,0,5.2-2.2,5.7-4.8l12.7-64.4c0.5-2.6-1.2-4.8-3.8-4.8h-86.1
					c-2.6,0-5.2,2.2-5.7,4.8l-12.7,64.4C1093.4,364.5,1095.1,366.6,1097.7,366.6z"/>
			</g>
		</g>
	</g>
	<g>
		<g>
			<g>
				<path fill="#FF9985" d="M1110.7,319c-7-6.8-10.4-10.2-12-12.1l-4.5,5c2.7,3.9,6.3,8.7,10.4,14L1110.7,319z"/>
			</g>
			<path fill="#FF9985" d="M1094.4,298.9c-0.2-0.2-0.5-0.5-0.9-0.5c-0.6,0-1,0.8-0.8,1.5c0.1,0.6,0.6,1.1,0.9,1.6
				c0.3,0.5,0.5,1.2,0.2,1.8c-1.9-0.4-3.6-1.4-5-2.8c-0.5-0.5-0.9-1-1.4-1.4c-0.9-0.5-2-0.5-3.1-0.4c-0.9,0.1-1.9,0.1-2.5,0.8
				c-0.4,0.4-0.6,1-0.8,1.6c-0.7,2.1-1,4.5,0,6.3c0.7,1.3,1.9,2.1,3.1,2.7c2.8,1.5,5.8,2.6,8.9,3.2c1.4,0.3,3,0.4,4.1-0.6
				c1.8-1.5,2.8-4.9,1.9-6.9C1097.7,303.3,1096.2,300.8,1094.4,298.9z"/>
		</g>
		<path fill="#FF9985" d="M1284.4,682.9c1.6,13.3-5.3,22.4-11.8,11.2c-2.1-3.7-4.4-12.4-6.4-19.6c-0.2-0.8-0.4-1.6-0.7-2.4l17-1.6
			C1283.3,674.7,1283.9,678.9,1284.4,682.9z"/>
		<path fill="#341A41" d="M1207.2,470.9c-0.1-0.4-0.1-0.8-0.1-1.5l-0.2-4.9l52.7-6.7l6.1-0.4l0.2,5.5c0,0.4,0,1,0,1.4
			c-1.5,26.6,5.1,67.4,2.6,110.3c-2.6,46.4,8.5,63.8,17.4,92.1c1.3,4-1.6,8.3-6.2,9.4l-17.4,3.9c-4.3,1-8.5-1.2-9.7-5
			c-11.8-38.9-25.4-67.6-29-111.4C1220.5,526.2,1210,494.7,1207.2,470.9z"/>
		<path fill="#FF9985" d="M1197.9,679.9l14.3-0.7c0.1,0.7,0.1,1.4,0.1,2.1c0.1,2.2,0.5,8.9,0.4,10.7l-13.2,1.5
			C1199.2,690.8,1198.2,682.6,1197.9,679.9z"/>
		<path fill="#F7C6A4" d="M1181.4,698.6l28.4-9.6c1.4-0.5,3.1,0,3.4,1l4.6,15.6c0.3,0.9-0.8,1.8-2.3,1.8l-30.5,0.3
			C1177,707.8,1174.3,701,1181.4,698.6z"/>
		<path fill="#291D2E" d="M1197.6,697.3l0.4-0.1c0.4-0.1,0.7-0.6,0.5-1l-1.3-4.3c-0.1-0.4-0.6-0.7-1-0.5l-0.4,0.1
			c-0.4,0.1-0.7,0.6-0.5,1l1.3,4.3C1196.7,697.2,1197.2,697.4,1197.6,697.3z"/>
		<path fill="#291D2E" d="M1193.1,698.6l0.4-0.1c0.4-0.1,0.7-0.6,0.5-1l-1.3-4.3c-0.1-0.4-0.6-0.7-1-0.5l-0.4,0.1
			c-0.4,0.1-0.7,0.6-0.5,1l1.3,4.3C1192.3,698.5,1192.7,698.7,1193.1,698.6z"/>
		<path fill="#291D2E" d="M1188.9,700l0.4-0.1c0.4-0.1,0.7-0.6,0.5-1l-1.3-4.3c-0.1-0.4-0.6-0.7-1-0.5l-0.4,0.1
			c-0.4,0.1-0.7,0.6-0.5,1l1.3,4.3C1188,699.9,1188.5,700.1,1188.9,700z"/>
		<path fill="#F7C6A4" d="M1253.4,697.2l28.4-9.6c1.4-0.5,3.1,0,3.4,1l4.6,15.6c0.3,0.9-0.8,1.8-2.3,1.8l-30.5,0.3
			C1249,706.4,1246.3,699.6,1253.4,697.2z"/>
		<path fill="#291D2E" d="M1269.6,695.9l0.4-0.1c0.4-0.1,0.7-0.6,0.5-1l-1.3-4.3c-0.1-0.4-0.6-0.7-1-0.5l-0.4,0.1
			c-0.4,0.1-0.7,0.6-0.5,1l1.3,4.3C1268.7,695.8,1269.2,696.1,1269.6,695.9z"/>
		<path fill="#291D2E" d="M1265.1,697.2l0.4-0.1c0.4-0.1,0.7-0.6,0.5-1l-1.3-4.3c-0.1-0.4-0.6-0.7-1-0.5l-0.4,0.1
			c-0.4,0.1-0.7,0.6-0.5,1l1.3,4.3C1264.3,697.1,1264.7,697.3,1265.1,697.2z"/>
		<path fill="#291D2E" d="M1260.9,698.6l0.4-0.1c0.4-0.1,0.7-0.6,0.5-1l-1.3-4.3c-0.1-0.4-0.6-0.7-1-0.5l-0.4,0.1
			c-0.4,0.1-0.7,0.6-0.5,1l1.3,4.3C1260,698.5,1260.5,698.8,1260.9,698.6z"/>
		<path fill="#341A41" d="M1165.6,467c0-0.4,0-0.8,0.1-1.5l0.3-4.9l53.1-0.8l6.1,0.2l-0.4,5.5c0,0.4-0.1,1-0.2,1.4
			c-4.6,26.7-19.8,42.8-9.6,112.3c4.5,30.5,1.6,62.8,7.1,91.1c0.8,4.2-2.5,8.1-7.2,8.6l-17.7,2c-4.4,0.5-8.3-2.2-9.1-6
			C1172.8,592.1,1165.9,513.3,1165.6,467z"/>
		<g>
			<path fill="#0E0613" d="M1221.4,671.1c-3-15.6-3.7-30.7-4.4-46.7c-0.8-18-1.6-36.7-5.7-58.9c-4.4-23.8-0.9-46.7,2.1-66.9
				c0.6-4.1,1.2-8.1,1.7-11.8l0.1-0.7l0.7,0c0.2,0,15.7,0.2,23.2-5.7l1,1.3c-7.1,5.6-20.3,6.1-23.5,6.1c-0.5,3.6-1,7.3-1.6,11.2
				c-3,20.1-6.5,42.8-2.2,66.3c4.1,22.3,4.9,41,5.7,59.1c0.7,16,1.3,31.1,4.3,46.5L1221.4,671.1z"/>
		</g>
		<g>
			<path fill="#FF9985" d="M1211.6,283.3c-0.3,0-0.5-0.1-0.8-0.2c-12.4-2.2-17.3-11.4-19-15.6c-0.1-0.2-0.3-0.3-0.4-0.5
				c1.1-1.3,1.9-3.2,1.9-5.3c0.1-3.9-2.1-6.9-4.9-6.8c-1.1,0-2,0.5-2.9,1.3c-0.6,0.5-1.1,1.3-1.5,2.1c-0.6-0.1-0.9-1.9-1-2.3
				c-0.2-1.1-0.1-2.3-0.2-3.4c-0.2-1.6-1.3-3.6-2.4-5.5l-0.2,17.8c0.2,6.2,3.5,11.6,8.2,15.1c2.2,1.7,4.7,2.9,7.3,3.7
				c1.5,2.3,7.3,16.1,10,18.9c1,1,2.8-1.8,4.2-1.8c5.4,0,12.3,0.5,15.8-3.6c1.2-1.5-6.4-16.5-7.2-18.3
				C1216.6,280.2,1214,283.6,1211.6,283.3z"/>
			<path fill="#000543" d="M1227.7,266.9c0.4-2.7,2.1-5.1,3.5-7.6c2.3-4.1,3.7-8.9,3.3-13.5c-0.1-0.7-0.2-1.4-0.3-2.1
				c-0.7-3.3-2.5-6.4-5-8.6c-0.4-0.4-0.9-0.7-1.4-1c-0.2-2-1.2-3.8-2.6-5.4c-1-1.1-2.1-2-3.4-2.8c-3.3-2-7.1-2.8-10.7-4.2
				c-2.2-0.8-4.5-1.8-6.8-2.2c-0.1,0-0.2-0.1-0.4-0.1c-2.5-0.4-5.2-0.2-7.2,1.4c-1,0.8-1.8,1.9-2.9,2.6c-1.2,0.8-2.8,0.9-4.2,1.3
				c-4,1-9.2,0.9-11.1,4.5c-1.8,3.6-1.9,9.5-0.6,13.4c0.4,1.3,1.4,2.9,2.3,4.5c1.1,1.9,2.2,3.8,2.4,5.5c0.1,1.1,0.1,2.3,0.2,3.4
				c0.1,0.5,0.4,2.2,1,2.3c0.4-0.8,0.9-1.5,1.5-2.1c0.8-0.8,1.8-1.3,2.9-1.3c2.8-0.1,5,3,4.9,6.8c-0.1,2.1-0.8,4-1.9,5.3
				c0.1,0.2,0.3,0.3,0.4,0.5c1.6,4.2,6.6,13.4,19,15.6c0.2,0.1,0.5,0.1,0.7,0.1c0.8,0.1,1.6,0,2.4-0.3c1-0.5,1.8-1.3,2.7-1.9
				c0,0,0,0,0.1,0c1.7-1.1,3.8-1.2,5.7-1.4c2-0.3,4.1-0.8,5.2-2.5c1.8-2.6-0.1-6.1,0-9.2C1227.6,267.5,1227.7,267.2,1227.7,266.9
				L1227.7,266.9z"/>
		</g>
		<path fill="#91B4DE" d="M1252.4,312.2c0,0-23.3-35.8-72.2-4.9c-1.4,0.9-2.7,2.1-3.7,3.4c0,0,0,0.1-0.1,0.1
			c-2.3,3.1-4.2,6.5-5.9,10.1c-1.5,3.3-4,7-5.3,11.8c-1.6,6.1-1.3,22.5,0,28.8c3.8,19.4,1.8,34.7,1.8,52.3
			c0.1,9.3-4.5,29.8-5.1,39.5c0.5,3.2,2.6,11.1,4.7,13.1c1.6,1.5,17.3,11.3,37.3,13c19,1.6,21.1-10.7,56.3-9.2
			c4.3,0.2,8.1-3,8.5-7.2c3.9-37.3-8.3-68.2-8-113.5C1260.8,327.3,1256.2,317.5,1252.4,312.2z"/>
		<path fill="#91B4DE" d="M1095.2,321c2.2-2,5.5-5,7.8-7.1c1.6-1.4,3.9-1.3,5.3,0.3c4.4,5,13.4,15.4,37.7,35.3
			c3.8,3.1,9.4,1.8,11.5-2.6l13.1-26.8c2.9-6.1,7.7-11.1,14-13.7c0,0,20.5,23.6,20.5,23.6c1,1.2,1.2,2.9,0.4,4.3
			c-30.7,56.4-35,61.5-42.5,62.9c-0.6,0.1-1.2,0.2-1.9,0.3l-0.8,0.1c-12.6,1.7-48.2-45.7-63.7-69.1c-0.8-0.8-1.5-1.6-2.1-2.5
			C1093.6,324.4,1093.8,322.3,1095.2,321z"/>
		<g>
			<path fill="#6D72A0" d="M1159.7,398.9c0.2,0,0.4,0,0.6,0l0.8-0.1c0.7-0.1,1.3-0.2,1.9-0.3c6.7-1.3,10.6-4.7,30.5-40.4
				c0.2-0.4,0.1-0.9-0.3-1.1c-0.4-0.2-0.9-0.1-1.1,0.3c-19.5,35-23.4,38.5-29.4,39.6c-0.6,0.1-1.2,0.2-1.8,0.3l-0.8,0.1
				c-0.1,0-0.3,0-0.4,0c-9.2,0-38.6-36-64.1-72.1c-0.3-0.4-0.8-0.5-1.2-0.2c-0.4,0.3-0.5,0.8-0.2,1.1
				C1102.8,338.4,1146.1,398.9,1159.7,398.9z"/>
		</g>
	</g>
	<g>
		<g>
			<path fill="#452A51" d="M1026.3,676.4l-15.7,18c-0.6,0.7-0.5,1.8,0.2,2.4c0.7,0.6,1.8,0.5,2.4-0.2l18.1-20.7L1026.3,676.4z"/>
			<path fill="#452A51" d="M1008.4,704.2l5.4-6.2c1.1-1.2,0.9-3.1-0.3-4.1c-1.2-1.1-3.1-0.9-4.1,0.3l-5.4,6.2
				c-1.1,1.2-0.9,3.1,0.3,4.1C1005.5,705.6,1007.4,705.5,1008.4,704.2z"/>
		</g>
		<g>
			<path fill="#452A51" d="M1049.7,673.3l0.2,21.4c0,0.9,0.8,1.7,1.7,1.7s1.7-0.8,1.7-1.7l-0.3-24.4L1049.7,673.3z"/>
			<path fill="#452A51" d="M1054.9,703.4l-0.1-8.2c0-1.6-1.4-2.9-3-2.9c-1.6,0-2.9,1.4-2.9,3l0.1,8.2c0,1.6,1.4,2.9,3,2.9
				C1053.6,706.4,1054.9,705,1054.9,703.4z"/>
		</g>
		<g>
			<path fill="#452A51" d="M1077.9,676.6l16.1,18.3c0.6,0.7,0.5,1.8-0.2,2.4c-0.7,0.6-1.8,0.5-2.4-0.2l-17.6-20.1L1077.9,676.6z"/>
			<path fill="#452A51" d="M1096.1,704.7l-5.4-6.2c-1.1-1.2-0.9-3.1,0.3-4.1c1.2-1.1,3.1-0.9,4.1,0.3l5.4,6.2
				c1.1,1.2,0.9,3.1-0.3,4.1C1099,706,1097.1,705.9,1096.1,704.7z"/>
		</g>
		<path fill="#452A51" d="M1078.7,677.3C1078.7,677.3,1078.7,677.3,1078.7,677.3c0-2.3-1.8-4.2-4.1-4.2h-44.9
			c-2.3,0-4.1,1.8-4.1,4.1c0,0,0,0.1,0,0.1H1078.7z"/>
		<g>
			<path fill="#452A51" d="M1042.8,604.7h-30c-8.1,0-13.3-6.7-11.6-14.8l9.6-43.8c1.8-8.1,9.9-14.8,18-14.8h30
				c8.1,0,13.3,6.7,11.6,14.8l-9.6,43.8C1059.1,598,1051,604.7,1042.8,604.7z"/>
			<path fill="#614870" d="M1058.5,604.7h-30c-8.1,0-13.3-6.7-11.6-14.8l9.6-43.8c1.8-8.1,9.9-14.8,18-14.8h30
				c8.1,0,13.3,6.7,11.6,14.8l-9.6,43.8C1074.7,598,1066.6,604.7,1058.5,604.7z"/>
		</g>
		<path fill="#452A51" d="M1051.1,677c-1.7,0-3.1-1.4-3.1-3.1V573.7c0-1.7,1.4-3.1,3.1-3.1c1.7,0,3.1,1.4,3.1,3.1v100.1
			C1054.2,675.6,1052.8,677,1051.1,677z"/>
		<g>
			<path fill="#452A51" d="M1050.6,587.2h-13.2c-3.6,0-5.8-2.9-5.1-6.5l4.2-19.2c0.8-3.6,4.3-6.5,7.9-6.5h13.2
				c3.6,0,5.8,2.9,5.1,6.5l-4.2,19.2C1057.7,584.3,1054.2,587.2,1050.6,587.2z"/>
			<path fill="#776087" d="M1057.5,587.2h-13.2c-3.6,0-5.8-2.9-5.1-6.5l4.2-19.2c0.8-3.6,4.3-6.5,7.9-6.5h13.2
				c3.6,0,5.8,2.9,5.1,6.5l-4.2,19.2C1064.6,584.3,1061,587.2,1057.5,587.2z"/>
		</g>
	</g>
	<g>
		<g>
			<path fill="#452A51" d="M830.9,689l14.6-24c0.7-1.2,0.6-2.9-0.2-3.3l-13.4-7.4c-0.8-0.4-1.8,0.4-2.1,1.7l-6.6,27.8
				C821.5,691.2,827.2,695,830.9,689z"/>
		</g>
		<path fill="#FF9985" d="M842.7,646.8l-5.4,10.4c0,0-5.9,11,3.2,15.5l13.9-18.7L842.7,646.8z"/>
		<path fill="#FBE9DC" d="M852.5,234.4c4.9-8.8,8.6-14.2,16.5-14.6c6-0.3,6.2,0.1,12.8-3.3c4.4-2.3,7.8-4.5,12.3-5.5
			c12.9-2.8,24.4,0.3,30.5,8.3c3.7,4.9,5.5,11.5,9.9,15.9c6.9,6.9,19.2,7.2,28.6,11.1c24.9,10.3,26.3,45.2,8.3,65.3
			c-7.9,8.8-29.8,22.6-41.8,25.2c-7.8,1.6-15.1-0.3-16.7-6.7c-1-4.1,0.1-9.9-3.4-11.8c-1.4-0.7-3.3-0.7-5.2-0.6
			c-5.7,0.5-11.7,1.9-17.2,1.7c-18.6-0.5-9.2-16.4-10.4-24.2c-1.7-11-18-8.4-26.4-13.9C839,273.8,843.3,251.1,852.5,234.4z"/>
		<g>
			<polygon fill="#FF9985" points="845.8,658.8 837.2,685.9 848.5,688.4 854.4,683.2 854,682 860.8,662.1 			"/>
		</g>
		<g>
			<path fill="#452A51" d="M869,684.2l-26.1-8.9c-1.3-0.4-2.9,0-3.1,0.9l-4.3,14.4c-0.2,0.8,0.8,1.6,2.1,1.6l28,0.3
				C873,692.7,875.5,686.4,869,684.2z"/>
		</g>
		<g>
			<path fill="#F7C6A4" d="M881.5,582.7c2.5-3.4,4.8-6.5,6.8-9.4c21.5-30.6,7.5-92.6,10.6-117.3l6.6,2.1l28.3-7.6
				c0.6,1.7,1.1,3.4,1.6,5.1c0.5,2.9,1,5.8,1.6,8.7c1,8.3,0.9,14.7,1,15c1.7,26.9,0.5,54.8-7.6,79.9c-2.7,8.2-6.8,15.4-12.6,23.3
				c-12.4,16.9-32.4,36.9-61.4,75.3l-13-7.7c-3.3-2-4.5-6.3-2.5-9.6C852.9,620.2,867.4,601.9,881.5,582.7z"/>
		</g>
		<path fill="#FBE9DC" d="M841.5,659.8c4.5-19.7,11.3-38.8,17.8-57.4c1.6-4.6,3.3-9.3,4.9-14c1.4-4,2.6-7.6,3.7-10.9
			c7.6-23.6-4.9-56.7-14.9-83.2c-4.6-12.1-8.5-22.5-9.9-30.3l-0.7-3.8H894l-0.2,3.4c-0.3,6-0.3,8.4-0.2,9.2l0,0.1
			c11.5,30.1,16.9,56.2,16.6,79.7c-0.1,8.4-1.7,16.7-5.3,27c-2.9,8.4-7.1,18.2-12.1,29.6c-6.6,15.2-14.7,34.1-23.4,58.1
			c-1.2,3.3-4.3,5.4-7.6,5.4c-0.6,0-1.3-0.1-1.9-0.2l-12.3-3C843.3,668.5,840.6,664.1,841.5,659.8z"/>
		<path fill="#FFFFFF" d="M884.4,299.4l-8.5,184.8c-1.4-0.1-2.7-0.2-4-0.4l8.4-185C881.7,298.9,883,299.1,884.4,299.4z"/>
		<path fill="#FF8500" d="M817.5,308.5c-0.4,2.2-0.7,3.9-1,5.3C816.8,312.4,817.1,310.7,817.5,308.5z"/>
		<path fill="#FF9985" d="M777.2,313.2l0.1-0.2l0.1-0.2c2.2-6.6,6.2-15.1,12.1-25.4c6.3-11.2,13.4-22,18.5-29.2l6.2,3.5
			c-3.6,7.4-9.2,18.7-13.7,28.4c-4.5,9.6-5.9,13.3-7.2,16.7c-0.6,1.5,0.5,3.2,2.2,3.2c7.6,0.2,19.4,0.4,29.3,0.5l0.7,19.2
			c-1.8-0.3-3.5-0.5-5-0.8c-19.8-3.6-34-7.4-41.2-11C777.6,317,776.3,315,777.2,313.2z"/>
		<path fill="#DBE4FC" d="M839.1,310.7c0.2,0,0.5,0,0.7,0l-0.2,20.8c-4.6-0.5-9.7-1.1-14.2-1.7l-0.7-19.2
			C830.7,310.7,835.9,310.7,839.1,310.7z"/>
		<path fill="#FF9985" d="M972.2,367.1c0.9,0.8,2.3,0.4,2.8-0.7c2.2-5.3,5.1-13,15.4-48.9l6.7,2.3c-2.1,17.2-7.3,45.8-14,60.9
			l-0.1,0.2l-0.1,0.2c-0.5,1.7-2.3,2.3-3.7,2.3c-0.3,0-0.7,0-1-0.1c-10-2.8-27.5-12.7-42.5-22.6l10.3-16.4
			C954.4,351.6,965.6,361.4,972.2,367.1z"/>
		<path fill="#DBE4FC" d="M938.3,337.2c1.9,1.7,4.7,4.2,7.9,7.1l-10.3,16.4c-2.8-1.8-5.4-3.7-8-5.4L938.3,337.2z"/>
		<path fill="#FFFFFF" d="M884.4,299.4c4.8,1,9.2,3,13.4,5.3c2.9,1.6,5.9,2.8,9,3.8c2.7,0.9,4.9,2.1,6.8,3.5l0-0.1
			c3.3,2.8,15,13.8,23.9,22.1c1.2,1.1,1.4,2.9,0.6,4.3L928,355.4c-1,1.7-3.2,2.2-4.9,1.2c-0.6-0.4-1.3-0.8-2-1.3
			c-1.3-0.8-3.1-0.1-3.4,1.4c-2.7,11.5-6.8,22.7-7.1,34.6c-0.7,25.3,18.7,37.2,25.1,58.9c1.4,4.9,2,10,1.8,15.1c0,0-0.8,5.3-1.7,8.5
			c-0.3,1-0.8,2-1.6,2.6c-7.2,5.9-24.7,8.4-52.4,8.1c-2,0-4-0.1-5.9-0.3L884.4,299.4z"/>
		<path fill="#FF9985" d="M990.8,311.1c0.1,1-0.1,3.7,0.9,4.2c0.5,0.2,0.9-0.4,1.1-0.9c0.8-2.3,1.6-4.6,2.3-6.9
			c0.5-1.5,0.8-1.9,2.4-2.2c2.5-0.6,4-0.6,5.7,2.4c1.5,2.6,2.5,6.9,2.1,9.4c-0.8,4.8-8.4,10.9-12.9,11.5c-2.4,0.3-6-0.9-5.5-4
			c0.9-5.6,0.1-4.6,0.6-8.2c0.2-2,0.8-3.8,1.8-5.5C989.6,309.9,990.8,310.2,990.8,311.1z"/>
		<path fill="#FF9985" d="M816.9,249.3c-0.5,0.9-1.6,3.4-2.7,3.3c-0.5,0-0.6-0.8-0.5-1.3c0.3-2.4,0.7-4.8,1.1-7.2
			c0.3-1.5,0.1-2-1.1-3.1c-2-1.6-3.3-2.3-6.1-0.5c-2.5,1.7-5.4,4.9-6.2,7.4c-1.4,4.6,2.5,13.5,6.2,16.2c2,1.4,5.7,1.9,6.7-1.1
			c1.7-5.4,2-4.2,3.3-7.6c0.7-1.9,1-3.8,1-5.7C818.5,248.9,817.3,248.6,816.9,249.3z"/>
		<path fill="#FFFFFF" d="M832.5,311.5c0-1.8,1.5-3.3,3.3-3.4c2.5,0,5.1-0.1,7.6-0.1c7-0.1,13.9-2,20-5.3c5.9-3.3,11.5-4.3,16.8-3.9
			l-8.4,185c-20.3-2.6-32.3-13.1-29.5-35.6c1.6-12.7,1.3-18.9,2.5-39.5c1.7-27.9-1.4-49.2-0.6-67c0.1-2.5-1.8-4.6-4.2-4.9
			c-1.7-0.2-3.4-0.4-4.8-0.6c-1.7-0.2-3-1.7-3-3.4L832.5,311.5z"/>
		<path fill="#FF9985" d="M868.4,308.5c0,4.8,6.3,8.6,14,8.6c7.7,0,14-3.9,14-8.6c0-4.8-6.3-8.6-14-8.6
			C874.7,299.9,868.4,303.8,868.4,308.5z"/>
		<g>
			<path fill="#FFA27F" d="M869.5,243.1l22,1.3c1,0.1,1.8-0.7,1.9-1.7l0.7-12c0.1-2-1.4-3.7-3.3-3.8l-20.3-1.2
				c-4.7-0.3-8.8,3.4-9.1,8.2C861.1,238.7,864.8,242.8,869.5,243.1z"/>
			<path fill="#FBE9DC" d="M900.2,268.9c-1.3,3.2-3,5.8-4.9,7.8c0,0,0,0.1,0,0.1c-4.6-5.6-3.9-11.7-3.9-11.7c1.5-1,2.6-3.4,2.7-6.2
				c0.2-3.8-1.3-7-3.5-7.1c-0.2,0-0.3,0.1-0.5,0.1l15.2-12.3C906.6,246.3,905.5,255.8,900.2,268.9z"/>
			<g>
				<path fill="#FF9985" d="M865.4,226.8c-4.9,3.5-8.2,9.1-8.6,15.5l-0.9,16.4c-0.6,11.2,7.9,20.9,19,21.5
					c11.1,0.6,20.6-8.1,21.2-19.3l0.9-15.9L865.4,226.8z"/>
			</g>
			<g>
				<path fill="#FF9985" d="M890,307.8l-14-0.8c-1.9-0.1-3.4-2.1-3.3-4.5l2.5-44.7c0.1-2.4,1.8-4.2,3.7-4.1l14,0.8
					c1.9,0.1,3.4,2.1,3.3,4.5l-2.5,44.7C893.6,306.1,891.9,307.9,890,307.8z"/>
			</g>
			<path fill="#FFFFFF" d="M872.8,266.1c-0.2,1.4-1.1,3.1-4.1,3.5c0,0-4.5,0.3-3.9-3.1L872.8,266.1z"/>
			<path fill="#FBE9DC" d="M875.8,241.8l4.9,0.3c0.7,0,1.3,0.7,1.2,1.4c0,0.7-0.7,1.3-1.4,1.2l-4.9-0.3c-0.7,0-1.3-0.7-1.2-1.4
				C874.5,242.3,875.1,241.8,875.8,241.8z"/>
			<path fill="#FBE9DC" d="M858,240.7l3.8,0.2c0.6,0,1,0.7,0.9,1.4c0,0.7-0.5,1.3-1.1,1.3l-3.8-0.2c-0.6,0-1-0.7-0.9-1.4
				C856.9,241.3,857.4,240.7,858,240.7z"/>
			<path fill="#FA694F" d="M863.7,256.9l0.2-0.4c0.1,1,0.6,1.9,1.4,2.3l2.1,0.9c0.7,0.3,1.4-0.1,1.9-0.7l0,0.3
				c0.2,1.5-1.1,2.8-2.3,2.3l-2.1-0.9C863.6,260.1,863,258.3,863.7,256.9z"/>
			<g>
				<path fill="#000543" d="M876.1,250.2c-0.1,1.3,0.5,2.3,1.3,2.4c0.8,0,1.5-0.9,1.6-2.2c0.1-1.3-0.5-2.3-1.3-2.4
					C876.9,247.9,876.1,248.9,876.1,250.2z"/>
				<polygon fill="#000543" points="877.7,248 875.2,247.8 876.6,249.5 				"/>
			</g>
			<g>
				<path fill="#000543" d="M858.5,249.1c-0.1,1.3,0.5,2.3,1.3,2.4c0.8,0,1.5-0.9,1.6-2.2c0.1-1.3-0.5-2.3-1.3-2.4
					C859.3,246.9,858.6,247.9,858.5,249.1z"/>
				<polygon fill="#000543" points="860.1,246.9 857.6,246.8 859.1,248.4 				"/>
			</g>
			<g>
				<path fill="#FF9985" d="M896.2,252.4c3.1,0.2,5.5,3.4,5.3,7.3c-0.2,3.9-2.9,6.8-6.1,6.7c-3.1-0.2-5.5-3.4-5.3-7.3
					C890.3,255.2,893,252.2,896.2,252.4z"/>
			</g>
			<path fill="#FBE9DC" d="M889.4,246.8c2.2,3.8,3.2,8.3,5.4,12.1c1.5,2.4,3.4,4.6,5.7,6.2c3.1,2.2,7.4,3.3,10.4,0.9
				c2.7-2.2,2.9-6.3,1.9-9.7c-2.1-6.9-8.3-11.8-11-18.5c-2-4.9-2.3-10.9-6.3-14.3c-2.5-2.1-5.8-2.6-9-2.6c-3.8,0-7.6,0.6-11.4,1.2
				c-2.8,0.4-5.5,0.9-8.3,1.3c-0.3,0-0.6,0.1-0.9,0.3c-0.3,0.2-0.4,0.6-0.6,0.9c-0.6,1.3-2.6,4.4-2.4,5.8c0.3,1.6,2.2,1.7,3.5,1.9
				C879.6,233.9,886.8,242.1,889.4,246.8z"/>
		</g>
	</g>
	<path fill="#000543" d="M217.8,555.7c3,2.8,6.3,5.4,8.9,8.6c4.2,5.2,6.5,11.8,10.8,16.9c3.1,3.7,7.2,6.6,10.3,10.4
		c3.1,3.8,4.9,9.2,2.7,13.6c-1.8,3.5-5.6,5.3-9.2,7.1c-20.3,9.8-39.3,24.1-50.2,43.9c6.6-6.6,14.9-11.2,23.1-15.7
		c8.5-4.7,17-9.4,25.5-14.1c6-3.3,12-6.6,16.8-11.4c4.9-4.8,8.5-11.2,8.3-18c-0.2-10.1-8.2-18.1-15.4-25.3
		c-11.3-11.3-21.9-23.3-31.6-36c-4.7-6.1-9.8-12.8-17.3-14.6c-0.4,8.1-0.7,11.6,3.8,18.6C208.2,545.6,212.7,550.9,217.8,555.7z"/>
	<g>
		<path fill="#FF9985" d="M420.8,348.7c-36.9,19.4-47.1,25.5-71.5,29.6c-2.2,0.4-4.4,0.2-6.5-0.6c-3.1-1.1-8-3-13.7-5.1l-3.7,19.2
			c9.7,2.4,16.9,4.2,17.3,4.3c2.5,0.3,8.1,0.9,9.4,0.5c4.2-0.3,37.7-16.9,68.5-38L420.8,348.7z"/>
		<path fill="#FF9985" d="M422.8,347.9C422.8,347.9,422.7,347.9,422.8,347.9c-0.3,0.1-0.7,0.1-0.7-0.1c0.2-1.9,0.6-3,1.1-4
			c0.4-0.8-0.3-1.7-1.1-1.2c-1.8,1.1-3.4,2.4-4.8,4c-2.4,2.9-1.6,2.1-4.6,7.3c-2,3.5,0.3,4.9,2.8,5.7c4.8,1.6,15.6-0.3,19.1-4.1
			c1.8-2,3-6.2,3.1-9.2c0-0.8-0.6-1.8-1.3-2.7c-1.2-1.6-3.5-1.9-5.2-0.9L422.8,347.9z"/>
		<path fill="#D7E1FC" d="M291.6,355.8c-3.6-1.8-7.1-2.7-10.5-2.7c-0.5,0-1,0-1.5,0.1c-5,0.4-9.4,2.9-12.4,7.1
			c-5,6.9-4.7,16.4-4.2,21.4l0.4,3.6l3.5,0.9c19.6,4.9,34,8.5,52.3,13.1c4,1,8-1.6,8.7-5.6c1-5.4,2.1-10.9,3.4-17.8
			c0.4-2.2-0.8-4.4-2.9-5.2C318.8,366.9,296.7,358.3,291.6,355.8z"/>
		<path fill="#000543" d="M225.2,298.6c8.8-2.6,19-1.4,26.6-7.3c4.7-3.7,8-9.8,12.4-14.1c7.2-7,17.4-8.6,27.3-4.4
			c3.5,1.5,5.7,4,8.7,6.8c4.5,4.1,4.7,3.7,9.6,4.7c6.4,1.4,8,7,9.7,16.1c3.1,17.2,0.6,39.6-10.9,45.5c-8.4,4.3-21.1-0.2-25.4,10.2
			c-3.1,7.4,0.4,23.9-15,22.1c-4.5-0.5-9.1-2.6-13.7-3.7c-1.5-0.4-3.1-0.6-4.4-0.1c-3.4,1.4-4,7.2-5.9,11c-3,5.9-9.6,6.9-15.5,4.4
			c-9.2-3.9-23.5-19.9-27.7-29.3C191.4,339,202,305.5,225.2,298.6z"/>
		<path fill="#FF9985" d="M197.1,661.4c-3.3,2.4-6.5,4.7-9.6,6.8c-27.4,19-12.8,25.2-0.9,16.7c5.9-4.2,11.9-8.5,17.8-12.8
			c-1.2,0-2.3-0.1-3.4-0.3C197,670.4,195.5,666.2,197.1,661.4z"/>
		<g>
			<path fill="#6D72A0" d="M196.6,689l-22.2-7.7c-1.1-0.4-2.4,0.1-2.6,0.9l-3.5,13.1c-0.2,0.8,0.7,1.5,1.8,1.5l23.8-0.1
				C200.1,696.6,202.2,690.9,196.6,689z"/>
		</g>
		<path fill="#FF9985" d="M305,661.9c-1.1,0.3-2.8-0.4-3.9-0.3c-4.3-0.3-5.8-2.1-5.5-7.1c-7.5,9.6-10.7,19.8-15.7,26.6l10.2,3.6
			C291.5,683.1,303.7,663.6,305,661.9z"/>
		<g>
			<path fill="#6D72A0" d="M303.9,687.7l-22.2-7.7c-1.1-0.4-2.4,0.1-2.6,0.9l-3.5,13.1c-0.2,0.8,0.7,1.5,1.8,1.5l23.8-0.1
				C307.4,695.3,309.4,689.6,303.9,687.7z"/>
		</g>
		<path fill="#000543" d="M345.6,535.4c-19.4-23.1-38.6-33-66.3-49.5l-0.1,0.2c-17.7-8.7-20.5-13.8-22.3-16.1L239,506.6l-7.8,6.9
			c22.2,17.7,66.3,32.9,93.2,59.1c2.1,2.1,2.5,5.4,0.8,7.8c-9.4,13.8-25.6,45.5-41.5,70.9c-2.7,4.4-0.5,10.1,4.5,11.5l15.8,4.3
			c1.5,0.4,3-0.1,3.9-1.4c14.3-19,23.5-34.1,32.4-47.8C361.9,585.1,368.8,563,345.6,535.4z"/>
		<path fill="#000543" d="M242.8,511.8l-2-1.9l-0.2,0.2c-3.8-3.6-12.5-12.7-14.2-17.1l-1.5-3.7l-28.3,28.5l-2.2,7.4l0.7,1
			c4.5,6.6,11.6,14.3,19.9,23.1c13.6,14.6,29,31.2,39.1,49.6c1.6,3,0.8,6.7-1.9,8.6c-4.5,3.2-10.8,7.6-18.2,12.8
			c-17.8,12.4-30.8,21.4-41.9,29.7c-5.3,3.9-6.3,11.5-2.2,16.7l6.6,8.4c2.6,3.3,7.3,4.2,10.9,1.9c15.3-9.5,27.9-16.7,45.3-26.5
			c31.8-17.9,44.9-25.3,45.1-42.8C297.9,575.1,263.3,532.1,242.8,511.8z"/>
		<path fill="#D7E1FC" d="M291.2,460.3c2.9-32,12-52.5,13.6-69.1c0,0,0.1,0,0.1-0.1c0.1-0.6,0.1-1.3,0.1-1.9c0-0.9,0-1.8-0.1-2.7
			c0,0,0-0.1,0-0.1c-0.2-2.4-0.5-5.2-0.8-7.9c-0.8-6.3-3.5-11.9-7.7-16.2c-15-15.5-33.2-8.9-46.2-1.5l-4.5,2.7
			c-21.3,12.7-19.3,41.8-19.3,41.8c-0.1,14.2,3.2,21,0.9,36.8c-4.2,28.3-25.3,32.8-33.3,61.3c-0.7,2.5-1.8,4.9-3.1,7.3
			c-2.7,5-0.2,9.8,2.4,12.7c9.6,10.6,20.1,19.2,34.4,13.6c30.9-12.1,62.5-10.5,65.5-28.2C296.4,489.7,287.5,499.9,291.2,460.3z"/>
		<path fill="#FF9985" d="M273.5,353.7c-5.3-0.6-10,1.2-13.8,4c-2.8,2-2.7,5.9,0.1,8.4c4.4,4,8.8,8,13.1,12c2.5,2.4,6.6,2.1,8-0.6
			c5.2-10.4,3.8-7.3,6.5-13.9C289.6,358.3,279.4,354.4,273.5,353.7z"/>
		<g>
			<path fill="#000543" d="M274.3,326.8c-3.9-2.9-11.6-5.8-14.6-8.2c-2-1.7-4-3.4-5.5-5.5c-0.8-1.1-1.7-2.8-2.1-5.7
				c0,0,1.6-3,0.3-0.8c3.1-5.2,3.9-10.3,3-14.9c0.6-2.6,1.8-5.5,4.9-8.9c7-7.5,10.8-6.6,15.4-8.4c4.5-1.7,4.3-1.3,10-2.1
				c5-0.8,10.3,0.9,14.3,4.1c0,0,2.2,2.1,3,3.2c0.8,1.1,1.5,2.3,2.3,3.5c1.3,0.7,5.9,3.8,6.5,7.3c1.2,6.9-0.9,9.8-0.9,9.8
				c-3.5-0.5-6.7-5.2-9.7-4.6c-1.3,0.4-1.9,0.6-2.7,1.1c-4.2,2.6-7.6,4.8-9,9.9c-1.1,4.2,0.4,9.3-2.7,12.5
				c-2.7,2.9-7.9,2.7-10.9,5.4C275.3,325.2,274.8,325.9,274.3,326.8z"/>
		</g>
		<g>
			<g>
				<g>
					<path fill="#FFA27F" d="M298.3,302.3l-22.1-0.3c-1,0-1.8-0.8-1.8-1.8l0.2-11.8c0-2,1.7-3.5,3.6-3.5l20.3,0.3
						c4.7,0.1,8.5,4,8.4,8.7C306.9,298.6,303,302.3,298.3,302.3z"/>
					<path fill="#000543" d="M265.8,325.2c1.1,3.2,2.5,5.9,4.3,8c0,0,0,0.1,0,0.1c5.1-5.2,4.8-11.2,4.8-11.2
						c-1.4-1.1-2.3-3.5-2.3-6.3c0.1-3.7,1.9-6.7,4-6.7c0.2,0,0.3,0.1,0.5,0.2l-14.2-13.2C261,302.7,261.4,312,265.8,325.2z"/>
					<g>
						<path fill="#FF9985" d="M303.6,286.7c4.6,3.8,7.5,9.5,7.4,15.8l-0.3,16.1c-0.2,11-9.5,19.9-20.5,19.6
							c-11.1-0.2-19.9-9.4-19.7-20.5l0.3-15.6L303.6,286.7z"/>
					</g>
					<g>
						<path fill="#FF9985" d="M260.8,362.6l11.1,3.8c1.5,0.5,3.3-0.7,4-2.6l12.5-36.9c0.7-2,0-4-1.6-4.5l-11.1-3.8
							c-1.5-0.5-3.3,0.7-4,2.6l-12.5,36.9C258.6,360,259.3,362.1,260.8,362.6z"/>
					</g>
					<path fill="#000543" d="M292.1,300.4l-4.9-0.1c-0.7,0-1.3,0.6-1.3,1.3c0,0.7,0.6,1.3,1.3,1.3l4.9,0.1c0.7,0,1.3-0.6,1.3-1.3
						C293.4,301,292.8,300.4,292.1,300.4z"/>
					<path fill="#000543" d="M310,300.7l-3.8-0.1c-0.6,0-1,0.6-1,1.3c0,0.7,0.4,1.3,1,1.3l3.8,0.1c0.6,0,1-0.6,1-1.3
						C311,301.3,310.5,300.7,310,300.7z"/>
					<path fill="#FA694F" d="M303.1,316.2l-0.2-0.4c-0.1,1-0.7,1.9-1.6,2.1l-2.2,0.7c-0.8,0.2-1.4-0.2-1.8-0.8l0,0.2
						c-0.3,1.5,0.9,2.8,2.1,2.4l2.2-0.7C302.9,319.3,303.6,317.6,303.1,316.2z"/>
					<g>
						<path fill="#000543" d="M291.2,308.7c0,1.2-0.7,2.2-1.5,2.2c-0.8,0-1.4-1-1.4-2.3c0-1.2,0.7-2.2,1.5-2.2
							C290.6,306.5,291.2,307.5,291.2,308.7z"/>
						<polygon fill="#000543" points="289.8,306.4 292.3,306.5 290.7,308 						"/>
					</g>
					<g>
						<path fill="#000543" d="M308.8,309c0,1.2-0.7,2.2-1.5,2.2c-0.8,0-1.4-1-1.4-2.3c0-1.2,0.7-2.2,1.5-2.2
							C308.2,306.7,308.8,307.7,308.8,309z"/>
						<polygon fill="#000543" points="307.4,306.7 309.8,306.8 308.3,308.3 						"/>
					</g>
					<g>
						<path fill="#FF9985" d="M271,309.4c-3.1-0.1-5.8,3-5.8,6.7c-0.1,3.8,2.4,6.9,5.6,7c3.1,0.1,5.8-3,5.8-6.7
							C276.6,312.6,274.1,309.5,271,309.4z"/>
					</g>
					<path fill="#000543" d="M266.4,294.6c2.3-4.6,3.1-10.5,7.3-13.5c2.6-1.8,6-2.1,9.2-1.9c3.8,0.3,7.6,1.1,11.3,2
						c2.7,0.6,5.4,1.3,8.2,1.9c0.3,0.1,0.6,0.2,0.9,0.4c0.3,0.2,0.4,0.6,0.5,0.9c0.5,1.3,2.3,4.5,1.9,5.9c-0.4,1.5-2.4,1.5-3.6,1.6
						c-13.2,0.7-21,8.2-24,12.5c-2.4,3.6-3.8,7.9-6.3,11.4c-1.6,2.3-3.8,4.2-6.2,5.6c-0.1,0.1-0.2,0.1-0.3,0.2l-6.8-16.7
						C261.3,301.6,264.4,298.5,266.4,294.6z"/>
				</g>
			</g>
			<g>
				<path fill="#FFFFFF" d="M291.3,324c0.2,1.4,0.3,2.7,3.3,3.2c0,0,5,0.8,4.6-2.5L291.3,324z"/>
			</g>
		</g>
		<g>
			<g>
				
					<rect x="314.8" y="305" transform="matrix(1 -7.947566e-03 7.947566e-03 1 -2.4347 2.594)" fill="#614870" width="20.8" height="5.3"/>
			</g>
			<path fill="#452A51" d="M343.6,310l-33.9-0.1c-4.4,0-8,3.6-8,8l-0.1,22.2c0,4.4,3.6,8,8,8l33.9,0.1c4.4,0,8-3.6,8-8l0.1-22.2
				C351.6,313.6,348.1,310,343.6,310z"/>
			<path fill="#614870" d="M344.7,310.1l-30.8-0.1c-3.4,0-6.1,2.7-6.1,6l-0.1,26.1c0,3.4,2.7,6.1,6,6.1l30.8,0.1
				c3.4,0,6.1-2.7,6.1-6l0.1-26.1C350.8,312.8,348.1,310.1,344.7,310.1z"/>
			<g>
				<path fill="#D7E1FC" d="M326.2,314.4l-7,0.2c-0.6,0-1.2-0.5-1.2-1.2c0-0.6,0.5-1.2,1.2-1.2l7-0.2c0.6,0,1.2,0.5,1.2,1.2
					C327.4,313.8,326.9,314.4,326.2,314.4z"/>
			</g>
			<path fill="#452A51" d="M315.3,289.8c-2.2,0-4,1.8-4,4l0,8.8c0,2.6,2.1,4.7,4.7,4.7l16.4,0l0-17.4L315.3,289.8z"/>
			<path fill="#614870" d="M333.9,289.8l-13,0c-2,0-3.7,1.7-3.7,3.7l0,10c0,2,1.7,3.7,3.7,3.7l13,0c2,0,3.7-1.7,3.7-3.7l0-10
				C337.6,291.5,335.9,289.8,333.9,289.8z"/>
			<path fill="#91B4DE" d="M332.7,291.9l-0.3,0l-10.7,0c-1.3,0-2.3,1-2.3,2.3l0,8.4c0,1.3,1,2.3,2.3,2.3l5.3,0l5.7,0
				c1.3,0,2.3-1,2.3-2.3l0-8.4C335.1,292.9,334,291.9,332.7,291.9z"/>
			<g>
				<path fill="#452A51" d="M346.3,318.1l-19.3,0.1c-6,0-10.9,5-10.9,11l0,0.3c0,6,5,10.9,11,10.9l19.3-0.1L346.3,318.1z"/>
			</g>
			<g>
				<g>
					<path fill="#452A51" d="M359.2,311.4l-15.6,0.1c-7.5,0-13.6,7.9-13.6,17.5l0,0.5c0.1,9.6,6.3,17.4,13.8,17.4l15.6-0.1
						L359.2,311.4z"/>
				</g>
				<g>
					<path fill="#614870" d="M361,347.4c-8,0.3-14.6-7.6-14.9-17.5c-0.3-9.9,6-18.2,14-18.5c8-0.3,14.6,7.6,14.9,17.5
						C375.2,338.8,368.9,347.1,361,347.4z M360.2,315.9c-6,0.2-10.7,6.4-10.5,13.9c0.2,7.4,5.2,13.3,11.2,13.1
						c6-0.2,10.7-6.4,10.5-13.9C371.1,321.6,366.1,315.7,360.2,315.9z"/>
				</g>
				<path fill="#91B4DE" d="M360.1,313.6c-1.3,0-2.6,0.3-3.8,0.9c-5.1,2.2-8.6,8.3-8.5,15.3c0.2,8.7,6.1,15.5,13,15.3
					c1.7-0.1,3.3-0.5,4.7-1.3c4.6-2.5,7.7-8.3,7.5-14.9C372.9,320.2,367.1,313.4,360.1,313.6z"/>
			</g>
		</g>
		<g>
			<g>
				<path fill="#FF9985" d="M297.6,350.6c-0.3,1.9-0.6,3.8-0.9,5.7c-2.7,17.9-5.4,36.4-9.6,52.6l-0.8,3.2c-0.3,1.3-1.9,1.7-2.8,0.8
					c-3-3-8.2-8.2-9.3-9.1L259.3,422c24.3,21.4,35.1,32,39.4,16.2c8.4-30.6,7.1-56.9,7.5-80.7c0-2.2,0-4.4,0.1-6.5
					C303.2,352.1,301.3,351.9,297.6,350.6z"/>
				<path fill="#FF9985" d="M296.5,348.2c-0.2,2.5-0.6,7.6,0.5,9.9c1.1,2.3,0.7,2,3.2,2.5c3.2,0.6,5.5-0.8,7.5-3.4
					c2.2-3,5-13.2,4.2-16.9c-0.9-4.2-1-7.4-5.9-5.5C296.8,338.2,296.9,344.1,296.5,348.2z"/>
			</g>
			<path fill="#D7E1FC" d="M232,404.2l20,20c2.8,2.8,7.4,2.7,10-0.3l15.2-17.3c2.4-2.7,2.3-6.9-0.3-9.4
				c-9.5-9.4-28.2-28.6-28.2-28.6l-15.5,12.6C226,386.9,225.4,397.6,232,404.2z"/>
			<g>
				<path fill="#AFBFE2" d="M279.1,405.5c0.5-1.4,0.3-3.1-0.7-4.2l-25.7-29.3c-0.3-0.3-0.7-0.3-1-0.1c-0.3,0.3-0.3,0.7-0.1,1
					l25.7,29.3c0.9,1.1,0.9,2.7-0.1,3.7l-5,5.2c-0.3,0.3-0.3,0.7,0,1c0.3,0.3,0.7,0.3,1,0l5-5.2C278.6,406.4,278.9,406,279.1,405.5z
					"/>
			</g>
		</g>
	</g>
	<path fill="#000543" d="M290.1,551.7c5.8,2.5,12.2,4.3,16.6,8.8c2.7,2.8,4.6,6.4,7.8,8.7c2.8,2,6.5,2.4,9,4.8
		c3.4,3.2-0.7,8.6-2.5,13c-1.8,4.3-0.9,8.1-4.1,11.5c-13.9,14.8-25.5,32.5-29,52.5c9.5-19.5,25.1-35.3,39.5-51.6
		c3.4-3.8,6.8-7.9,8.1-12.8c2.3-8.2-1.7-17.1-7.7-23.2c-6-6.1-13.7-10-21-14.5c-5.6-3.4-11.1-7.3-17-10.2c-8.9-4.5-18.7-7-28.6-7.2
		C271.7,537.1,278.7,546.9,290.1,551.7z"/>
	<g>
		<path fill="#FF9985" d="M459.4,670.6c-3.7-0.1-7.3-0.3-10.8-0.5c-30.6-1.9-23.8,10.7-10.4,11.3c6.7,0.3,13.4,0.6,20.2,0.9
			c-0.8-0.7-1.6-1.4-2.3-2.1C454.1,676.9,455.5,673,459.4,670.6z"/>
		<g>
			<path fill="#FFD878" d="M419.2,687.4l23.8-7.8c1.2-0.4,2-1.6,1.6-2.5l-5.8-13.5c-0.3-0.8-1.5-0.8-2.5-0.1l-19.9,15.6
				C411.2,683.2,413.3,689.4,419.2,687.4z"/>
		</g>
		<path fill="#B2C3EB" d="M563,655.8c-43.8-40.1-54.8-34.6-77.1-49.5l-2.4,0.4l-0.2,1.2c-5.4,0.8-19.5,1.5-22.5-0.9l-2.5-2l-1.8,2.7
			c-3.7,5.5-6.5,9.9-8.8,13.3c-8.6,13-8.6,13-12.9,18.1l-0.2,0.2c-1.5,1.7-3.5,0.2-3,2.5c0.5,2.3,2.4,4,4.5,4.8
			c5,1.9,11.6,6.6,19.2,10c0,0-0.1,0-0.1,0c-2.7,0.2-4.9,2.3-5.1,5.1C450,665,449.5,672,449,678c-0.3,4.8,3.3,9,8.2,9.2
			c27.2,1.6,42.1,5,57.2,3.9c18.9-1.4,22.8-2.2,32-2.1c7.3,0,14.3-0.8,18.8-6.4c1.4-1.7,2.3-3.7,2.9-5.8c1.7-5.6,0.9-11.7-1.9-16.8
			C565.3,658.4,564.2,656.9,563,655.8z"/>
		<path fill="#000543" d="M407.8,401.2c-1.2,3.1-1.8,6.6-3.8,9.2c-1.7,2.2-4.3,3.6-6.2,5.7c-1.9,2.1-3,5.6-1.1,7.8
			c0.9,1.1,2.3,1.6,3.1,2.7c2.5,3-0.2,7.2-1.2,10.9c-1.1,4.1,0.2,8.9,3.3,12c2.2,2.2,5.5,3.9,5.9,7c0.3,2.4-1.4,4.9-0.4,7.2
			c1.4,3.3,6.6,2.4,9.3,4.8c1.9,1.7,2.1,4.5,2.9,6.9c1.6,4.5,5.9,7.9,10.5,8.3c2.5,0.2,5.1-0.3,7.4,0.7c3,1.3,4.7,4.9,7.8,5.7
			c6.5,1.7,8-6.1,12.5-10.2c5.6-5.2,16.4-4.4,18.8-11.6c0.6-1.7,0.6-3.8,2-4.9c1.3-1.2,3.5-1,5-2.1c2.8-2,1.6-6.7,2.8-9.7
			c0.2-0.3,1.2-1.8,1.4-1.9c11.4-16.6,13.2-36.5,2.8-49.2c-8.7-10.6-23.7-13.7-39.1-9.8c-0.1-0.1-0.2-0.3-0.4-0.4
			c-3.4-2.9-7.5-3.7-11.9-3.5c-8,0.4-10.5,7.7-17,9c-2.5,0.5-5.1-1.1-7.6-1C411.4,394.9,409,398.1,407.8,401.2z"/>
		<g>
			<path fill="#FF9985" d="M540.7,437.7c0.1,22.3-0.4,36.1-2,52.7c-0.1,1.4-1.5,2.2-2.8,1.6c-8.3-2.9-13.7-3.6-21-8.4
				c-2.8,9-5.2,14-11,19.8l40.4,10.5c3.5,1.6,8.6-0.4,9-6c3.3-28.7-2.4-47.2-5.7-70.6C543.6,439.7,545.1,437.9,540.7,437.7z"/>
			<path fill="#6D72A0" d="M480.7,469.6l36.6,11.5c3,0.9,5.4,3.3,6.2,6.4c1.4,4.8,1.5,12.8-5.8,22.7
				C517.7,510.1,480.5,496.6,480.7,469.6z"/>
		</g>
		<g>
			<g>
				<path fill="#267067" d="M468.2,520.2c-1.9-7.5-3.4-15.1-4.6-21.9c-3.4-18.9-27.9-18.1-34.7-4.7l15.8,35.9
					C452.9,530.9,460.9,526.2,468.2,520.2z"/>
			</g>
		</g>
		<path fill="#6D72A0" d="M500.7,570.6c-2.6-31.1,2.8-50.9,1.5-67.1c0,0,0,0,0.1-0.1c-0.1-0.6-0.1-1.2-0.2-1.8
			c-0.1-0.9-0.3-1.8-0.6-2.6c0,0,0-0.1,0-0.1c-0.6-2.3-1.3-5-2.2-7.7c-1.9-6.1-5.4-11.6-10.2-15.8c-17.2-15-33.7-8.7-45.1-1.4
			l-3.9,2.6c-18.5,12.3-11.6,40.6-11.6,40.6c2.3,13.8,6.7,20.4,7.1,35.7c0.8,28.9-18.7,37-19.9,68.7c0,0-0.3,0.4-0.7,0.9
			c-3.1,4.3-2.6,10.4,1.2,14c11.1,10.3,22.7,15.7,36.3,11.5c20.2-6.2,33.9-1.7,48.3-8.6c3.5-1.7,5.8-5.2,5.9-9.2
			C507.7,598.7,503.9,609,500.7,570.6z"/>
		<path fill="#FF9985" d="M538.7,437c2,2.4,7.5,5.4,13.3-2.9c0,0-7.5-6-13.3-0.5C537.7,434.6,537.8,436,538.7,437z"/>
		<path fill="#FF9985" d="M515.4,668.9c-0.1,3.7-0.3,7.3-0.5,10.8c-1.9,30.6,10.7,23.8,11.3,10.4c0.3-6.7,0.6-13.4,0.9-20.2
			c-0.7,0.8-1.4,1.6-2.1,2.3C521.7,674.2,517.9,672.8,515.4,668.9z"/>
		<g>
			<path fill="#FFD878" d="M540,696.7l-23.7-8.2c-1.2-0.4-2.6,0.1-2.8,1l-3.5,14.3c-0.2,0.8,0.7,1.6,1.9,1.6l25.3-0.3
				C543.9,705,546,698.8,540,696.7z"/>
		</g>
		<path fill="#D7E1FC" d="M511.1,574.2c-54.1,11.9-68.6,34.3-90.4,45.3c-3,1.5-5.5,3.7-7.3,6.5l-0.4,0.6c-2.4,3.8-2.8,8.5-1,12.6
			c2.2,4.8,4.4,10.8,8,18.2c3.8,8,12.6,12.6,21.3,10.9c2.8-0.5,5-1.2,5.6-1.7c6.5-4.5,11.2-5.1,18.9-14.7
			c16.1-20.1,23.4-24.3,36.5-32c0.9-0.6,2.2,0,2.2,1.1c-0.5,19.2-0.9,39.7,0.5,57.7c0.2,2.5,2.3,4.5,5.1,4.6
			c3.4,0.2,10.4,0.7,16.4,1c4.8,0.3,9-3,9.3-7.4c1.6-24.8,5-38.3,3.9-52.1c-1.4-17.2,2.1-20.8,2.2-29.1c0-6.7-3.6-12.9-9.2-16.9
			C526.6,574.4,518.7,572.6,511.1,574.2z"/>
		<g>
			<path fill="#000543" d="M473.9,443.9c-3.6-3-10.9-6.1-13.6-8.6c-1.8-1.7-3.7-3.5-5-5.6c-0.7-1.1-1.5-2.8-1.7-5.5
				c0,0,1.7-2.8,0.4-0.7c3.3-4.8,4.2-9.7,3.6-14.1c0.8-2.5,2-5.2,5.2-8.3c7.1-6.8,10.7-5.8,15.2-7.3c4.4-1.4,4.2-1,9.7-1.5
				c4.9-0.5,9.9,1.4,13.5,4.7c0,0,2,2.1,2.7,3.2c0.7,1.1,1.3,2.3,2,3.5c1.2,0.8,5.5,3.9,5.9,7.3c0.8,6.7-1.3,9.4-1.3,9.4
				c-3.3-0.7-6.2-5.3-9.1-4.9c-1.3,0.3-1.9,0.5-2.6,0.9c-4.1,2.3-7.6,4.2-9.1,9c-1.3,4-0.1,8.9-3.2,11.9c-2.8,2.6-7.7,2.2-10.7,4.6
				C474.9,442.4,474.4,443.1,473.9,443.9z"/>
			<g>
				<g>
					<path fill="#FF9985" d="M506.2,409.2c3.6,4.5,5.4,10.4,4,16.5l-3.4,15.3c-2.3,10.4-12.8,17.1-23.3,14.7
						c-10.5-2.3-17.1-12.8-14.8-23.2l3.3-14.8L506.2,409.2z"/>
				</g>
			</g>
			<g>
				<g>
					<path fill="#FF9985" d="M480.9,477.4l11.7-36.5c0.7-2.2-0.2-4.4-2-5l-13-4.1c-1.8-0.6-3.8,0.7-4.5,2.9l-13,40.5
						c-0.2,0.8-0.2,1.5-0.1,2.3H480.9z"/>
				</g>
			</g>
			<path fill="#FFFFFF" d="M489.1,442.7c-0.2,1.4-0.3,2.7,2.4,3.8c0,0,4.6,1.9,5-1.3L489.1,442.7z"/>
			<path fill="#000543" d="M492.1,422.3l-4.6-1c-0.7-0.1-1.4,0.3-1.5,1c-0.1,0.7,0.3,1.4,1,1.5l4.6,1c0.7,0.1,1.4-0.3,1.5-1
				C493.2,423.1,492.7,422.5,492.1,422.3z"/>
			<path fill="#000543" d="M509,426l-3.6-0.8c-0.5-0.1-1.1,0.3-1.2,1c-0.1,0.7,0.2,1.3,0.7,1.4l3.6,0.8c0.5,0.1,1.1-0.3,1.2-1
				C509.9,426.8,509.5,426.1,509,426z"/>
			<path fill="#FA694F" d="M500,437.2l-0.1-0.4c-0.3,0.9-1,1.6-1.9,1.7l-2.2,0.2c-0.8,0.1-1.3-0.4-1.6-1.1l-0.1,0.2
				c-0.6,1.4,0.3,2.8,1.6,2.7l2.2-0.2C499.2,440.1,500.2,438.7,500,437.2z"/>
			<g>
				<path fill="#000543" d="M490.1,427.8c-0.3,1.2-1.1,2-1.9,1.8c-0.8-0.2-1.2-1.3-0.9-2.4c0.3-1.2,1.1-2,1.9-1.8
					C490,425.6,490.4,426.6,490.1,427.8z"/>
				<polygon fill="#000543" points="489.2,425.4 491.6,425.9 489.8,427 				"/>
			</g>
			<g>
				<path fill="#000543" d="M506.8,431.5c-0.3,1.2-1.1,2-1.9,1.8c-0.8-0.2-1.2-1.3-0.9-2.4c0.3-1.2,1.1-2,1.9-1.8
					C506.6,429.2,507,430.3,506.8,431.5z"/>
				<polygon fill="#000543" points="505.9,429 508.2,429.5 506.5,430.7 				"/>
			</g>
			<g>
				<g>
					<path fill="#FF9985" d="M471.4,426.9c-3,0-5.6,2.9-5.6,6.6c0,3.7,2.4,6.7,5.4,6.7c3,0,5.6-2.9,5.6-6.6
						C476.9,430,474.4,427,471.4,426.9z"/>
				</g>
			</g>
			<path fill="#000543" d="M457.4,420c3.8-3.6,8.6-6.2,11.8-10.3c3.1-4,5-9.4,9.6-11.4c2.8-1.3,6.1-0.8,9.1,0c3.6,1,7,2.5,10.4,4.1
				c2.5,1.1,4.9,2.2,7.4,3.4c0.3,0.1,0.6,0.3,0.8,0.5c0.2,0.3,0.3,0.6,0.3,1c0.2,1.3,1.3,4.7,0.7,6c-0.7,1.4-2.5,1-3.8,0.8
				c-12.7-1.9-21.5,3.7-25.2,7.3c-3,2.9-5.1,6.7-8.2,9.6c-1.6,1.5-5.8,3.7-7.8,4.6C461.9,429.9,461.7,423.6,457.4,420z"/>
		</g>
		<path fill="#452A51" d="M539.7,425.9l-31.7-0.3c-4.1,0-7.5,3.3-7.6,7.4l-0.2,20.7c0,4.1,3.3,7.5,7.4,7.6l31.6,0.3
			c4.1,0,7.5-3.3,7.6-7.4l0.2-20.7C547.1,429.3,543.8,425.9,539.7,425.9z"/>
		<g>
			<path fill="#614870" d="M541.6,461.7l-31.2-0.3c-2.5,0-4.4-2-4.4-4.5l0.3-26.8c0-2.5,2-4.4,4.5-4.4l31.2,0.3c2.5,0,4.4,2,4.4,4.5
				l-0.3,26.8C546,459.7,544,461.7,541.6,461.7z"/>
		</g>
		<g>
			<path fill="#D7E1FC" d="M523.4,429.9l-6.6,0.1c-0.6,0-1.1-0.5-1.1-1.1c0-0.6,0.5-1.1,1.1-1.1l6.6-0.1c0.6,0,1.1,0.5,1.1,1.1
				C524.5,429.4,524,429.9,523.4,429.9z"/>
		</g>
		<path fill="#452A51" d="M532.1,421.1l-3.1,0l0.1-14.2l-17.6-0.1c-1.2,0-2.1,0.9-2.1,2.1l-0.1,12.1c0,1.2,0.9,2.1,2.1,2.1l1.2,0
			l0,2.9l19.4,0L532.1,421.1z"/>
		<path fill="#614870" d="M530.7,407l-12.2-0.1c-1.9,0-3.5,1.5-3.5,3.4l-0.1,9.4c0,1.9,1.5,3.5,3.4,3.5l12.2,0.1
			c1.9,0,3.5-1.5,3.5-3.4l0.1-9.4C534.1,408.5,532.6,407,530.7,407z"/>
		<path fill="#D7E1FC" d="M529.6,408.9l-0.2,0l-10-0.1c-1.2,0-2.2,1-2.2,2.1l-0.1,7.8c0,1.2,1,2.2,2.1,2.2l5,0l5.3,0
			c1.2,0,2.2-1,2.2-2.1l0.1-7.8C531.8,409.8,530.8,408.9,529.6,408.9z"/>
		<g>
			<path fill="#F9CDAF" d="M540.6,434.2h-15.5c-4.8,0-8.8,4.4-8.8,9.8v0.3c0,5.4,3.9,9.8,8.8,9.8h15.5V434.2z"/>
		</g>
		<g>
			<g>
				<path fill="#FBE9DC" d="M542.8,433.6h-10.1c-4.9,0-8.9,4.8-8.9,10.6v0.3c0,5.8,4,10.6,8.9,10.6h10.1V433.6z"/>
			</g>
			<g>
				<path fill="#19171C" d="M543.8,455.4c-5.2,0.1-9.5-4.6-9.6-10.7c-0.1-6,4-11,9.1-11.2c5.2-0.1,9.5,4.6,9.6,10.7
					C553.1,450.3,549,455.3,543.8,455.4z"/>
			</g>
		</g>
		<g>
			<path fill="#FF9985" d="M503.5,465.7c-0.1,1.9-0.2,3.7-0.2,5.6c-0.7,17.5-1.4,35.7-3.7,51.7l-0.5,3.2c-0.2,1.2-1.6,1.8-2.6,1.1
				c-3.2-2.5-8.8-7-9.9-7.8L474,538.6c25.7,18.1,37.2,27.2,39.7,11.5c4.9-30.4,0.9-55.7-1.2-78.7c-0.2-2.1-0.4-4.3-0.6-6.2
				C509.1,466.5,507.2,466.6,503.5,465.7z"/>
		</g>
		<path fill="#6D72A0" d="M432.7,513.8l34.5,27.7c3,2.4,7.4,1.8,9.6-1.4l12.9-18.3c2-2.9,1.5-6.9-1.3-9.1
			c-10.1-8.1-30.2-24.7-30.2-24.7L432.7,513.8z"/>
		<g>
			<path fill="#52587F" d="M470.9,544.2c-1.7,0-3.2-0.6-4.5-1.6l-33.6-27c-0.3-0.2-0.3-0.6-0.1-0.9c0.2-0.3,0.6-0.3,0.9-0.1l33.6,27
				c1.3,1.1,3,1.5,4.6,1.3c1.7-0.2,3.1-1.1,4.1-2.5l12.9-18.3c1.8-2.6,1.3-6.2-1.2-8.2c-5.9-4.7-18.4-14.1-27.8-21.1
				c-0.3-0.2-0.3-0.6-0.1-0.9c0.2-0.3,0.6-0.3,0.9-0.1c9.4,7,21.9,16.4,27.8,21.2c3,2.4,3.6,6.8,1.4,9.9l-12.9,18.3
				c-1.2,1.7-2.9,2.7-4.9,3C471.6,544.2,471.3,544.2,470.9,544.2z"/>
		</g>
		<g>
			<g>
				<path fill="#FF9985" d="M499.7,455c0.7-0.3,1.6,0,2,0.7l3.1,6.7c0.3,0.7,0,1.6-0.7,2s-1.6,0-2-0.7L499,457
					C498.7,456.2,499,455.3,499.7,455z"/>
			</g>
			<path fill="#FF9985" d="M516.4,460.6c0-1.3-0.2-2.6-0.8-3.4c-0.5-0.7-1.1-1-1.8-1.3c-1.7-0.7-3.6-1.1-5.4-1.3
				c-1.7-0.1-3.8,0.2-5.1,2.2c-1.3,2-1.5,4.4-1,6.5c0.8,4,1.1,5.4,3.5,7.7c2.9,2.9,6.2,3,8.3-2.4C515,465.9,516.5,463.4,516.4,460.6
				z"/>
			<g>
				<path fill="#FF9985" d="M505.5,457.9l4.3-10.3c0.3-0.7,0-1.5-0.7-1.8c-0.7-0.3-1.5,0-1.8,0.7l-4.3,10.3c-0.3,0.7,0,1.5,0.7,1.8
					C504.4,459,505.2,458.6,505.5,457.9z"/>
			</g>
			<g>
				<path fill="#FF9985" d="M509.4,458.3l4.3-10.3c0.3-0.7,0-1.5-0.7-1.8c-0.7-0.3-1.5,0-1.8,0.7l-4.3,10.3c-0.3,0.7,0,1.5,0.7,1.8
					C508.3,459.4,509.1,459,509.4,458.3z"/>
			</g>
			<g>
				<path fill="#FF9985" d="M512.6,461.3l4.3-10.3c0.3-0.7,0-1.5-0.7-1.8c-0.7-0.3-1.5,0-1.8,0.7l-4.3,10.3c-0.3,0.7,0,1.5,0.7,1.8
					C511.5,462.4,512.3,462,512.6,461.3z"/>
			</g>
			<g>
				<path fill="#FF9985" d="M514.5,465.1l4.3-10.3c0.3-0.7,0-1.5-0.7-1.8c-0.7-0.3-1.5,0-1.8,0.7l-4.3,10.3c-0.3,0.7,0,1.5,0.7,1.8
					C513.4,466.2,514.2,465.8,514.5,465.1z"/>
			</g>
		</g>
		<g>
			<path fill="#452A51" d="M569.1,423.8l-18.5,0c-8.9,0-16.2,8.7-16.2,19.4v0.6c0,10.7,7.3,19.4,16.2,19.4l18.5,0L569.1,423.8z"/>
			<g>
				<path fill="#614870" d="M570.9,463.8c-9.5,0.3-17.3-8.5-17.6-19.6c-0.2-11,7.3-20.2,16.8-20.5c9.5-0.3,17.3,8.5,17.6,19.6
					C587.9,454.4,580.4,463.6,570.9,463.8z M570.2,428.8c-7.1,0.2-12.7,7.1-12.6,15.4c0.2,8.3,6.1,14.9,13.2,14.7
					c7.1-0.2,12.7-7.1,12.6-15.4C583.2,435.2,577.3,428.6,570.2,428.8z"/>
			</g>
			<path fill="#D7E1FC" d="M570.2,426.3c-1.6,0-3.1,0.4-4.5,0.9c-6,2.4-10.3,9.2-10.2,17c0.2,9.7,7.1,17.3,15.4,17.1
				c2-0.1,3.9-0.6,5.6-1.4c5.5-2.8,9.2-9.1,9.1-16.5C585.3,433.7,578.5,426.1,570.2,426.3z"/>
		</g>
		<ellipse fill="#FF9985" cx="472.4" cy="479.8" rx="14.8" ry="10.2"/>
	</g>
	<g>
		<g>
			
				<rect x="707.1" y="594.9" transform="matrix(0.9291 -0.3699 0.3699 0.9291 -190.8911 308.2016)" fill="#452A51" width="2" height="113.9"/>
		</g>
		<g>
			
				<rect x="619.7" y="650.6" transform="matrix(0.1836 -0.983 0.983 0.1836 -88.608 1196.5953)" fill="#452A51" width="112.7" height="2"/>
		</g>
		<g>
			<g>
				<path fill="#776087" d="M691,559.3l-0.9,1.9l-0.1,0.2l0.1-0.2l-0.5,1.1l0.7-6.3l-0.7,6.3l-0.9,1.9l0.9-1.9l-4.2,37
					c0,0-11.1-48.6-11.1-48.6l3.8-52.4c0.2-2.7,3.2-4.2,5.5-2.7l30.8,20.1L690,561.2L691,559.3z"/>
			</g>
			<polygon fill="#614870" points="689.5,562.3 690,561.2 714.4,515.7 715.4,516.3 744,550.7 772.7,585.1 773,585.8 729.7,599.3 
				686.8,600 685.5,599.4 685.4,599.3 			"/>
			<g>
				<path fill="#452A51" d="M734.9,624.7L686.8,600l42.9-0.7l-5.9,1.8l5.9-1.8l1.6,0l-1.6,0l43.2-13.5l13.6,33.9
					c1.2,3-1.1,6.3-4.3,6.2L734.9,624.7z"/>
			</g>
		</g>
		<g>
			
				<rect x="683" y="593.6" transform="matrix(-1 -1.224647e-16 1.224647e-16 -1 1375.4591 1208.1967)" fill="#452A51" width="9.5" height="21.1"/>
		</g>
		<g>
			<polygon fill="#452A51" points="670.9,687 721.9,686.5 721.9,685.5 670.9,686 			"/>
		</g>
	</g>
</g>
</svg>
