<?xml version="1.0" encoding="utf-8"?>
<!-- Generator: Adobe Illustrator 25.2.0, SVG Export Plug-In . SVG Version: 6.00 Build 0)  -->
<svg version="1.1" id="Ñëîé_1" xmlns="http://www.w3.org/2000/svg" xmlns:xlink="http://www.w3.org/1999/xlink" x="0px" y="0px"
	 viewBox="0 0 2540 1795" enable-background="new 0 0 2540 1795" xml:space="preserve">
<g>
	<path fill="#B6E4FC" d="M2214.7,1316.9c-3.7-15-6.2-30.4-7.7-46c-1.7-59.7,11.5-122.3,37.1-179.7c5.1-11.4,54.1-131.1,72.8-167.7
		c34.3-65.5,52.6-137.9,42.9-205.7c-21.1-154.3-121.3-271.2-264.6-303.9c-110.5-25.7-224.1,2.3-323.6-42.1
		c-71.5-32.7-125.7-84.2-191.1-130.9c-94.8-63.1-206.9-77.1-317.2-88.8c-229-23.4-465.7,9.4-690.9,112.2
		C453.3,318,290.7,411.5,298.5,570.5c0.4,28.1,9.9,51.4,16.6,79.5c15.4,72.5,78.5,105.2,111.8,170.7c22,39.7,21.6,88.8-3.4,133.3
		c-76,133.1-132.5,125-215.9,241.3c-41.1,60.6-45,183.9-4,264.3c43.9,86,131.3,151.5,242,151.5h1289.7l315.7,2.3
		c104.4,0,213.6-21.6,211.6-162.3C2261.9,1403.1,2226.4,1364.4,2214.7,1316.9z"/>
</g>
<g>
	<path fill="#FFFFFF" d="M513.8,1046.5c-135.2,0-244.9,109.6-244.9,244.9s109.6,244.9,244.9,244.9s244.9-109.6,244.9-244.9
		S649.1,1046.5,513.8,1046.5z M652,1167.6c30,0,54.3,24.3,54.3,54.3c0,30-24.3,54.3-54.3,54.3c-30,0-54.3-24.3-54.3-54.3
		C597.6,1191.9,622,1167.6,652,1167.6z M381,1420.1c-30,0-54.3-24.3-54.3-54.3c0-30,24.3-54.3,54.3-54.3c30,0,54.3,24.3,54.3,54.3
		C435.3,1395.8,411,1420.1,381,1420.1z M381,1276.3c-30,0-54.3-24.3-54.3-54.3c0-30,24.3-54.3,54.3-54.3c30,0,54.3,24.3,54.3,54.3
		C435.3,1251.9,411,1276.3,381,1276.3z M515.4,1492.9c-30,0-54.3-24.3-54.3-54.3s24.3-54.3,54.3-54.3c30,0,54.3,24.3,54.3,54.3
		S545.4,1492.9,515.4,1492.9z M515.4,1201.7c-30,0-54.3-24.3-54.3-54.3s24.3-54.3,54.3-54.3c30,0,54.3,24.3,54.3,54.3
		S545.4,1201.7,515.4,1201.7z M652,1420.1c-30,0-54.3-24.3-54.3-54.3c0-30,24.3-54.3,54.3-54.3c30,0,54.3,24.3,54.3,54.3
		C706.3,1395.8,682,1420.1,652,1420.1z"/>
</g>
<g>
	<path fill="#6D72A0" d="M1114.6,231.5c-94.3,0-170.8,76.5-170.8,170.8S1020.2,573,1114.6,573c94.3,0,170.8-76.5,170.8-170.8
		S1208.9,231.5,1114.6,231.5z M1210.9,315.9c20.9,0,37.9,17,37.9,37.9c0,20.9-17,37.9-37.9,37.9c-20.9,0-37.9-17-37.9-37.9
		C1173,332.9,1190,315.9,1210.9,315.9z M1021.9,492c-20.9,0-37.9-17-37.9-37.9c0-20.9,17-37.9,37.9-37.9c20.9,0,37.9,17,37.9,37.9
		C1059.8,475,1042.9,492,1021.9,492z M1021.9,391.7c-20.9,0-37.9-17-37.9-37.9c0-20.9,17-37.9,37.9-37.9c20.9,0,37.9,17,37.9,37.9
		C1059.8,374.8,1042.9,391.7,1021.9,391.7z M1115.7,542.8c-20.9,0-37.9-17-37.9-37.9c0-20.9,17-37.9,37.9-37.9
		c20.9,0,37.9,17,37.9,37.9C1153.6,525.8,1136.6,542.8,1115.7,542.8z M1115.7,339.7c-20.9,0-37.9-17-37.9-37.9
		c0-20.9,17-37.9,37.9-37.9c20.9,0,37.9,17,37.9,37.9C1153.6,322.8,1136.6,339.7,1115.7,339.7z M1210.9,492
		c-20.9,0-37.9-17-37.9-37.9c0-20.9,17-37.9,37.9-37.9c20.9,0,37.9,17,37.9,37.9C1248.8,475,1231.8,492,1210.9,492z"/>
</g>
<g>
	<path fill="#6D72A0" d="M733.1,1488.8h53.8c0.4,0,0.7-0.3,0.7-0.7v-11c0-0.4-0.3-0.7-0.7-0.7h-53.8c-0.4,0-0.7,0.3-0.7,0.7v11
		C732.5,1488.5,732.8,1488.8,733.1,1488.8z"/>
	<g>
		<g>
			<path fill="#000543" d="M917.2,1474.4c-3.4,0-6.1-2.2-6.1-4.9v-22.9c0-2.7,2.7-4.9,6.1-4.9h8H947c2,0,3.7,1.7,3.7,3.7v25.3
				c0,2-1.7,3.7-3.7,3.7h-21.8h-7.5v16h-8v-16H917.2z"/>
			<path fill="#6D72A0" d="M881.1,1441.7h36.2c-3.4,0-6.1,2.2-6.1,4.9v22.9c0,2.7,2.7,4.9,6.1,4.9h-7.4v16h-18.7h-8v-16h-2.1
				c-3.4,0-6.1-2.7-6.1-6.1v-20.5C875,1444.4,877.7,1441.7,881.1,1441.7z"/>
		</g>
		<g>
			<path fill="#000543" d="M715.7,1488.4h217.7c6.8,0,12.2,5.5,12.2,12.2v87.2c0,6.8-5.5,12.2-12.2,12.2H715.7V1488.4z"/>
			<path fill="#6D72A0" d="M694.3,1600.1h58.2c4.1,0,7.4-3.3,7.4-7.4v-97.1c0-4.1-3.3-7.4-7.4-7.4h-58.2c-4.1,0-7.4,3.3-7.4,7.4
				v97.1C686.9,1596.8,690.2,1600.1,694.3,1600.1z"/>
			<path fill="#000543" d="M631.8,1576.3h107.2c4.1,0,7.4-2.2,7.4-4.9v-54.2c0-2.7-3.3-4.9-7.4-4.9H631.8c-4.1,0-7.4,2.2-7.4,4.9
				v54.2C624.4,1574.1,627.7,1576.3,631.8,1576.3z"/>
			<g>
				<path fill="#000543" d="M579.2,1600.3h47.9c13,0,23.6-10.6,23.6-23.6v-69.9c0-13-10.6-23.6-23.6-23.6h-47.9
					c-13,0-23.6,10.6-23.6,23.6v69.9C555.6,1589.7,566.2,1600.3,579.2,1600.3z"/>
				<path fill="#6D72A0" d="M554.3,1600.3h47.9c13,0,23.6-10.6,23.6-23.6v-69.9c0-13-10.6-23.6-23.6-23.6h-47.9
					c-13,0-23.6,10.6-23.6,23.6v69.9C530.7,1589.7,541.3,1600.3,554.3,1600.3z"/>
			</g>
			<path fill="#D8EAFC" d="M792.2,1585.8h112.8c8.7,0,15.7-7,15.7-15.7v-50.8c0-8.7-7-15.7-15.7-15.7H792.2V1585.8z"/>
			<path fill="#6D72A0" d="M791.3,1586.3h1.8c5.7,0,10.4-4.7,10.4-10.4v-61.9c0-5.7-4.7-10.4-10.4-10.4h-1.8
				c-5.7,0-10.4,4.7-10.4,10.4v61.9C780.9,1581.7,785.6,1586.3,791.3,1586.3z"/>
		</g>
	</g>
	<g>
		<rect x="756.1" y="1469.5" fill="#000543" width="25.3" height="7.2"/>
		<path fill="#6D72A0" d="M762.7,1469.8h-50.7c-2.8,0-5.1-2.3-5.1-5.1c0-2.8,2.3-5.1,5.1-5.1h50.7c2.8,0,5.1,2.3,5.1,5.1
			C767.8,1467.5,765.5,1469.8,762.7,1469.8z"/>
		<rect x="737.7" y="1468.7" fill="#6D72A0" width="24.8" height="8"/>
		<path fill="#000543" d="M776.6,1469.7h-19.2c-0.4,0-0.7-0.3-0.7-0.7v-8.7c0-0.4,0.3-0.8,0.8-0.8h18.3c0.5,0,0.9,0.4,0.9,0.9
			V1469.7z"/>
	</g>
	<ellipse fill="#D7E1FC" cx="578.2" cy="1544.1" rx="25.5" ry="30"/>
	<path fill="#000543" d="M618.9,1465.4l0-2.3c0-7.1,5.8-13,12.9-13l88.5-0.3c7.1,0,13,5.8,13,12.9l0,2.3c0,7.1-5.8,13-12.9,13
		l-88.5,0.3C624.8,1478.4,618.9,1472.6,618.9,1465.4z"/>
</g>
<g>
	<g>
		<g>
			<polygon fill="#0B1775" points="1590.3,1582.4 1587.9,1282.9 1529.2,1282.9 1531.7,1582.4 			"/>
		</g>
		<g>
			<polygon fill="#91B4DE" points="1536.9,1582.4 1534.4,1282.9 1018.3,1282.9 1020.7,1582.4 			"/>
		</g>
	</g>
	<g>
		<path fill="#6D72A0" d="M623.1,1443.8h1461.8c26.5,0,47.8-18.6,47.6-41.5l-8.5-917.2c-0.2-22.9-21.9-41.5-48.3-41.5H613.7
			c-26.5,0-47.8,18.6-47.6,41.5l8.5,917.2C574.9,1425.3,596.6,1443.8,623.1,1443.8z"/>
	</g>
	<g>
		<path fill="#91B4DE" d="M576.7,1443.8h1461.8c26.5,0,47.8-18.6,47.6-41.5l-8.5-917.2c-0.2-22.9-21.9-41.5-48.3-41.5H567.4
			c-26.5,0-47.8,18.6-47.6,41.5l8.5,917.2C528.5,1425.3,550.2,1443.8,576.7,1443.8z"/>
	</g>
	<g>
		<path fill="#000543" d="M2043.2,512.2c-0.1-15.2-14.8-27.4-32.7-27.4h-303.2h-293h-96.7h-562h-162c-17.9,0-32.3,12.3-32.2,27.4
			l0.3,28.8l1481.8-1.9L2043.2,512.2z"/>
	</g>
	<g>
		<path fill="#FFFFFF" d="M2048,1031.4l-0.9-92.8l-3.7-399.5l-1481.8,1.9l3.7,397.5l1.2,124.3l2.1,224.6l0.5,58.2
			c0.1,15.2,14.8,27.4,32.7,27.4h724h30.6h134.9h527.5c17.9,0,32.3-12.3,32.2-27.4l-2.1-227.2L2048,1031.4z"/>
	</g>
</g>
<g>
	
		<ellipse transform="matrix(0.7071 -0.7071 0.7071 0.7071 187.8952 1480.597)" fill="#B6E4FC" cx="1881.2" cy="513.5" rx="17.5" ry="17.5"/>
	
		<ellipse transform="matrix(0.7071 -0.7071 0.7071 0.7071 204.8618 1521.558)" fill="#FFE09C" cx="1939.1" cy="513.5" rx="17.5" ry="17.5"/>
	
		<ellipse transform="matrix(0.2298 -0.9732 0.9732 0.2298 1038.4637 2339.1323)" fill="#F7665F" cx="1997" cy="513.5" rx="17.5" ry="17.5"/>
</g>
<g>
	<g>
		<path fill="#D7E1FC" d="M611.4,1283.6v56.7c0,3.6,2.9,6.6,6.6,6.6h124.9c3.6,0,6.6-2.9,6.6-6.6v-57.6L611.4,1283.6z"/>
	</g>
	<g>
		<path fill="#000543" d="M749.4,1283.6v-2.9c0-4-3.3-7.3-7.3-7.3H618.6c-4,0-7.3,3.3-7.3,7.3v2.9H749.4z"/>
	</g>
	<g>
		
			<ellipse transform="matrix(0.2298 -0.9732 0.9732 0.2298 -780.3666 1619.1581)" fill="#FFC179" cx="632.8" cy="1302.6" rx="15" ry="15"/>
	</g>
	<g>
		
			<ellipse transform="matrix(0.7071 -0.7071 0.7071 0.7071 -716.934 874.3627)" fill="#000543" cx="697" cy="1302.6" rx="15" ry="15"/>
	</g>
	<g>
		
			<ellipse transform="matrix(0.224 -0.9746 0.9746 0.224 -775.2575 1675.0841)" fill="#FFFFFF" cx="664.3" cy="1324.4" rx="15" ry="15"/>
	</g>
	<g>
		
			<ellipse transform="matrix(0.1602 -0.9871 0.9871 0.1602 -695.6049 1831.2024)" fill="#98B5E5" cx="728.4" cy="1324.4" rx="15" ry="15"/>
	</g>
</g>
<path fill="#000543" d="M834.9,1237.8H638.6c-14.8,0-26.7-12-26.7-26.7V661.3c0-14.8,12-26.7,26.7-26.7h196.3
	c14.8,0,26.7,12,26.7,26.7v549.8C861.7,1225.9,849.7,1237.8,834.9,1237.8z"/>
<path fill="#C2D1F2" d="M1952.9,1309H787.4c-9.5,0-17.2-7.7-17.2-17.2v-701c0-9.5,7.7-17.2,17.2-17.2h1165.5
	c9.5,0,17.2,7.7,17.2,17.2v701C1970.1,1301.3,1962.4,1309,1952.9,1309z"/>
<rect x="801.3" y="1113.1" fill="#FFFFFF" width="1148.8" height="171.7"/>
<g>
	<path fill="#608EC6" d="M859.1,1186.2h-43.2c-3.5,0-6.2-2.8-6.2-6.2v-54.2c0-3.5,2.8-6.2,6.2-6.2h43.2V1186.2z"/>
	<path fill="#000543" d="M851.4,1140.3h-26.7c-1.5,0-2.7-1.2-2.7-2.7v-9.9c0-1.5,1.2-2.7,2.7-2.7h26.7c1.5,0,2.7,1.2,2.7,2.7v9.9
		C854.1,1139.1,852.9,1140.3,851.4,1140.3z"/>
	<path fill="#FFE578" d="M851.3,1177.6h-34.8c-1.6,0-2.8-1.3-2.8-2.8V1150c0-1.6,1.3-2.8,2.8-2.8h34.8c1.6,0,2.8,1.3,2.8,2.8v24.7
		C854.1,1176.3,852.8,1177.6,851.3,1177.6z"/>
	<rect x="859.1" y="1119.5" fill="#D8EAFC" width="778.7" height="66.7"/>
</g>
<g>
	<path fill="#0B1775" d="M859.1,1271.5h-43.9c-3.1,0-5.6-2.5-5.6-5.6v-61.2c0-3.1,2.5-5.6,5.6-5.6h43.9V1271.5z"/>
	<path fill="#FFC179" d="M851.9,1215.7h-25c-1.2,0-2.2-1-2.2-2.2v-7.4c0-1.2,1-2.2,2.2-2.2h25c1.2,0,2.2,1,2.2,2.2v7.4
		C854.1,1214.8,853.1,1215.7,851.9,1215.7z"/>
	<path fill="#C2D1F2" d="M851.9,1246.4h-36.2c-1.2,0-2.2-1-2.2-2.2v-19.2c0-1.2,1-2.2,2.2-2.2h36.2c1.2,0,2.2,1,2.2,2.2v19.2
		C854.1,1245.4,853.1,1246.4,851.9,1246.4z"/>
	<path fill="#FDE7DF" d="M851.9,1267.9h-30.6c-1.2,0-2.2-1-2.2-2.2v-11.2c0-1.2,1-2.2,2.2-2.2h30.6c1.2,0,2.2,1,2.2,2.2v11.2
		C854.1,1266.9,853.1,1267.9,851.9,1267.9z"/>
	<g>
		<rect x="859.1" y="1199" fill="#000543" width="1090.9" height="72.5"/>
	</g>
</g>
<g>
	<path fill="#98B5E5" d="M1530.1,1279.4H809.6c-0.6,0-1-0.4-1-1c0-0.6,0.4-1,1-1h720.5c0.6,0,1,0.4,1,1
		C1531.1,1278.9,1530.7,1279.4,1530.1,1279.4z"/>
</g>
<g>
	<circle fill="#98B5E5" cx="901" cy="1278.4" r="2.7"/>
</g>
<g>
	<circle fill="#98B5E5" cx="1239.9" cy="1278.4" r="2.7"/>
</g>
<g>
	<circle fill="#98B5E5" cx="1254.4" cy="1278.4" r="2.7"/>
</g>
<circle fill="#FF685A" cx="1489.8" cy="1278.4" r="2.7"/>
<g>
	<path fill="#26182D" d="M1116.2,1193.2H809.6c-0.6,0-1-0.4-1-1c0-0.6,0.4-1,1-1h306.6c0.6,0,1,0.4,1,1
		C1117.2,1192.8,1116.8,1193.2,1116.2,1193.2z"/>
</g>
<g>
	<path fill="#26182D" d="M1712.5,1193.2h-519c-0.6,0-1-0.4-1-1c0-0.6,0.4-1,1-1h519c0.6,0,1,0.4,1,1
		C1713.5,1192.8,1713.1,1193.2,1712.5,1193.2z"/>
</g>
<g>
	<path fill="#26182D" d="M1339.6,1195.2h-35c-1.7,0-3-1.3-3-3s1.3-3,3-3h35c1.6,0,3,1.3,3,3S1341.2,1195.2,1339.6,1195.2z"/>
</g>
<path fill="#000543" d="M1404.1,1195.2h-10.5c-1.7,0-3-1.3-3-3s1.3-3,3-3h10.5c1.6,0,3,1.3,3,3S1405.7,1195.2,1404.1,1195.2z"/>
<g>
	<path fill="#26182D" d="M994.3,1195.2h-87.7c-1.7,0-3-1.3-3-3s1.3-3,3-3h87.7c1.7,0,3,1.3,3,3S996,1195.2,994.3,1195.2z"/>
</g>
<g>
	<path fill="#6D72A0" d="M1328.9,1098.9h-298.6c-4.4,0-7.9-3.5-7.9-7.9V785c0-4.4,3.5-7.9,7.9-7.9h298.6c4.4,0,7.9,3.5,7.9,7.9v306
		C1336.8,1095.4,1333.3,1098.9,1328.9,1098.9z"/>
	<g>
		<g>
			<rect x="1011" y="820.7" fill="#C2D1F2" width="333.3" height="1"/>
		</g>
		<rect x="1011" y="866.5" fill="#C2D1F2" width="333.3" height="1"/>
		<rect x="1011" y="912.3" fill="#C2D1F2" width="333.3" height="1"/>
		<rect x="1011" y="958.1" fill="#C2D1F2" width="333.3" height="1"/>
		<rect x="1011" y="1003.9" fill="#C2D1F2" width="333.3" height="1"/>
		<g>
			<rect x="1011" y="1049.7" fill="#C2D1F2" width="333.3" height="1"/>
		</g>
	</g>
	<path fill="#C2D1F2" d="M1319.7,799.2c0,3.1-2.5,5.7-5.7,5.7s-5.7-2.5-5.7-5.7c0-3.1,2.5-5.7,5.7-5.7S1319.7,796.1,1319.7,799.2z"
		/>
	<path fill="#C2D1F2" d="M1059,844.2c0,3.1-2.5,5.7-5.7,5.7c-3.1,0-5.7-2.5-5.7-5.7c0-3.1,2.5-5.7,5.7-5.7
		C1056.5,838.6,1059,841.1,1059,844.2z"/>
	<g>
		<path fill="#FFE578" d="M1294.7,793.4l-9.1-7.3c-0.5-0.4-1-0.6-1.6-0.6h-27.3c-1.4,0-2.6,1.2-2.6,2.6v22.2c0,1.4,1.2,2.6,2.6,2.6
			h36.4c1.4,0,2.6-1.2,2.6-2.6v-14.9C1295.6,794.6,1295.3,793.9,1294.7,793.4z"/>
		<path fill="#FFE578" d="M1294.7,839.1l-9.1-7.3c-0.5-0.4-1-0.6-1.6-0.6h-27.3c-1.4,0-2.6,1.2-2.6,2.6V856c0,1.4,1.2,2.6,2.6,2.6
			h36.4c1.4,0,2.6-1.2,2.6-2.6v-14.9C1295.6,840.4,1295.3,839.6,1294.7,839.1z"/>
		<path fill="#FFE578" d="M1294.7,884.8l-9.1-7.3c-0.5-0.4-1-0.6-1.6-0.6h-27.3c-1.4,0-2.6,1.2-2.6,2.6v22.2c0,1.4,1.2,2.6,2.6,2.6
			h36.4c1.4,0,2.6-1.2,2.6-2.6v-14.9C1295.6,886.1,1295.3,885.3,1294.7,884.8z"/>
		<path fill="#FFE578" d="M1294.7,930.5l-9.1-7.3c-0.5-0.4-1-0.6-1.6-0.6h-27.3c-1.4,0-2.6,1.2-2.6,2.6v22.2c0,1.4,1.2,2.6,2.6,2.6
			h36.4c1.4,0,2.6-1.2,2.6-2.6v-14.9C1295.6,931.8,1295.3,931,1294.7,930.5z"/>
		<path fill="#FFE578" d="M1294.7,976.2l-9.1-7.3c-0.5-0.4-1-0.6-1.6-0.6h-27.3c-1.4,0-2.6,1.2-2.6,2.6v22.2c0,1.4,1.2,2.6,2.6,2.6
			h36.4c1.4,0,2.6-1.2,2.6-2.6v-14.9C1295.6,977.5,1295.3,976.7,1294.7,976.2z"/>
		<path fill="#FFE578" d="M1294.7,1021.9l-9.1-7.3c-0.5-0.4-1-0.6-1.6-0.6h-27.3c-1.4,0-2.6,1.2-2.6,2.6v22.2c0,1.4,1.2,2.6,2.6,2.6
			h36.4c1.4,0,2.6-1.2,2.6-2.6V1024C1295.6,1023.2,1295.3,1022.4,1294.7,1021.9z"/>
		<path fill="#FFE578" d="M1294.7,1067.6l-9.1-7.3c-0.5-0.4-1-0.6-1.6-0.6h-27.3c-1.4,0-2.6,1.2-2.6,2.6v22.2c0,1.4,1.2,2.6,2.6,2.6
			h36.4c1.4,0,2.6-1.2,2.6-2.6v-14.9C1295.6,1068.9,1295.3,1068.1,1294.7,1067.6z"/>
	</g>
	<polygon fill="#D7E1FC" points="1244.7,796 1235.2,809.7 1225.6,796 	"/>
	<g>
		<g>
			<polygon fill="#C2D1F2" points="1077,828.7 1077,831.3 1190.2,830.7 1190.2,828.2 			"/>
			<polygon fill="#C2D1F2" points="1225.6,828 1210.8,828.1 1210.8,830.7 1225.6,830.6 			"/>
			<polygon fill="#C2D1F2" points="1124.1,834 1077,834.2 1077,836.8 1124.1,836.5 			"/>
			<polygon fill="#C2D1F2" points="1144.7,833.9 1144.7,836.4 1225.6,836.1 1225.6,833.5 			"/>
			<path fill="#C2D1F2" d="M1165,839.3l-87.9,0.4c0,0-0.1,0-0.1,0v2.6c0,0,0.1,0,0.1,0l87.9-0.4C1165,841.9,1165,839.3,1165,839.3
				C1165,839.3,1165,839.3,1165,839.3z"/>
		</g>
		<g>
			<polygon fill="#C2D1F2" points="1190.4,844.5 1077,845.1 1077,847.6 1190.4,847.1 			"/>
			<polygon fill="#C2D1F2" points="1210.8,844.4 1210.8,847 1225.6,846.9 1225.6,844.4 			"/>
			<path fill="#C2D1F2" d="M1124.4,850.3l-47.4,0.2v2.6l47.3-0.2C1124.4,852.9,1124.4,850.3,1124.4,850.3
				C1124.4,850.3,1124.4,850.3,1124.4,850.3z"/>
			<polygon fill="#C2D1F2" points="1144.9,850.2 1144.9,852.8 1225.6,852.4 1225.6,849.8 			"/>
			<path fill="#C2D1F2" d="M1077.4,856.1c-0.1,0-0.2,0-0.4,0v2.6c0.1,0,0.2,0,0.3,0l87.9-0.4c0,0,0-2.5,0-2.5L1077.4,856.1z"/>
		</g>
	</g>
	<path fill="#C2D1F2" d="M1059,889.9c0,3.1-2.5,5.7-5.7,5.7c-3.1,0-5.7-2.5-5.7-5.7c0-3.1,2.5-5.7,5.7-5.7
		C1056.5,884.2,1059,886.8,1059,889.9z"/>
	<g>
		<g>
			<polygon fill="#C2D1F2" points="1077,878.1 1077,880.6 1190.2,880.1 1190.2,877.5 			"/>
			<polygon fill="#C2D1F2" points="1225.6,877.4 1210.8,877.4 1210.8,880 1225.6,879.9 			"/>
			<polygon fill="#C2D1F2" points="1124.1,883.3 1077,883.5 1077,886.1 1124.1,885.9 			"/>
			<polygon fill="#C2D1F2" points="1144.7,883.2 1144.7,885.8 1225.6,885.4 1225.6,882.8 			"/>
			<path fill="#C2D1F2" d="M1165,888.7l-87.9,0.4c0,0-0.1,0-0.1,0v2.6c0,0,0.1,0,0.1,0l87.9-0.4C1165,891.2,1165,888.7,1165,888.7
				C1165,888.7,1165,888.7,1165,888.7z"/>
		</g>
		<g>
			<polygon fill="#C2D1F2" points="1190.4,893.9 1077,894.4 1077,897 1190.4,896.5 			"/>
			<polygon fill="#C2D1F2" points="1196,893.8 1196,896.4 1210.8,896.3 1210.8,893.7 			"/>
			<path fill="#C2D1F2" d="M1124.4,899.7l-47.4,0.2v2.6l47.3-0.2C1124.4,902.2,1124.4,899.7,1124.4,899.7
				C1124.4,899.7,1124.4,899.7,1124.4,899.7z"/>
		</g>
	</g>
	<path fill="#C2D1F2" d="M1059,936.3c0,3.1-2.5,5.7-5.7,5.7c-3.1,0-5.7-2.5-5.7-5.7c0-3.1,2.5-5.7,5.7-5.7
		C1056.5,930.7,1059,933.2,1059,936.3z"/>
	<g>
		<g>
			<polygon fill="#C2D1F2" points="1077,930.2 1077,932.7 1190.2,932.2 1190.2,929.6 			"/>
			<polygon fill="#C2D1F2" points="1225.6,929.5 1210.8,929.5 1210.8,932.1 1225.6,932 			"/>
			<polygon fill="#C2D1F2" points="1124.1,935.4 1077,935.6 1077,938.2 1124.1,938 			"/>
			<polygon fill="#C2D1F2" points="1144.7,935.3 1144.7,937.9 1225.6,937.5 1225.6,934.9 			"/>
			<path fill="#C2D1F2" d="M1165,940.8l-87.9,0.4c0,0-0.1,0-0.1,0v2.6c0,0,0.1,0,0.1,0l87.9-0.4C1165,943.3,1165,940.8,1165,940.8
				C1165,940.8,1165,940.8,1165,940.8z"/>
		</g>
	</g>
	<path fill="#C2D1F2" d="M1059,983.4c0,3.1-2.5,5.7-5.7,5.7c-3.1,0-5.7-2.5-5.7-5.7s2.5-5.7,5.7-5.7
		C1056.5,977.7,1059,980.3,1059,983.4z"/>
	<g>
		<g>
			<polygon fill="#C2D1F2" points="1124.1,973.1 1077,973.3 1077,975.9 1124.1,975.7 			"/>
			<polygon fill="#C2D1F2" points="1144.7,973 1144.7,975.6 1225.6,975.2 1225.6,972.6 			"/>
			<path fill="#C2D1F2" d="M1165,978.5l-87.9,0.4c0,0-0.1,0-0.1,0v2.6c0,0,0.1,0,0.1,0l87.9-0.4C1165,981,1165,978.5,1165,978.5
				C1165,978.5,1165,978.5,1165,978.5z"/>
		</g>
		<g>
			<polygon fill="#C2D1F2" points="1190.4,983.7 1077,984.2 1077,986.8 1190.4,986.3 			"/>
			<polygon fill="#C2D1F2" points="1210.8,983.6 1210.8,986.2 1225.6,986.1 1225.6,983.5 			"/>
			<path fill="#C2D1F2" d="M1124.4,989.5l-47.4,0.2v2.6l47.3-0.2C1124.4,992,1124.4,989.5,1124.4,989.5
				C1124.4,989.5,1124.4,989.5,1124.4,989.5z"/>
			<polygon fill="#C2D1F2" points="1133.6,989.4 1133.6,992 1214.4,991.6 1214.4,989 			"/>
		</g>
	</g>
	<path fill="#C2D1F2" d="M1059,1029.1c0,3.1-2.5,5.7-5.7,5.7c-3.1,0-5.7-2.5-5.7-5.7s2.5-5.7,5.7-5.7
		C1056.5,1023.4,1059,1025.9,1059,1029.1z"/>
	<g>
		<g>
			<polygon fill="#C2D1F2" points="1124.1,1020 1077,1020.2 1077,1022.8 1124.1,1022.6 			"/>
			<polygon fill="#C2D1F2" points="1144.7,1019.9 1144.7,1022.5 1225.6,1022.1 1225.6,1019.5 			"/>
			<path fill="#C2D1F2" d="M1165,1025.4l-87.9,0.4c0,0-0.1,0-0.1,0v2.6c0,0,0.1,0,0.1,0l87.9-0.4
				C1165,1027.9,1165,1025.4,1165,1025.4C1165,1025.4,1165,1025.4,1165,1025.4z"/>
		</g>
		<g>
			<polygon fill="#C2D1F2" points="1190.4,1030.6 1077,1031.1 1077,1033.7 1190.4,1033.1 			"/>
			<polygon fill="#C2D1F2" points="1196,1030.5 1196,1033 1210.8,1033 1210.8,1030.4 			"/>
			<path fill="#C2D1F2" d="M1124.4,1036.3l-47.4,0.2v2.6l47.3-0.2C1124.4,1038.9,1124.4,1036.3,1124.4,1036.3
				C1124.4,1036.3,1124.4,1036.3,1124.4,1036.3z"/>
		</g>
	</g>
	<path fill="#C2D1F2" d="M1059,1075.5c0,3.1-2.5,5.7-5.7,5.7c-3.1,0-5.7-2.5-5.7-5.7c0-3.1,2.5-5.7,5.7-5.7
		C1056.5,1069.8,1059,1072.4,1059,1075.5z"/>
	<g>
		<g>
			<polygon fill="#C2D1F2" points="1077,1069.3 1077,1071.9 1190.2,1071.4 1190.2,1068.8 			"/>
			<polygon fill="#C2D1F2" points="1225.6,1068.6 1210.8,1068.7 1210.8,1071.3 1225.6,1071.2 			"/>
			<polygon fill="#C2D1F2" points="1124.1,1074.6 1077,1074.8 1077,1077.4 1124.1,1077.1 			"/>
			<polygon fill="#C2D1F2" points="1144.7,1074.5 1144.7,1077 1225.6,1076.7 1225.6,1074.1 			"/>
			<path fill="#C2D1F2" d="M1165,1079.9l-87.9,0.4c0,0-0.1,0-0.1,0v2.6c0,0,0.1,0,0.1,0l87.9-0.4
				C1165,1082.5,1165,1079.9,1165,1079.9C1165,1079.9,1165,1079.9,1165,1079.9z"/>
		</g>
	</g>
	<rect x="1053.4" y="796.1" fill="#C2D1F2" width="157.4" height="11.3"/>
</g>
<rect x="1585.8" y="1117.2" fill="#FFFFFF" width="4" height="72"/>
<rect x="1492.5" y="1117.2" fill="#FFFFFF" width="4" height="72"/>
<rect x="1338.6" y="1117.2" fill="#FFFFFF" width="4" height="72"/>
<rect x="1059.1" y="1116.9" fill="#FFFFFF" width="4" height="72"/>
<rect x="922.7" y="1115.9" fill="#FFFFFF" width="4" height="72"/>
<rect x="966.7" y="1196.9" fill="#FFFFFF" width="4" height="78.9"/>
<rect x="1001.6" y="1196.9" fill="#FFFFFF" width="4" height="78.9"/>
<rect x="1175.7" y="1196.9" fill="#FFFFFF" width="4" height="78.9"/>
<rect x="1297.6" y="1196.9" fill="#FFFFFF" width="4" height="78.9"/>
<rect x="1351.3" y="1195.9" fill="#FFFFFF" width="4" height="78.9"/>
<rect x="1571.4" y="1196.9" fill="#FFFFFF" width="4" height="78.9"/>
<rect x="1664.6" y="1196.9" fill="#FFFFFF" width="4" height="78.9"/>
<rect x="1875.5" y="1196.9" fill="#FFFFFF" width="4" height="78.9"/>
<rect x="1355.8" y="1116.9" fill="#FFFFFF" width="4" height="72"/>
<g>
	<path fill="#6D72A0" d="M1330.7,765H832c-4.4,0-8-3.6-8-8V611.3c0-4.4,3.6-8,8-8h498.6c4.4,0,8,3.6,8,8v145.6
		C1338.7,761.4,1335.1,765,1330.7,765z"/>
	<g>
		<path fill="#C2D1F2" d="M1318.2,750.6h-104.4c-4.1,0-7.5-3.3-7.5-7.5V620.4c0-4.1,3.3-7.5,7.5-7.5h104.4c4.1,0,7.5,3.3,7.5,7.5
			v122.8C1325.6,747.2,1322.3,750.6,1318.2,750.6z"/>
		<g>
			<g>
				<g>
					<path fill="#C2D1F2" d="M929.7,635.9c-1.5,0-2.7-1.4-2.6-3.1c0-1.7,1.2-3.1,2.7-3.1c1.5,0,2.7,1.4,2.6,3.1
						C932.4,634.6,931.2,636,929.7,635.9z"/>
					<path fill="#C2D1F2" d="M929.6,652.1c-1.5,0-2.7-1.4-2.6-3.1c0-1.7,1.2-3.1,2.7-3.1c1.5,0,2.7,1.4,2.6,3.1
						C932.2,650.8,931,652.1,929.6,652.1z"/>
					<path fill="#C2D1F2" d="M929.4,668.3c-1.5,0-2.7-1.4-2.6-3.1c0-1.7,1.2-3.1,2.7-3.1c1.5,0,2.7,1.4,2.6,3.1
						C932.1,666.9,930.8,668.3,929.4,668.3z"/>
					<path fill="#C2D1F2" d="M929.2,684.5c-1.5,0-2.7-1.4-2.6-3.1c0-1.7,1.2-3.1,2.7-3.1c1.5,0,2.7,1.4,2.6,3.1
						C931.9,683.1,930.7,684.5,929.2,684.5z"/>
					<path fill="#C2D1F2" d="M929,700.7c-1.5,0-2.7-1.4-2.6-3.1c0-1.7,1.2-3.1,2.7-3.1c1.5,0,2.7,1.4,2.6,3.1
						C931.7,699.3,930.5,700.7,929,700.7z"/>
					<path fill="#C2D1F2" d="M928.8,716.9c-1.5,0-2.7-1.4-2.6-3.1c0-1.7,1.2-3.1,2.7-3.1c1.5,0,2.7,1.4,2.6,3.1
						C931.5,715.5,930.3,716.9,928.8,716.9z"/>
				</g>
			</g>
			<polygon fill="#C2D1F2" points="907.3,631.2 864.8,631 864.7,638.8 907.3,639 			"/>
			<polygon fill="#C2D1F2" points="907.2,646.5 864.6,646.2 864.6,654 907.1,654.3 			"/>
			<polygon fill="#C2D1F2" points="906.8,677 842.5,676.6 842.4,684.4 906.7,684.8 			"/>
			<polygon fill="#C2D1F2" points="842.1,704.7 842.1,712.5 892.4,712.8 892.5,705 			"/>
			<polygon fill="#C2D1F2" points="843,630.9 842.9,638.7 858,638.8 858.1,631 			"/>
			<polygon fill="#C2D1F2" points="842.8,646.1 842.7,653.9 857.9,654 858,646.2 			"/>
		</g>
		<g>
			<g>
				<path fill="#F7665F" d="M1001.1,687H960l0-2c0.2-34.4,28.3-62.6,62.6-62.9l2,0l0.1,39.3l-2,0c-12.1,0.2-21.9,10.1-21.9,22.2
					c0,0.3,0,0.5,0,0.8L1001.1,687z M964.1,682.9h32.7c0.4-13.3,10.8-24.3,23.9-25.5l0-31.2C990.1,627.4,965.4,652.3,964.1,682.9z"
					/>
			</g>
			<g>
				<path fill="#FFFFFF" d="M979.9,731.4l-1.5-1.5C966.6,718,960,702.1,960,685.2l0-2l2-0.3h38.8l0.1,1.9c0.3,5.7,2.8,11,6.9,14.9
					l1.5,1.4L979.9,731.4z M964.1,687c0.5,14.6,6,28.1,15.8,38.6l23.7-24.4c-3.6-4-5.9-8.9-6.6-14.3H964.1z"/>
			</g>
			<path fill="#C2D1F2" d="M1086.1,684.9c0,0,0-0.1,0-0.1c-0.2-34.6-28.5-62.7-63-62.7l-2.4,0l0.1,37.3l0.3,2h2
				c12.2,0,22.2,10,22.1,22.2c0,12.3-10,22.2-22.2,22.2c-5.6,0-11-2.1-15.2-6.1l-1.5-1.4l-29.4,30.2l1.4,1.4
				c11.9,11.9,27.6,18.4,44.5,18.5C1057.7,748.5,1086,719.9,1086.1,684.9C1086.1,684.9,1086.1,684.9,1086.1,684.9z M1022.9,744.4
				c-15,0-29.2-5.7-40.1-15.9l23.8-24.4c4.7,3.8,10.4,5.8,16.4,5.8c14.5,0,26.2-11.8,26.2-26.3c0-13.8-10.7-25.2-24.5-26.2
				l-0.1-31.2c31.6,0.9,57.1,26.8,57.3,58.7C1082,717.4,1055.5,744.4,1022.9,744.4z"/>
		</g>
		<g>
			<g>
				<path fill="#6D72A0" d="M1289.8,738.2H1228c-3.7,0-6.7-3-6.7-6.7v-99.2c0-3.7,3-6.7,6.7-6.7h54.3c2,0,3.9,0.9,5.1,2.4l7.5,9
					c1,1.2,1.6,2.7,1.6,4.3v90.2C1296.5,735.2,1293.5,738.2,1289.8,738.2z"/>
			</g>
			<g>
				<g>
					<path fill="#C2D1F2" d="M1255.7,685.2h-25c-0.4,0-0.7-0.3-0.7-0.7s0.3-0.7,0.7-0.7h25c0.4,0,0.7,0.3,0.7,0.7
						S1256.1,685.2,1255.7,685.2z"/>
				</g>
				<g>
					<path fill="#C2D1F2" d="M1255.7,690.6h-25c-0.4,0-0.7-0.3-0.7-0.7c0-0.4,0.3-0.7,0.7-0.7h25c0.4,0,0.7,0.3,0.7,0.7
						C1256.4,690.3,1256.1,690.6,1255.7,690.6z"/>
				</g>
				<g>
					<path fill="#C2D1F2" d="M1255.7,695.9h-25c-0.4,0-0.7-0.3-0.7-0.7c0-0.4,0.3-0.7,0.7-0.7h25c0.4,0,0.7,0.3,0.7,0.7
						C1256.4,695.6,1256.1,695.9,1255.7,695.9z"/>
				</g>
				<g>
					<path fill="#C2D1F2" d="M1255.7,701.3h-25c-0.4,0-0.7-0.3-0.7-0.7c0-0.4,0.3-0.7,0.7-0.7h25c0.4,0,0.7,0.3,0.7,0.7
						C1256.4,701,1256.1,701.3,1255.7,701.3z"/>
				</g>
				<g>
					<path fill="#C2D1F2" d="M1255.7,706.6h-25c-0.4,0-0.7-0.3-0.7-0.7c0-0.4,0.3-0.7,0.7-0.7h25c0.4,0,0.7,0.3,0.7,0.7
						C1256.4,706.3,1256.1,706.6,1255.7,706.6z"/>
				</g>
				<g>
					<path fill="#C2D1F2" d="M1255.7,712h-25c-0.4,0-0.7-0.3-0.7-0.7c0-0.4,0.3-0.7,0.7-0.7h25c0.4,0,0.7,0.3,0.7,0.7
						C1256.4,711.7,1256.1,712,1255.7,712z"/>
				</g>
				<g>
					<path fill="#C2D1F2" d="M1255.7,717.3h-25c-0.4,0-0.7-0.3-0.7-0.7c0-0.4,0.3-0.7,0.7-0.7h25c0.4,0,0.7,0.3,0.7,0.7
						C1256.4,717,1256.1,717.3,1255.7,717.3z"/>
				</g>
				<g>
					<path fill="#C2D1F2" d="M1255.7,722.7h-25c-0.4,0-0.7-0.3-0.7-0.7c0-0.4,0.3-0.7,0.7-0.7h25c0.4,0,0.7,0.3,0.7,0.7
						C1256.4,722.4,1256.1,722.7,1255.7,722.7z"/>
				</g>
				<g>
					<path fill="#C2D1F2" d="M1250.3,728h-19.7c-0.4,0-0.7-0.3-0.7-0.7c0-0.4,0.3-0.7,0.7-0.7h19.7c0.4,0,0.7,0.3,0.7,0.7
						C1251,727.7,1250.7,728,1250.3,728z"/>
				</g>
			</g>
		</g>
		<g>
			<g>
				<rect x="1095.2" y="627.1" fill="#C2D1F2" width="102" height="1"/>
				<rect x="1095.2" y="654.7" fill="#C2D1F2" width="102" height="1.1"/>
				<rect x="1095.2" y="682.3" fill="#C2D1F2" width="102" height="1.2"/>
				<rect x="1095.2" y="709.9" fill="#C2D1F2" width="102" height="1.2"/>
				<rect x="1095.2" y="737.5" fill="#C2D1F2" width="102" height="1.3"/>
			</g>
			<path fill="#FFFFFF" d="M1179.3,627.6c0-1.1,0.9-2,2-2h6.7c1.1,0,2,0.9,2,2c0,1.1-0.9,2-2,2h-6.7
				C1180.2,629.6,1179.3,628.7,1179.3,627.6z"/>
			<path fill="#FFFFFF" d="M1164.9,738.2c0-1.1,0.9-2,2-2h6.7c1.1,0,2,0.9,2,2c0,1.1-0.9,2-2,2h-6.7
				C1165.8,740.2,1164.9,739.3,1164.9,738.2z"/>
			<path fill="#FFFFFF" d="M1150.1,682.9c0-1.1,0.9-2,2-2h6.7c1.1,0,2,0.9,2,2c0,1.1-0.9,2-2,2h-6.7
				C1151,684.9,1150.1,684,1150.1,682.9z"/>
			<path fill="#FFFFFF" d="M1099.6,710.6c0-1.1,0.9-2,2-2h6.7c1.1,0,2,0.9,2,2c0,1.1-0.9,2-2,2h-6.7
				C1100.5,712.6,1099.6,711.7,1099.6,710.6z"/>
			<path fill="#FFFFFF" d="M1119.7,655.1c0-1.1,0.9-2,2-2h6.7c1.1,0,2,0.9,2,2s-0.9,2-2,2h-6.7
				C1120.6,657.1,1119.7,656.2,1119.7,655.1z"/>
		</g>
	</g>
</g>
<g>
	<g>
		<rect x="658.4" y="972.4" fill="#594466" width="111.8" height="2.1"/>
		<rect x="658.4" y="1027.3" fill="#594466" width="111.8" height="2.2"/>
		<rect x="658.4" y="1082.3" fill="#594466" width="111.8" height="2.3"/>
		<rect x="658.4" y="1137.3" fill="#594466" width="111.8" height="2.4"/>
		<rect x="658.4" y="1192.2" fill="#594466" width="111.8" height="2.5"/>
	</g>
	<g>
		<path fill="#594466" d="M750.6,975.4v-4c0-1.1,0.9-2,2-2h7.7c1.1,0,2,0.9,2,2v4c0,1.1-0.9,2-2,2h-7.7
			C751.5,977.4,750.6,976.5,750.6,975.4z"/>
	</g>
	<g>
		<path fill="#594466" d="M734.9,1195.6v-4c0-1.1,0.9-2,2-2h7.7c1.1,0,2,0.9,2,2v4c0,1.1-0.9,2-2,2h-7.7
			C735.8,1197.6,734.9,1196.7,734.9,1195.6z"/>
	</g>
	<g>
		<path fill="#594466" d="M718.6,1085.5v-4c0-1.1,0.9-2,2-2h7.7c1.1,0,2,0.9,2,2v4c0,1.1-0.9,2-2,2h-7.7
			C719.5,1087.5,718.6,1086.6,718.6,1085.5z"/>
	</g>
	<g>
		<path fill="#594466" d="M663.3,1140.7v-4c0-1.1,0.9-2,2-2h7.7c1.1,0,2,0.9,2,2v4c0,1.1-0.9,2-2,2h-7.7
			C664.2,1142.7,663.3,1141.8,663.3,1140.7z"/>
	</g>
	<g>
		<path fill="#594466" d="M685.3,1030.2v-4c0-1.1,0.9-2,2-2h7.7c1.1,0,2,0.9,2,2v4c0,1.1-0.9,2-2,2h-7.7
			C686.2,1032.2,685.3,1031.3,685.3,1030.2z"/>
	</g>
</g>
<g>
	<path fill="#6D72A0" d="M977.5,1098.6H819c-5.8,0-10.5-4.7-10.5-10.5V850.8c0-5.8,4.7-10.5,10.5-10.5h158.6
		c5.8,0,10.5,4.7,10.5,10.5v237.3C988.1,1093.9,983.3,1098.6,977.5,1098.6z"/>
	<g>
		<path fill="#FFE578" d="M898.3,1015.4c6.7-8.9,17.3-14.7,29.3-14.7c2.7,0,5.2,0.3,7.7,0.8c0.2-1.4,0.2-2.7,0.2-4.1
			c0-20.2-16.3-36.5-36.5-36.5c-20.2,0-36.5,16.3-36.5,36.5c0,1.3,0.1,2.6,0.2,3.8c2-0.4,4.1-0.5,6.3-0.5
			C881,1000.7,891.6,1006.5,898.3,1015.4z"/>
		<path fill="#131055" d="M891.3,1033.1c-15.2-3.3-26.9-16.1-28.6-31.8c-17.2,3-30.2,17.9-30.2,35.9c0,20.2,16.3,36.5,36.5,36.5
			c12,0,22.6-5.8,29.3-14.7c-4.5-6.1-7.2-13.6-7.2-21.8C891.1,1035.8,891.1,1034.5,891.3,1033.1z"/>
		<path fill="#131055" d="M891.3,1033.1c0.7-6.6,3.2-12.6,7-17.7c-6.7-8.9-17.3-14.7-29.3-14.7c-2.1,0-4.2,0.2-6.3,0.5
			C864.4,1017,876.1,1029.8,891.3,1033.1z"/>
		<path fill="#F7665F" d="M935.3,1001.5c-1.8,16.1-14.2,29.1-30,31.8c0.1,1.3,0.2,2.5,0.2,3.8c0,8.2-2.7,15.7-7.2,21.8
			c6.7,8.9,17.3,14.7,29.3,14.7c20.2,0,36.5-16.3,36.5-36.5C964,1019.7,951.7,1005.1,935.3,1001.5z"/>
		<path fill="#FFE578" d="M898.3,1015.4c3.8,5.1,6.3,11.3,7,17.9c15.8-2.7,28.2-15.7,30-31.8c-2.5-0.5-5.1-0.8-7.7-0.8
			C915.6,1000.7,904.9,1006.5,898.3,1015.4z"/>
		<path fill="#F7665F" d="M905.3,1033.4c-2,0.4-4.1,0.5-6.3,0.5c-2.7,0-5.2-0.3-7.7-0.8c-0.2,1.4-0.2,2.7-0.2,4.1
			c0,8.2,2.7,15.7,7.2,21.8c4.5-6.1,7.2-13.6,7.2-21.8C905.5,1035.9,905.4,1034.6,905.3,1033.4z"/>
		<path fill="#F7665F" d="M891.3,1033.1c2.5,0.5,5.1,0.8,7.7,0.8c2.1,0,4.2-0.2,6.3-0.5c-0.7-6.7-3.2-12.8-7-17.9
			C894.5,1020.5,892,1026.5,891.3,1033.1z"/>
	</g>
	<g>
		<g>
			<g>
				<path fill="#B9CBED" d="M963.7,881.3H835.9c-2.8,0-5.1-2.3-5.1-5.1c0-2.8,2.3-5.1,5.1-5.1h127.9c2.8,0,5.1,2.3,5.1,5.1
					C968.9,879,966.5,881.3,963.7,881.3z"/>
			</g>
			<g>
				<path fill="#B9CBED" d="M963.7,912.5H835.9c-2.8,0-5.1-2.3-5.1-5.1c0-2.8,2.3-5.1,5.1-5.1h127.9c2.8,0,5.1,2.3,5.1,5.1
					C968.9,910.2,966.5,912.5,963.7,912.5z"/>
			</g>
			<g>
				<path fill="#B9CBED" d="M963.7,943.7H835.9c-2.8,0-5.1-2.3-5.1-5.1s2.3-5.1,5.1-5.1h127.9c2.8,0,5.1,2.3,5.1,5.1
					S966.5,943.7,963.7,943.7z"/>
			</g>
		</g>
		<g>
			
				<ellipse transform="matrix(0.9249 -0.3803 0.3803 0.9249 -269.1391 388.3758)" fill="#FFFFFF" cx="848.4" cy="875.4" rx="10.4" ry="10.4"/>
		</g>
		<g>
			<circle fill="#FFE578" cx="950.3" cy="907.3" r="10.4"/>
		</g>
		<g>
			
				<ellipse transform="matrix(0.9135 -0.4067 0.4067 0.9135 -306.7423 433.9544)" fill="#131055" cx="867.4" cy="938.5" rx="10.4" ry="10.4"/>
		</g>
	</g>
</g>
<g>
	<g>
		<g>
			<path fill="#452A51" d="M770.2,689.9H653.5c-2.7,0-4.8,2.2-4.8,4.8s2.2,4.8,4.8,4.8h116.7V689.9z"/>
		</g>
		<g>
			<path fill="#452A51" d="M770.2,719.2H653.5c-2.7,0-4.8,2.2-4.8,4.8s2.2,4.8,4.8,4.8h116.7V719.2z"/>
		</g>
		<g>
			<path fill="#452A51" d="M770.2,748.5H653.5c-2.7,0-4.8,2.2-4.8,4.8c0,2.7,2.2,4.8,4.8,4.8h116.7V748.5z"/>
		</g>
		<g>
			<path fill="#452A51" d="M770.2,777.7H653.5c-2.7,0-4.8,2.2-4.8,4.8s2.2,4.8,4.8,4.8h116.7V777.7z"/>
		</g>
		<g>
			<path fill="#452A51" d="M770.2,807H653.5c-2.7,0-4.8,2.2-4.8,4.8s2.2,4.8,4.8,4.8h116.7V807z"/>
		</g>
		<g>
			<path fill="#452A51" d="M770.2,836.3H653.5c-2.7,0-4.8,2.2-4.8,4.8c0,2.7,2.2,4.8,4.8,4.8h116.7V836.3z"/>
		</g>
		<g>
			<path fill="#452A51" d="M770.2,865.6H653.5c-2.7,0-4.8,2.2-4.8,4.8s2.2,4.8,4.8,4.8h116.7V865.6z"/>
		</g>
	</g>
	<g>
		<circle fill="#6D72A0" cx="665.2" cy="694" r="9.7"/>
	</g>
	<g>
		<circle fill="#6D72A0" cx="745.4" cy="724" r="9.7"/>
	</g>
	<g>
		<circle fill="#6D72A0" cx="692.8" cy="840.6" r="9.7"/>
	</g>
	<g>
		<circle fill="#6D72A0" cx="683.1" cy="753.3" r="9.7"/>
	</g>
	<g>
		<circle fill="#6D72A0" cx="723.2" cy="782.6" r="9.7"/>
	</g>
	<g>
		<circle fill="#6D72A0" cx="740.5" cy="870.4" r="9.7"/>
	</g>
	<g>
		<circle fill="#6D72A0" cx="755.1" cy="811.8" r="9.7"/>
	</g>
</g>
<g>
	<path fill="#26182D" d="M1606.7,1600.3H996.5c-3.9,0-7-3.2-7-7v-9.1c0-3.9,3.2-7,7-7h610.2c3.9,0,7,3.2,7,7v9.1
		C1613.8,1597.1,1610.6,1600.3,1606.7,1600.3z"/>
</g>
<ellipse fill="#FBE9DC" cx="1973.1" cy="1314.7" rx="9.4" ry="12.5"/>
<g>
	<path fill="#FBE9DC" d="M1973.1,1306.1c-0.4,0-0.8-0.3-1-0.7c-8.7-27.4-39.6-26-40-26c-0.5,0-1-0.4-1.1-0.9c0-0.6,0.4-1,0.9-1.1
		c0.3,0,32.8-1.5,42,27.4c0.2,0.5-0.1,1.1-0.7,1.3C1973.3,1306.1,1973.2,1306.1,1973.1,1306.1z"/>
</g>
<g>
	<path fill="#452A51" d="M1530.5,835.4v165.8c0,23-19.3,41.6-43.2,41.6h-53.5c-23.9,0-43.2,18.6-43.2,41.6v475.4
		c0,23,19.3,41.6,43.2,41.6h545.1c23.9,0,43.2-18.6,43.2-41.6V835.4c0-23-19.3-41.6-43.2-41.6h-405.2
		C1549.8,793.8,1530.5,812.4,1530.5,835.4z"/>
	<g>
		<path fill="#FFFFFF" d="M1428.4,1099.3v24.6c0,3.5,2.9,6.4,6.5,6.4h25.1c3.6,0,6.5-2.9,6.5-6.4v-24.6c0-3.5-2.9-6.4-6.5-6.4h-25.1
			C1431.3,1092.9,1428.4,1095.7,1428.4,1099.3z"/>
		<path fill="#FFFFFF" d="M1428.4,1171v24.6c0,3.5,2.9,6.4,6.5,6.4h25.1c3.6,0,6.5-2.9,6.5-6.4V1171c0-3.5-2.9-6.4-6.5-6.4h-25.1
			C1431.3,1164.6,1428.4,1167.5,1428.4,1171z"/>
		<path fill="#FFFFFF" d="M1428.4,1242.8v24.6c0,3.5,2.9,6.4,6.5,6.4h25.1c3.6,0,6.5-2.9,6.5-6.4v-24.6c0-3.5-2.9-6.4-6.5-6.4h-25.1
			C1431.3,1236.4,1428.4,1239.2,1428.4,1242.8z"/>
		<path fill="#FFFFFF" d="M1428.4,1314.5v24.6c0,3.5,2.9,6.4,6.5,6.4h25.1c3.6,0,6.5-2.9,6.5-6.4v-24.6c0-3.5-2.9-6.4-6.5-6.4h-25.1
			C1431.3,1308.1,1428.4,1311,1428.4,1314.5z"/>
		<path fill="#FFFFFF" d="M1428.4,1386.2v24.6c0,3.5,2.9,6.4,6.5,6.4h25.1c3.6,0,6.5-2.9,6.5-6.4v-24.6c0-3.5-2.9-6.4-6.5-6.4h-25.1
			C1431.3,1379.8,1428.4,1382.7,1428.4,1386.2z"/>
	</g>
	<g>
		<path fill="#FFFFFF" d="M1958.9,1239.6v24.6c0,3.5,2.9,6.4,6.5,6.4h25.1c3.6,0,6.5-2.9,6.5-6.4v-24.6c0-3.5-2.9-6.4-6.5-6.4h-25.1
			C1961.8,1233.2,1958.9,1236,1958.9,1239.6z"/>
		<path fill="#FFFFFF" d="M1958.9,1158v24.6c0,3.5,2.9,6.4,6.5,6.4h25.1c3.6,0,6.5-2.9,6.5-6.4V1158c0-3.5-2.9-6.4-6.5-6.4h-25.1
			C1961.8,1151.6,1958.9,1154.5,1958.9,1158z"/>
		<path fill="#FFFFFF" d="M1958.9,1319.5v24.6c0,3.5,2.9,6.4,6.5,6.4h25.1c3.6,0,6.5-2.9,6.5-6.4v-24.6c0-3.5-2.9-6.4-6.5-6.4h-25.1
			C1961.8,1313.1,1958.9,1316,1958.9,1319.5z"/>
		<path fill="#FFFFFF" d="M1958.9,1399.5v24.6c0,3.5,2.9,6.4,6.5,6.4h25.1c3.6,0,6.5-2.9,6.5-6.4v-24.6c0-3.5-2.9-6.4-6.5-6.4h-25.1
			C1961.8,1393.1,1958.9,1396,1958.9,1399.5z"/>
		<path fill="#FFFFFF" d="M1958.9,1479.5v24.6c0,3.5,2.9,6.4,6.5,6.4h25.1c3.6,0,6.5-2.9,6.5-6.4v-24.6c0-3.5-2.9-6.4-6.5-6.4h-25.1
			C1961.8,1473.1,1958.9,1475.9,1958.9,1479.5z"/>
		<path fill="#FFFFFF" d="M1428.1,1486.1v24.6c0,3.5,2.9,6.4,6.5,6.4h25.1c3.6,0,6.5-2.9,6.5-6.4v-24.6c0-3.5-2.9-6.4-6.5-6.4h-25.1
			C1431.1,1479.7,1428.1,1482.6,1428.1,1486.1z"/>
	</g>
	<g>
		<path fill="#FFFFFF" d="M1958.9,841.1v24.6c0,3.5,2.9,6.4,6.5,6.4h25.1c3.6,0,6.5-2.9,6.5-6.4v-24.6c0-3.5-2.9-6.4-6.5-6.4h-25.1
			C1961.8,834.7,1958.9,837.6,1958.9,841.1z"/>
		<path fill="#FFFFFF" d="M1958.9,921.1v24.6c0,3.5,2.9,6.4,6.5,6.4h25.1c3.6,0,6.5-2.9,6.5-6.4v-24.6c0-3.5-2.9-6.4-6.5-6.4h-25.1
			C1961.8,914.7,1958.9,917.6,1958.9,921.1z"/>
		<path fill="#FFFFFF" d="M1958.9,1001.1v24.6c0,3.5,2.9,6.4,6.5,6.4h25.1c3.6,0,6.5-2.9,6.5-6.4v-24.6c0-3.5-2.9-6.4-6.5-6.4h-25.1
			C1961.8,994.7,1958.9,997.5,1958.9,1001.1z"/>
		<path fill="#FFFFFF" d="M1958.9,1081v24.6c0,3.5,2.9,6.4,6.5,6.4h25.1c3.6,0,6.5-2.9,6.5-6.4V1081c0-3.5-2.9-6.4-6.5-6.4h-25.1
			C1961.8,1074.6,1958.9,1077.5,1958.9,1081z"/>
	</g>
</g>
<g>
	<rect x="1389" y="603.3" fill="#000543" width="530.9" height="418.1"/>
	<g>
		<g>
			<g>
				<path fill="#FFFFFF" d="M1446.5,963.4c-0.6,0-1.1-0.6-1.1-1.3c0-0.7,0.5-1.3,1.1-1.3c0.6,0,1.1,0.6,1.1,1.3
					C1447.6,962.8,1447.1,963.4,1446.5,963.4z"/>
				<path fill="#FFFFFF" d="M1446.4,970c-0.6,0-1.1-0.6-1.1-1.3c0-0.7,0.5-1.3,1.1-1.3c0.6,0,1.1,0.6,1.1,1.3
					C1447.5,969.4,1447,970,1446.4,970z"/>
				<path fill="#FFFFFF" d="M1446.3,976.6c-0.6,0-1.1-0.6-1.1-1.3c0-0.7,0.5-1.3,1.1-1.3c0.6,0,1.1,0.6,1.1,1.3
					C1447.5,976,1446.9,976.6,1446.3,976.6z"/>
				<path fill="#FFFFFF" d="M1446.2,983.2c-0.6,0-1.1-0.6-1.1-1.3c0-0.7,0.5-1.3,1.1-1.3c0.6,0,1.1,0.6,1.1,1.3
					C1447.4,982.7,1446.9,983.2,1446.2,983.2z"/>
				<path fill="#FFFFFF" d="M1446.2,989.9c-0.6,0-1.1-0.6-1.1-1.3c0-0.7,0.5-1.3,1.1-1.3c0.6,0,1.1,0.6,1.1,1.3
					C1447.3,989.3,1446.8,989.9,1446.2,989.9z"/>
				<path fill="#FFFFFF" d="M1446.1,996.5c-0.6,0-1.1-0.6-1.1-1.3c0-0.7,0.5-1.3,1.1-1.3c0.6,0,1.1,0.6,1.1,1.3
					C1447.2,995.9,1446.7,996.5,1446.1,996.5z"/>
			</g>
		</g>
		<polygon fill="#FFFFFF" points="1437,961.4 1419.1,961.3 1419,964.5 1437,964.6 		"/>
		<polygon fill="#FFFFFF" points="1436.9,967.7 1419,967.6 1419,970.8 1436.9,970.9 		"/>
		<polygon fill="#FFFFFF" points="1436.8,980.2 1409.6,980 1409.6,983.2 1436.8,983.3 		"/>
		<polygon fill="#FFFFFF" points="1409.5,991.5 1409.5,994.7 1430.7,994.8 1430.7,991.6 		"/>
		<polygon fill="#FFFFFF" points="1409.9,961.3 1409.8,964.5 1416.2,964.5 1416.2,961.3 		"/>
		<polygon fill="#FFFFFF" points="1409.8,967.5 1409.7,970.7 1416.1,970.8 1416.2,967.6 		"/>
	</g>
	<path fill="#FFFFFF" d="M1896.2,649.5c0-1.2-1-2.1-2.2-2.1c-1.2,0-2.2,1-2.2,2.1c0,0,0,0.1,0,0.1c-0.1,8.5-7.2,15.4-16,15.4
		c-8.9,0-16.1-7-16.2-15.6c0-8.5,7-15.5,15.8-15.6c0.1,0,0.1,0,0.1,0c0,0,0.1,0,0.1,0c1.1-0.1,2-1,2-2.1c0-1.1-0.9-2-2-2.1
		c-0.1,0-0.1,0-0.2,0c-0.1,0-0.3,0-0.4,0c-11,0.3-19.8,9.1-19.7,19.8c0.1,10.9,9.3,19.8,20.6,19.8c11.1,0,20.2-8.7,20.3-19.4
		C1896.1,649.7,1896.2,649.6,1896.2,649.5z"/>
	<ellipse fill="#FFFFFF" cx="1771.2" cy="1007.5" rx="8" ry="7.7"/>
	<g>
		<path fill="#FFFFFF" d="M1896.5,1009.1h-487.1c-0.6,0-1-0.4-1-1c0-0.6,0.4-1,1-1h487.1c0.6,0,1,0.4,1,1
			C1897.5,1008.6,1897.1,1009.1,1896.5,1009.1z"/>
	</g>
</g>
<g>
	<g>
		<g>
			<rect x="1760.2" y="1577.2" fill="#B7ACC1" width="62.7" height="24.2"/>
		</g>
		<g>
			<rect x="1822.9" y="1577.2" fill="#FFFFFF" width="95.9" height="24.2"/>
		</g>
		<g>
			<g>
				<path fill="#907D9E" d="M1832.9,1601.3h-3.3V1588c0-0.9,0.7-1.6,1.6-1.6c0.9,0,1.6,0.7,1.6,1.6V1601.3z"/>
			</g>
			<g>
				<path fill="#907D9E" d="M1840,1601.3h-3.3V1588c0-0.9,0.7-1.6,1.6-1.6c0.9,0,1.6,0.7,1.6,1.6V1601.3z"/>
			</g>
			<g>
				<path fill="#907D9E" d="M1847.2,1601.3h-3.3V1588c0-0.9,0.7-1.6,1.6-1.6s1.6,0.7,1.6,1.6V1601.3z"/>
			</g>
			<g>
				<path fill="#907D9E" d="M1854.3,1601.3h-3.3V1588c0-0.9,0.7-1.6,1.6-1.6s1.6,0.7,1.6,1.6V1601.3z"/>
			</g>
			<g>
				<path fill="#907D9E" d="M1861.4,1601.3h-3.3V1588c0-0.9,0.7-1.6,1.6-1.6c0.9,0,1.6,0.7,1.6,1.6V1601.3z"/>
			</g>
			<g>
				<path fill="#907D9E" d="M1868.5,1601.3h-3.3V1588c0-0.9,0.7-1.6,1.6-1.6s1.6,0.7,1.6,1.6V1601.3z"/>
			</g>
			<g>
				<path fill="#907D9E" d="M1875.6,1601.3h-3.3V1588c0-0.9,0.7-1.6,1.6-1.6s1.6,0.7,1.6,1.6V1601.3z"/>
			</g>
			<g>
				<path fill="#907D9E" d="M1882.8,1601.3h-3.3V1588c0-0.9,0.7-1.6,1.6-1.6s1.6,0.7,1.6,1.6V1601.3z"/>
			</g>
			<g>
				<path fill="#907D9E" d="M1889.9,1601.3h-3.3V1588c0-0.9,0.7-1.6,1.6-1.6s1.6,0.7,1.6,1.6V1601.3z"/>
			</g>
			<g>
				<path fill="#907D9E" d="M1897,1601.3h-3.3V1588c0-0.9,0.7-1.6,1.6-1.6c0.9,0,1.6,0.7,1.6,1.6V1601.3z"/>
			</g>
			<g>
				<path fill="#907D9E" d="M1904.1,1601.3h-3.3V1588c0-0.9,0.7-1.6,1.6-1.6s1.6,0.7,1.6,1.6V1601.3z"/>
			</g>
			<g>
				<path fill="#907D9E" d="M1911.2,1601.3h-3.3V1588c0-0.9,0.7-1.6,1.6-1.6s1.6,0.7,1.6,1.6V1601.3z"/>
			</g>
		</g>
		<g>
			<path fill="#FFFFFF" d="M1795.8,1594.5h-4.3c-1.6,0-2.8-1.3-2.8-2.8c0-1.6,1.3-2.8,2.8-2.8h4.3c1.6,0,2.8,1.3,2.8,2.8
				C1798.6,1593.2,1797.4,1594.5,1795.8,1594.5z"/>
		</g>
		<g>
			<path fill="#6D72A0" d="M1917.5,1580.1h-99l-38.7-170.8h139c5.7,0,11.2,5.4,11.2,10.9l-0.1,147.3
				C1930.1,1574.8,1925,1580.1,1917.5,1580.1z"/>
		</g>
		<g>
			<path fill="#FFFFFF" d="M1768.8,1580.1h46.6c9.5,0,17.3-7.7,17.3-17.3v-136.2c0-9.5-7.7-17.3-17.3-17.3h-46.6
				c-9.5,0-17.3,7.7-17.3,17.3v136.2C1751.5,1572.3,1759.3,1580.1,1768.8,1580.1z"/>
		</g>
		<g>
			<g>
				<path fill="#907D9E" d="M1808.7,1574.6h-5.5c-0.5,0-1-0.4-1-1c0-0.5,0.4-1,0.9-1h5.5c0.5,0,1,0.4,1,1
					C1809.7,1574.1,1809.3,1574.6,1808.7,1574.6z"/>
			</g>
			<g>
				<path fill="#907D9E" d="M1824.1,1572.6h-5.5c-0.1,0-0.1,0-0.2,0c-0.1,0-0.1,0-0.2,0h-5.5c-0.5,0-1,0.4-0.9,1s0.5,1,1,1h5.5
					c0.1,0,0.1,0,0.2,0c0.1,0,0.1,0,0.2,0h5.5c0.5,0,1-0.4,0.9-1C1825.1,1573.1,1824.7,1572.6,1824.1,1572.6z"/>
			</g>
		</g>
		<g>
			<g>
				<g>
					<path fill="#F7665F" d="M1790.6,1466.6c-9.7,0-17.7-9.3-17.7-20.6s7.9-20.6,17.7-20.6s17.7,9.3,17.7,20.6
						S1800.3,1466.6,1790.6,1466.6z M1790.6,1427.3c-8.6,0-15.7,8.4-15.7,18.6c0,10.3,7,18.6,15.7,18.6c8.6,0,15.7-8.4,15.7-18.6
						C1806.2,1435.7,1799.2,1427.3,1790.6,1427.3z"/>
				</g>
			</g>
			<g>
				<g>
					<path fill="#F7665F" d="M1790.6,1515.3c-9.7,0-17.7-9.3-17.7-20.6s7.9-20.6,17.7-20.6s17.7,9.3,17.7,20.6
						S1800.3,1515.3,1790.6,1515.3z M1790.6,1476c-8.6,0-15.7,8.4-15.7,18.6c0,10.3,7,18.6,15.7,18.6c8.6,0,15.7-8.4,15.7-18.6
						C1806.2,1484.4,1799.2,1476,1790.6,1476z"/>
				</g>
			</g>
			<g>
				<g>
					<path fill="#F7665F" d="M1790.6,1564c-9.7,0-17.7-9.3-17.7-20.6c0-11.4,7.9-20.6,17.7-20.6s17.7,9.3,17.7,20.6
						C1808.2,1554.8,1800.3,1564,1790.6,1564z M1790.6,1524.8c-8.6,0-15.7,8.4-15.7,18.6s7,18.6,15.7,18.6c8.6,0,15.7-8.4,15.7-18.6
						S1799.2,1524.8,1790.6,1524.8z"/>
				</g>
			</g>
		</g>
	</g>
	<g>
		<path fill="#6D72A0" d="M1513.2,1486.6c-2.3,4-5.5,7.5-7.4,11.7c-2.8,6.1-2.8,13-4.4,19.5c-1.2,4.9-3.3,9.5-4.6,14.3
			c-1.3,4.8-1.7,10.2,0.3,14.8c16.7-29.8,26.8-62.9,42.6-93.2c2.6-4.9,5.3-9.7,7.9-14.5c2.8-5.1,4.6-12.4-2.5-15
			c-4.5-1.6-7.3,2.2-9.5,5.6c-7.2,11-13.9,21.9-16.3,35C1517.9,1472.2,1516.9,1480,1513.2,1486.6z"/>
		<path fill="#6D72A0" d="M1634,1434.9c1.4,0.5,2.9,1,3.9,2.1c1.3,1.7,1.1,4.2,0.1,6.1s-2.6,3.4-3.8,5.2c-3.4,4.9-3.9,11.3-3.7,17.3
			c0.2,6,1,12-0.2,17.9c-1.3,6.2-4.8,11.8-7.3,17.6c-2.5,5.8-3.9,11.9-4.4,18.1c-0.4,5.1-0.1,10.2-0.5,15.2
			c-0.7,7.4-3.1,15.3-0.1,22.1c13.4-37.2,25.2-74.9,36.9-112.6c1.3-4.3,2.7-8.8,1.6-13.2c-1.8-7.6-10.1-11.8-17.8-13.1
			c-4.6-0.8-9.6-0.8-13.6,1.6c-2.9,1.7-7.2,7.4-4.5,10.9C1622.5,1433,1630.8,1433.9,1634,1434.9z"/>
		<polygon fill="#FF9985" points="1635.4,1543.8 1624.2,1584.4 1642.9,1585.9 1657.5,1543 		"/>
		<g>
			<g>
				<path fill="#F7665F" d="M1668.8,1586.3l-22.5-8.4l-20.1,0.4c-2.4,0-4.4,2.3-4.4,5.1l-0.2,12.3l51.7,0.5
					C1675.5,1592.8,1674.3,1588.4,1668.8,1586.3z"/>
				<path fill="#000543" d="M1621.6,1595.7l-0.5,2.3c-0.3,1.4,1.1,2.7,3.1,2.7l40.2-0.2c4.4,0,7.5-1.9,9-4.2L1621.6,1595.7z"/>
				<path fill="#000543" d="M1647.9,1584.9l-1.5-0.5c-0.3-0.1-0.5-0.5-0.4-0.8l1.9-7.7c0.1-0.4,0.4-0.6,0.7-0.5l1.5,0.5
					c0.3,0.1,0.5,0.5,0.4,0.8l-1.9,7.7C1648.5,1584.8,1648.2,1585,1647.9,1584.9z"/>
				<path fill="#000543" d="M1653.8,1586.7l-1.5-0.5c-0.3-0.1-0.5-0.5-0.4-0.8l1.9-7.7c0.1-0.4,0.4-0.6,0.7-0.5l1.5,0.5
					c0.3,0.1,0.5,0.5,0.4,0.8l-1.9,7.7C1654.4,1586.6,1654.1,1586.8,1653.8,1586.7z"/>
				<path fill="#000543" d="M1659.4,1588.8l-1.5-0.5c-0.3-0.1-0.5-0.5-0.4-0.8l1.9-7.7c0.1-0.4,0.4-0.6,0.7-0.5l1.5,0.5
					c0.3,0.1,0.5,0.5,0.4,0.8l-1.9,7.7C1660.1,1588.7,1659.8,1588.9,1659.4,1588.8z"/>
			</g>
			<path fill="#000543" d="M1633.6,1594.7l-8,0.1c-0.2,0-0.3-0.1-0.3-0.3l0-2.3c0-0.2,0.1-0.3,0.3-0.3l8-0.1c0.2,0,0.3,0.1,0.3,0.3
				l0,2.3C1633.9,1594.6,1633.8,1594.7,1633.6,1594.7z"/>
		</g>
		<g>
			<g>
				<path fill="#12040B" d="M1767.7,1187.8l-20.3,95.6h-12.8l18-84.6C1753.9,1192.7,1760.7,1187.8,1767.7,1187.8z"/>
				<polygon fill="#321224" points="1734.6,1283.4 1755.4,1185.7 1642.8,1185.7 1622.1,1283.4 				"/>
			</g>
			<path fill="#26182D" d="M1547.3,1256.7h318.8c5.8,0,11.3-4.1,12.4-9l42.5-200c1.1-5-2.8-9-8.5-9h-318.8c-5.8,0-11.3,4.1-12.4,9
				l-42.5,200C1537.7,1252.6,1541.5,1256.7,1547.3,1256.7z"/>
			<path fill="#452A51" d="M1531.1,1256.7h318.8c5.8,0,11.3-4.1,12.4-9l42.5-200c1.1-5-2.8-9-8.5-9h-318.8c-5.8,0-11.3,4.1-12.4,9
				l-42.5,200C1521.5,1252.6,1525.3,1256.7,1531.1,1256.7z"/>
			<path fill="#D7E1FC" d="M1890.2,1047.5h-66.1h-63.9h-21.1h-122.6h-35.3c-3.9,0-7.6,2.7-8.3,6l-19.8,93l-5.8,27.1l-10.4,49
				l-2.7,12.7c-0.7,3.3,1.9,6,5.8,6h157.9h6.7h29.4h115c3.9,0,7.6-2.7,8.3-6l10.5-49.6l4-19l4.3-20.2l19.8-93
				C1896.7,1050.2,1894.1,1047.5,1890.2,1047.5z"/>
		</g>
		<polygon fill="#FF9985" points="1508.7,1541.2 1496.2,1580.6 1514.7,1584.4 1530.8,1543.2 		"/>
		<path fill="#FF9985" d="M1725.3,1282.5h32.3c-6-14.7-26.3-13.6-26.3-13.6L1725.3,1282.5z"/>
		<g>
			<path fill="#FF9985" d="M1563.5,1147.3c11.7-3.1,20.3-12,23.2-23.6c0.2-0.2,0.3-0.4,0.4-0.7c-1.7-1.5-2.9-3.9-3.3-6.6
				c-0.7-5,1.6-9.4,5.3-9.7c1.4-0.1,2.7,0.4,4,1.2c0.8,0.6,1.6,1.5,2.2,2.5c0.8-0.2,0.9-2.6,0.9-3.2c0-1.5-0.2-3-0.2-4.5
				c0-2.2,1.1-4.9,2.3-7.5l3,23.2c0.8,8.1-2.8,15.6-8.3,21c-2.6,2.5-5.7,4.5-8.9,5.9c-1.5,3.3-2.8,6.6-3.8,10.1
				c-0.9,3.4-2.7,8.2-5.9,12.2c-1.1,1.4-2-1.5-3.9-1.3c-11.3,1.3-24.3-1.1-24.4-2.8c0-0.5,4.3-6.1,4.7-6.5c2.2-2.9,4.9-8.5,5.8-11.9
				C1558.8,1146.2,1560.3,1148.1,1563.5,1147.3z"/>
			<path fill="#000543" d="M1539.9,1128.4c0.1,0.4,0.3,0.8,0.4,1.2c0.6,4.1-1.2,8.9,1.5,12.1c1.7,2,4.6,2.4,7.2,2.4
				c2.6,0,5.3-0.2,7.7,1c0,0,0.1,0,0.1,0.1c1.3,0.6,2.4,1.7,3.8,2.1c1,0.3,2,0.3,3,0.1c0,0,0.1,0,0.1,0c0.3-0.1,0.6-0.2,0.9-0.3
				c15.8-4.8,20.8-17.6,22.2-23.3c0.2-0.2,0.3-0.4,0.4-0.7c-1.7-1.5-2.9-3.9-3.3-6.6c-0.7-5,1.6-9.4,5.3-9.7c1.4-0.1,2.7,0.4,4,1.2
				c0.8,0.6,1.6,1.5,2.2,2.5c0.8-0.2,0.9-2.6,0.9-3.2c0-1.5-0.2-3-0.2-4.5c0-2.2,1.1-4.9,2.3-7.5c1-2.2,2-4.4,2.4-6.2
				c1.1-5.2,0.1-12.9-2.8-17.4c-3-4.5-9.8-3.5-15.1-4.2c-1.9-0.3-3.9-0.2-5.6-1c-1.5-0.7-2.7-2-4.2-2.9c-2.8-1.7-6.4-1.6-9.6-0.7
				c-0.2,0-0.3,0.1-0.4,0.2c-3,1-5.7,2.6-8.5,4c-4.5,2.3-9.3,4-13.2,7.1c-1.5,1.2-2.9,2.6-4,4.2c-1.6,2.2-2.6,4.8-2.5,7.4
				c-0.6,0.5-1.1,1-1.6,1.5c-3,3.3-4.8,7.6-5.2,12c-0.1,0.9-0.1,1.8-0.1,2.8c0.2,6.1,2.8,12.1,6.4,17.1
				C1536.4,1122.1,1539,1125,1539.9,1128.4L1539.9,1128.4z"/>
		</g>
		<path fill="#FFFFFF" d="M1602.2,1254.9c0,0-27.5-31.2-33.1-44.5c0,0-7.4-17.8-7.4-17.8c-11-26,36.9-25.4,48,0.7
			c5.1,12.2,12.2,25.1,19.3,35.7l0.2-0.2l4.1,4.4c17.9,19.2,64.9,23.5,93.7,25.4c3.5,0.2,6.1,3.3,5.8,6.9l-1.1,11.4
			c-0.3,3.3-3.2,5.7-6.4,5.7C1624.5,1279.9,1621.1,1269.9,1602.2,1254.9z"/>
		<rect x="1381.1" y="1282.4" fill="#C2D1F2" width="483.3" height="17.2"/>
		<path fill="#6D72A0" d="M1557.4,1374.6l1.6,6.5c-2.7,12.4-12.3,34.3-23.3,59.5c-12.3,28.1-27.6,63.1-38.9,97.5
			c-1.3,3.9-0.7,8.1,1.5,11.5c2.2,3.4,5.7,5.6,9.7,6.1c0.1,0,0.1,0,0.2,0l25.3,2.7c5.8,0.6,11.3-2.5,13.7-7.9
			c19.8-43.5,35.8-74.2,48.7-98.8c11.1-21.2,19.1-36.5,24.1-49.9l1.3-3.4L1557.4,1374.6z"/>
		<path fill="#6D72A0" d="M1691,1371.1l-1.7,3.3l1.4-3.4c-52.4-23.7-139.9-15.8-175.2-11.4l-4,0.5l0.1,0.4c-4.4,0.7-12.8,1.7-21,2.2
			l-6.7,77.7c12.8-0.7,28.3-2.6,45.5-4.7c33.5-4.1,74.4-9.2,109.3-6.1c3.3,0.3,5.5,3.4,4.6,6.6c-1.2,4.5-2.5,9.3-3.8,14.1
			c-7.9,29.1-17.6,65.3-23.4,100c-0.5,2.9,0.3,5.8,2.1,7.9c1.8,2.1,4.4,3.3,7.3,3.3c0.1,0,0.2,0,0.3,0l26-0.9
			c4.9-0.1,9.9-3.6,11.2-8.4c16.7-58.9,35.5-110.2,44.2-135.6C1713.8,1397.8,1708.4,1378.6,1691,1371.1z"/>
		<g>
			<path fill="#FFFFFF" d="M1610.4,1219.5c4.2-11-2-44.7-21.1-52.8c-15.5-6.6-62.4-10.4-78.5,3.7c-30,26.5-28.8,42.6-47.2,73.3
				c-28.1,47.8-5.1,51.3-64.8,139.7c-2.5,3.6-6.3,12.5-4.8,15c7.5,12.5,24.9,12.9,43.2,13.3c17.1,0.4,89.8-16.6,89.8-16.6
				c15.7-3.5,31.3-14.9,37-26.9c6.4-13.5,12.4-28.1,11.5-36.7C1566.5,1243.2,1592.9,1265.3,1610.4,1219.5z"/>
		</g>
		<g>
			<path fill="#C2D1F2" d="M1725.3,1283.5c-88.2-2.3-102.1-10.2-117.6-23c-4.3-3.5-8.2-7.4-11.6-11.4c-4.6-5.4-11.3-13.6-17.1-21.4
				l1.5-1.1c5.7,7.7,12.4,15.8,17,21.3c3.3,3.9,7.2,7.7,11.4,11.2c15.2,12.5,28.9,20.2,116.5,22.5L1725.3,1283.5z"/>
		</g>
		<rect x="1786.5" y="1282.4" fill="#FFFFFF" width="242.6" height="17.2"/>
		<g>
			<g>
				<path fill="#F7665F" d="M1537.5,1586.7l-22.4-8.7l-20.1,0.1c-2.4,0-4.4,2.3-4.5,5.1l-0.4,12.3l51.7,1.1
					C1544,1593.3,1542.9,1588.9,1537.5,1586.7z"/>
				<path fill="#000543" d="M1490.1,1595.6l-0.6,2.3c-0.3,1.4,1.1,2.7,3,2.7l40.2,0.2c4.4,0,7.5-1.8,9.1-4.1L1490.1,1595.6z"/>
				<path fill="#000543" d="M1516.5,1585.1l-1.5-0.5c-0.3-0.1-0.5-0.5-0.4-0.8l2-7.7c0.1-0.4,0.4-0.6,0.7-0.5l1.5,0.5
					c0.3,0.1,0.5,0.5,0.4,0.8l-2,7.7C1517.2,1585,1516.8,1585.2,1516.5,1585.1z"/>
				<path fill="#000543" d="M1522.4,1587l-1.5-0.5c-0.3-0.1-0.5-0.5-0.4-0.8l2-7.7c0.1-0.4,0.4-0.6,0.7-0.5l1.5,0.5
					c0.3,0.1,0.5,0.5,0.4,0.8l-2,7.7C1523.1,1586.9,1522.7,1587.1,1522.4,1587z"/>
				<path fill="#000543" d="M1528,1589.1l-1.5-0.5c-0.3-0.1-0.5-0.5-0.4-0.8l2-7.7c0.1-0.4,0.4-0.6,0.7-0.5l1.5,0.5
					c0.3,0.1,0.5,0.5,0.4,0.8l-2,7.7C1528.7,1589,1528.3,1589.2,1528,1589.1z"/>
			</g>
			<path fill="#000543" d="M1502.2,1594.7l-8,0.1c-0.2,0-0.3-0.1-0.3-0.3l0-2.3c0-0.2,0.1-0.3,0.3-0.3l8-0.1c0.2,0,0.3,0.1,0.3,0.3
				l0,2.3C1502.4,1594.6,1502.3,1594.7,1502.2,1594.7z"/>
		</g>
		<g>
			<path fill="#EEF3FF" d="M1841.9,1236.3c-3,0-5.6-1.2-7.4-3.3c-1.8-2.2-2.4-5.1-1.8-8.1c1.2-6.1,7.2-11,13.3-11
				c3,0,5.6,1.2,7.4,3.3c1.8,2.2,2.4,5.1,1.8,8.1c-0.1,0.5-0.6,0.9-1.2,0.8c-0.5-0.1-0.9-0.6-0.8-1.2c0.5-2.5,0-4.8-1.4-6.5
				c-1.4-1.7-3.4-2.6-5.8-2.6c-5.2,0-10.3,4.2-11.3,9.4c-0.5,2.5,0,4.8,1.4,6.5c1.4,1.7,3.4,2.6,5.8,2.6c1.7,0,3.4-0.5,5.1-1.3
				c0.5-0.3,1.1-0.1,1.4,0.4c0.3,0.5,0.1,1.1-0.4,1.4C1846,1235.8,1843.9,1236.3,1841.9,1236.3z"/>
		</g>
		<g>
			<ellipse fill="#C2D1F2" cx="1589.8" cy="1115.8" rx="9.5" ry="14.6"/>
			<rect x="1589.4" y="1101.3" fill="#C2D1F2" width="6.7" height="3.3"/>
			<rect x="1589.4" y="1127.2" fill="#C2D1F2" width="6.7" height="3.3"/>
			<ellipse fill="#FFFFFF" cx="1595.7" cy="1115.8" rx="9.5" ry="14.6"/>
		</g>
		<g>
			<path fill="#FFFFFF" d="M1598.2,1110.6c0,0-0.1,0-0.1,0c-0.8-0.1-1.4-0.8-1.4-1.6c2.7-32.3-18-40.4-18.9-40.7
				c-0.8-0.3-1.2-1.2-0.9-1.9c0.3-0.8,1.1-1.2,1.9-0.9c0.2,0.1,23.7,9.1,20.9,43.8C1599.7,1110,1599,1110.6,1598.2,1110.6z"/>
		</g>
		<g>
			<path fill="#C2D1F2" d="M1755.7,1588.8c-9.1,0-18.2-0.6-27.1-3c-15.5-4.2-27.8-13.9-32.8-26c-3.7-8.8-4.2-19.6-1.4-32.9
				c4.4-21.2,14.3-41.2,23.9-60.6c12.1-24.4,24.6-49.6,25.4-76.8c0.3-11.6-1.7-21.3-6-28.9c-6.6-11.6-19.4-20.3-38.3-25.8
				c-5.5-1.6-11.3-3-16.8-4.3c-10-2.3-20.4-4.8-30-9c-30.3-13.3-53.3-45.1-61.5-85c-7.3-35.7-3.1-72.2,1.1-107.6l3,0.3
				c-4.1,35.1-8.3,71.4-1.1,106.6c8,38.9,30.3,69.9,59.8,82.8c9.4,4.1,19.6,6.5,29.5,8.8c5.6,1.3,11.4,2.7,17,4.3
				c19.6,5.8,33.1,14.9,40,27.2c4.6,8.1,6.7,18.3,6.4,30.5c-0.8,27.9-13.5,53.4-25.7,78.1c-9.5,19.2-19.3,39-23.7,59.8
				c-2.6,12.8-2.2,23,1.2,31.2c4.7,11.2,16.3,20.3,30.9,24.2c13.4,3.6,27.6,3.1,41.3,2.5l0.1,3
				C1765.8,1588.6,1760.8,1588.8,1755.7,1588.8z"/>
		</g>
		<path fill="#C2D1F2" d="M1773.7,1590.3h-4.8c-1.7,0-3.1-1.4-3.1-3.1c0-1.7,1.4-3.2,3.1-3.2h4.8c1.7,0,3.1,1.4,3.1,3.1
			C1776.8,1588.9,1775.4,1590.3,1773.7,1590.3z"/>
		<g>
			<g>
				<g>
					<g>
						<rect x="1497" y="1517.2" fill="#000543" width="11.3" height="61.3"/>
					</g>
					<g>
						<path fill="#FFFFFF" d="M1510.9,1530.9h-16.4c-3,0-5.4-2.4-5.4-5.4v-85.8h27.1v85.8
							C1516.3,1528.5,1513.9,1530.9,1510.9,1530.9z"/>
					</g>
					<path fill="#FFC179" d="M1546.1,1426.6h-86.7c-4.8,0-8.7,3.9-8.7,8.7c0,4.8,3.9,8.7,8.7,8.7h86.7c4.8,0,8.7-3.9,8.7-8.7
						C1554.8,1430.5,1550.8,1426.6,1546.1,1426.6z"/>
					<g>
						<path fill="#000543" d="M1591.7,1593.2c-1.4,0-2.5-1.1-2.5-2.5c0-5.5-4.4-9.9-9.9-9.9h-153.2c-5.5,0-9.9,4.4-9.9,9.9
							c0,1.4-1.1,2.5-2.5,2.5s-2.5-1.1-2.5-2.5c0-8.2,6.7-14.8,14.8-14.8h153.2c8.2,0,14.8,6.7,14.8,14.8
							C1594.2,1592.1,1593.1,1593.2,1591.7,1593.2z"/>
					</g>
				</g>
				<g>
					
						<ellipse transform="matrix(0.7071 -0.7071 0.7071 0.7071 -659.3268 1591.653)" fill="#FFFFFF" cx="1591.6" cy="1591.7" rx="8.5" ry="8.5"/>
				</g>
				<g>
					
						<ellipse transform="matrix(0.7071 -0.7071 0.7071 0.7071 -711.4355 1465.8512)" fill="#FFFFFF" cx="1413.7" cy="1591.7" rx="8.5" ry="8.5"/>
				</g>
			</g>
			<g>
				<g>
					<path fill="#FFE578" d="M1393.3,1410.9l-24.5-204c-1.5-12.8,6.9-23.2,18.6-23.2h115.5c11.7,0,22.5,10.5,24,23.2l23.7,204
						H1393.3z"/>
					<path fill="#FFC179" d="M1383.3,1410.9l-21.9-204c-1.4-12.8,6.3-23.2,17.1-23.2h106.5c10.8,0,20.8,10.5,22.1,23.2l21.9,204
						H1383.3z"/>
					<path fill="#FFC179" d="M1382.9,1409.5v10.1c0,7.5,6.1,13.6,13.6,13.6H1601c8.3,0,15-2.7,14.9-11v-2.7c0-4.8-3.9-10-8.7-10
						H1382.9z"/>
				</g>
			</g>
			<g>
				<path fill="#FFC179" d="M1590.5,1326h-57.1c-5,0-9-4.1-9-9v-3.5c0-5,4.1-9,9-9h57.1c5,0,9,4.1,9,9v3.5
					C1599.6,1321.9,1595.5,1326,1590.5,1326z"/>
				<path fill="#FFE578" d="M1608.1,1326h-58c-4.7,0-8.6-3.9-8.6-8.6v-4.4c0-4.7,3.9-8.6,8.6-8.6h58c4.7,0,8.6,3.9,8.6,8.6v4.4
					C1616.7,1322.1,1612.8,1326,1608.1,1326z"/>
			</g>
			<path fill="#FFC179" d="M1631,1433.2h-33.5c-1.7,0-3.2-1.4-3.2-3.2v-17.3c0-1.7,1.4-3.2,3.2-3.2h33.5c6.5,0,11.8,5.3,11.8,11.8
				v0.1C1642.8,1427.9,1637.5,1433.2,1631,1433.2z"/>
		</g>
	</g>
</g>
<g>
	<g>
		<path fill="#6D72A0" d="M1814,1205.4l-167.3-1.4c-2.5,0-4.7-1.1-6.1-3c-1.5-2-2-4.9-1.4-7.8l23-109.9c1.2-5.9,6.6-10.6,12-10.6
			l167.3,1.4c2.5,0,4.7,1.1,6.1,3c1.5,2,2,4.9,1.4,7.8l-23,109.9C1824.8,1200.7,1819.4,1205.5,1814,1205.4z"/>
	</g>
</g>
<g>
	<g>
		<path fill="#FFFFFF" d="M1611.2,898c-4.5-0.1-8.9-1.3-12.9-3.7c-7.3-4.4-11.6-12.1-11.5-20.4l1.5-115c0.1-8.1,4.4-15.6,11.6-19.9
			c7.6-4.5,16.8-4.8,24.7-0.7l108.7,56.5c8.1,4.2,12.9,12,13,20.8c0,8.8-4.7,16.6-12.7,20.9L1623.4,895
			C1619.5,897,1615.3,898,1611.2,898z"/>
	</g>
</g>
<g>
	<g>
		<path fill="#D7E1FC" d="M1770.9,1090.8h6.2c0.9,0,1.8-0.7,2-1.6l1.3-6.3c0.2-0.9-0.4-1.6-1.3-1.6h-6.2c-0.9,0-1.8,0.7-2,1.6
			l-1.3,6.3C1769.4,1090.1,1770,1090.8,1770.9,1090.8z"/>
		<path fill="#D7E1FC" d="M1750.4,1090.8h6.2c0.9,0,1.8-0.7,2-1.6l1.3-6.3c0.2-0.9-0.4-1.6-1.3-1.6h-6.2c-0.9,0-1.8,0.7-2,1.6
			l-1.3,6.3C1749,1090.1,1749.6,1090.8,1750.4,1090.8z"/>
		<path fill="#D7E1FC" d="M1790.9,1090.8h6.2c0.9,0,1.8-0.7,2-1.6l1.3-6.3c0.2-0.9-0.4-1.6-1.3-1.6h-6.2c-0.9,0-1.8,0.7-2,1.6
			l-1.3,6.3C1789.5,1090.1,1790,1090.8,1790.9,1090.8z"/>
		<path fill="#D7E1FC" d="M1811,1090.8h6.2c0.9,0,1.8-0.7,2-1.6l1.3-6.3c0.2-0.9-0.4-1.6-1.3-1.6h-6.2c-0.9,0-1.8,0.7-2,1.6
			l-1.3,6.3C1809.5,1090.1,1810.1,1090.8,1811,1090.8z"/>
		<path fill="#D7E1FC" d="M1831,1090.8h6.2c0.9,0,1.8-0.7,2-1.6l1.3-6.3c0.2-0.9-0.4-1.6-1.3-1.6h-6.2c-0.9,0-1.8,0.7-2,1.6
			l-1.3,6.3C1829.6,1090.1,1830.1,1090.8,1831,1090.8z"/>
	</g>
	<g>
		<path fill="#D7E1FC" d="M1671,1090.8h6.2c0.9,0,1.8-0.7,2-1.6l1.3-6.3c0.2-0.9-0.4-1.6-1.3-1.6h-6.2c-0.9,0-1.8,0.7-2,1.6
			l-1.3,6.3C1669.6,1090.1,1670.1,1090.8,1671,1090.8z"/>
		<path fill="#D7E1FC" d="M1691,1090.8h6.2c0.9,0,1.8-0.7,2-1.6l1.3-6.3c0.2-0.9-0.4-1.6-1.3-1.6h-6.2c-0.9,0-1.8,0.7-2,1.6
			l-1.3,6.3C1689.6,1090.1,1690.2,1090.8,1691,1090.8z"/>
		<path fill="#D7E1FC" d="M1711.1,1090.8h6.2c0.9,0,1.8-0.7,2-1.6l1.3-6.3c0.2-0.9-0.4-1.6-1.3-1.6h-6.2c-0.9,0-1.8,0.7-2,1.6
			l-1.3,6.3C1709.6,1090.1,1710.2,1090.8,1711.1,1090.8z"/>
		<path fill="#D7E1FC" d="M1731.1,1090.8h6.2c0.9,0,1.8-0.7,2-1.6l1.3-6.3c0.2-0.9-0.4-1.6-1.3-1.6h-6.2c-0.9,0-1.8,0.7-2,1.6
			l-1.3,6.3C1729.7,1090.1,1730.3,1090.8,1731.1,1090.8z"/>
	</g>
</g>
<g>
	<g>
		<path fill="#D7E1FC" d="M1748.6,1197h6.2c0.9,0,1.8-0.7,2-1.6l1.3-6.3c0.2-0.9-0.4-1.6-1.3-1.6h-6.2c-0.9,0-1.8,0.7-2,1.6
			l-1.3,6.3C1747.2,1196.3,1747.7,1197,1748.6,1197z"/>
		<path fill="#D7E1FC" d="M1728.2,1197h6.2c0.9,0,1.8-0.7,2-1.6l1.3-6.3c0.2-0.9-0.4-1.6-1.3-1.6h-6.2c-0.9,0-1.8,0.7-2,1.6
			l-1.3,6.3C1726.7,1196.3,1727.3,1197,1728.2,1197z"/>
		<path fill="#D7E1FC" d="M1768.7,1197h6.2c0.9,0,1.8-0.7,2-1.6l1.3-6.3c0.2-0.9-0.4-1.6-1.3-1.6h-6.2c-0.9,0-1.8,0.7-2,1.6
			l-1.3,6.3C1767.2,1196.3,1767.8,1197,1768.7,1197z"/>
		<path fill="#D7E1FC" d="M1788.7,1197h6.2c0.9,0,1.8-0.7,2-1.6l1.3-6.3c0.2-0.9-0.4-1.6-1.3-1.6h-6.2c-0.9,0-1.8,0.7-2,1.6
			l-1.3,6.3C1787.3,1196.3,1787.8,1197,1788.7,1197z"/>
		<path fill="#D7E1FC" d="M1808.8,1197h6.2c0.9,0,1.8-0.7,2-1.6l1.3-6.3c0.2-0.9-0.4-1.6-1.3-1.6h-6.2c-0.9,0-1.8,0.7-2,1.6
			l-1.3,6.3C1807.3,1196.3,1807.9,1197,1808.8,1197z"/>
	</g>
	<g>
		<path fill="#D7E1FC" d="M1648.7,1197h6.2c0.9,0,1.8-0.7,2-1.6l1.3-6.3c0.2-0.9-0.4-1.6-1.3-1.6h-6.2c-0.9,0-1.8,0.7-2,1.6
			l-1.3,6.3C1647.3,1196.3,1647.8,1197,1648.7,1197z"/>
		<path fill="#D7E1FC" d="M1668.8,1197h6.2c0.9,0,1.8-0.7,2-1.6l1.3-6.3c0.2-0.9-0.4-1.6-1.3-1.6h-6.2c-0.9,0-1.8,0.7-2,1.6
			l-1.3,6.3C1667.3,1196.3,1667.9,1197,1668.8,1197z"/>
		<path fill="#D7E1FC" d="M1688.8,1197h6.2c0.9,0,1.8-0.7,2-1.6l1.3-6.3c0.2-0.9-0.4-1.6-1.3-1.6h-6.2c-0.9,0-1.8,0.7-2,1.6
			l-1.3,6.3C1687.4,1196.3,1687.9,1197,1688.8,1197z"/>
		<path fill="#D7E1FC" d="M1708.9,1197h6.2c0.9,0,1.8-0.7,2-1.6l1.3-6.3c0.2-0.9-0.4-1.6-1.3-1.6h-6.2c-0.9,0-1.8,0.7-2,1.6
			l-1.3,6.3C1707.4,1196.3,1708,1197,1708.9,1197z"/>
	</g>
</g>
</svg>
